<?xml version="1.0" encoding="utf-8"?>
<!-- Generator: Adobe Illustrator 22.0.0, SVG Export Plug-In . SVG Version: 6.00 Build 0)  -->
<svg version="1.1" id="Layer_1" xmlns="http://www.w3.org/2000/svg" xmlns:xlink="http://www.w3.org/1999/xlink" x="0px" y="0px"
	 viewBox="0 0 520 520" style="enable-background:new 0 0 520 520;" xml:space="preserve">
<style type="text/css">
	.st0{fill:#FFFFFF;}
	.st1{fill:#173557;}
	.st2{fill:#1881C4;}
</style>
<g>
	<rect class="st0" width="520" height="520"/>
</g>
<g>
	<path class="st1" d="M130.6,268.9v-34.3h5.6V264h14.7v4.8H130.6z"/>
	<path class="st1" d="M176.8,255.8c0,4.2-1,7.6-3.2,10s-5.2,3.6-9,3.6c-2.4,0-4.6-0.6-6.4-1.6s-3.2-2.6-4.2-4.8
		c-1-2.2-1.6-4.4-1.6-7.2c0-4.2,1-7.4,3.2-9.8c2.2-2.4,5.2-3.6,9.2-3.6c3.8,0,6.8,1.2,9,3.6C176,248.4,176.8,251.8,176.8,255.8z
		 M157.9,255.8c0,6,2.2,9,6.6,9s6.6-3,6.6-9c0-6-2.2-8.8-6.6-8.8c-2.4,0-4,0.8-5,2.2C158.5,250.6,157.9,253,157.9,255.8z"/>
	<path class="st1" d="M203.9,255.8c0,4.2-1,7.6-3.2,10s-5.2,3.6-9,3.6c-2.4,0-4.6-0.6-6.4-1.6s-3.2-2.6-4.2-4.8s-1.6-4.4-1.6-7.2
		c0-4.2,1-7.4,3.2-9.8c2.2-2.4,5.2-3.6,9.2-3.6c3.8,0,6.8,1.2,9,3.6C203.1,248.4,203.9,251.8,203.9,255.8z M185,255.8
		c0,6,2.2,9,6.6,9c4.4,0,6.6-3,6.6-9c0-6-2.2-8.8-6.6-8.8c-2.4,0-4,0.8-5,2.2C185.4,250.8,185,253,185,255.8z"/>
	<path class="st1" d="M221,269.3c-3.2,0-5.8-1.2-7.6-3.6h-0.4c0.2,2.2,0.4,3.6,0.4,4v10.6h-5.6V243h4.4c0.2,0.4,0.4,1.6,0.8,3.4h0.2
		c1.8-2.6,4.2-4,7.8-4c3.2,0,5.8,1.2,7.6,3.6c1.8,2.4,2.8,5.6,2.8,9.8c0,4.2-1,7.6-2.8,10S224.4,269.3,221,269.3z M219.8,247
		c-2.2,0-3.8,0.6-4.8,2c-1,1.4-1.6,3.4-1.6,6.2v0.8c0,3.2,0.4,5.4,1.6,6.8c1.2,1.4,2.6,2.2,4.8,2.2c2,0,3.4-0.8,4.4-2.4
		c1-1.6,1.6-3.8,1.6-6.6c0-3-0.6-5.2-1.6-6.6C223.2,248,221.8,247,219.8,247z"/>
	<path class="st1" d="M245,264.8c1.4,0,2.6-0.2,4-0.6v4.2c-0.6,0.2-1.4,0.4-2.4,0.6s-2,0.2-3,0.2c-5.2,0-7.8-2.8-7.8-8.2V247h-3.6
		v-2.4l3.8-2l1.8-5.4h3.4v5.8h7.4v4.2h-7.4V261c0,1.4,0.4,2.4,1,3C242.8,264.6,244,264.8,245,264.8z"/>
	<path class="st1" d="M251.7,235.9c0-1,0.2-1.8,0.8-2.2c0.6-0.4,1.4-0.8,2.4-0.8c1,0,1.8,0.2,2.2,0.8s0.8,1.2,0.8,2.2
		c0,1-0.2,1.6-0.8,2.2s-1.2,0.8-2.2,0.8c-1,0-1.8-0.2-2.4-0.8C251.9,237.7,251.7,236.9,251.7,235.9z M257.5,268.9h-5.6v-26.1h5.6
		V268.9z"/>
	<path class="st1" d="M260.3,280.5c-1.6,0-3-0.2-4.2-0.6v-4.4c1,0.2,2.2,0.4,3.2,0.4c2.4,0,3.6-1.4,3.6-4V243h5.6v29.3
		c0,2.6-0.6,4.6-2,6C265.1,279.7,262.9,280.5,260.3,280.5z M262.7,235.9c0-1,0.2-1.8,0.8-2.2c0.6-0.4,1.4-0.8,2.4-0.8
		s1.8,0.2,2.2,0.8s0.8,1.2,0.8,2.2c0,1-0.2,1.6-0.8,2.2c-0.6,0.6-1.2,0.8-2.2,0.8s-1.8-0.2-2.4-0.8
		C262.9,237.7,262.7,236.9,262.7,235.9z"/>
	<path class="st1" d="M282.8,269.3c-3.2,0-5.8-1.2-7.6-3.6s-2.8-5.6-2.8-9.8c0-4.2,1-7.6,2.8-10s4.4-3.6,7.6-3.6
		c3.4,0,6,1.2,7.8,3.8h0.2c-0.2-1.8-0.4-3.4-0.4-4.4v-9.2h5.6v36.5h-4.4l-1-3.4h-0.2C288.8,268.1,286.2,269.3,282.8,269.3z
		 M284.2,264.8c2.2,0,4-0.6,5-2c1-1.4,1.6-3.4,1.6-6.2v-0.8c0-3.2-0.6-5.6-1.6-7c-1-1.4-2.8-2-5-2c-2,0-3.4,0.8-4.4,2.4
		c-1,1.6-1.6,3.8-1.6,6.8c0,2.8,0.6,5,1.6,6.6C280.8,264.2,282.2,264.8,284.2,264.8z"/>
	<path class="st1" d="M314.9,242.4c1.2,0,2,0,2.8,0.2l-0.6,5.2c-0.8-0.2-1.6-0.2-2.4-0.2c-2.2,0-4,0.8-5.4,2.2c-1.4,1.4-2,3.4-2,5.6
		v13.7h-5.6V243h4.4l0.8,4.6h0.2c0.8-1.6,2-2.8,3.4-3.6C311.9,243.2,313.3,242.4,314.9,242.4z"/>
	<path class="st1" d="M331.4,269.3c-4,0-7.2-1.2-9.4-3.6c-2.2-2.4-3.4-5.6-3.4-9.8c0-4.2,1-7.6,3.2-10c2.2-2.4,5-3.6,8.6-3.6
		c3.4,0,6.2,1,8.2,3.2c2,2.2,3,5,3,8.6v3h-17.5c0,2.6,0.8,4.4,2,5.8c1.2,1.4,3,2,5.4,2c1.6,0,3-0.2,4.2-0.4c1.2-0.2,2.8-0.8,4.2-1.4
		v4.4c-1.4,0.6-2.8,1-4,1.4C334.8,269.3,333.2,269.3,331.4,269.3z M330.4,246.6c-1.8,0-3.2,0.6-4.2,1.6s-1.6,2.8-1.8,4.8h11.8
		c0-2.2-0.6-3.8-1.6-4.8C333.6,247.2,332.2,246.6,330.4,246.6z"/>
	<path class="st1" d="M368.3,268.9h-5.6v-16.1c0-2-0.4-3.4-1.2-4.4c-0.8-1-2-1.4-3.8-1.4c-2.4,0-4,0.6-5.2,2c-1.2,1.4-1.6,3.6-1.6,7
		v13h-5.6V243h4.4l0.8,3.4h0.2c0.8-1.2,1.8-2.2,3.4-2.8c1.6-0.6,3-1,4.8-1c6.2,0,9.4,3.2,9.4,9.4L368.3,268.9L368.3,268.9z"/>
	<path class="st1" d="M383.2,264.8c1.4,0,2.6-0.2,4-0.6v4.2c-0.6,0.2-1.4,0.4-2.4,0.6s-2,0.2-3,0.2c-5.2,0-7.8-2.8-7.8-8.2V247h-3.6
		v-2.4l3.8-2l1.8-5.4h3.4v5.8h7.4v4.2h-7.4V261c0,1.4,0.4,2.4,1,3C381,264.6,382.2,264.8,383.2,264.8z"/>
	<path class="st1" d="M401.4,269.3c-4,0-7.2-1.2-9.4-3.6c-2.2-2.4-3.4-5.6-3.4-9.8c0-4.2,1-7.6,3.2-10s5-3.6,8.6-3.6
		c3.4,0,6.2,1,8.2,3.2c2,2.2,3,5,3,8.6v3h-17.3c0,2.6,0.8,4.4,2,5.8c1.2,1.4,3,2,5.4,2c1.6,0,3-0.2,4.2-0.4c1.2-0.2,2.8-0.8,4.2-1.4
		v4.4c-1.4,0.6-2.8,1-4,1.4C405.1,269.3,403.3,269.3,401.4,269.3z M400.4,246.6c-1.8,0-3.2,0.6-4.2,1.6c-1,1-1.6,2.8-1.8,4.8h11.8
		c0-2.2-0.6-3.8-1.6-4.8S402.2,246.6,400.4,246.6z"/>
	<path class="st2" d="M414.5,265.8c0-1.2,0.2-2,0.8-2.6s1.4-1,2.6-1c1.2,0,2,0.4,2.6,1c0.6,0.6,0.8,1.4,0.8,2.6c0,1.2-0.4,2-1,2.6
		c-0.6,0.6-1.4,1-2.6,1c-1.2,0-2-0.4-2.6-1S414.5,267,414.5,265.8z"/>
	<path class="st2" d="M449.2,268.9h-5.6v-16.1c0-2-0.4-3.4-1.2-4.4c-0.8-1-2-1.4-3.8-1.4c-2.4,0-4,0.6-5.2,2c-1.2,1.4-1.6,3.6-1.6,7
		v13h-5.6V243h4.4l0.8,3.4h0.2c0.8-1.2,1.8-2.2,3.4-2.8c1.6-0.6,3-1,4.8-1c6.2,0,9.4,3.2,9.4,9.4L449.2,268.9L449.2,268.9z"/>
	<path class="st2" d="M459.9,268.9h-5.6v-36.5h5.6V268.9z"/>
</g>
<g>
	<path class="st1" d="M71.4,280.7c-3.8,0-7.4-1.4-10-4.2c-2.8-2.6-4.2-6.2-4.2-10c0-3.8,1.4-7.4,4.2-10c2.6-2.6,6.2-4.2,10-4.2
		s7.4,1.4,10,4.2c2.6,2.6,4.2,6.2,4.2,10c0,3.8-1.4,7.4-4.2,10C78.8,279.3,75.2,280.7,71.4,280.7z M71.4,258c-4.6,0-8.4,3.8-8.4,8.4
		s3.8,8.4,8.4,8.4c4.6,0,8.4-3.8,8.4-8.4C79.8,261.8,76.2,258,71.4,258z"/>
</g>
<g>
	<path class="st1" d="M104.1,250.6c-3.8,0-7.4-1.4-10-4.2c-2.6-2.6-4.2-6.2-4.2-10s1.4-7.4,4.2-10c2.6-2.6,6.2-4.2,10-4.2
		s7.4,1.4,10,4.2c2.6,2.6,4.2,6.2,4.2,10s-1.4,7.4-4.2,10C111.5,249.2,107.9,250.6,104.1,250.6z M104.1,227.9
		c-4.6,0-8.4,3.8-8.4,8.4s3.8,8.4,8.4,8.4c4.6,0,8.4-3.8,8.4-8.4S108.7,227.9,104.1,227.9z"/>
</g>
<polygon class="st2" points="111.5,261.2 109.7,266 98.1,261.2 98.1,252.4 98.1,252.2 81.2,245.2 81.2,236.3 81.2,236.3 81.2,236.1 
	61.3,227.9 59.3,232.5 76.2,239.5 76.2,248.6 76.2,248.6 76.2,248.6 76.2,248.6 76.2,248.6 93.1,255.6 93.1,264.6 93.1,264.6 
	93.1,264.6 107.9,270.9 105.9,276.3 119,271.9 119,271.9 "/>
</svg>
