<?xml version="1.0" encoding="utf-8"?>
<!-- Generator: Adobe Illustrator 22.0.0, SVG Export Plug-In . SVG Version: 6.00 Build 0)  -->
<svg version="1.1" id="Layer_1" xmlns="http://www.w3.org/2000/svg" xmlns:xlink="http://www.w3.org/1999/xlink" x="0px" y="0px"
	 viewBox="0 0 520 520" style="enable-background:new 0 0 520 520;" xml:space="preserve">
<style type="text/css">
	.st0{fill:#FFFFFF;}
	.st1{fill:#575756;}
	.st2{fill:#203F6B;}
	.st3{fill:#5EBA98;}
	.st4{clip-path:url(#SVGID_2_);fill:#5EBA98;}
</style>
<g>
	<rect class="st0" width="520" height="520"/>
</g>
<g>
	<path class="st1" d="M152.3,335.3h0.8c0.5,0,0.9-0.1,1.1-0.3c0.2-0.2,0.4-0.5,0.4-0.9c0-0.4-0.1-0.7-0.4-0.8
		c-0.3-0.2-0.6-0.3-1.1-0.3h-0.7V335.3L152.3,335.3z M152.3,336.2v2.7h-1.1v-6.9h1.9c0.9,0,1.5,0.2,2,0.5c0.4,0.3,0.6,0.8,0.6,1.5
		c0,0.9-0.4,1.5-1.3,1.8l1.9,3h-1.3l-1.6-2.7H152.3L152.3,336.2z"/>
	<polygon class="st1" points="162.2,339 158.3,339 158.3,332.1 162.2,332.1 162.2,333.1 159.4,333.1 159.4,334.9 162,334.9 
		162,335.9 159.4,335.9 159.4,338 162.2,338 162.2,339 	"/>
	<path class="st1" d="M167.5,335.3h2.5v3.5c-0.4,0.1-0.8,0.2-1.2,0.3c-0.4,0.1-0.8,0.1-1.2,0.1c-1,0-1.8-0.3-2.4-0.9
		c-0.6-0.6-0.8-1.5-0.8-2.6c0-1.1,0.3-2,1-2.6c0.6-0.6,1.5-0.9,2.6-0.9c0.7,0,1.4,0.1,2,0.4l-0.4,0.9c-0.6-0.3-1.1-0.4-1.7-0.4
		c-0.7,0-1.3,0.2-1.7,0.7c-0.4,0.5-0.6,1.1-0.6,1.9c0,0.8,0.2,1.5,0.6,1.9c0.4,0.4,0.9,0.7,1.7,0.7c0.4,0,0.8,0,1.2-0.1v-1.8h-1.4
		V335.3L167.5,335.3z"/>
	<polygon class="st1" points="172.6,339 172.6,332.1 173.7,332.1 173.7,339 172.6,339 	"/>
	<path class="st1" d="M180.5,337.1c0,0.6-0.2,1.1-0.7,1.4c-0.4,0.3-1.1,0.5-1.8,0.5c-0.8,0-1.4-0.1-1.9-0.4v-1.1
		c0.3,0.1,0.6,0.3,1,0.3c0.4,0.1,0.7,0.1,1,0.1c0.4,0,0.8-0.1,1-0.3c0.2-0.2,0.3-0.4,0.3-0.7c0-0.3-0.1-0.5-0.3-0.7
		c-0.2-0.2-0.6-0.4-1.2-0.6c-0.6-0.3-1.1-0.5-1.3-0.9c-0.3-0.3-0.4-0.7-0.4-1.2c0-0.6,0.2-1,0.6-1.4c0.4-0.3,1-0.5,1.6-0.5
		c0.7,0,1.3,0.1,2,0.4l-0.4,0.9c-0.6-0.3-1.2-0.4-1.6-0.4c-0.4,0-0.6,0.1-0.8,0.2c-0.2,0.2-0.3,0.4-0.3,0.6c0,0.2,0,0.3,0.1,0.5
		c0.1,0.1,0.2,0.2,0.4,0.4c0.2,0.1,0.5,0.3,0.9,0.4c0.5,0.2,0.9,0.4,1.1,0.6c0.2,0.2,0.4,0.4,0.5,0.6
		C180.4,336.5,180.5,336.8,180.5,337.1L180.5,337.1z"/>
	<polygon class="st1" points="185.2,339 184,339 184,333.1 182,333.1 182,332.1 187.2,332.1 187.2,333.1 185.2,333.1 185.2,339 	"/>
	<polygon class="st1" points="193.1,339 189.2,339 189.2,332.1 193.1,332.1 193.1,333.1 190.3,333.1 190.3,334.9 192.9,334.9 
		192.9,335.9 190.3,335.9 190.3,338 193.1,338 193.1,339 	"/>
	<path class="st1" d="M196.7,335.3h0.8c0.5,0,0.9-0.1,1.1-0.3c0.2-0.2,0.4-0.5,0.4-0.9c0-0.4-0.1-0.7-0.4-0.8
		c-0.3-0.2-0.6-0.3-1.1-0.3h-0.7V335.3L196.7,335.3z M196.7,336.2v2.7h-1.1v-6.9h1.9c0.9,0,1.5,0.2,2,0.5c0.4,0.3,0.6,0.8,0.6,1.5
		c0,0.9-0.4,1.5-1.3,1.8l1.9,3h-1.3l-1.6-2.7H196.7L196.7,336.2z"/>
	<path class="st1" d="M212.5,339h-1.2l-1.2-4.1c-0.1-0.2-0.1-0.4-0.2-0.8c-0.1-0.3-0.1-0.6-0.1-0.7c0,0.2-0.1,0.5-0.2,0.8
		c-0.1,0.3-0.1,0.6-0.2,0.7l-1.1,4.1h-1.2l-0.9-3.4l-0.9-3.4h1.1l1,4c0.2,0.6,0.3,1.2,0.3,1.7c0-0.3,0.1-0.6,0.2-0.9
		c0.1-0.3,0.1-0.6,0.2-0.8l1.1-4h1.1l1.1,4c0.1,0.4,0.2,0.9,0.3,1.7c0-0.4,0.2-1,0.3-1.7l1-4h1.1L212.5,339L212.5,339z"/>
	<path class="st1" d="M217.1,335.5c0,0.8,0.2,1.5,0.5,1.9c0.3,0.4,0.8,0.7,1.5,0.7c0.7,0,1.2-0.2,1.5-0.6c0.3-0.4,0.5-1.1,0.5-1.9
		c0-0.8-0.2-1.5-0.5-1.9c-0.3-0.4-0.8-0.7-1.5-0.7c-0.7,0-1.2,0.2-1.5,0.7C217.2,334.1,217.1,334.7,217.1,335.5L217.1,335.5z
		 M222.3,335.5c0,1.1-0.3,2-0.8,2.6c-0.6,0.6-1.4,0.9-2.4,0.9c-1,0-1.8-0.3-2.4-0.9c-0.6-0.6-0.8-1.5-0.8-2.6c0-1.1,0.3-2,0.8-2.6
		c0.6-0.6,1.4-0.9,2.4-0.9c1,0,1.8,0.3,2.4,0.9C222.1,333.5,222.3,334.4,222.3,335.5L222.3,335.5z"/>
	<path class="st1" d="M230.5,339h-1.4l-3.4-5.5h0l0,0.3c0,0.6,0.1,1.1,0.1,1.6v3.6h-1v-6.9h1.4l3.4,5.5h0c0-0.1,0-0.3,0-0.8
		c0-0.5,0-0.8,0-1.1v-3.6h1V339L230.5,339z"/>
	<polygon class="st1" points="233.3,339 233.3,332.1 234.4,332.1 234.4,339 233.3,339 	"/>
	<path class="st1" d="M242.9,339h-1.4l-3.4-5.5h0l0,0.3c0,0.6,0.1,1.1,0.1,1.6v3.6h-1v-6.9h1.4l3.4,5.5h0c0-0.1,0-0.3,0-0.8
		c0-0.5,0-0.8,0-1.1v-3.6h1V339L242.9,339z"/>
	<path class="st1" d="M248.5,335.3h2.5v3.5c-0.4,0.1-0.8,0.2-1.2,0.3c-0.4,0.1-0.8,0.1-1.2,0.1c-1,0-1.8-0.3-2.4-0.9
		c-0.6-0.6-0.8-1.5-0.8-2.6c0-1.1,0.3-2,1-2.6c0.6-0.6,1.5-0.9,2.6-0.9c0.7,0,1.4,0.1,2,0.4l-0.4,0.9c-0.6-0.3-1.1-0.4-1.7-0.4
		c-0.7,0-1.3,0.2-1.7,0.7c-0.4,0.5-0.6,1.1-0.6,1.9c0,0.8,0.2,1.5,0.6,1.9c0.4,0.4,0.9,0.7,1.7,0.7c0.4,0,0.8,0,1.2-0.1v-1.8h-1.4
		V335.3L248.5,335.3z"/>
	<path class="st1" d="M263.5,339h-1.2l-1.2-4.1c0-0.2-0.1-0.4-0.2-0.8c-0.1-0.3-0.1-0.6-0.1-0.7c0,0.2-0.1,0.5-0.2,0.8
		c-0.1,0.3-0.1,0.6-0.2,0.7l-1.1,4.1h-1.2l-0.9-3.4l-0.9-3.4h1.1l1,4c0.2,0.6,0.3,1.2,0.3,1.7c0-0.3,0.1-0.6,0.2-0.9
		c0.1-0.3,0.1-0.6,0.2-0.8l1.1-4h1.1l1.1,4c0.1,0.4,0.2,0.9,0.3,1.7c0-0.4,0.2-1,0.3-1.7l1-4h1.1L263.5,339L263.5,339z"/>
	<path class="st1" d="M270.5,336.1l-0.6-1.9c0-0.1-0.1-0.3-0.2-0.6c-0.1-0.3-0.1-0.5-0.2-0.6c-0.1,0.4-0.2,0.8-0.4,1.3l-0.6,1.8
		H270.5L270.5,336.1z M271.5,339l-0.7-1.9h-2.6l-0.7,1.9h-1.2l2.6-6.9h1.2l2.6,6.9H271.5L271.5,339z"/>
	<path class="st1" d="M277.8,336.1l-0.6-1.9c0-0.1-0.1-0.3-0.2-0.6c-0.1-0.3-0.1-0.5-0.2-0.6c-0.1,0.4-0.2,0.8-0.4,1.3l-0.6,1.8
		H277.8L277.8,336.1z M278.8,339l-0.7-1.9h-2.6l-0.7,1.9h-1.2l2.6-6.9h1.2l2.6,6.9H278.8L278.8,339z"/>
	<path class="st1" d="M283,335.3h0.8c0.5,0,0.9-0.1,1.1-0.3c0.2-0.2,0.4-0.5,0.4-0.9c0-0.4-0.1-0.7-0.4-0.8
		c-0.3-0.2-0.6-0.3-1.1-0.3H283V335.3L283,335.3z M283,336.2v2.7h-1.1v-6.9h1.9c0.9,0,1.5,0.2,2,0.5c0.4,0.3,0.6,0.8,0.6,1.5
		c0,0.9-0.4,1.5-1.3,1.8l1.9,3h-1.3l-1.6-2.7H283L283,336.2z"/>
	<path class="st1" d="M293.4,335.5c0-1.6-0.8-2.5-2.3-2.5h-1v5h0.8C292.6,338,293.4,337.2,293.4,335.5L293.4,335.5z M294.6,335.5
		c0,1.1-0.3,2-0.9,2.6c-0.6,0.6-1.5,0.9-2.7,0.9H289v-6.9h2.1c1.1,0,1.9,0.3,2.6,0.9S294.6,334.4,294.6,335.5L294.6,335.5z"/>
	<polygon class="st1" points="301,339 297.1,339 297.1,332.1 301,332.1 301,333.1 298.2,333.1 298.2,334.9 300.8,334.9 300.8,335.9 
		298.2,335.9 298.2,338 301,338 301,339 	"/>
	<path class="st1" d="M308,335.3h0.8c0.5,0,0.9-0.1,1.1-0.3c0.2-0.2,0.4-0.5,0.4-0.9c0-0.4-0.1-0.7-0.4-0.8
		c-0.3-0.2-0.6-0.3-1.1-0.3H308V335.3L308,335.3z M308,336.2v2.7h-1.1v-6.9h1.9c0.9,0,1.5,0.2,2,0.5c0.4,0.3,0.6,0.8,0.6,1.5
		c0,0.9-0.4,1.5-1.3,1.8l1.9,3h-1.3l-1.6-2.7H308L308,336.2z"/>
	<polygon class="st1" points="317.9,339 314,339 314,332.1 317.9,332.1 317.9,333.1 315.1,333.1 315.1,334.9 317.7,334.9 
		317.7,335.9 315.1,335.9 315.1,338 317.9,338 317.9,339 	"/>
	<path class="st1" d="M323.2,335.3h2.5v3.5c-0.4,0.1-0.8,0.2-1.2,0.3c-0.4,0.1-0.8,0.1-1.2,0.1c-1,0-1.8-0.3-2.4-0.9
		c-0.6-0.6-0.8-1.5-0.8-2.6c0-1.1,0.3-2,1-2.6c0.6-0.6,1.5-0.9,2.6-0.9c0.7,0,1.4,0.1,2,0.4l-0.4,0.9c-0.6-0.3-1.1-0.4-1.7-0.4
		c-0.7,0-1.3,0.2-1.7,0.7c-0.4,0.5-0.6,1.1-0.6,1.9c0,0.8,0.2,1.5,0.6,1.9c0.4,0.4,0.9,0.7,1.7,0.7c0.4,0,0.8,0,1.2-0.1v-1.8h-1.4
		V335.3L323.2,335.3z"/>
	<polygon class="st1" points="328.3,339 328.3,332.1 329.4,332.1 329.4,339 328.3,339 	"/>
	<path class="st1" d="M336.2,337.1c0,0.6-0.2,1.1-0.7,1.4c-0.4,0.3-1.1,0.5-1.8,0.5c-0.8,0-1.4-0.1-1.9-0.4v-1.1
		c0.3,0.1,0.6,0.3,1,0.3c0.4,0.1,0.7,0.1,1,0.1c0.4,0,0.8-0.1,1-0.3c0.2-0.2,0.3-0.4,0.3-0.7c0-0.3-0.1-0.5-0.3-0.7
		c-0.2-0.2-0.6-0.4-1.2-0.6c-0.6-0.3-1.1-0.5-1.3-0.9c-0.3-0.3-0.4-0.7-0.4-1.2c0-0.6,0.2-1,0.6-1.4c0.4-0.3,1-0.5,1.6-0.5
		c0.7,0,1.3,0.1,2,0.4l-0.4,0.9c-0.6-0.3-1.2-0.4-1.6-0.4c-0.4,0-0.6,0.1-0.8,0.2c-0.2,0.2-0.3,0.4-0.3,0.6c0,0.2,0,0.3,0.1,0.5
		c0.1,0.1,0.2,0.2,0.4,0.4c0.2,0.1,0.5,0.3,0.9,0.4c0.5,0.2,0.9,0.4,1.1,0.6c0.2,0.2,0.4,0.4,0.5,0.6
		C336.1,336.5,336.2,336.8,336.2,337.1L336.2,337.1z"/>
	<polygon class="st1" points="340.9,339 339.7,339 339.7,333.1 337.7,333.1 337.7,332.1 342.9,332.1 342.9,333.1 340.9,333.1 
		340.9,339 	"/>
	<path class="st1" d="M346,335.3h0.8c0.5,0,0.9-0.1,1.1-0.3c0.2-0.2,0.4-0.5,0.4-0.9c0-0.4-0.1-0.7-0.4-0.8
		c-0.3-0.2-0.6-0.3-1.1-0.3H346V335.3L346,335.3z M346,336.2v2.7h-1.1v-6.9h1.9c0.9,0,1.5,0.2,2,0.5c0.4,0.3,0.6,0.8,0.6,1.5
		c0,0.9-0.4,1.5-1.3,1.8l1.9,3h-1.3l-1.6-2.7H346L346,336.2z"/>
	<path class="st1" d="M355.3,336.1l-0.6-1.9c0-0.1-0.1-0.3-0.2-0.6c-0.1-0.3-0.1-0.5-0.2-0.6c-0.1,0.4-0.2,0.8-0.4,1.3l-0.6,1.8
		H355.3L355.3,336.1z M356.3,339l-0.7-1.9H353l-0.7,1.9h-1.2l2.6-6.9h1.2l2.6,6.9H356.3L356.3,339z"/>
	<polygon class="st1" points="361.7,339 360.6,339 360.6,333.1 358.6,333.1 358.6,332.1 363.8,332.1 363.8,333.1 361.7,333.1 
		361.7,339 	"/>
	<polygon class="st1" points="365.8,339 365.8,332.1 366.9,332.1 366.9,339 365.8,339 	"/>
	<polygon class="st1" points="373.6,339 369.7,339 369.7,332.1 373.6,332.1 373.6,333.1 370.8,333.1 370.8,334.9 373.4,334.9 
		373.4,335.9 370.8,335.9 370.8,338 373.6,338 373.6,339 	"/>
	<path class="st1" d="M380,337.1c0,0.6-0.2,1.1-0.7,1.4c-0.4,0.3-1.1,0.5-1.8,0.5c-0.8,0-1.4-0.1-1.9-0.4v-1.1
		c0.3,0.1,0.6,0.3,1,0.3c0.4,0.1,0.7,0.1,1,0.1c0.4,0,0.8-0.1,1-0.3c0.2-0.2,0.3-0.4,0.3-0.7c0-0.3-0.1-0.5-0.3-0.7
		c-0.2-0.2-0.6-0.4-1.2-0.6c-0.6-0.3-1.1-0.5-1.3-0.9c-0.3-0.3-0.4-0.7-0.4-1.2c0-0.6,0.2-1,0.6-1.4c0.4-0.3,1-0.5,1.6-0.5
		c0.7,0,1.3,0.1,2,0.4l-0.4,0.9c-0.6-0.3-1.2-0.4-1.6-0.4c-0.4,0-0.6,0.1-0.8,0.2c-0.2,0.2-0.3,0.4-0.3,0.6c0,0.2,0,0.3,0.1,0.5
		c0.1,0.1,0.2,0.2,0.4,0.4c0.2,0.1,0.5,0.3,0.9,0.4c0.5,0.2,0.9,0.4,1.1,0.6c0.2,0.2,0.4,0.4,0.5,0.6
		C379.9,336.5,380,336.8,380,337.1L380,337.1z"/>
	<path class="st2" d="M253,324.9h-17.3l-5.2-20.5c-0.2-0.9-0.6-2.6-1.2-5.1c-0.5-2.5-0.9-4.7-1.2-6.4c-0.2,1.4-0.5,3.1-1,5.2
		c-0.4,2.1-0.9,4-1.3,5.7c-0.4,1.7-2.2,8.8-5.4,21.1h-17.3l-13.4-47H204l5.9,23.6c1.3,5.2,2.2,9.4,2.7,12.4c0.3-2.2,0.9-5.2,1.7-8.9
		c0.8-3.7,1.6-6.9,2.3-9.3l4.8-17.8H235l4.6,17.8c0.8,2.8,1.6,6.1,2.4,9.9c0.8,3.7,1.4,6.5,1.6,8.4c0.3-2.4,1.2-6.5,2.6-12.4l6-23.6
		h14.1L253,324.9L253,324.9z"/>
	<path class="st2" d="M165.6,298.3h2.7c5.1,0,7.7-2,7.7-5.9c0-3.2-2.5-4.9-7.5-4.9h-2.9V298.3L165.6,298.3z M165.6,307.8v17.1H151
		v-47h17.7c14.7,0,22,4.6,22,13.9c0,5.4-3.1,9.7-9.2,12.6l15.8,20.5h-16.6l-11.5-17.1H165.6L165.6,307.8z"/>
	<path class="st3" d="M347.8,298.3h2.7c5.1,0,7.7-2,7.7-5.9c0-3.2-2.5-4.9-7.5-4.9h-2.9V298.3L347.8,298.3z M347.8,307.8v17.1h-14.6
		v-47h17.7c14.7,0,22,4.6,22,13.9c0,5.4-3.1,9.7-9.2,12.6l15.8,20.5H363l-11.5-17.1H347.8L347.8,307.8z"/>
	<path class="st3" d="M317,277.9l-6,23.6c-1.4,5.9-2.3,10-2.6,12.4c-0.3-1.8-0.8-4.6-1.6-8.4c-0.8-3.7-1.6-7-2.4-9.9l-4.6-17.8
		h-13.5l-4.8,17.8c-0.7,2.5-1.5,5.6-2.3,9.3c-0.8,3.7-1.4,6.7-1.7,8.9c-0.5-3.1-1.4-7.2-2.7-12.4l-5.9-23.5l-7,24.8l6.3,22.1h17.3
		c3.2-12.3,5-19.3,5.4-21.1c0.4-1.7,0.9-3.6,1.3-5.7c0.4-2.1,0.8-3.8,1-5.2c0.2,1.7,0.6,3.8,1.2,6.4c0.5,2.6,0.9,4.3,1.2,5.1
		l5.2,20.5h17.3l13.3-47H317L317,277.9z"/>
	<g>
		<defs>
			<rect id="SVGID_1_" x="151" y="141" width="229" height="198.1"/>
		</defs>
		<clipPath id="SVGID_2_">
			<use xlink:href="#SVGID_1_"  style="overflow:visible;"/>
		</clipPath>
		<polygon class="st4" points="254.7,277.9 254.7,277.9 254.7,278 254.7,277.9 		"/>
		<path class="st4" d="M304.5,171.9c0,0,70.2,23.8,23.4,55.9c0,0-4.2,3.2-13,7.6c-17.2,8.7-52.3,22.1-109.4,26.3
			c-13.5,1-28.2,1.5-44.3,1.3c0,0,18.5,1.5,44.3,1.7c32.5,0.2,76.6-2,109.4-12.4c10.2-3.2,19.4-7.3,26.7-12.3
			C391.1,206,362.5,180.4,304.5,171.9L304.5,171.9z"/>
	</g>
	<path class="st2" d="M257.8,212.5v11.3c0,2.9-2.4,5.3-5.3,5.3s-5.3-2.4-5.3-5.3v-11.3c-4-2-6.8-6.1-6.8-10.8
		c0-6.7,5.4-12.1,12.1-12.1s12.1,5.4,12.1,12.1C264.6,206.5,261.8,210.6,257.8,212.5L257.8,212.5z M252,141l-64.3,64.2h10.9v54.5
		c57.1-4.2,92-16,108.1-24.7l0.2-29.8h12.6L252,141L252,141z"/>
</g>
</svg>
