<?xml version="1.0" encoding="utf-8"?>
<!-- Generator: Adobe Illustrator 22.0.0, SVG Export Plug-In . SVG Version: 6.00 Build 0)  -->
<svg version="1.1" id="Layer_1" xmlns="http://www.w3.org/2000/svg" xmlns:xlink="http://www.w3.org/1999/xlink" x="0px" y="0px"
	 viewBox="0 0 500 500" style="enable-background:new 0 0 500 500;" xml:space="preserve">
<style type="text/css">
	.st0{fill:#FFFFFF;}
	.st1{fill:#3C3C3B;}
	.st2{fill:#464798;}
</style>
<rect class="st0" width="500" height="500"/>
<g>
	<path class="st1" d="M133.3,222.7h3.8l-10.9,27h-0.8l-8.8-21.8l-8.9,21.8H107l-10.8-27h3.9l7.4,18.5l7.4-18.5h3.6l7.5,18.5
		L133.3,222.7z"/>
	<path class="st1" d="M149.8,241h-12.4c0.1,1.7,0.7,3,1.7,4c1,1,2.4,1.5,4,1.5c2.3,0,4.4-0.7,6.4-2.2v3.4c-1.1,0.7-2.1,1.2-3.2,1.5
		c-1.1,0.3-2.3,0.5-3.7,0.5c-1.9,0-3.5-0.4-4.7-1.2c-1.2-0.8-2.2-1.9-2.9-3.3c-0.7-1.4-1.1-2.9-1.1-4.7c0-2.7,0.8-4.9,2.3-6.6
		c1.5-1.7,3.5-2.5,5.9-2.5c2.3,0,4.2,0.8,5.6,2.5c1.4,1.6,2.1,3.8,2.1,6.6L149.8,241L149.8,241z M137.4,238.9h8.9
		c-0.1-1.4-0.5-2.5-1.2-3.2c-0.7-0.8-1.7-1.1-3-1.1c-1.3,0-2.3,0.4-3.1,1.1S137.7,237.5,137.4,238.9z"/>
	<path class="st1" d="M155.9,231.8v4.1l0.2-0.3c1.7-2.7,3.4-4.1,5.1-4.1c1.3,0,2.7,0.7,4.1,2l-1.8,3.1c-1.2-1.2-2.3-1.7-3.4-1.7
		c-1.1,0-2.1,0.5-2.9,1.6c-0.8,1.1-1.2,2.4-1.2,3.8v9.2h-3.5v-17.7H155.9z"/>
	<path class="st1" d="M166.4,222.7h3.5v26.8h-3.5V222.7z M177.9,231.8h4.2l-7.5,8.6l9.1,9h-4.7l-8.9-9L177.9,231.8z"/>
	<path class="st1" d="M183,238c0-1.9,0.7-3.4,2.1-4.5c1.4-1.1,3.3-1.6,5.6-1.6h7.3v2.7h-3.6c0.7,0.7,1.2,1.3,1.4,1.9
		c0.3,0.6,0.4,1.2,0.4,2c0,0.9-0.3,1.8-0.8,2.7c-0.5,0.9-1.2,1.6-2,2c-0.8,0.5-2.2,0.9-4.1,1.1c-1.3,0.2-2,0.6-2,1.4
		c0,0.4,0.2,0.7,0.7,1c0.5,0.3,1.4,0.5,2.7,0.8c2.2,0.5,3.6,0.8,4.2,1.1s1.2,0.7,1.7,1.2c0.8,0.8,1.3,1.9,1.3,3.2c0,1.7-0.7,3-2.2,4
		c-1.5,1-3.5,1.5-6,1.5c-2.5,0-4.5-0.5-6-1.5c-1.5-1-2.3-2.4-2.3-4c0-2.4,1.5-3.9,4.4-4.6c-1.2-0.8-1.8-1.5-1.8-2.2
		c0-0.6,0.3-1.1,0.8-1.5c0.5-0.5,1.2-0.8,2-1C184.3,242.4,183,240.5,183,238z M188.7,250.3c-1.2,0-2.1,0.2-2.9,0.7s-1.1,1.1-1.1,1.9
		c0,1.8,1.6,2.7,4.9,2.7c1.5,0,2.8-0.2,3.6-0.7s1.3-1.1,1.3-1.9c0-0.8-0.5-1.5-1.6-2C191.8,250.6,190.4,250.3,188.7,250.3z
		 M189.5,234.9c-0.9,0-1.8,0.3-2.4,1c-0.7,0.6-1,1.4-1,2.3c0,0.9,0.3,1.7,1,2.3c0.7,0.6,1.5,0.9,2.5,0.9c1,0,1.8-0.3,2.5-0.9
		c0.7-0.6,1-1.4,1-2.3c0-0.9-0.3-1.7-1-2.3C191.4,235.2,190.5,234.9,189.5,234.9z"/>
	<path class="st1" d="M214.3,241h-12.4c0.1,1.7,0.7,3,1.7,4s2.4,1.5,4,1.5c2.3,0,4.4-0.7,6.4-2.2v3.4c-1.1,0.7-2.1,1.2-3.2,1.5
		c-1.1,0.3-2.3,0.5-3.7,0.5c-1.9,0-3.5-0.4-4.7-1.2c-1.2-0.8-2.2-1.9-2.9-3.3c-0.7-1.4-1.1-2.9-1.1-4.7c0-2.7,0.8-4.9,2.3-6.6
		c1.5-1.7,3.5-2.5,5.9-2.5c2.3,0,4.2,0.8,5.6,2.5c1.4,1.6,2.1,3.8,2.1,6.6L214.3,241L214.3,241z M202,238.9h8.9
		c-0.1-1.4-0.5-2.5-1.2-3.2c-0.7-0.8-1.7-1.1-3-1.1s-2.3,0.4-3.1,1.1C202.7,236.4,202.2,237.5,202,238.9z"/>
	<path class="st1" d="M227,231.8h3.8l-7.8,18h-1.2l-8-18h3.8l4.8,10.9L227,231.8z"/>
	<path class="st1" d="M246.3,241h-12.4c0.1,1.7,0.7,3,1.7,4s2.4,1.5,4,1.5c2.3,0,4.4-0.7,6.4-2.2v3.4c-1.1,0.7-2.1,1.2-3.2,1.5
		c-1.1,0.3-2.3,0.5-3.7,0.5c-1.9,0-3.5-0.4-4.7-1.2c-1.2-0.8-2.2-1.9-2.9-3.3c-0.7-1.4-1.1-2.9-1.1-4.7c0-2.7,0.8-4.9,2.3-6.6
		c1.5-1.7,3.5-2.5,5.9-2.5c2.3,0,4.2,0.8,5.6,2.5s2.1,3.8,2.1,6.6L246.3,241L246.3,241z M233.9,238.9h8.9c-0.1-1.4-0.5-2.5-1.2-3.2
		c-0.7-0.8-1.7-1.1-3-1.1s-2.3,0.4-3.1,1.1S234.2,237.5,233.9,238.9z"/>
	<path class="st1" d="M252.4,231.8v4.1l0.2-0.3c1.7-2.7,3.4-4.1,5.1-4.1c1.3,0,2.7,0.7,4.1,2l-1.8,3.1c-1.2-1.2-2.3-1.7-3.4-1.7
		c-1.1,0-2.1,0.5-2.9,1.6c-0.8,1.1-1.2,2.4-1.2,3.8v9.2h-3.5v-17.7H252.4z"/>
	<path class="st1" d="M262,248.3v-3.8c1,0.7,2,1.3,3,1.7c1,0.4,1.9,0.6,2.6,0.6c0.7,0,1.4-0.2,1.9-0.5c0.5-0.4,0.8-0.8,0.8-1.3
		c0-0.5-0.2-0.9-0.5-1.3c-0.3-0.3-1.1-0.8-2.2-1.5c-2.3-1.3-3.7-2.3-4.4-3.2c-0.7-0.9-1-1.9-1-2.9c0-1.4,0.5-2.5,1.6-3.3
		c1.1-0.9,2.4-1.3,4.1-1.3c1.7,0,3.5,0.5,5.3,1.5v3.5c-2.1-1.3-3.8-1.9-5.1-1.9c-0.7,0-1.2,0.1-1.6,0.4c-0.4,0.3-0.6,0.7-0.6,1.1
		c0,0.4,0.2,0.8,0.6,1.2c0.4,0.4,1,0.8,2,1.3l1.2,0.7c2.9,1.7,4.4,3.5,4.4,5.5c0,1.4-0.6,2.6-1.7,3.6c-1.1,0.9-2.6,1.4-4.4,1.4
		c-1.1,0-2-0.1-2.8-0.3C264.3,249.3,263.3,248.9,262,248.3z"/>
	<path class="st1" d="M287.5,231.8h3.8l-7.8,18h-1.2l-8-18h3.8l4.8,10.9L287.5,231.8z"/>
	<path class="st1" d="M306.8,241h-12.4c0.1,1.7,0.7,3,1.7,4c1,1,2.4,1.5,4,1.5c2.3,0,4.4-0.7,6.4-2.2v3.4c-1.1,0.7-2.1,1.2-3.2,1.5
		c-1.1,0.3-2.3,0.5-3.7,0.5c-1.9,0-3.5-0.4-4.7-1.2c-1.2-0.8-2.2-1.9-2.9-3.3c-0.7-1.4-1.1-2.9-1.1-4.7c0-2.7,0.8-4.9,2.3-6.6
		c1.5-1.7,3.5-2.5,5.9-2.5c2.3,0,4.2,0.8,5.6,2.5c1.4,1.6,2.1,3.8,2.1,6.6L306.8,241L306.8,241z M294.4,238.9h8.9
		c-0.1-1.4-0.5-2.5-1.2-3.2c-0.7-0.8-1.7-1.1-3-1.1s-2.3,0.4-3.1,1.1C295.2,236.4,294.7,237.5,294.4,238.9z"/>
	<path class="st1" d="M313,231.8v4.1l0.2-0.3c1.7-2.7,3.4-4.1,5.1-4.1c1.3,0,2.7,0.7,4.1,2l-1.8,3.1c-1.2-1.2-2.3-1.7-3.4-1.7
		c-1.1,0-2.1,0.5-2.9,1.6c-0.8,1.1-1.2,2.4-1.2,3.8v9.2h-3.5v-17.7H313z"/>
	<path class="st1" d="M323.4,222.7h3.5v26.8h-3.5V222.7z M334.9,231.8h4.2l-7.5,8.6l9.1,9h-4.7l-8.9-9L334.9,231.8z"/>
	<path class="st1" d="M341,222.7h3.5v26.8H341V222.7z"/>
	<path class="st1" d="M359.2,238.9v7.5c0,0.6,0.2,0.9,0.6,0.9c0.4,0,1.1-0.3,2-0.9v2.1c-0.8,0.5-1.4,0.9-1.9,1
		c-0.5,0.2-1,0.3-1.5,0.3c-1.5,0-2.4-0.6-2.7-1.8c-1.5,1.2-3.1,1.7-4.7,1.7c-1.2,0-2.3-0.4-3.1-1.2c-0.8-0.8-1.2-1.8-1.2-3.1
		c0-1.1,0.4-2.1,1.2-3c0.8-0.9,1.9-1.6,3.4-2.1l4.5-1.5V238c0-2.1-1.1-3.2-3.2-3.2c-1.9,0-3.8,1-5.6,3v-3.8c1.4-1.6,3.3-2.4,5.9-2.4
		c1.9,0,3.4,0.5,4.6,1.5c0.4,0.3,0.7,0.7,1,1.3c0.3,0.5,0.5,1.1,0.6,1.6C359.2,236.4,359.2,237.4,359.2,238.9z M355.8,246v-5.2
		l-2.3,0.9c-1.2,0.5-2,1-2.5,1.4s-0.7,1.1-0.7,1.8c0,0.7,0.2,1.3,0.7,1.8c0.5,0.5,1.1,0.7,1.8,0.7
		C353.8,247.4,354.9,246.9,355.8,246z"/>
	<path class="st1" d="M367.3,231.8v4.1l0.2-0.3c1.7-2.7,3.4-4.1,5.1-4.1c1.3,0,2.7,0.7,4.1,2l-1.8,3.1c-1.2-1.2-2.3-1.7-3.4-1.7
		c-1.1,0-2.1,0.5-2.9,1.6c-0.8,1.1-1.2,2.4-1.2,3.8v9.2h-3.5v-17.7H367.3z"/>
	<path class="st1" d="M379.6,224.4c0.6,0,1.1,0.2,1.5,0.6c0.4,0.4,0.6,0.9,0.6,1.5c0,0.6-0.2,1.1-0.6,1.5s-0.9,0.6-1.5,0.6
		c-0.5,0-1-0.2-1.4-0.6s-0.6-0.9-0.6-1.5c0-0.5,0.2-1,0.6-1.4C378.6,224.6,379,224.4,379.6,224.4z M377.8,231.8h3.5v17.7h-3.5V231.8
		z"/>
	<path class="st1" d="M388.5,231.8v2.2c1.6-1.7,3.3-2.6,5.3-2.6c1.1,0,2.1,0.3,3.1,0.9c0.9,0.6,1.7,1.4,2.2,2.3
		c0.5,1,0.7,2.6,0.7,4.7v10.1h-3.5v-10.1c0-1.8-0.3-3.1-0.8-3.9c-0.6-0.8-1.5-1.2-2.8-1.2c-1.7,0-3.1,0.8-4.2,2.5v12.6h-3.6v-17.7
		H388.5z"/>
	<path class="st1" d="M402.4,238c0-1.9,0.7-3.4,2.1-4.5c1.4-1.1,3.3-1.6,5.6-1.6h7.3v2.7h-3.6c0.7,0.7,1.2,1.3,1.4,1.9
		c0.3,0.6,0.4,1.2,0.4,2c0,0.9-0.3,1.8-0.8,2.7c-0.5,0.9-1.2,1.6-2,2c-0.8,0.5-2.2,0.9-4.1,1.1c-1.3,0.2-2,0.6-2,1.4
		c0,0.4,0.2,0.7,0.7,1c0.5,0.3,1.4,0.5,2.7,0.8c2.2,0.5,3.6,0.8,4.2,1.1s1.2,0.7,1.7,1.2c0.8,0.8,1.3,1.9,1.3,3.2c0,1.7-0.7,3-2.2,4
		c-1.5,1-3.5,1.5-6,1.5c-2.5,0-4.5-0.5-6-1.5c-1.5-1-2.3-2.4-2.3-4c0-2.4,1.5-3.9,4.4-4.6c-1.2-0.8-1.8-1.5-1.8-2.2
		c0-0.6,0.3-1.1,0.8-1.5c0.5-0.5,1.2-0.8,2-1C403.7,242.4,402.4,240.5,402.4,238z M408.1,250.3c-1.2,0-2.1,0.2-2.9,0.7
		c-0.7,0.5-1.1,1.1-1.1,1.9c0,1.8,1.6,2.7,4.9,2.7c1.5,0,2.8-0.2,3.6-0.7c0.9-0.5,1.3-1.1,1.3-1.9c0-0.8-0.5-1.5-1.6-2
		C411.2,250.6,409.8,250.3,408.1,250.3z M409,234.9c-0.9,0-1.8,0.3-2.4,1c-0.7,0.6-1,1.4-1,2.3c0,0.9,0.3,1.7,1,2.3
		c0.7,0.6,1.5,0.9,2.5,0.9c1,0,1.8-0.3,2.5-0.9c0.7-0.6,1-1.4,1-2.3c0-0.9-0.3-1.7-1-2.3C410.8,235.2,410,234.9,409,234.9z"/>
</g>
<g>
	<path class="st2" d="M422.7,245.2c0.7,0,1.2,0.2,1.7,0.7c0.5,0.4,0.7,1,0.7,1.7c0,0.6-0.2,1.2-0.7,1.6c-0.5,0.4-1,0.7-1.7,0.7
		c-0.7,0-1.2-0.2-1.7-0.7c-0.4-0.4-0.7-1-0.7-1.6c0-0.7,0.2-1.2,0.7-1.7C421.5,245.5,422,245.2,422.7,245.2z"/>
	<path class="st2" d="M431.6,231.8v2.2c1.6-1.7,3.3-2.6,5.3-2.6c1.1,0,2.1,0.3,3.1,0.9c0.9,0.6,1.7,1.4,2.2,2.3
		c0.5,1,0.7,2.6,0.7,4.7v10.1h-3.5v-10.1c0-1.8-0.3-3.1-0.8-3.9c-0.6-0.8-1.5-1.2-2.8-1.2c-1.7,0-3.1,0.8-4.2,2.5v12.6h-3.6v-17.7
		H431.6z"/>
	<path class="st2" d="M446.5,222.7h3.5v26.8h-3.5V222.7z"/>
</g>
<g>
	<path class="st2" d="M52.1,217.1h30.4V239h3.1v-23.5c0-0.9-0.7-1.5-1.5-1.5H50.5c-0.9,0-1.5,0.7-1.5,1.5v41c0,0.9,0.7,1.5,1.5,1.5
		h17.1V255H52.1V217.1z"/>
	<path class="st2" d="M91.4,241.9c-0.3-0.3-0.8-0.4-1.2-0.4c-0.4,0-0.8,0.2-1.1,0.5l-9.9,11.1l-5.1-4.9c-0.3-0.3-0.7-0.4-1.1-0.4
		c-0.4,0-0.9,0.2-1.2,0.5c-0.3,0.3-0.5,0.7-0.5,1.2c0,0.4,0.2,0.8,0.5,1.1l6.3,6c0.3,0.3,0.7,0.5,1.1,0.5h0.1c0.4,0,0.9-0.2,1.1-0.5
		l11.1-12.3c0.3-0.3,0.5-0.8,0.4-1.2C91.9,242.5,91.7,242.1,91.4,241.9z"/>
	<rect x="57.6" y="233.5" class="st2" width="19.9" height="3.1"/>
	<rect x="57.6" y="223.5" class="st2" width="19.9" height="3.1"/>
	<rect x="57.6" y="244.1" class="st2" width="9.8" height="3.1"/>
</g>
</svg>
