<?xml version="1.0" encoding="utf-8"?>
<!-- Generator: Adobe Illustrator 22.0.0, SVG Export Plug-In . SVG Version: 6.00 Build 0)  -->
<svg version="1.1" id="Layer_1" xmlns="http://www.w3.org/2000/svg" xmlns:xlink="http://www.w3.org/1999/xlink" x="0px" y="0px"
	 viewBox="0 0 520 520" style="enable-background:new 0 0 520 520;" xml:space="preserve">
<style type="text/css">
	.st0{fill:#FFFFFF;}
	.st1{fill:#9D9D9C;}
	.st2{fill:#91CFCD;}
	.st3{clip-path:url(#SVGID_2_);fill:#18B2A6;}
	.st4{clip-path:url(#SVGID_2_);fill:#00A19A;}
	.st5{fill:#64C0BD;}
	.st6{clip-path:url(#SVGID_4_);fill:none;stroke:#9D9D9C;stroke-width:0.6238;stroke-miterlimit:10;}
</style>
<g>
	<rect class="st0" width="520" height="520"/>
</g>
<g>
	<path class="st1" d="M271.9,262.7h5.9c2.2,0,3.6-0.4,4.2-1.3c0.6-0.9,0.9-2.8,0.9-5.8c0-3.3-0.3-5.4-0.8-6.3
		c-0.5-0.9-1.9-1.3-3.9-1.3h-6.4V262.7L271.9,262.7z M269.8,264.5v-18.2h8.4c2.6,0,4.4,0.6,5.3,1.7c0.9,1.1,1.4,3.3,1.4,6.6
		c0,3.9-0.4,6.6-1.2,7.9c-0.8,1.3-2.5,2-4.9,2H269.8L269.8,264.5z"/>
	<path class="st1" d="M291.6,258.2c-1.4,0-2.4,0.2-2.8,0.5c-0.4,0.3-0.6,1-0.6,1.9c0,1,0.2,1.7,0.6,2c0.4,0.3,1.3,0.5,2.6,0.5
		c2.6,0,3.9-0.8,3.9-2.4c0-1-0.3-1.7-0.8-2C294.1,258.3,293.1,258.2,291.6,258.2L291.6,258.2z M288.6,255.3h-1.9c0-1.5,0.3-2.5,1-3
		c0.7-0.5,2-0.8,3.9-0.8c2.1,0,3.6,0.3,4.3,0.9c0.7,0.6,1.1,1.8,1.1,3.6v8.4h-1.9l0.1-1.4l0,0c-0.7,1.1-2.2,1.6-4.3,1.6
		c-3.2,0-4.8-1.3-4.8-3.9c0-1.5,0.4-2.6,1.1-3.2c0.7-0.6,2-0.9,3.9-0.9c2.2,0,3.6,0.4,4,1.3l0,0v-1.5c0-1.5-0.2-2.4-0.6-2.8
		c-0.4-0.4-1.3-0.6-2.6-0.6c-2.3,0-3.4,0.6-3.4,1.9C288.6,255,288.6,255.1,288.6,255.3L288.6,255.3z"/>
	<path class="st1" d="M306.4,251.7v1.5h-4.9v7.8c0,1.4,0.6,2,1.8,2c1.2,0,1.8-0.6,1.8-1.8l0-0.6l0-0.7h1.7l0,0.9
		c0,2.5-1.2,3.8-3.6,3.8c-2.5,0-3.7-1-3.7-3.1v-0.5v-7.8h-1.8v-1.5h1.8v-3.1h1.9v3.1H306.4L306.4,251.7z"/>
	<path class="st1" d="M312.5,258.2c-1.4,0-2.4,0.2-2.8,0.5c-0.4,0.3-0.6,1-0.6,1.9c0,1,0.2,1.7,0.6,2c0.4,0.3,1.3,0.5,2.6,0.5
		c2.6,0,3.9-0.8,3.9-2.4c0-1-0.3-1.7-0.8-2C315,258.3,314,258.2,312.5,258.2L312.5,258.2z M309.5,255.3h-1.9c0-1.5,0.3-2.5,1-3
		c0.7-0.5,2-0.8,3.9-0.8c2.1,0,3.6,0.3,4.3,0.9c0.7,0.6,1.1,1.8,1.1,3.6v8.4h-1.9l0.1-1.4l0,0c-0.7,1.1-2.2,1.6-4.3,1.6
		c-3.2,0-4.8-1.3-4.8-3.9c0-1.5,0.4-2.6,1.1-3.2c0.7-0.6,2-0.9,3.9-0.9c2.2,0,3.6,0.4,4,1.3l0,0v-1.5c0-1.5-0.2-2.4-0.6-2.8
		c-0.4-0.4-1.3-0.6-2.6-0.6c-2.3,0-3.4,0.6-3.4,1.9C309.5,255,309.5,255.1,309.5,255.3L309.5,255.3z"/>
	<path class="st1" d="M333,255.4h7.8c0,0.5,0.1,1.1,0.1,2c0,3.3-0.4,5.3-1.2,6.1c-0.8,0.8-2.9,1.2-6.3,1.2c-3.2,0-5.3-0.5-6.2-1.4
		c-0.9-0.9-1.4-3-1.4-6.2l0-2.7l0-1.6c0-2.7,0.5-4.5,1.5-5.4c1-0.9,3.1-1.3,6.2-1.3c3.1,0,5.1,0.3,6,0.9c0.9,0.6,1.3,1.9,1.3,3.9
		v0.7h-2v-0.5c0-1.5-0.3-2.4-0.9-2.8c-0.6-0.4-2.2-0.5-4.8-0.5c-2.4,0-3.9,0.3-4.5,0.8c-0.6,0.6-0.9,2-0.9,4.2l0,2.4l0,2.6
		c0,2.3,0.3,3.7,1,4.2c0.7,0.5,2.4,0.8,5.3,0.8c2.2,0,3.6-0.2,4.1-0.7c0.5-0.5,0.8-1.8,0.8-3.9c0-0.2,0-0.5-0.1-1.1H333V255.4
		L333,255.4z"/>
	<path class="st1" d="M342.6,251.7h1.9l-0.2,1.5l0,0c0.7-1.2,2-1.8,3.7-1.8c2.3,0,3.5,1.2,3.5,3.6l0,0.9h-1.8l0-0.3
		c0-0.3,0-0.6,0-0.7c0-1.3-0.7-2-2.1-2c-2.1,0-3.1,1.3-3.1,3.9v7.6h-1.9V251.7L342.6,251.7z"/>
	<path class="st1" d="M357.6,253.1c-1.7,0-2.7,0.3-3.1,0.8c-0.4,0.5-0.6,1.9-0.6,4.2c0,2.3,0.2,3.7,0.6,4.2c0.4,0.5,1.4,0.8,3.1,0.8
		c1.7,0,2.7-0.3,3.1-0.8c0.4-0.5,0.6-1.9,0.6-4.2c0-2.3-0.2-3.7-0.6-4.2C360.3,253.3,359.3,253.1,357.6,253.1L357.6,253.1z
		 M357.6,251.5c2.4,0,3.9,0.4,4.6,1.2c0.7,0.8,1.1,2.6,1.1,5.3c0,2.7-0.4,4.5-1.1,5.3c-0.7,0.8-2.2,1.2-4.6,1.2
		c-2.3,0-3.9-0.4-4.6-1.2c-0.7-0.8-1.1-2.6-1.1-5.3c0-2.7,0.4-4.5,1.1-5.3C353.7,251.9,355.2,251.5,357.6,251.5L357.6,251.5z"/>
	<path class="st1" d="M375.6,251.7v12.8h-1.9l0.1-1.7l0,0c-0.6,1.3-2,1.9-4.2,1.9c-3,0-4.5-1.5-4.5-4.5v-8.5h1.9v8.5
		c0,1.2,0.2,1.9,0.6,2.3c0.4,0.4,1.1,0.6,2.3,0.6c1.5,0,2.5-0.3,3-0.9c0.5-0.6,0.8-1.7,0.8-3.2v-7.3H375.6L375.6,251.7z"/>
	<path class="st1" d="M383.6,253.1c-1.5,0-2.5,0.3-2.9,1c-0.5,0.6-0.7,2-0.7,4.2c0,2,0.2,3.3,0.7,3.9c0.5,0.7,1.5,1,2.9,1
		c1.4,0,2.3-0.3,2.8-0.9c0.4-0.6,0.7-1.9,0.7-3.9c0-2.2-0.2-3.6-0.7-4.2C386.1,253.4,385.1,253.1,383.6,253.1L383.6,253.1z
		 M378.1,251.7h1.9l-0.1,1.6l0.1,0c0.7-1.2,2-1.8,4.2-1.8c1.9,0,3.2,0.5,3.9,1.4c0.7,1,1.1,2.7,1.1,5.3c0,2.4-0.4,4.1-1.1,5
		c-0.7,0.9-2,1.4-3.8,1.4c-2.1,0-3.5-0.6-4.2-1.7h0v7h-1.9V251.7L378.1,251.7z"/>
	<polygon class="st1" points="355,221.7 355,228.1 363.9,228.1 363.9,229.8 355,229.8 355,238.2 352.9,238.2 352.9,220 364.1,220 
		364.1,221.7 355,221.7 	"/>
	<path class="st1" d="M367.1,225.5v12.8h-1.9v-12.8H367.1L367.1,225.5z M367.1,220v2.1h-1.9V220H367.1L367.1,220z"/>
	<path class="st1" d="M369.4,225.5h1.8l-0.1,1.7l0.1,0c0.6-1.3,2-2,4.2-2c1.8,0,3.1,0.3,3.7,1c0.6,0.6,1,1.9,1,3.7v8.3h-1.9v-8.1
		v-0.5c0-1.1-0.2-1.8-0.6-2.2c-0.4-0.4-1.2-0.6-2.4-0.6c-2.6,0-3.9,1.2-3.9,3.7v7.7h-1.9V225.5L369.4,225.5z"/>
	<path class="st1" d="M387.5,231.9c-1.4,0-2.4,0.2-2.8,0.5c-0.4,0.3-0.6,1-0.6,1.9c0,1,0.2,1.7,0.6,2c0.4,0.3,1.3,0.5,2.6,0.5
		c2.6,0,4-0.8,4-2.4c0-1-0.3-1.7-0.8-2C390,232.1,389,231.9,387.5,231.9L387.5,231.9z M384.5,229h-1.9c0-1.5,0.3-2.5,1-3
		c0.7-0.5,2-0.8,3.9-0.8c2.1,0,3.6,0.3,4.3,0.9c0.7,0.6,1.1,1.8,1.1,3.6v8.4h-1.9l0.1-1.4l0,0c-0.7,1-2.2,1.6-4.3,1.6
		c-3.2,0-4.8-1.3-4.8-3.9c0-1.5,0.4-2.6,1.1-3.2c0.7-0.6,2-0.9,3.9-0.9c2.2,0,3.6,0.4,4,1.3l0,0v-1.5c0-1.5-0.2-2.4-0.6-2.8
		c-0.4-0.4-1.3-0.6-2.6-0.6c-2.3,0-3.4,0.6-3.4,1.9C384.5,228.7,384.5,228.9,384.5,229L384.5,229z"/>
	<path class="st1" d="M395.5,225.5h1.8l-0.1,1.7l0.1,0c0.6-1.3,2-2,4.2-2c1.8,0,3.1,0.3,3.7,1c0.6,0.6,1,1.9,1,3.7v8.3h-1.9v-8.1
		v-0.5c0-1.1-0.2-1.8-0.6-2.2c-0.4-0.4-1.2-0.6-2.4-0.6c-2.6,0-3.9,1.2-3.9,3.7v7.7h-1.9V225.5L395.5,225.5z"/>
	<path class="st1" d="M417.4,233.6h1.9l0,0.7c0,2.7-1.8,4.1-5.4,4.1c-2.3,0-3.8-0.4-4.6-1.3c-0.7-0.9-1.1-2.6-1.1-5.3
		c0-2.5,0.4-4.2,1.1-5.1c0.8-0.9,2.2-1.4,4.3-1.4c2.1,0,3.5,0.3,4.2,0.9c0.8,0.6,1.1,1.8,1.1,3.4h-1.9v-0.3c0-1-0.2-1.6-0.7-2
		c-0.5-0.3-1.5-0.5-2.9-0.5c-1.4,0-2.3,0.3-2.7,0.9c-0.4,0.6-0.6,2-0.6,4.2c0,2.1,0.2,3.5,0.7,4c0.5,0.6,1.5,0.9,3.2,0.9
		c1.4,0,2.3-0.2,2.7-0.6C417.3,235.9,417.4,235,417.4,233.6L417.4,233.6z"/>
	<path class="st1" d="M422.8,225.5v12.8H421v-12.8H422.8L422.8,225.5z M422.8,220v2.1H421V220H422.8L422.8,220z"/>
	<path class="st1" d="M430.1,231.9c-1.4,0-2.4,0.2-2.8,0.5c-0.4,0.3-0.6,1-0.6,1.9c0,1,0.2,1.7,0.6,2c0.4,0.3,1.3,0.5,2.6,0.5
		c2.6,0,3.9-0.8,3.9-2.4c0-1-0.3-1.7-0.8-2C432.6,232.1,431.6,231.9,430.1,231.9L430.1,231.9z M427.1,229h-1.9c0-1.5,0.3-2.5,1-3
		c0.7-0.5,2-0.8,3.9-0.8c2.1,0,3.6,0.3,4.3,0.9c0.7,0.6,1.1,1.8,1.1,3.6v8.4h-1.9l0.1-1.4l0,0c-0.7,1-2.2,1.6-4.3,1.6
		c-3.2,0-4.8-1.3-4.8-3.9c0-1.5,0.4-2.6,1.1-3.2c0.7-0.6,2-0.9,3.9-0.9c2.2,0,3.6,0.4,4,1.3l0,0v-1.5c0-1.5-0.2-2.4-0.6-2.8
		c-0.4-0.4-1.3-0.6-2.6-0.6c-2.3,0-3.4,0.6-3.4,1.9C427.1,228.7,427.1,228.9,427.1,229L427.1,229z"/>
	<polygon class="st1" points="440,220 440,238.2 438.1,238.2 438.1,220 440,220 	"/>
	<path class="st2" d="M226.5,244.7c0-3.7-1.3-6.8-4-9.5c-2.7-2.7-5.8-4-9.5-4c-3.7,0-6.9,1.3-9.5,4c-2.6,2.6-4,5.8-4,9.5
		c0,3.7,1.3,6.9,4,9.5c2.6,2.6,5.8,4,9.5,4c3.7,0,6.9-1.3,9.5-4C225.2,251.5,226.5,248.3,226.5,244.7L226.5,244.7z M228.2,276
		c-4.2,4.3-9.3,6.4-15.2,6.4c-3.7,0-7.1-0.9-10.4-2.8c-1.6-0.9-3.1-2-4.4-3.3c-1.3-1.3-2.5-2.7-3.6-4.2l6.8-4.5
		c3,4.5,6.8,6.7,11.6,6.7c4,0,7.2-1.3,9.6-4c2.2-2.5,3.5-5.7,3.8-9.7c-4,3.7-8.7,5.6-14.1,5.6c-5.8,0-10.7-2.1-14.8-6.4
		c-4.1-4.2-6.1-9.3-6.1-15.1c0-5.9,2.1-11,6.4-15.2c4.3-4.2,9.4-6.4,15.2-6.4c5.9,0,11,2.1,15.2,6.4c4.3,4.2,6.4,9.3,6.4,15.2v16.2
		C234.6,266.7,232.5,271.7,228.2,276L228.2,276z"/>
	<g>
		<defs>
			<rect id="SVGID_1_" x="91" y="202.6" width="349" height="83.6"/>
		</defs>
		<clipPath id="SVGID_2_">
			<use xlink:href="#SVGID_1_"  style="overflow:visible;"/>
		</clipPath>
		<path class="st3" d="M144.4,221.2c-2.1,1.9-3.2,4.3-3.2,7.2v2.1h15.1v8.1h-15.1v26.9h-8.1v-26.9h-10.4v-8.1h10.4v-2.1
			c0-5,1.9-9.2,5.7-12.8c3.7-3.5,8.1-5.3,13.2-5.4v8.1C149,218.3,146.5,219.3,144.4,221.2L144.4,221.2z"/>
		<path class="st4" d="M119.3,265.8v-24.2c0-2.7-1-5.1-3-7.1c-2-2-4.3-3-7.1-3c-2.7,0-5.1,1-7.1,3c-2,2-3,4.4-3,7.1v24.2H91v-55.2
			h8.1V228c3.3-3.1,7.1-4.6,11.5-4.6c4.8,0,8.9,1.9,12.1,5.6c3.1,3.5,4.7,7.7,4.7,12.6v24.2H119.3L119.3,265.8z"/>
	</g>
	<path class="st5" d="M185.9,244.7c0-3.7-1.3-6.8-4-9.5c-2.7-2.7-5.8-4-9.5-4c-3.7,0-6.9,1.3-9.5,4c-2.6,2.6-4,5.8-4,9.5
		c0,3.7,1.3,6.9,4,9.5c2.6,2.6,5.8,4,9.5,4c3.7,0,6.9-1.3,9.5-4C184.5,251.5,185.9,248.3,185.9,244.7L185.9,244.7z M187.6,259.9
		c-4.2,4.2-9.3,6.3-15.3,6.3c-6,0-11-2.1-15.3-6.3c-4.2-4.2-6.3-9.3-6.3-15.2c0-5.9,2-10.9,6.1-15.2c4.1-4.3,9-6.4,14.8-6.4
		c5.5,0,10.2,1.9,14.2,5.7v-18.5h8.1v34.4C194,250.6,191.8,255.6,187.6,259.9L187.6,259.9z"/>
	<g>
		<defs>
			<rect id="SVGID_3_" x="91" y="202.6" width="349" height="83.6"/>
		</defs>
		<clipPath id="SVGID_4_">
			<use xlink:href="#SVGID_3_"  style="overflow:visible;"/>
		</clipPath>
		<line class="st6" x1="251.8" y1="202.6" x2="251.8" y2="286.2"/>
	</g>
	<polygon class="st1" points="284.7,220 284.7,238.3 282.6,238.3 282.6,229.8 271.9,229.8 271.9,238.3 269.8,238.3 269.8,220 
		271.9,220 271.9,228.1 282.6,228.1 282.6,220 284.7,220 	"/>
	<path class="st1" d="M292.4,226.9c-1.7,0-2.7,0.3-3.1,0.8c-0.4,0.5-0.6,1.9-0.6,4.2c0,2.3,0.2,3.7,0.6,4.2c0.4,0.5,1.4,0.8,3.1,0.8
		c1.7,0,2.7-0.3,3.1-0.8c0.4-0.5,0.6-1.9,0.6-4.2c0-2.3-0.2-3.7-0.6-4.2C295.1,227.1,294,226.9,292.4,226.9L292.4,226.9z
		 M292.4,225.3c2.4,0,3.9,0.4,4.6,1.2c0.7,0.8,1.1,2.6,1.1,5.4c0,2.8-0.4,4.5-1.1,5.4c-0.7,0.8-2.2,1.2-4.6,1.2
		c-2.4,0-3.9-0.4-4.6-1.2c-0.7-0.8-1.1-2.6-1.1-5.4c0-2.7,0.4-4.5,1.1-5.4C288.5,225.7,290,225.3,292.4,225.3L292.4,225.3z"/>
	<polygon class="st1" points="301.9,220 301.9,238.3 300,238.3 300,220 301.9,220 	"/>
	<polygon class="st1" points="306.1,220 306.1,238.3 304.2,238.3 304.2,220 306.1,220 	"/>
	<path class="st1" d="M313.4,232c-1.4,0-2.4,0.2-2.8,0.5c-0.4,0.3-0.6,1-0.6,2c0,1,0.2,1.7,0.6,2.1c0.4,0.3,1.3,0.5,2.6,0.5
		c2.6,0,4-0.8,4-2.4c0-1-0.3-1.7-0.8-2C315.9,232.1,314.9,232,313.4,232L313.4,232z M310.4,229.1h-1.9c0-1.5,0.3-2.5,1-3
		c0.7-0.5,2-0.8,4-0.8c2.1,0,3.6,0.3,4.3,0.9c0.7,0.6,1.1,1.8,1.1,3.6v8.5H317l0.1-1.4l0,0c-0.7,1.1-2.2,1.6-4.4,1.6
		c-3.2,0-4.9-1.3-4.9-3.9c0-1.5,0.4-2.6,1.1-3.2c0.7-0.6,2-0.9,3.9-0.9c2.3,0,3.6,0.4,4,1.3l0,0v-1.6c0-1.5-0.2-2.4-0.6-2.8
		c-0.4-0.4-1.3-0.6-2.6-0.6c-2.3,0-3.5,0.6-3.5,1.9C310.4,228.8,310.4,228.9,310.4,229.1L310.4,229.1z"/>
	<path class="st1" d="M321.4,225.5h1.8l-0.1,1.7l0.1,0c0.6-1.3,2-2,4.3-2c1.8,0,3.1,0.3,3.7,1c0.6,0.6,1,1.9,1,3.7v8.3h-1.9v-8.2
		v-0.5c0-1.1-0.2-1.8-0.6-2.2c-0.4-0.4-1.2-0.6-2.4-0.6c-2.6,0-4,1.2-4,3.7v7.7h-1.9V225.5L321.4,225.5z"/>
	<path class="st1" d="M339.7,226.9c-1.4,0-2.3,0.3-2.8,1c-0.5,0.6-0.7,1.9-0.7,3.9c0,2.1,0.2,3.6,0.7,4.2c0.4,0.7,1.4,1,2.8,1
		c1.5,0,2.6-0.3,3-1c0.5-0.7,0.7-2.1,0.7-4.4c0-1.8-0.3-3.1-0.8-3.7C342.1,227.2,341.2,226.9,339.7,226.9L339.7,226.9z M345.3,220
		v18.3h-1.9l0.1-1.7l-0.1,0c-0.6,1.2-2,1.9-4.1,1.9c-2,0-3.3-0.5-4-1.4c-0.7-1-1.1-2.7-1.1-5.3c0-2.4,0.4-4.1,1.1-5
		c0.7-0.9,2-1.4,3.9-1.4c2.3,0,3.7,0.6,4.2,1.8l0,0V220H345.3L345.3,220z"/>
</g>
</svg>
