<?xml version="1.0" encoding="utf-8"?>
<!-- Generator: Adobe Illustrator 22.0.0, SVG Export Plug-In . SVG Version: 6.00 Build 0)  -->
<svg version="1.1" id="Layer_1" xmlns="http://www.w3.org/2000/svg" xmlns:xlink="http://www.w3.org/1999/xlink" x="0px" y="0px"
	 viewBox="0 0 520 520" style="enable-background:new 0 0 520 520;" xml:space="preserve">
<style type="text/css">
	.st0{fill:#FFFFFF;}
	.st1{fill:#F9B233;}
	.st2{fill:#9D9D9C;}
	.st3{clip-path:url(#SVGID_2_);fill:#9D9D9C;}
	.st4{clip-path:url(#SVGID_2_);fill:#F9B233;}
</style>
<g>
	<rect class="st0" width="520" height="520"/>
</g>
<g>
	<path class="st1" d="M135.7,258.3l-7.5-24.5H128c0.3,5,0.4,8.3,0.4,10v14.5h-5.9v-31.2h9l7.4,23.9h0.1l7.8-23.9h9v31.2h-6.2v-14.8
		c0-0.7,0-1.5,0-2.4c0-0.9,0.1-3.3,0.3-7.3h-0.2l-8,24.4H135.7L135.7,258.3z"/>
	<path class="st1" d="M168.6,258.3h-6.5v-23.9h6.5V258.3L168.6,258.3z M161.8,228.3c0-2.1,1.2-3.2,3.5-3.2c2.4,0,3.5,1.1,3.5,3.2
		c0,1-0.3,1.8-0.9,2.4c-0.6,0.6-1.5,0.8-2.7,0.8C163,231.5,161.8,230.4,161.8,228.3L161.8,228.3z"/>
	<path class="st1" d="M174.1,228.3c0-2.1,1.2-3.2,3.5-3.2c2.4,0,3.5,1.1,3.5,3.2c0,1-0.3,1.8-0.9,2.4c-0.6,0.6-1.5,0.8-2.7,0.8
		C175.2,231.5,174.1,230.4,174.1,228.3L174.1,228.3z M172.4,268.8c-1.7,0-3.1-0.2-4.3-0.5v-5.1c1,0.3,2,0.4,3.1,0.4
		c1.1,0,1.9-0.3,2.4-0.9c0.5-0.6,0.8-1.5,0.8-2.7v-25.5h6.5v26.4c0,2.5-0.7,4.5-2.2,5.9C177.2,268.1,175.1,268.8,172.4,268.8
		L172.4,268.8z"/>
	<path class="st1" d="M208.6,258.3h-6.5v-13.9c0-1.7-0.3-3-0.9-3.9c-0.6-0.9-1.6-1.3-2.9-1.3c-1.8,0-3.1,0.6-3.9,1.8
		c-0.8,1.2-1.2,3.2-1.2,6.1v11.2h-6.5v-23.9h5l0.9,3.1h0.4c0.7-1.2,1.7-2,3-2.6c1.3-0.6,2.7-0.9,4.3-0.9c2.8,0,4.9,0.8,6.3,2.3
		c1.4,1.5,2.2,3.7,2.2,6.5V258.3L208.6,258.3z"/>
	<path class="st2" d="M216.6,242.7c0,4.2,0.9,7.4,2.7,9.6c1.8,2.2,4.4,3.3,7.8,3.3c3.5,0,6.1-1.1,7.8-3.3c1.8-2.2,2.6-5.4,2.6-9.6
		c0-4.2-0.9-7.4-2.6-9.6c-1.8-2.2-4.4-3.3-7.8-3.3c-3.5,0-6.1,1.1-7.9,3.3C217.5,235.3,216.6,238.5,216.6,242.7L216.6,242.7z
		 M241.4,242.7c0,5-1.3,8.9-3.8,11.8c-2.5,2.9-6,4.3-10.5,4.3c-4.6,0-8.1-1.4-10.6-4.2c-2.5-2.8-3.7-6.8-3.7-11.9
		c0-5.1,1.3-9,3.8-11.8c2.5-2.8,6.1-4.2,10.7-4.2c4.5,0,8,1.4,10.5,4.3C240.2,233.7,241.4,237.6,241.4,242.7L241.4,242.7z"/>
	<path class="st2" d="M276.6,258.3v-15.2c0-1.9-0.4-3.3-1.2-4.2c-0.8-0.9-2-1.4-3.7-1.4c-2.2,0-3.8,0.6-4.9,1.9
		c-1.1,1.3-1.6,3.2-1.6,5.8v13.1h-3.5v-15.2c0-1.9-0.4-3.3-1.2-4.2c-0.8-0.9-2-1.4-3.7-1.4c-2.2,0-3.8,0.7-4.9,2
		c-1,1.3-1.5,3.5-1.5,6.5v12.3h-3.5v-23.4h2.9l0.6,3.2h0.2c0.7-1.1,1.6-2,2.8-2.7c1.2-0.6,2.6-1,4.1-1c3.7,0,6,1.3,7.2,4h0.2
		c0.7-1.2,1.7-2.2,3-2.9c1.3-0.7,2.8-1.1,4.5-1.1c2.6,0,4.6,0.7,5.9,2c1.3,1.4,2,3.5,2,6.5v15.3H276.6L276.6,258.3z"/>
	<path class="st2" d="M288.8,242.4c0,1.6,0.5,2.9,1.4,3.7c0.9,0.8,2.2,1.3,3.9,1.3c3.5,0,5.2-1.7,5.2-5c0-3.5-1.8-5.3-5.3-5.3
		c-1.7,0-2.9,0.4-3.8,1.3C289.2,239.3,288.8,240.6,288.8,242.4L288.8,242.4z M286.8,262.2c0,1.3,0.5,2.2,1.6,2.9
		c1.1,0.7,2.6,1,4.6,1c3,0,5.2-0.4,6.6-1.3c1.4-0.9,2.1-2.1,2.1-3.6c0-1.3-0.4-2.1-1.2-2.6c-0.8-0.5-2.3-0.7-4.4-0.7h-4.2
		c-1.6,0-2.9,0.4-3.8,1.2C287.3,259.7,286.8,260.8,286.8,262.2L286.8,262.2z M305.5,234.9v2.2l-4.3,0.5c0.4,0.5,0.8,1.1,1.1,2
		c0.3,0.8,0.5,1.7,0.5,2.7c0,2.3-0.8,4.1-2.3,5.5c-1.6,1.4-3.7,2-6.4,2c-0.7,0-1.4-0.1-2-0.2c-1.5,0.8-2.3,1.8-2.3,3
		c0,0.6,0.3,1.1,0.8,1.4c0.5,0.3,1.4,0.5,2.7,0.5h4.1c2.5,0,4.5,0.5,5.8,1.6c1.4,1.1,2,2.6,2,4.7c0,2.6-1,4.6-3.1,5.9
		c-2.1,1.4-5.1,2-9.1,2c-3.1,0-5.4-0.6-7.1-1.7c-1.7-1.1-2.5-2.7-2.5-4.8c0-1.4,0.5-2.7,1.4-3.7c0.9-1,2.2-1.7,3.8-2.1
		c-0.6-0.3-1.1-0.7-1.5-1.3c-0.4-0.6-0.6-1.2-0.6-2c0-0.9,0.2-1.6,0.7-2.2c0.5-0.6,1.2-1.3,2.2-1.9c-1.2-0.5-2.2-1.3-3-2.5
		c-0.8-1.2-1.1-2.6-1.1-4.1c0-2.6,0.8-4.5,2.3-5.9c1.5-1.4,3.7-2.1,6.5-2.1c1.2,0,2.3,0.1,3.3,0.4H305.5L305.5,234.9z"/>
	<path class="st2" d="M318.1,237.4c-1.9,0-3.4,0.6-4.5,1.8c-1.1,1.2-1.8,2.9-2,5.1h12.2c0-2.2-0.5-3.9-1.5-5.1
		C321.4,238,320,237.4,318.1,237.4L318.1,237.4z M319.1,258.7c-3.5,0-6.2-1.1-8.2-3.2c-2-2.1-3-5-3-8.8c0-3.8,0.9-6.8,2.8-9
		c1.9-2.2,4.3-3.3,7.5-3.3c2.9,0,5.2,1,7,2.9c1.7,1.9,2.6,4.5,2.6,7.6v2.2h-16.1c0.1,2.7,0.8,4.8,2.1,6.3c1.3,1.4,3.2,2.1,5.6,2.1
		c2.5,0,5-0.5,7.5-1.6v3.2c-1.3,0.5-2.4,0.9-3.6,1.2C322,258.6,320.7,258.7,319.1,258.7L319.1,258.7z"/>
	<path class="st2" d="M337.8,258.3l-8.9-23.4h3.8l5,13.9c1.1,3.2,1.8,5.3,2,6.3h0.2c0.2-0.8,0.7-2.3,1.5-4.7
		c0.8-2.4,2.7-7.5,5.6-15.5h3.8l-8.9,23.4H337.8L337.8,258.3z"/>
	<path class="st2" d="M357,258.3h-3.5v-23.4h3.5V258.3L357,258.3z M353.2,228.6c0-0.8,0.2-1.4,0.6-1.8c0.4-0.4,0.9-0.6,1.5-0.6
		c0.6,0,1.1,0.2,1.5,0.6c0.4,0.4,0.6,1,0.6,1.8c0,0.8-0.2,1.4-0.6,1.8c-0.4,0.4-0.9,0.6-1.5,0.6c-0.6,0-1.1-0.2-1.5-0.6
		C353.3,230,353.2,229.4,353.2,228.6L353.2,228.6z"/>
	<path class="st2" d="M379.4,258.3v-15.1c0-1.9-0.4-3.3-1.3-4.3c-0.9-0.9-2.2-1.4-4.1-1.4c-2.5,0-4.2,0.7-5.4,2
		c-1.1,1.3-1.7,3.5-1.7,6.6v12.3h-3.5v-23.4h2.9l0.6,3.2h0.2c0.7-1.2,1.7-2,3.1-2.7c1.3-0.6,2.8-1,4.4-1c2.8,0,4.9,0.7,6.4,2
		c1.4,1.4,2.1,3.5,2.1,6.5v15.3H379.4L379.4,258.3z"/>
	<path class="st2" d="M391.6,242.4c0,1.6,0.5,2.9,1.4,3.7c0.9,0.8,2.2,1.3,3.9,1.3c3.5,0,5.2-1.7,5.2-5c0-3.5-1.8-5.3-5.3-5.3
		c-1.7,0-2.9,0.4-3.8,1.3C392,239.3,391.6,240.6,391.6,242.4L391.6,242.4z M389.6,262.2c0,1.3,0.5,2.2,1.6,2.9c1.1,0.7,2.6,1,4.6,1
		c3,0,5.2-0.4,6.6-1.3c1.4-0.9,2.1-2.1,2.1-3.6c0-1.3-0.4-2.1-1.2-2.6c-0.8-0.5-2.3-0.7-4.4-0.7h-4.2c-1.6,0-2.9,0.4-3.8,1.2
		C390.1,259.7,389.6,260.8,389.6,262.2L389.6,262.2z M408.3,234.9v2.2l-4.3,0.5c0.4,0.5,0.8,1.1,1.1,2c0.3,0.8,0.5,1.7,0.5,2.7
		c0,2.3-0.8,4.1-2.3,5.5c-1.6,1.4-3.7,2-6.4,2c-0.7,0-1.4-0.1-2-0.2c-1.5,0.8-2.3,1.8-2.3,3c0,0.6,0.3,1.1,0.8,1.4
		c0.5,0.3,1.4,0.5,2.7,0.5h4.1c2.5,0,4.5,0.5,5.8,1.6c1.4,1.1,2,2.6,2,4.7c0,2.6-1,4.6-3.1,5.9c-2.1,1.4-5.1,2-9.1,2
		c-3.1,0-5.4-0.6-7.1-1.7c-1.7-1.1-2.5-2.7-2.5-4.8c0-1.4,0.5-2.7,1.4-3.7c0.9-1,2.2-1.7,3.8-2.1c-0.6-0.3-1.1-0.7-1.5-1.3
		c-0.4-0.6-0.6-1.2-0.6-2c0-0.9,0.2-1.6,0.7-2.2c0.5-0.6,1.2-1.3,2.2-1.9c-1.2-0.5-2.2-1.3-3-2.5c-0.8-1.2-1.1-2.6-1.1-4.1
		c0-2.6,0.8-4.5,2.3-5.9c1.5-1.4,3.7-2.1,6.5-2.1c1.2,0,2.3,0.1,3.3,0.4H408.3L408.3,234.9z"/>
	<path class="st2" d="M420.9,237.4c-1.9,0-3.4,0.6-4.5,1.8c-1.1,1.2-1.8,2.9-2,5.1h12.2c0-2.2-0.5-3.9-1.5-5.1
		C424.2,238,422.8,237.4,420.9,237.4L420.9,237.4z M421.9,258.7c-3.5,0-6.2-1.1-8.2-3.2c-2-2.1-3-5-3-8.8c0-3.8,0.9-6.8,2.8-9
		c1.9-2.2,4.3-3.3,7.5-3.3c2.9,0,5.3,1,7,2.9c1.7,1.9,2.6,4.5,2.6,7.6v2.2h-16.1c0.1,2.7,0.8,4.8,2.1,6.3c1.3,1.4,3.2,2.1,5.6,2.1
		c2.5,0,5-0.5,7.5-1.6v3.2c-1.3,0.5-2.4,0.9-3.6,1.2C424.8,258.6,423.5,258.7,421.9,258.7L421.9,258.7z"/>
	<g>
		<defs>
			<rect id="SVGID_1_" x="67" y="205" width="388" height="68.9"/>
		</defs>
		<clipPath id="SVGID_2_">
			<use xlink:href="#SVGID_1_"  style="overflow:visible;"/>
		</clipPath>
		<path class="st3" d="M451.5,258.3v-15.1c0-1.9-0.4-3.3-1.3-4.3c-0.9-0.9-2.2-1.4-4.1-1.4c-2.4,0-4.2,0.7-5.4,2
			c-1.1,1.3-1.7,3.5-1.7,6.6v12.3h-3.5v-23.4h2.9l0.6,3.2h0.2c0.7-1.2,1.7-2,3.1-2.7c1.3-0.6,2.8-1,4.4-1c2.8,0,4.9,0.7,6.4,2
			c1.4,1.4,2.1,3.5,2.1,6.5v15.3H451.5L451.5,258.3z"/>
		<path class="st4" d="M108.3,239H69.8v-16.5c0-8.1,8.6-14.7,19.2-14.7c10.6,0,19.2,6.6,19.2,14.7V239L108.3,239z M89.1,205
			c-12.2,0-22.1,7.9-22.1,17.6v17.8v1.5v17.2c0,6.4,4.6,11.9,11.3,14.8v-1.5c0-1.5,0.8-3,2.2-3.7l4.2-2.3c0.4-0.2,0.6-0.6,0.6-1.1
			v-2.2c-0.3-0.4-1.2-1.7-1.6-3.4c-0.4-0.4-0.7-0.9-0.7-1.4v-1.9c0-0.4,0.2-0.9,0.5-1.2v-2.5c0-0.3-0.1-1.8,1-3
			c1-1.1,2.5-1.6,4.6-1.6c2.1,0,3.7,0.6,4.6,1.6c1.1,1.3,1,2.8,1,3v2.5c0.3,0.3,0.5,0.8,0.5,1.2v1.9c0,0.6-0.3,1.1-0.7,1.4
			c-0.4,1.7-1.3,3-1.6,3.4v2.2c0,0.5,0.2,0.9,0.6,1.1l4.2,2.3h0c1.4,0.7,2.2,2.2,2.2,3.7v1.5c6.8-2.9,11.3-8.4,11.3-14.8v-17.2v-1.5
			v-17.8C111.1,212.9,101.2,205,89.1,205L89.1,205z"/>
	</g>
</g>
</svg>
