<?xml version="1.0" encoding="utf-8"?>
<!-- Generator: Adobe Illustrator 22.0.0, SVG Export Plug-In . SVG Version: 6.00 Build 0)  -->
<svg version="1.1" id="Layer_1" xmlns="http://www.w3.org/2000/svg" xmlns:xlink="http://www.w3.org/1999/xlink" x="0px" y="0px"
	 viewBox="0 0 520 520" style="enable-background:new 0 0 520 520;" xml:space="preserve">
<style type="text/css">
	.st0{fill:#FFFFFF;}
	.st1{fill:#444444;}
</style>
<g>
	<rect class="st0" width="520" height="520"/>
</g>
<g>
	<path class="st1" d="M316,173.7l-57.2-23.4l0,0l0,0l0,0l0,0l-57.3,23.4V284l0,0l0,0l27.1,10.3l0,0l5.9,2.3v-1.1l0,0v-24.9l24.1,9.2
		l0,0l0,0l0,0l0,0l24.1-9.2v24.9l0,0v1.1l5.9-2.3l0,0l0,0l27.1-10.3l0,0l0,0V173.7H316z M258.7,156.9l46,18.7l-46,17.2l-46.1-17.2
		L258.7,156.9z M207.4,179.4l49.5,19V234l-49.5,18.7V179.4z M228.6,287.9l-21.1-8.1v-19.6l21.1,8.1V287.9z M258.7,273.3L211,255
		l47.7-17.9l47.7,17.9L258.7,273.3z M310,279.7l-21.1,8.1v-19.6l21.1-8.1V279.7z M310,252.7l-49.7-18.7v-35.4l49.7-19V252.7z"/>
	<g>
		<path class="st1" d="M245.7,350.9v-27.9H258c1.3,0,2.4,0.2,3.6,0.8c1.1,0.6,2,1.2,2.8,2.1c0.8,0.9,1.4,1.9,1.9,3
			c0.4,1.1,0.7,2.2,0.7,3.3c0,1.8-0.5,3.4-1.4,5c-0.9,1.5-2.1,2.5-3.7,3.2l6.4,10.5H262l-5.7-9.4H251v9.4L245.7,350.9L245.7,350.9z
			 M251.1,336.9h6.8c0.5,0,1-0.1,1.4-0.3c0.4-0.2,0.8-0.6,1.1-1c0.3-0.4,0.6-0.9,0.7-1.5c0.2-0.6,0.2-1.1,0.2-1.8
			c0-0.7-0.1-1.2-0.3-1.8s-0.5-1.1-0.8-1.5c-0.3-0.4-0.7-0.7-1.2-1c-0.5-0.2-0.9-0.3-1.4-0.3H251L251.1,336.9L251.1,336.9z"/>
		<path class="st1" d="M283.7,351.2c-2,0-3.9-0.4-5.5-1.2c-1.6-0.8-3.1-1.9-4.3-3.2c-1.2-1.3-2.1-2.9-2.8-4.6c-0.7-1.7-1-3.4-1-5.2
			c0-1.9,0.3-3.7,1.1-5.4c0.7-1.7,1.6-3.2,2.9-4.5c1.2-1.3,2.7-2.4,4.3-3.1c1.7-0.7,3.5-1.1,5.5-1.1c2,0,3.8,0.4,5.5,1.2
			s3.1,1.9,4.2,3.3c1.1,1.3,2.1,2.9,2.8,4.6c0.7,1.7,1,3.4,1,5.2c0,1.9-0.3,3.7-1.1,5.3c-0.7,1.7-1.6,3.2-2.9,4.5
			c-1.2,1.3-2.6,2.4-4.3,3.1C287.5,350.8,285.7,351.2,283.7,351.2z M275.6,337c0,1.2,0.2,2.4,0.6,3.5c0.3,1.1,0.9,2.1,1.6,3
			c0.7,0.9,1.5,1.5,2.5,2.1c1,0.5,2.1,0.8,3.4,0.8c1.3,0,2.4-0.2,3.5-0.8c1-0.6,1.9-1.2,2.5-2.1c0.7-0.9,1.2-1.9,1.5-3
			s0.6-2.3,0.6-3.4c0-1.2-0.2-2.4-0.6-3.5s-0.9-2.1-1.6-3c-0.7-0.9-1.5-1.5-2.5-2c-1-0.5-2.1-0.7-3.4-0.7c-1.3,0-2.4,0.2-3.5,0.8
			c-1.1,0.6-1.9,1.2-2.5,2.1c-0.7,0.9-1.2,1.9-1.5,3C275.8,334.7,275.6,335.9,275.6,337z"/>
		<path class="st1" d="M313.5,351.2c-2,0-3.9-0.4-5.5-1.2c-1.6-0.8-3.1-1.9-4.3-3.2c-1.2-1.3-2.1-2.9-2.8-4.6c-0.7-1.7-1-3.4-1-5.2
			c0-1.9,0.3-3.7,1.1-5.4c0.7-1.7,1.6-3.2,2.9-4.5c1.2-1.3,2.7-2.4,4.3-3.1c1.7-0.7,3.5-1.1,5.5-1.1c2,0,3.8,0.4,5.5,1.2
			c1.6,0.8,3.1,1.9,4.2,3.3c1.1,1.3,2.1,2.9,2.8,4.6c0.7,1.7,1,3.4,1,5.2c0,1.9-0.3,3.7-1.1,5.3c-0.7,1.7-1.6,3.2-2.9,4.5
			c-1.2,1.3-2.6,2.4-4.3,3.1C317.2,350.8,315.4,351.2,313.5,351.2z M305.3,337c0,1.2,0.2,2.4,0.6,3.5c0.3,1.1,0.9,2.1,1.6,3
			s1.5,1.5,2.5,2.1c1,0.5,2.1,0.8,3.4,0.8c1.3,0,2.4-0.2,3.5-0.8c1-0.6,1.9-1.2,2.5-2.1c0.7-0.9,1.2-1.9,1.5-3s0.6-2.3,0.6-3.4
			c0-1.2-0.2-2.4-0.6-3.5c-0.4-1.1-0.9-2.1-1.6-3s-1.5-1.5-2.5-2c-1-0.5-2.1-0.7-3.4-0.7c-1.3,0-2.4,0.2-3.5,0.8
			c-1.1,0.6-1.9,1.2-2.5,2.1s-1.2,1.9-1.5,3C305.5,334.7,305.3,335.9,305.3,337z"/>
		<path class="st1" d="M354,350.9v-18.5l-7.2,13.8h-2.9l-7.2-13.8v18.5h-5.5v-27.9h5.8l8.2,15.9l8.3-15.9h5.8v27.9H354z"/>
	</g>
	<g>
		<path class="st1" d="M166,323.1h4.8l10.6,27.9h-5.6l-2.6-6.9h-9.8l-2.5,6.9h-5.6L166,323.1z M172.2,340.2l-3.8-11l-4,11H172.2z"/>
		<path class="st1" d="M184.5,350.9v-27.9h11.8c1.3,0,2.4,0.2,3.6,0.8c1.1,0.6,2,1.2,2.8,2.1c0.8,0.9,1.4,1.9,1.9,3
			c0.4,1.1,0.7,2.2,0.7,3.3s-0.2,2.4-0.7,3.4c-0.4,1.1-1,2.1-1.8,2.9c-0.7,0.9-1.7,1.5-2.8,2.1c-1.1,0.5-2.3,0.8-3.5,0.8h-6.6v9.4
			L184.5,350.9L184.5,350.9z M189.9,336.9h6.3c1,0,1.8-0.4,2.5-1.2c0.7-0.8,1-1.9,1-3.3c0-0.7-0.1-1.3-0.3-1.9
			c-0.2-0.6-0.5-1.1-0.8-1.5c-0.3-0.4-0.7-0.7-1.2-0.9c-0.5-0.2-0.9-0.3-1.4-0.3h-6V336.9L189.9,336.9z"/>
		<path class="st1" d="M209,350.9v-27.9h11.8c1.3,0,2.4,0.2,3.6,0.8c1.1,0.6,2,1.2,2.8,2.1c0.8,0.9,1.4,1.9,1.9,3
			c0.4,1.1,0.7,2.2,0.7,3.3s-0.2,2.4-0.7,3.4c-0.4,1.1-1,2.1-1.8,2.9c-0.7,0.9-1.7,1.5-2.8,2.1c-1.1,0.5-2.3,0.8-3.5,0.8h-6.6v9.4
			L209,350.9L209,350.9z M214.4,336.9h6.3c1,0,1.8-0.4,2.5-1.2c0.7-0.8,1-1.9,1-3.3c0-0.7-0.1-1.3-0.3-1.9c-0.2-0.6-0.5-1.1-0.8-1.5
			c-0.3-0.4-0.7-0.7-1.2-0.9c-0.5-0.2-0.9-0.3-1.4-0.3h-6V336.9L214.4,336.9z"/>
	</g>
</g>
</svg>
