<?xml version="1.0" encoding="utf-8"?>
<!-- Generator: Adobe Illustrator 22.0.1, SVG Export Plug-In . SVG Version: 6.00 Build 0)  -->
<svg version="1.1" id="Layer_1" xmlns="http://www.w3.org/2000/svg" xmlns:xlink="http://www.w3.org/1999/xlink" x="0px" y="0px"
	 viewBox="0 0 520 520" style="enable-background:new 0 0 520 520;" xml:space="preserve">
<style type="text/css">
	.st0{fill:#FFFFFF;}
	.st1{fill:#444444;}
	.st2{fill:#00A9A8;}
	.st3{fill:#3C3C3B;}
</style>
<g>
	<rect class="st0" width="520" height="520"/>
</g>
<polygon class="st1" points="162.7,186.7 150,173.8 149.9,173.9 149.7,173.8 149.7,174 102.8,221 102.8,280.5 111.3,280.5 
	111.3,224.5 149.9,185.9 188.5,224.5 188.5,259.3 196.9,260.2 196.9,221 "/>
<circle class="st2" cx="142.2" cy="250.8" r="3.3"/>
<path class="st2" d="M164.1,229c-1.3-1.3-3.3-1.3-4.6,0l-8.3,8.3c-2.6-1.7-5.7-2.7-9-2.7c-3.3,0-6.4,1-9,2.7L125,229
	c-1.3-1.3-3.3-1.3-4.6,0c-1.3,1.3-1.3,3.3,0,4.6l8.3,8.3c-1.7,2.6-2.7,5.7-2.7,9c0,3.3,1,6.4,2.7,9l-8.3,8.3c-1.3,1.3-1.3,3.3,0,4.6
	c0.6,0.6,1.5,1,2.3,1c0.8,0,1.7-0.3,2.3-1l8.3-8.3c2.6,1.7,5.7,2.7,9,2.7c3.3,0,6.4-1,9-2.7l8.3,8.3c0.6,0.6,1.5,1,2.3,1
	s1.7-0.3,2.3-1c1.3-1.3,1.3-3.3,0-4.6l-8.3-8.3c1.7-2.6,2.7-5.7,2.7-9c0-3.3-1-6.4-2.7-9l8.3-8.3C165.4,232.3,165.4,230.2,164.1,229
	z M132.4,250.8c0-5.4,4.4-9.8,9.8-9.8c5.4,0,9.8,4.4,9.8,9.8c0,5.4-4.4,9.8-9.8,9.8C136.8,260.6,132.4,256.2,132.4,250.8z"/>
<path class="st2" d="M177.1,234.5c-1.8,0-3.3,1.5-3.3,3.3v26.1c0,1.8,1.5,3.3,3.3,3.3s3.3-1.5,3.3-3.3v-26.1
	C180.3,236,178.9,234.5,177.1,234.5z"/>
<g>
	<path class="st3" d="M93.1,254.8v15.1c0,1.4,1.2,2.5,2.6,2.5h7.9v-5h-5.3v-10h5.3v-5h-7.9C94.2,252.3,93.1,253.4,93.1,254.8z"/>
	<path class="st3" d="M103.6,232.2v-5h-7.9c-1.5,0-2.6,1.1-2.6,2.5v15.1c0,1.4,1.2,2.5,2.6,2.5h7.9v-5h-5.3v-10H103.6z"/>
</g>
<path class="st1" d="M188.5,224.5l8.5-3.5l0,38.2c0,1.6,0.1,3.3,0.2,5c0.2,1.7,0.6,3.2,1.4,4.5c0.7,1.3,1.9,2.4,3.4,3.3
	c1.5,0.9,3.7,1.3,6.4,1.3c2.8,0,4.9-0.4,6.4-1.3c1.5-0.9,2.6-2,3.4-3.3c0.7-1.3,1.2-2.8,1.4-4.5c0.2-1.7,0.2-3.3,0.2-5V231h8.5v31
	c0,3.1-0.5,5.8-1.4,8.1c-1,2.3-2.3,4.2-4,5.8c-1.7,1.6-3.8,2.7-6.3,3.5c-2.4,0.8-5.2,1.2-8.1,1.2s-5.7-0.4-8.1-1.2
	c-2.4-0.8-4.5-1.9-6.3-3.5c-1.7-1.6-3.1-3.5-4-5.8c-1-2.3-1.4-5-1.4-8.1L188.5,224.5z"/>
<path class="st1" d="M232,244.3h8.2l6.9,26.2h0.1l6.6-26.2h7.8l6.3,26.2h0.1l7.1-26.2h7.9l-11,35.1h-7.9l-6.5-26.1h-0.1l-6.4,26.1
	h-8.1L232,244.3z"/>
<path class="st2" d="M287.4,231h8.5V253l21.6-22.1h10.4l-19.3,19.3l20.7,29.1h-10.6l-15.9-23.1l-6.9,6.9v16.3h-8.5V231z"/>
<path class="st2" d="M331.3,231h7.7v48.4h-7.7V231z"/>
<path class="st2" d="M376.5,279.4h-7.6v-4.9h-0.1c-1,1.8-2.4,3.2-4.2,4.2c-1.9,1.1-3.8,1.6-5.7,1.6c-4.6,0-7.9-1.1-10-3.4
	c-2.1-2.3-3.1-5.7-3.1-10.3v-22.3h7.7v21.5c0,3.1,0.6,5.2,1.8,6.5c1.2,1.3,2.8,1.9,5,1.9c1.6,0,3-0.2,4.1-0.7c1.1-0.5,2-1.2,2.6-2
	c0.7-0.8,1.2-1.8,1.5-3c0.3-1.2,0.4-2.4,0.4-3.8v-20.4h7.7V279.4z"/>
<path class="st2" d="M383.2,231h7.7v7.3h-7.7V231z M383.2,244.3h7.7v35.1h-7.7V244.3z"/>
<path class="st2" d="M403.5,268.1c0.2,2.3,1.1,3.8,2.6,4.7c1.5,0.9,3.3,1.4,5.4,1.4c0.7,0,1.5-0.1,2.5-0.2c0.9-0.1,1.8-0.3,2.6-0.6
	c0.8-0.3,1.5-0.8,2-1.4c0.5-0.6,0.8-1.4,0.7-2.4c0-1-0.4-1.8-1.1-2.4c-0.7-0.6-1.6-1.1-2.6-1.5c-1.1-0.4-2.3-0.7-3.6-1
	c-1.4-0.3-2.7-0.6-4.1-0.9c-1.4-0.3-2.8-0.7-4.2-1.2c-1.3-0.5-2.5-1.1-3.6-1.8c-1.1-0.8-1.9-1.8-2.5-3c-0.6-1.2-1-2.7-1-4.4
	c0-1.9,0.5-3.5,1.4-4.8c0.9-1.3,2.1-2.3,3.5-3.1c1.4-0.8,3-1.3,4.7-1.7c1.7-0.3,3.4-0.5,5-0.5c1.8,0,3.5,0.2,5.2,0.6
	c1.6,0.4,3.1,1,4.5,1.9c1.3,0.9,2.4,2,3.3,3.4c0.9,1.4,1.4,3,1.7,5h-8.1c-0.4-1.9-1.2-3.1-2.5-3.7c-1.3-0.6-2.9-1-4.6-1
	c-0.5,0-1.2,0-1.9,0.1c-0.7,0.1-1.4,0.3-2.1,0.5c-0.7,0.2-1.2,0.6-1.7,1.1c-0.5,0.5-0.7,1.1-0.7,1.9c0,0.9,0.3,1.7,1,2.3
	c0.7,0.6,1.5,1.1,2.6,1.5c1.1,0.4,2.3,0.7,3.6,1c1.4,0.3,2.8,0.6,4.2,0.9c1.4,0.3,2.8,0.7,4.1,1.2c1.4,0.5,2.6,1.1,3.6,1.8
	c1.1,0.8,1.9,1.7,2.6,2.9c0.7,1.2,1,2.6,1,4.3c0,2.1-0.5,3.8-1.4,5.3c-1,1.4-2.2,2.6-3.7,3.5c-1.5,0.9-3.2,1.6-5.1,2
	c-1.9,0.4-3.7,0.6-5.5,0.6c-2.2,0-4.3-0.2-6.1-0.7c-1.9-0.5-3.5-1.3-4.9-2.3c-1.4-1-2.5-2.3-3.3-3.8c-0.8-1.5-1.2-3.3-1.3-5.4H403.5
	z"/>
</svg>
