<?xml version="1.0" encoding="utf-8"?>
<!-- Generator: Adobe Illustrator 22.0.0, SVG Export Plug-In . SVG Version: 6.00 Build 0)  -->
<svg version="1.1" id="Layer_1" xmlns="http://www.w3.org/2000/svg" xmlns:xlink="http://www.w3.org/1999/xlink" x="0px" y="0px"
	 viewBox="0 0 520 520" style="enable-background:new 0 0 520 520;" xml:space="preserve">
<style type="text/css">
	.st0{fill:#FFFFFF;}
	.st1{fill:#1B3359;}
	.st2{clip-path:url(#SVGID_2_);fill:#95C11F;}
	.st3{clip-path:url(#SVGID_2_);fill:#1B3359;}
	.st4{fill:#95C11F;}
</style>
<g>
	<rect class="st0" width="520" height="520"/>
</g>
<g>
	<path class="st1" d="M156.7,225.2c0.9,0,1.5-0.2,1.9-0.7c0.4-0.5,0.6-1.3,0.6-2.4v-0.3c0-1.3-0.2-2.2-0.6-2.7
		c-0.4-0.5-1.1-0.8-1.9-0.8c-0.7,0-1.3,0.3-1.7,0.9c-0.4,0.6-0.6,1.5-0.6,2.6c0,1.1,0.2,2,0.6,2.5
		C155.4,224.9,156,225.2,156.7,225.2L156.7,225.2z M156.2,227c-1.3,0-2.2-0.5-2.9-1.4c-0.7-0.9-1.1-2.2-1.1-3.8
		c0-1.6,0.4-2.9,1.1-3.8c0.7-0.9,1.7-1.4,3-1.4c1.3,0,2.3,0.5,3,1.5h0.1c-0.1-0.7-0.2-1.3-0.2-1.7v-3.7h2.1v14.1h-1.7l-0.4-1.3h-0.1
		C158.5,226.5,157.5,227,156.2,227L156.2,227z"/>
	<path class="st1" d="M167.4,218.2c-0.7,0-1.2,0.2-1.6,0.6c-0.4,0.4-0.7,1.1-0.7,1.9h4.6c0-0.8-0.2-1.5-0.6-1.9
		C168.6,218.4,168.1,218.2,167.4,218.2L167.4,218.2z M167.8,227c-1.6,0-2.8-0.5-3.7-1.4c-0.9-0.9-1.3-2.2-1.3-3.8
		c0-1.6,0.4-2.9,1.2-3.9c0.8-0.9,1.9-1.4,3.4-1.4c1.3,0,2.4,0.4,3.1,1.2c0.8,0.8,1.2,1.9,1.2,3.3v1.2H165c0,1,0.3,1.7,0.8,2.2
		c0.5,0.5,1.2,0.8,2.1,0.8c0.6,0,1.1-0.1,1.7-0.2c0.5-0.1,1.1-0.3,1.6-0.6v1.7c-0.5,0.2-1,0.4-1.6,0.5
		C169.1,226.9,168.5,227,167.8,227L167.8,227z"/>
	<path class="st1" d="M188.4,226.8h-2.7l-6.5-10.6h-0.1l0,0.6c0.1,1.1,0.1,2.2,0.1,3.1v6.9h-2v-13.3h2.6l6.5,10.5h0.1
		c0-0.1,0-0.6-0.1-1.5c0-0.9-0.1-1.6-0.1-2v-6.9h2V226.8L188.4,226.8z"/>
	<path class="st1" d="M193.8,225.3c0.8,0,1.4-0.2,1.9-0.6c0.5-0.4,0.7-1,0.7-1.8V222l-1.3,0.1c-1,0-1.7,0.2-2.2,0.5
		c-0.5,0.3-0.7,0.8-0.7,1.4c0,0.4,0.1,0.8,0.4,1C192.9,225.2,193.3,225.3,193.8,225.3L193.8,225.3z M197,226.8l-0.4-1.4h-0.1
		c-0.5,0.6-1,1-1.5,1.2c-0.5,0.2-1.1,0.3-1.9,0.3c-1,0-1.8-0.3-2.3-0.8c-0.6-0.5-0.8-1.3-0.8-2.3c0-1,0.4-1.8,1.2-2.3
		s1.9-0.8,3.5-0.9l1.7-0.1v-0.5c0-0.6-0.1-1.1-0.4-1.4c-0.3-0.3-0.8-0.5-1.4-0.5c-0.5,0-1,0.1-1.5,0.2c-0.5,0.2-0.9,0.3-1.4,0.5
		l-0.7-1.5c0.5-0.3,1.1-0.5,1.8-0.6c0.6-0.1,1.3-0.2,1.8-0.2c1.3,0,2.2,0.3,2.9,0.8c0.6,0.6,1,1.4,1,2.6v6.8H197L197,226.8z"/>
	<path class="st1" d="M204.3,225.2c0.5,0,1-0.1,1.6-0.2v1.6c-0.2,0.1-0.5,0.2-0.9,0.3c-0.4,0.1-0.8,0.1-1.2,0.1c-2,0-3-1.1-3-3.2
		v-5.4h-1.4v-0.9l1.5-0.8l0.7-2.1h1.3v2.2h2.9v1.6h-2.9v5.4c0,0.5,0.1,0.9,0.4,1.1C203.6,225.1,203.9,225.2,204.3,225.2L204.3,225.2
		z"/>
	<path class="st1" d="M209.1,226.8h-2.1v-10h2.1V226.8L209.1,226.8z M206.8,214.1c0-0.4,0.1-0.7,0.3-0.9c0.2-0.2,0.5-0.3,0.9-0.3
		c0.4,0,0.7,0.1,0.9,0.3c0.2,0.2,0.3,0.5,0.3,0.9c0,0.4-0.1,0.6-0.3,0.9c-0.2,0.2-0.5,0.3-0.9,0.3c-0.4,0-0.7-0.1-0.9-0.3
		C206.9,214.7,206.8,214.4,206.8,214.1L206.8,214.1z"/>
	<path class="st1" d="M212.8,221.7c0,2.3,0.9,3.5,2.6,3.5c1.7,0,2.5-1.2,2.5-3.5c0-2.3-0.9-3.4-2.6-3.4c-0.9,0-1.5,0.3-1.9,0.9
		C213,219.8,212.8,220.6,212.8,221.7L212.8,221.7z M220.1,221.7c0,1.6-0.4,2.9-1.3,3.8c-0.8,0.9-2,1.4-3.5,1.4
		c-0.9,0-1.8-0.2-2.5-0.6c-0.7-0.4-1.3-1-1.7-1.8c-0.4-0.8-0.6-1.7-0.6-2.8c0-1.6,0.4-2.9,1.3-3.8c0.8-0.9,2-1.4,3.5-1.4
		c1.5,0,2.6,0.5,3.4,1.4C219.7,218.9,220.1,220.2,220.1,221.7L220.1,221.7z"/>
	<path class="st1" d="M230.4,226.8h-2.1v-6.2c0-0.8-0.2-1.4-0.5-1.7c-0.3-0.4-0.8-0.6-1.5-0.6c-0.9,0-1.6,0.3-2,0.8
		c-0.4,0.5-0.6,1.4-0.6,2.7v5h-2.1v-10h1.7l0.3,1.3h0.1c0.3-0.5,0.7-0.8,1.3-1.1c0.6-0.3,1.2-0.4,1.9-0.4c2.4,0,3.6,1.2,3.6,3.7
		V226.8L230.4,226.8z"/>
	<path class="st1" d="M235.6,225.3c0.8,0,1.4-0.2,1.9-0.6c0.5-0.4,0.7-1,0.7-1.8V222l-1.3,0.1c-1,0-1.7,0.2-2.2,0.5
		c-0.5,0.3-0.7,0.8-0.7,1.4c0,0.4,0.1,0.8,0.4,1C234.6,225.2,235,225.3,235.6,225.3L235.6,225.3z M238.7,226.8l-0.4-1.4h-0.1
		c-0.5,0.6-1,1-1.5,1.2c-0.5,0.2-1.1,0.3-1.9,0.3c-1,0-1.8-0.3-2.3-0.8c-0.6-0.5-0.8-1.3-0.8-2.3c0-1,0.4-1.8,1.2-2.3
		c0.8-0.5,1.9-0.8,3.5-0.9l1.7-0.1v-0.5c0-0.6-0.1-1.1-0.4-1.4c-0.3-0.3-0.8-0.5-1.4-0.5c-0.5,0-1,0.1-1.5,0.2
		c-0.5,0.2-0.9,0.3-1.4,0.5l-0.7-1.5c0.5-0.3,1.1-0.5,1.8-0.6c0.6-0.1,1.3-0.2,1.8-0.2c1.3,0,2.2,0.3,2.9,0.8c0.7,0.6,1,1.4,1,2.6
		v6.8H238.7L238.7,226.8z"/>
	<polygon class="st1" points="244.5,226.8 242.3,226.8 242.3,212.7 244.5,212.7 244.5,226.8 	"/>
	<path class="st1" d="M250.6,218.2c-0.7,0-1.2,0.2-1.6,0.6c-0.4,0.4-0.7,1.1-0.7,1.9h4.6c0-0.8-0.2-1.5-0.6-1.9
		C251.8,218.4,251.2,218.2,250.6,218.2L250.6,218.2z M250.9,227c-1.6,0-2.8-0.5-3.7-1.4c-0.9-0.9-1.3-2.2-1.3-3.8
		c0-1.6,0.4-2.9,1.2-3.9c0.8-0.9,1.9-1.4,3.4-1.4c1.3,0,2.4,0.4,3.1,1.2c0.8,0.8,1.2,1.9,1.2,3.3v1.2h-6.7c0,1,0.3,1.7,0.8,2.2
		c0.5,0.5,1.2,0.8,2.1,0.8c0.6,0,1.1-0.1,1.7-0.2c0.5-0.1,1.1-0.3,1.6-0.6v1.7c-0.5,0.2-1,0.4-1.6,0.5
		C252.2,226.9,251.6,227,250.9,227L250.9,227z"/>
	<g>
		<defs>
			<rect id="SVGID_1_" x="82.3" y="204" width="358.7" height="73"/>
		</defs>
		<clipPath id="SVGID_2_">
			<use xlink:href="#SVGID_1_"  style="overflow:visible;"/>
		</clipPath>
		<polygon class="st2" points="136.5,223.5 105.9,254.2 93.3,241.6 89.8,245 105.9,261.1 140,227 136.5,223.5 		"/>
		<polygon class="st3" points="82.3,231.6 82.3,266.4 87.3,266.4 87.3,233.6 109.9,211 126.5,227.6 130,224.1 109.9,204 82.3,231.6 
					"/>
		<polygon class="st3" points="152,247.8 137.5,247.8 137.5,234.7 132.5,239.6 132.5,266.4 137.5,266.4 137.5,252.2 152,252.2 
			152,266.4 157.2,266.4 157.2,234.9 152,234.9 152,247.8 		"/>
		<path class="st3" d="M171.8,258.6c-0.3,1.1-0.6,2.1-0.7,2.9H171c-0.2-1.7-0.7-3.5-1.5-5.4l-4.9-13.5h-5.5l9.6,23.9l-0.9,2.2
			c-1,2.8-2.7,4.2-5.2,4.2c-1,0-1.8-0.1-2.6-0.3v4c1.1,0.2,2.2,0.4,3.3,0.4c4.3,0,7.4-2.5,9.3-7.4l10.2-27h-5.5
			C174,252.1,172.2,257.5,171.8,258.6L171.8,258.6z"/>
		<path class="st3" d="M199.2,260.5c-0.9,1.4-2.3,2.2-4.1,2.2c-2.1,0-3.6-0.7-4.5-2c-0.9-1.3-1.4-3.4-1.4-6.3v-0.8
			c0-2.6,0.5-4.5,1.4-5.7c0.9-1.2,2.4-1.8,4.4-1.8c1.8,0,3.2,0.7,4.2,2.1c0.9,1.4,1.4,3.4,1.4,6.1
			C200.6,257,200.2,259.1,199.2,260.5L199.2,260.5z M196.4,242.1c-3.2,0-5.5,1.2-7.1,3.6H189c-0.4-1.7-0.6-2.7-0.7-3.2h-4.1V277h5.1
			v-9.8c0-0.4-0.1-1.7-0.3-3.7h0.3c1.7,2.2,4,3.3,7,3.3c3,0,5.3-1.1,7-3.3c1.7-2.2,2.5-5.2,2.5-9.1c0-3.9-0.8-6.9-2.5-9.1
			C201.7,243.2,199.4,242.1,196.4,242.1L196.4,242.1z"/>
	</g>
	<path class="st1" d="M219.4,262.7c-4.1,0-6.1-2.8-6.1-8.3c0-2.6,0.5-4.7,1.4-6.1c1-1.4,2.5-2.1,4.6-2.1c4.1,0,6.1,2.7,6.1,8.2
		C225.5,259.9,223.4,262.7,219.4,262.7L219.4,262.7z M219.5,242.1c-3.6,0-6.4,1.1-8.4,3.3c-2,2.2-3,5.2-3,9.1c0,2.5,0.5,4.7,1.4,6.6
		c0.9,1.9,2.2,3.3,3.9,4.3c1.7,1,3.7,1.5,5.9,1.5c3.6,0,6.3-1.1,8.3-3.3c2-2.2,3-5.2,3-9.1c0-3.8-1-6.8-3-9
		C225.6,243.2,222.9,242.1,219.5,242.1L219.5,242.1z"/>
	<path class="st1" d="M240.8,261.8c-0.6-0.6-0.9-1.5-0.9-2.7v-12.8h6.8v-3.8h-6.8v-5.3h-3.1l-1.7,5l-3.5,1.9v2.2h3.3v12.9
		c0,5.1,2.4,7.6,7.2,7.6c0.9,0,1.9-0.1,2.8-0.2c0.9-0.2,1.6-0.4,2.2-0.6v-3.8c-1.2,0.4-2.5,0.6-3.7,0.6
		C242.2,262.7,241.4,262.4,240.8,261.8L240.8,261.8z"/>
	<path class="st1" d="M261.8,242.1c-1.6,0-3.1,0.3-4.3,0.9c-1.2,0.6-2.2,1.5-2.9,2.7h-0.3c0.2-1.6,0.3-3,0.3-4.4v-8.5h-5.1v33.6h5.1
		v-11.8c0-3,0.5-5.1,1.5-6.4c1-1.3,2.6-1.9,4.7-1.9c1.6,0,2.8,0.5,3.5,1.4c0.7,0.9,1.1,2.3,1.1,4.1v14.7h5.1v-15.6
		C270.4,245,267.5,242.1,261.8,242.1L261.8,242.1z"/>
	<path class="st1" d="M279.2,251.9c0.2-2,0.8-3.4,1.7-4.5c1-1,2.3-1.5,3.9-1.5c1.6,0,2.9,0.5,3.8,1.5c0.9,1,1.4,2.5,1.4,4.5H279.2
		L279.2,251.9z M284.8,242.1c-3.4,0-6.1,1.1-8,3.3c-1.9,2.2-2.9,5.3-2.9,9.2c0,3.8,1,6.8,3.1,8.9c2.1,2.2,5,3.2,8.7,3.2
		c1.6,0,3.1-0.1,4.3-0.4c1.3-0.2,2.5-0.7,3.8-1.3v-4.1c-1.4,0.6-2.7,1.1-3.9,1.3c-1.2,0.3-2.5,0.4-3.9,0.4c-2.1,0-3.8-0.6-5-1.9
		c-1.2-1.2-1.8-3-1.9-5.3H295v-2.7c0-3.4-0.9-6-2.7-7.9C290.4,243.1,287.9,242.1,284.8,242.1L284.8,242.1z"/>
	<path class="st1" d="M302.4,251.9c0.2-2,0.8-3.4,1.7-4.5c1-1,2.3-1.5,3.9-1.5c1.6,0,2.9,0.5,3.8,1.5c0.9,1,1.4,2.5,1.4,4.5H302.4
		L302.4,251.9z M308,242.1c-3.4,0-6.1,1.1-8,3.3c-1.9,2.2-2.9,5.3-2.9,9.2c0,3.8,1,6.8,3.1,8.9c2.1,2.2,5,3.2,8.7,3.2
		c1.6,0,3.1-0.1,4.3-0.4c1.3-0.2,2.5-0.7,3.8-1.3v-4.1c-1.4,0.6-2.7,1.1-3.9,1.3c-1.2,0.3-2.5,0.4-3.9,0.4c-2.1,0-3.8-0.6-5-1.9
		c-1.2-1.2-1.8-3-1.9-5.3h15.9v-2.7c0-3.4-0.9-6-2.7-7.9C313.6,243.1,311.2,242.1,308,242.1L308,242.1z"/>
	<polygon class="st1" points="342.6,242.5 336.7,242.5 329.5,250.2 326.7,253.8 326.5,253.8 326.8,249.2 326.8,232.8 321.8,232.8 
		321.8,266.4 326.8,266.4 326.8,258.2 329.6,255.9 337.2,266.4 343.2,266.4 333,252.8 342.6,242.5 	"/>
	<path class="st1" d="M359.9,260.5c-0.9,1.4-2.3,2.1-4.1,2.1c-2.1,0-3.6-0.7-4.5-2c-0.9-1.3-1.4-3.4-1.4-6.3v-0.3
		c0-2.8,0.5-4.8,1.4-6c0.9-1.2,2.4-1.8,4.4-1.8c3.7,0,5.6,2.7,5.6,8.1C361.2,257.1,360.8,259.1,359.9,260.5L359.9,260.5z M357,242.1
		c-3.1,0-5.5,1.2-7.1,3.6h-0.2c0-0.3,0.1-1.1,0.1-2.2c0.1-1.2,0.1-2,0.1-2.6v-8h-5.1v33.6h3.8l0.9-2.8h0.3c1.7,2.2,4,3.3,7,3.3
		c3,0,5.3-1.1,7-3.3c1.7-2.2,2.5-5.2,2.5-9.1c0-3.9-0.8-6.9-2.5-9.1C362.3,243.2,360,242.1,357,242.1L357,242.1z"/>
	<path class="st1" d="M380,262.7c-4.1,0-6.1-2.8-6.1-8.3c0-2.6,0.5-4.7,1.4-6.1c1-1.4,2.5-2.1,4.6-2.1c4.1,0,6.1,2.7,6.1,8.2
		C386.1,259.9,384,262.7,380,262.7L380,262.7z M380.1,242.1c-3.6,0-6.4,1.1-8.4,3.3c-2,2.2-3,5.2-3,9.1c0,2.5,0.5,4.7,1.4,6.6
		c0.9,1.9,2.2,3.3,3.9,4.3c1.7,1,3.7,1.5,5.9,1.5c3.6,0,6.3-1.1,8.3-3.3c2-2.2,3-5.2,3-9.1c0-3.8-1-6.8-3-9
		C386.2,243.2,383.5,242.1,380.1,242.1L380.1,242.1z"/>
	<path class="st1" d="M407.3,242.1c-1.6,0-3.1,0.3-4.4,0.9c-1.3,0.6-2.3,1.5-3.1,2.6h-0.3l-0.7-3.1h-4v23.9h5.1v-11.9
		c0-3,0.5-5.1,1.5-6.4c1-1.3,2.6-1.9,4.7-1.9c1.6,0,2.8,0.5,3.5,1.4c0.7,0.9,1.1,2.3,1.1,4.1v14.7h5.1v-15.6
		C415.9,245,413,242.1,407.3,242.1L407.3,242.1z"/>
	<path class="st1" d="M436.1,255.3c0,2.6-0.5,4.5-1.5,5.7c-0.9,1.2-2.5,1.8-4.6,1.8c-1.9,0-3.3-0.7-4.2-2.1c-0.9-1.4-1.4-3.4-1.4-6
		c0-2.7,0.5-4.7,1.4-6.2c1-1.4,2.3-2.2,4.1-2.2c2.1,0,3.6,0.6,4.6,1.9c1,1.3,1.5,3.4,1.5,6.4V255.3L436.1,255.3z M435.9,232.8v8.7
		c0,1,0.1,2.3,0.4,4.1H436c-1.6-2.3-4-3.5-7.2-3.5c-3,0-5.3,1.1-7,3.3c-1.7,2.2-2.5,5.2-2.5,9.1c0,3.9,0.8,6.9,2.5,9.1
		c1.7,2.2,4,3.2,7,3.2c3.1,0,5.5-1.2,7.1-3.6h0.2l0.9,3.1h4v-33.6H435.9L435.9,232.8z"/>
	<polygon class="st4" points="133.8,222.1 142.8,220.8 141.4,229.9 133.8,222.1 	"/>
</g>
</svg>
