<?xml version="1.0" encoding="utf-8"?>
<!-- Generator: Adobe Illustrator 22.0.1, SVG Export Plug-In . SVG Version: 6.00 Build 0)  -->
<svg version="1.1" id="Layer_1" xmlns="http://www.w3.org/2000/svg" xmlns:xlink="http://www.w3.org/1999/xlink" x="0px" y="0px"
	 viewBox="0 0 520 520" style="enable-background:new 0 0 520 520;" xml:space="preserve">
<style type="text/css">
	.st0{fill:#FFFFFF;}
	.st1{fill:#565656;}
	.st2{fill:#3A85DD;}
</style>
<g>
	<rect class="st0" width="520" height="520"/>
</g>
<path class="st1" d="M105.8,240.1L80,217.5c-0.6-0.5-1.4-0.5-2,0l-25.8,22.6c-0.4,0.4-0.7,1-0.7,1.6v38c0,1.1,0.7,2,1.7,2h26.6
	l-0.8-0.9c-0.8-0.9-1.5-1.8-2.2-2.8l-0.2-0.2H54.9v-35L79,221.6l24.1,21.1v4.7l0.3,0.1c0.8,0.3,1.5,0.8,2.2,1.2l0.8,0.5v-7.6
	C106.5,241.1,106.3,240.5,105.8,240.1z"/>
<g>
	<path class="st1" d="M145.5,243v2.6l-5,0.6c0.5,0.6,0.9,1.3,1.2,2.3c0.4,0.9,0.5,2,0.5,3.2c0,2.7-0.9,4.8-2.7,6.4
		c-1.8,1.6-4.3,2.4-7.5,2.4c-0.8,0-1.6-0.1-2.3-0.2c-1.8,0.9-2.6,2.1-2.6,3.5c0,0.7,0.3,1.3,0.9,1.6c0.6,0.4,1.7,0.5,3.1,0.5h4.8
		c2.9,0,5.2,0.6,6.8,1.9c1.6,1.2,2.4,3,2.4,5.4c0,3-1.2,5.3-3.6,6.9c-2.4,1.6-5.9,2.4-10.6,2.4c-3.6,0-6.3-0.7-8.2-2
		c-1.9-1.3-2.9-3.2-2.9-5.6c0-1.7,0.5-3.1,1.6-4.3c1.1-1.2,2.5-2,4.5-2.5c-0.7-0.3-1.3-0.8-1.7-1.5c-0.5-0.7-0.7-1.4-0.7-2.3
		c0-1,0.3-1.9,0.8-2.6c0.5-0.7,1.4-1.5,2.5-2.2c-1.4-0.6-2.5-1.6-3.4-3c-0.9-1.4-1.3-3-1.3-4.8c0-3,0.9-5.3,2.7-6.9s4.3-2.4,7.6-2.4
		c1.4,0,2.7,0.2,3.8,0.5H145.5z M123.9,274.7c0,1.5,0.6,2.6,1.9,3.3c1.2,0.8,3,1.1,5.3,1.1c3.5,0,6-0.5,7.7-1.5
		c1.7-1,2.5-2.4,2.5-4.2c0-1.5-0.5-2.5-1.4-3.1c-0.9-0.6-2.6-0.9-5.1-0.9h-4.9c-1.9,0-3.3,0.4-4.4,1.3
		C124.4,271.7,123.9,273,123.9,274.7z M126.1,251.7c0,1.9,0.5,3.3,1.6,4.3c1.1,1,2.6,1.5,4.5,1.5c4,0,6-2,6-5.9c0-4.1-2-6.1-6.1-6.1
		c-1.9,0-3.4,0.5-4.5,1.6C126.6,248.1,126.1,249.6,126.1,251.7z"/>
	<path class="st1" d="M160.5,242.5c1.2,0,2.3,0.1,3.2,0.3l-0.6,3.8c-1.1-0.2-2.1-0.4-3-0.4c-2.2,0-4.1,0.9-5.6,2.7
		c-1.6,1.8-2.3,4-2.3,6.7v14.6h-4.1V243h3.4l0.5,5h0.2c1-1.8,2.2-3.1,3.6-4.1S158.8,242.5,160.5,242.5z"/>
	<path class="st1" d="M182.5,270.1l-0.8-3.9h-0.2c-1.4,1.7-2.7,2.9-4.1,3.5s-3,0.9-5,0.9c-2.7,0-4.8-0.7-6.3-2.1s-2.3-3.4-2.3-5.9
		c0-5.5,4.4-8.4,13.2-8.6l4.6-0.1v-1.7c0-2.1-0.5-3.7-1.4-4.7s-2.4-1.5-4.4-1.5c-2.3,0-4.8,0.7-7.7,2.1l-1.3-3.1
		c1.3-0.7,2.8-1.3,4.4-1.7c1.6-0.4,3.2-0.6,4.8-0.6c3.2,0,5.6,0.7,7.2,2.2c1.6,1.4,2.3,3.7,2.3,6.9v18.5H182.5z M173.2,267.2
		c2.6,0,4.6-0.7,6-2.1c1.5-1.4,2.2-3.4,2.2-5.9v-2.5l-4.1,0.2c-3.3,0.1-5.6,0.6-7.1,1.5s-2.2,2.3-2.2,4.2c0,1.5,0.5,2.6,1.4,3.4
		S171.5,267.2,173.2,267.2z"/>
	<path class="st1" d="M199.7,267.2c0.7,0,1.4-0.1,2.1-0.2c0.7-0.1,1.2-0.2,1.6-0.3v3.1c-0.4,0.2-1.1,0.4-2,0.5
		c-0.9,0.1-1.6,0.2-2.3,0.2c-5.3,0-7.9-2.8-7.9-8.3v-16.2h-3.9v-2l3.9-1.7l1.7-5.8h2.4v6.3h7.9v3.2h-7.9v16c0,1.6,0.4,2.9,1.2,3.8
		C197.3,266.8,198.4,267.2,199.7,267.2z"/>
	<path class="st1" d="M205.5,235.6c0-0.9,0.2-1.6,0.7-2.1c0.5-0.4,1-0.7,1.7-0.7c0.7,0,1.2,0.2,1.7,0.7c0.5,0.4,0.7,1.1,0.7,2.1
		c0,0.9-0.2,1.6-0.7,2.1c-0.5,0.5-1,0.7-1.7,0.7c-0.7,0-1.3-0.2-1.7-0.7C205.7,237.2,205.5,236.5,205.5,235.6z M209.9,270.1h-4.1
		V243h4.1V270.1z"/>
	<path class="st1" d="M233.1,262.7c0,2.5-0.9,4.5-2.8,5.9c-1.9,1.4-4.5,2.1-7.9,2.1c-3.6,0-6.4-0.6-8.4-1.7v-3.8
		c1.3,0.7,2.7,1.2,4.2,1.6c1.5,0.4,2.9,0.6,4.3,0.6c2.1,0,3.8-0.3,5-1s1.7-1.7,1.7-3.1c0-1.1-0.5-2-1.4-2.7
		c-0.9-0.8-2.7-1.6-5.4-2.7c-2.5-0.9-4.3-1.8-5.4-2.5c-1.1-0.7-1.9-1.5-2.4-2.4c-0.5-0.9-0.8-2-0.8-3.2c0-2.2,0.9-4,2.7-5.2
		c1.8-1.3,4.3-1.9,7.4-1.9c2.9,0,5.8,0.6,8.6,1.8l-1.5,3.3c-2.7-1.1-5.2-1.7-7.4-1.7c-2,0-3.4,0.3-4.4,0.9c-1,0.6-1.5,1.5-1.5,2.5
		c0,0.7,0.2,1.3,0.6,1.9c0.4,0.5,1,1,1.8,1.5c0.8,0.5,2.4,1.1,4.8,2c3.2,1.2,5.4,2.4,6.5,3.5C232.6,259.4,233.1,260.9,233.1,262.7z"
		/>
	<path class="st2" d="M259,270.1l-5-15.9c-0.3-1-0.9-3.2-1.8-6.6H252c-0.7,2.9-1.2,5.1-1.7,6.7l-5.1,15.9h-4.8L233,243h4.3
		c1.8,6.8,3.1,12,4,15.6c0.9,3.6,1.4,6,1.6,7.2h0.2c0.2-0.9,0.5-2.2,0.9-3.7c0.4-1.5,0.8-2.7,1.1-3.6l5-15.6h4.5l4.9,15.6
		c0.9,2.8,1.6,5.2,1.9,7.2h0.2c0.1-0.6,0.2-1.5,0.5-2.8s2-7.9,5.2-20h4.3l-7.5,27.2H259z"/>
	<path class="st2" d="M284.7,270.6c-4,0-7.2-1.2-9.5-3.7s-3.5-5.8-3.5-10.2c0-4.4,1.1-7.9,3.2-10.4c2.2-2.6,5.1-3.9,8.7-3.9
		c3.4,0,6.1,1.1,8.1,3.4s3,5.2,3,8.9v2.6H276c0.1,3.2,0.9,5.6,2.4,7.3c1.5,1.7,3.7,2.5,6.5,2.5c2.9,0,5.8-0.6,8.7-1.8v3.7
		c-1.5,0.6-2.8,1.1-4.1,1.4C288.1,270.5,286.6,270.6,284.7,270.6z M283.6,245.9c-2.2,0-3.9,0.7-5.2,2.1s-2.1,3.4-2.3,5.9h14.2
		c0-2.6-0.6-4.6-1.7-6C287.4,246.6,285.8,245.9,283.6,245.9z"/>
	<path class="st2" d="M311.3,242.5c3.6,0,6.3,1.2,8.3,3.7c2,2.4,3,5.9,3,10.4c0,4.5-1,7.9-3,10.4c-2,2.5-4.8,3.7-8.3,3.7
		c-1.8,0-3.4-0.3-4.8-1c-1.5-0.7-2.7-1.7-3.7-3h-0.3l-0.9,3.5h-3v-38.6h4.1v9.4c0,2.1-0.1,4-0.2,5.7h0.2
		C304.7,243.9,307.6,242.5,311.3,242.5z M310.7,246c-2.8,0-4.8,0.8-6.1,2.4c-1.2,1.6-1.9,4.3-1.9,8.1s0.6,6.5,1.9,8.2
		c1.3,1.6,3.3,2.5,6.1,2.5c2.5,0,4.4-0.9,5.7-2.8c1.2-1.8,1.9-4.5,1.9-7.9c0-3.5-0.6-6.2-1.9-7.9C315.2,246.8,313.3,246,310.7,246z"
		/>
	<path class="st2" d="M335.5,267.2c0.7,0,1.4-0.1,2.1-0.2c0.7-0.1,1.2-0.2,1.6-0.3v3.1c-0.4,0.2-1.1,0.4-2,0.5
		c-0.9,0.1-1.6,0.2-2.3,0.2c-5.3,0-7.9-2.8-7.9-8.3v-16.2h-3.9v-2l3.9-1.7l1.7-5.8h2.4v6.3h7.9v3.2h-7.9v16c0,1.6,0.4,2.9,1.2,3.8
		C333.1,266.8,334.2,267.2,335.5,267.2z"/>
	<path class="st2" d="M365.1,256.5c0,4.4-1.1,7.9-3.3,10.4s-5.3,3.7-9.2,3.7c-2.4,0-4.6-0.6-6.5-1.7c-1.9-1.1-3.3-2.8-4.4-4.9
		c-1-2.1-1.5-4.6-1.5-7.5c0-4.4,1.1-7.9,3.3-10.4c2.2-2.5,5.3-3.7,9.2-3.7c3.8,0,6.8,1.3,9.1,3.8S365.1,252.2,365.1,256.5z
		 M344.4,256.5c0,3.5,0.7,6.1,2.1,7.9c1.4,1.8,3.4,2.7,6.1,2.7s4.7-0.9,6.1-2.7c1.4-1.8,2.1-4.5,2.1-7.9c0-3.5-0.7-6.1-2.1-7.9
		s-3.5-2.7-6.2-2.7c-2.7,0-4.7,0.9-6.1,2.7S344.4,253,344.4,256.5z"/>
	<path class="st2" d="M392.7,256.5c0,4.4-1.1,7.9-3.3,10.4s-5.3,3.7-9.2,3.7c-2.4,0-4.6-0.6-6.5-1.7c-1.9-1.1-3.3-2.8-4.4-4.9
		c-1-2.1-1.5-4.6-1.5-7.5c0-4.4,1.1-7.9,3.3-10.4c2.2-2.5,5.3-3.7,9.2-3.7c3.8,0,6.8,1.3,9.1,3.8S392.7,252.2,392.7,256.5z
		 M372,256.5c0,3.5,0.7,6.1,2.1,7.9c1.4,1.8,3.4,2.7,6.1,2.7s4.7-0.9,6.1-2.7c1.4-1.8,2.1-4.5,2.1-7.9c0-3.5-0.7-6.1-2.1-7.9
		s-3.5-2.7-6.2-2.7c-2.7,0-4.7,0.9-6.1,2.7S372,253,372,256.5z"/>
	<path class="st2" d="M401,270.1h-4.1v-38.6h4.1V270.1z"/>
	<path class="st2" d="M424.2,262.7c0,2.5-0.9,4.5-2.8,5.9c-1.9,1.4-4.5,2.1-7.9,2.1c-3.6,0-6.4-0.6-8.4-1.7v-3.8
		c1.3,0.7,2.7,1.2,4.2,1.6c1.5,0.4,2.9,0.6,4.3,0.6c2.1,0,3.8-0.3,5-1c1.2-0.7,1.7-1.7,1.7-3.1c0-1.1-0.5-2-1.4-2.7
		c-0.9-0.8-2.7-1.6-5.4-2.7c-2.5-0.9-4.3-1.8-5.4-2.5c-1.1-0.7-1.9-1.5-2.4-2.4c-0.5-0.9-0.8-2-0.8-3.2c0-2.2,0.9-4,2.7-5.2
		c1.8-1.3,4.3-1.9,7.4-1.9c2.9,0,5.8,0.6,8.6,1.8l-1.5,3.3c-2.7-1.1-5.2-1.7-7.4-1.7c-2,0-3.4,0.3-4.4,0.9c-1,0.6-1.5,1.5-1.5,2.5
		c0,0.7,0.2,1.3,0.6,1.9c0.4,0.5,1,1,1.8,1.5c0.8,0.5,2.4,1.1,4.8,2c3.2,1.2,5.4,2.4,6.5,3.5C423.6,259.4,424.2,260.9,424.2,262.7z"
		/>
	<path class="st1" d="M427.2,267.5c0-1.1,0.3-1.9,0.8-2.5s1.2-0.9,2.2-0.9c1,0,1.7,0.3,2.2,0.9s0.8,1.4,0.8,2.5
		c0,1.1-0.3,1.9-0.8,2.5c-0.5,0.6-1.3,0.9-2.2,0.9c-0.8,0-1.5-0.3-2.1-0.8C427.5,269.5,427.2,268.7,427.2,267.5z"/>
	<path class="st1" d="M457.4,270.1v-17.6c0-2.2-0.5-3.9-1.5-5c-1-1.1-2.6-1.6-4.7-1.6c-2.8,0-4.9,0.8-6.2,2.3c-1.3,1.5-2,4.1-2,7.6
		v14.3h-4.1V243h3.3l0.7,3.7h0.2c0.8-1.3,2-2.4,3.5-3.1c1.5-0.7,3.2-1.1,5.1-1.1c3.3,0,5.7,0.8,7.4,2.4c1.7,1.6,2.5,4.1,2.5,7.6
		v17.7H457.4z"/>
	<path class="st1" d="M471.6,270.1h-4.1v-38.6h4.1V270.1z"/>
</g>
<g>
	<path class="st2" d="M113.3,265.1c-0.6-9.5-8.2-17.1-17.7-17.7v0h-1.3H93v0c-9.5,0.6-17.1,8.2-17.7,17.7h0v1.3v1.3h0
		c0.6,9.5,8.2,17.1,17.7,17.7v0h1.3h1.3v0c9.5-0.6,17.1-8.2,17.7-17.7h0v-1.3L113.3,265.1L113.3,265.1z M87.2,251.5
		c-1.2,1.6-2.2,3.7-3,6h-3.8C82.1,254.9,84.4,252.8,87.2,251.5z M79.1,260h4.5c-0.3,1.6-0.6,3.3-0.6,5.1h-5.1
		C78,263.3,78.4,261.6,79.1,260z M77.9,267.6h5.1c0.1,1.8,0.3,3.5,0.6,5.1h-4.5C78.4,271.1,78,269.4,77.9,267.6z M80.4,275.2h3.8
		c0.7,2.3,1.8,4.4,3,6C84.4,279.9,82.1,277.8,80.4,275.2z M93,282.7c-2.6-0.7-4.9-3.5-6.2-7.5H93V282.7z M93,272.7h-6.9
		c-0.4-1.6-0.6-3.3-0.7-5.1H93V272.7z M93,265.1h-7.6c0.1-1.8,0.3-3.5,0.7-5.1H93V265.1z M93,257.5h-6.2c1.4-4,3.6-6.8,6.2-7.5
		V257.5z M108.2,257.5h-3.8c-0.7-2.3-1.8-4.4-3-6C104.2,252.8,106.6,254.9,108.2,257.5z M95.6,250c2.6,0.7,4.9,3.5,6.2,7.5h-6.2V250
		z M95.6,260h6.9c0.4,1.6,0.6,3.3,0.7,5.1h-7.6V260z M95.6,267.6h7.6c-0.1,1.8-0.3,3.5-0.7,5.1h-6.9V267.6z M95.6,282.7v-7.5h6.2
		C100.4,279.2,98.2,282,95.6,282.7z M101.4,281.2c1.2-1.6,2.2-3.7,3-6h3.8C106.6,277.8,104.2,279.9,101.4,281.2z M109.5,272.7h-4.5
		c0.3-1.6,0.6-3.3,0.6-5.1h5.1C110.6,269.4,110.2,271.1,109.5,272.7z M105.7,265.1c-0.1-1.8-0.3-3.5-0.6-5.1h4.5
		c0.7,1.6,1.1,3.3,1.2,5.1H105.7z"/>
</g>
</svg>
