<?xml version="1.0" encoding="utf-8"?>
<!-- Generator: Adobe Illustrator 22.1.0, SVG Export Plug-In . SVG Version: 6.00 Build 0)  -->
<svg version="1.1" id="Layer_1" xmlns="http://www.w3.org/2000/svg" xmlns:xlink="http://www.w3.org/1999/xlink" x="0px" y="0px"
	 viewBox="0 0 520 520" style="enable-background:new 0 0 520 520;" xml:space="preserve">
<style type="text/css">
	.st0{fill:#FFFFFF;}
	.st1{fill:#26A6C4;}
	.st2{fill:#2BB2D6;}
	.st3{fill:#999999;}
</style>
<g>
	<rect class="st0" width="520" height="520"/>
</g>
<rect x="120" y="198.5" class="st1" width="100" height="100"/>
<polygon class="st2" points="120,298.5 220,298.5 220,198.5 219.9,198.5 120,298.4 "/>
<g>
	<path class="st0" d="M154.1,216.6v64.7h-14.7v-64.7H154.1z"/>
	<path class="st0" d="M177,228.9h-17.4v-12.3h49.8v12.3h-17.7v52.4H177V228.9z"/>
</g>
<path class="st3" d="M237.9,207.9v14.6h16.9v-14.6h4.6v34.8h-4.6v-16.3h-16.9v16.3h-4.5v-34.9H237.9z"/>
<path class="st3" d="M287,230c0,9.2-6.4,13.3-12.5,13.3c-6.8,0-11.9-4.9-11.9-12.8c0-8.3,5.4-13.3,12.4-13.3
	C282.1,217.1,287,222.4,287,230z M267.1,230.3c0,5.4,3.2,9.6,7.6,9.6c4.3,0,7.6-4,7.6-9.7c0-4.2-2.1-9.6-7.5-9.6
	C269.5,220.6,267.1,225.6,267.1,230.3z"/>
<path class="st3" d="M290.1,206.1h4.6v36.6h-4.6V206.1z"/>
<path class="st3" d="M299.7,206.1h4.6v36.6h-4.6V206.1z"/>
<path class="st3" d="M323.1,242.7l-0.4-3.2h-0.2c-1.4,2-4,3.8-7.6,3.8c-5.1,0-7.6-3.6-7.6-7.2c0-6.1,5.4-9.3,15-9.3v-0.5
	c0-2.1-0.5-5.8-5.7-5.8c-2.3,0-4.7,0.7-6.5,1.8l-1.1-3c2.1-1.3,5.1-2.2,8.2-2.2c7.6,0,9.5,5.2,9.5,10.2v9.3c0,2.2,0.1,4.3,0.4,6
	L323.1,242.7L323.1,242.7z M322.4,230c-4.9-0.1-10.5,0.8-10.5,5.6c0,2.9,1.9,4.3,4.3,4.3c3.3,0,5.4-2.1,6.1-4.2
	c0.2-0.4,0.3-1,0.3-1.4L322.4,230L322.4,230z"/>
<path class="st3" d="M331.6,224.5c0-2.5-0.1-4.7-0.2-6.8h4l0.3,4.1h0.1c1.2-2.4,4.1-4.7,8.3-4.7c3.4,0,8.8,2,8.8,10.6v14.9h-4.6
	v-14.5c0-4-1.5-7.4-5.8-7.4c-3,0-5.4,2.1-6.1,4.7c-0.2,0.5-0.4,1.3-0.4,2.1v15h-4.6L331.6,224.5L331.6,224.5z"/>
<path class="st3" d="M379.3,206.1v30.2c0,2.2,0.1,4.7,0.2,6.4h-4l-0.2-4.3h-0.1c-1.4,2.8-4.5,4.9-8.5,4.9c-6.1,0-10.7-5.1-10.7-12.7
	c-0.1-8.3,5.1-13.4,11.2-13.4c3.8,0,6.4,1.8,7.6,3.8h0.1V206L379.3,206.1L379.3,206.1z M374.7,227.9c0-0.5-0.1-1.3-0.2-1.9
	c-0.7-2.9-3.2-5.3-6.6-5.3c-4.7,0-7.5,4.1-7.5,9.7c0,5.1,2.5,9.2,7.4,9.2c3.1,0,5.8-2,6.7-5.4c0.2-0.6,0.2-1.2,0.2-1.9V227.9z"/>
<path class="st3" d="M237.9,253.4v34.8h-4.5v-34.8H237.9z"/>
<path class="st3" d="M249.8,257.3h-10.5v-3.8H265v3.8h-10.6v31h-4.6V257.3z"/>
<path class="st3" d="M311.5,286.7c-2,0.7-6,1.9-10.7,1.9c-5.3,0-9.6-1.3-13-4.6c-3-2.9-4.8-7.6-4.8-12.9
	c0.1-10.4,7.2-17.9,18.8-17.9c4,0,7.2,0.9,8.7,1.6l-1.1,3.7c-1.8-0.8-4.2-1.5-7.7-1.5c-8.4,0-14,5.3-14,14c0,8.8,5.4,14.1,13.4,14.1
	c2.9,0,4.9-0.4,6-1v-10.5H300V270h11.4L311.5,286.7L311.5,286.7z"/>
<path class="st3" d="M315.6,271.1c0-2.9-0.1-5.4-0.2-7.8h4l0.2,4.9h0.2c1.1-3.3,3.9-5.4,6.9-5.4c0.5,0,0.9,0.1,1.3,0.2v4.3
	c-0.4-0.1-1-0.2-1.6-0.2c-3.2,0-5.4,2.5-6.1,5.8c-0.1,0.6-0.2,1.3-0.2,2.1v13.4h-4.5L315.6,271.1L315.6,271.1z"/>
<path class="st3" d="M352,275.6c0,9.2-6.4,13.3-12.5,13.3c-6.8,0-11.9-4.9-11.9-12.8c0-8.3,5.4-13.3,12.4-13.3
	C347.1,262.7,352,268,352,275.6z M332.2,275.8c0,5.4,3.2,9.6,7.6,9.6c4.3,0,7.6-4,7.6-9.7c0-4.2-2.1-9.6-7.5-9.6
	C334.5,266.1,332.2,271.1,332.2,275.8z"/>
<path class="st3" d="M376,281.5c0,2.5,0.1,4.8,0.2,6.9h-4l-0.3-4h-0.1c-1.2,2-3.8,4.7-8.3,4.7c-4,0-8.6-2.2-8.6-11v-14.7h4.6v13.8
	c0,4.7,1.4,7.9,5.5,7.9c3.1,0,5.2-2.1,6-4.1c0.3-0.7,0.4-1.5,0.4-2.3v-15.3h4.6L376,281.5L376,281.5z"/>
<path class="st3" d="M381,271.5c0-3.2-0.1-5.8-0.2-8.2h4l0.2,4.3h0.1c1.8-3.1,4.8-4.8,8.9-4.8c6.1,0,10.5,5.1,10.5,12.7
	c0,9-5.4,13.4-11.3,13.4c-3.3,0-6.2-1.4-7.7-4h-0.1v13.6H381L381,271.5L381,271.5z M385.5,278.1c0,0.7,0.1,1.3,0.2,1.8
	c0.8,3.2,3.6,5.4,6.9,5.4c4.8,0,7.6-4,7.6-9.7c0-5-2.6-9.3-7.5-9.3c-3.1,0-6,2.2-6.9,5.6c-0.2,0.5-0.4,1.2-0.4,1.8L385.5,278.1
	L385.5,278.1z"/>
<g>
	<rect x="139.5" y="274.1" class="st2" width="7.4" height="7.4"/>
	<rect x="146.8" y="274.1" class="st0" width="7.4" height="7.4"/>
	<rect x="139.5" y="266.7" class="st0" width="7.4" height="7.4"/>
	<rect x="146.8" y="266.7" class="st2" width="7.4" height="7.4"/>
	<rect x="139.5" y="259.3" class="st2" width="7.4" height="7.4"/>
	<rect x="146.8" y="259.3" class="st0" width="7.4" height="7.4"/>
</g>
<g>
	<rect x="176.9" y="274.1" class="st2" width="7.4" height="7.4"/>
	<rect x="184.3" y="274.1" class="st0" width="7.4" height="7.4"/>
	<rect x="176.9" y="266.7" class="st0" width="7.4" height="7.4"/>
	<rect x="184.3" y="266.7" class="st2" width="7.4" height="7.4"/>
	<rect x="176.9" y="259.3" class="st2" width="7.4" height="7.4"/>
	<rect x="184.3" y="259.3" class="st0" width="7.4" height="7.4"/>
</g>
<rect x="265" y="270.4" class="st3" width="13" height="4"/>
</svg>
