<?xml version="1.0" encoding="utf-8"?>
<!-- Generator: Adobe Illustrator 22.0.0, SVG Export Plug-In . SVG Version: 6.00 Build 0)  -->
<svg version="1.1" id="Layer_1" xmlns="http://www.w3.org/2000/svg" xmlns:xlink="http://www.w3.org/1999/xlink" x="0px" y="0px"
	 viewBox="0 0 520 520" style="enable-background:new 0 0 520 520;" xml:space="preserve">
<style type="text/css">
	.st0{fill:#FFFFFF;}
	.st1{fill:#9E9D9C;}
	.st2{clip-path:url(#SVGID_2_);fill:#9E9D9C;}
	.st3{clip-path:url(#SVGID_2_);fill:#EC681D;}
	.st4{fill:#EC681D;}
</style>
<g>
	<rect class="st0" width="520" height="520"/>
</g>
<g>
	<path class="st1" d="M156,287.2h17.6v1.4c0,3.2-0.4,6-1.1,8.5c-0.7,2.3-2,4.4-3.7,6.4c-3.9,4.4-9,6.7-15.1,6.7
		c-5.9,0-11-2.1-15.3-6.4c-4.2-4.3-6.4-9.5-6.4-15.5c0-6.2,2.2-11.4,6.5-15.7c4.3-4.3,9.6-6.5,15.7-6.5c3.3,0,6.4,0.7,9.3,2
		c2.8,1.4,5.5,3.6,8.1,6.6l-4.6,4.4c-3.5-4.6-7.7-7-12.7-7c-4.5,0-8.3,1.5-11.3,4.7c-3,3-4.6,6.9-4.6,11.4c0,4.7,1.7,8.6,5.1,11.7
		c3.2,2.8,6.6,4.3,10.3,4.3c3.2,0,6-1.1,8.5-3.2c2.5-2.1,3.9-4.7,4.2-7.7H156V287.2L156,287.2z"/>
	<polygon class="st1" points="178.6,287.3 189.8,287.3 189.8,293.2 178.6,293.2 178.6,287.3 	"/>
	<path class="st1" d="M201.1,303.3h4c2.9,0,5-0.6,6.4-1.7c1.4-1.2,2.1-2.8,2.1-4.7c0-1.8-0.7-3.4-2.1-4.6c-1.3-1.2-3.7-1.8-7.2-1.8
		h-3.2V303.3L201.1,303.3z M201.1,285.1h2c2.4,0,4.1-0.5,5.2-1.6c1.1-1.1,1.7-2.6,1.7-4.7c0-2-0.6-3.5-1.7-4.6c-1.1-1-2.8-1.6-5-1.6
		h-2.3V285.1L201.1,285.1z M194.7,309.3v-42.5h6.4c2.8,0,5.1,0.2,6.8,0.7c1.7,0.4,3.1,1.2,4.3,2.2c1.2,1.1,2.1,2.4,2.8,4
		c0.7,1.6,1.1,3.3,1.1,5c0,3-1.2,5.6-3.5,7.7c2.3,0.8,4,2.1,5.3,4c1.3,1.9,2,4.1,2,6.7c0,3.3-1.2,6.1-3.5,8.4
		c-1.4,1.4-3,2.4-4.8,2.9c-1.9,0.5-4.3,0.8-7.2,0.8H194.7L194.7,309.3z"/>
	<path class="st1" d="M233,286.4h2c6.1,0,9.1-2.3,9.1-7c0-4.3-3-6.5-8.9-6.5H233V286.4L233,286.4z M241,291.2l13.2,18.1h-7.8
		l-12.1-17.4H233v17.4h-6.4v-42.5h7.5c5.6,0,9.7,1.1,12.2,3.2c2.8,2.3,4.1,5.4,4.1,9.3c0,3-0.9,5.6-2.6,7.8
		C246.1,289.2,243.9,290.6,241,291.2L241,291.2z"/>
	<path class="st1" d="M281.5,293l-6.3-14.4l-6.6,14.4H281.5L281.5,293z M284.1,299h-18.2l-4.7,10.3h-6.9l21-45.2l20.3,45.2h-7
		L284.1,299L284.1,299z"/>
	<polygon class="st1" points="305.9,266.8 305.9,309.3 299.5,309.3 299.5,266.8 305.9,266.8 	"/>
	<polygon class="st1" points="314.7,309.3 314.7,264 345.7,296.4 345.7,266.8 352.1,266.8 352.1,311.9 321.1,279.6 321.1,309.3 
		314.7,309.3 	"/>
	<path class="st1" d="M384.9,273.2l-5.2,3.1c-1-1.7-1.9-2.8-2.8-3.3c-0.9-0.6-2.1-0.9-3.6-0.9c-1.8,0-3.3,0.5-4.4,1.5
		c-1.2,1-1.8,2.2-1.8,3.7c0,2.1,1.5,3.7,4.6,5l4.2,1.7c3.4,1.4,6,3.1,7.6,5.1c1.6,2,2.4,4.5,2.4,7.4c0,3.9-1.3,7.1-3.9,9.7
		c-2.6,2.6-5.9,3.9-9.8,3.9c-3.7,0-6.7-1.1-9.1-3.3c-2.4-2.2-3.8-5.3-4.4-9.2l6.5-1.4c0.3,2.5,0.8,4.2,1.5,5.2
		c1.3,1.8,3.2,2.8,5.8,2.8c2,0,3.7-0.7,5-2c1.3-1.3,2-3,2-5.1c0-0.8-0.1-1.6-0.3-2.3c-0.2-0.7-0.6-1.3-1.1-1.9
		c-0.5-0.6-1.1-1.1-1.9-1.6c-0.8-0.5-1.7-1-2.8-1.4l-4.1-1.7c-5.8-2.5-8.7-6.1-8.7-10.8c0-3.2,1.2-5.9,3.7-8
		c2.4-2.2,5.5-3.2,9.1-3.2C378.3,266,382.1,268.4,384.9,273.2L384.9,273.2z"/>
	<path class="st1" d="M212.7,328c-1.4,0-2.4,0.5-3.2,1.4c-0.8,0.9-1.2,2.1-1.2,3.7c0,1.6,0.4,2.9,1.1,3.8c0.8,0.9,1.8,1.3,3.2,1.3
		c0.9,0,1.8-0.2,3-0.5v1.3c-0.9,0.3-1.9,0.5-3.2,0.5c-1.8,0-3.2-0.6-4.2-1.7c-1-1.1-1.5-2.7-1.5-4.7c0-1.3,0.2-2.4,0.7-3.4
		c0.5-1,1.2-1.7,2.1-2.2c0.9-0.5,2-0.8,3.2-0.8c1.3,0,2.4,0.2,3.4,0.7l-0.6,1.2C214.6,328.2,213.6,328,212.7,328L212.7,328z"/>
	<path class="st1" d="M222.7,333c0,1.7,0.4,2.9,1.1,3.8c0.7,0.9,1.8,1.3,3.1,1.3c1.4,0,2.4-0.4,3.1-1.3c0.7-0.9,1-2.1,1-3.8
		c0-1.7-0.3-2.9-1-3.8c-0.7-0.9-1.7-1.3-3.1-1.3c-1.4,0-2.4,0.4-3.1,1.3C223,330.1,222.7,331.4,222.7,333L222.7,333z M232.5,333
		c0,2-0.5,3.5-1.5,4.7c-1,1.1-2.4,1.7-4.2,1.7c-1.8,0-3.2-0.6-4.2-1.7c-1-1.1-1.5-2.7-1.5-4.7c0-2,0.5-3.6,1.5-4.7
		c1-1.1,2.4-1.7,4.2-1.7c1.8,0,3.2,0.6,4.2,1.7C232,329.5,232.5,331,232.5,333L232.5,333z"/>
	<path class="st1" d="M244.2,339.2l-4.2-11H240c0.1,0.9,0.1,1.9,0.1,3.1v7.9h-1.3v-12.4h2.2l3.9,10.2h0.1l4-10.2h2.2v12.4h-1.4v-8
		c0-0.9,0-1.9,0.1-3h-0.1l-4.2,11H244.2L244.2,339.2z"/>
	<path class="st1" d="M259.3,333.1h1.3c1.3,0,2.2-0.2,2.8-0.6c0.6-0.4,0.9-1.1,0.9-2c0-0.8-0.3-1.4-0.8-1.8
		c-0.5-0.4-1.4-0.6-2.5-0.6h-1.6V333.1L259.3,333.1z M265.7,330.5c0,1.3-0.4,2.2-1.3,2.9c-0.9,0.7-2.1,1-3.7,1h-1.5v4.9h-1.4v-12.4
		h3.2C264.2,326.8,265.7,328.1,265.7,330.5L265.7,330.5z"/>
	<path class="st1" d="M277.6,334l-1.4-3.8c-0.2-0.5-0.4-1.1-0.6-1.8c-0.1,0.5-0.3,1.1-0.5,1.8l-1.5,3.8H277.6L277.6,334z
		 M279.5,339.2l-1.5-3.9h-5l-1.5,3.9h-1.5l4.9-12.4h1.2l4.9,12.4H279.5L279.5,339.2z"/>
	<path class="st1" d="M295.9,339.2h-1.6l-6.8-10.4h-0.1c0.1,1.2,0.1,2.3,0.1,3.4v7h-1.3v-12.4h1.6l6.7,10.3h0.1c0-0.2,0-0.6-0.1-1.5
		c0-0.8-0.1-1.4,0-1.8v-7.1h1.3V339.2L295.9,339.2z"/>
	<g>
		<defs>
			<rect id="SVGID_1_" x="132" y="159" width="254" height="180.4"/>
		</defs>
		<clipPath id="SVGID_2_">
			<use xlink:href="#SVGID_1_"  style="overflow:visible;"/>
		</clipPath>
		<polygon class="st2" points="305.9,333 309.2,326.8 310.7,326.8 306.6,334.4 306.6,339.2 305.2,339.2 305.2,334.5 301,326.8 
			302.6,326.8 305.9,333 		"/>
		<path class="st3" d="M260.5,164.8c-8.9,0-17.4,1.9-24.6,5.7c-9.5,5-15.6,12.5-17,21.3c-1.9,11.6,4.6,23.5,17.3,31.8l1.9,1.2
			l-4.7,13.6l14.3-9.1l1.4,0.5c3.4,1.1,6.9,2,10.5,2.6c3.3,0.5,6.6,0.8,9.9,0.8c21.3,0,39.1-11,41.7-26.9c1.4-8.8-1.9-17.8-9.4-25.4
			c-7.7-7.8-18.8-13.2-31.2-15.2l0,0C267,165.1,263.7,164.8,260.5,164.8L260.5,164.8z M222.3,252.5l8.7-25.3
			c-13.5-9.5-20.2-23-18-36.3c1.7-10.6,8.9-19.7,20.1-25.5c10.9-5.7,24.5-7.6,38.3-5.5c13.7,2.1,26,8.1,34.6,16.9
			c8.8,9,12.7,19.7,11,30.4c-3.1,18.8-23.4,31.8-47.6,31.8c-3.5,0-7.1-0.3-10.7-0.8c-3.4-0.5-6.8-1.3-10.1-2.4L222.3,252.5
			L222.3,252.5z"/>
	</g>
	<path class="st4" d="M300.1,209.1L300.1,209.1l-35.7-8.6l-0.8,2.6l34.3,8.2c-6.3,9.8-22.8,14.4-39.7,10.3
		c-19.2-4.6-31.8-18.7-28.1-31.3c3.7-12.6,22.4-19.1,41.7-14.5c10,2.4,18.2,7.3,23.2,13.3c1-0.4,2-0.7,3.1-1.1
		c-5.4-6.8-14.4-12.3-25.5-15c-21-5-41.4,2.4-45.6,16.5c-4.2,14.2,9.4,29.8,30.4,34.8c20.1,4.8,39.7-1.8,45-14.8L300.1,209.1
		L300.1,209.1z"/>
	<path class="st4" d="M259.5,173c-15.1,0-27.8,6.6-30.9,17.1c-1.9,6.4,0,13.4,5.5,19.6c5.5,6.3,14,11.1,23.8,13.5
		c18.3,4.4,36.5-1.1,42.4-12.5l0,0l-0.9,1.5c-6.7,10.5-24.2,15.1-41.5,11c-20.1-4.8-33.2-19.6-29.2-33c1.9-6.6,7.6-11.8,16-14.7
		c8.2-2.9,18-3.2,27.6-0.8c9.6,2.3,17.8,6.9,23.3,13c0,0,0,0,0,0c-5.5-6-13.9-10.7-23.3-13C268,173.5,263.7,173,259.5,173L259.5,173
		z M270.5,227.5c-4.4,0-8.9-0.5-13.4-1.6c-10.5-2.5-19.5-7.7-25.5-14.5c-6.1-6.9-8.2-14.8-6-22.1c4.4-14.9,25.8-22.8,47.5-17.6
		c10.9,2.6,20.5,8.3,26.3,15.5l1.2,1.5l-1.9,0.7c-1,0.3-2,0.7-3,1.1l-1.1,0.4l-0.7-0.9c-5-5.9-13.2-10.6-22.4-12.8
		c-9-2.2-18.1-1.9-25.7,0.7c-7.4,2.6-12.4,7.1-14.1,12.8c-3.5,11.9,8.6,25.1,27,29.5c15,3.6,30.1,0.2,36.8-8.1l-33.7-8.1l1.6-5.3
		l41.2,9.9l-0.6,1.5C299.5,220.9,286,227.5,270.5,227.5L270.5,227.5z"/>
</g>
</svg>
