<?xml version="1.0" encoding="utf-8"?>
<!-- Generator: Adobe Illustrator 22.0.0, SVG Export Plug-In . SVG Version: 6.00 Build 0)  -->
<svg version="1.1" id="Layer_1" xmlns="http://www.w3.org/2000/svg" xmlns:xlink="http://www.w3.org/1999/xlink" x="0px" y="0px"
	 viewBox="0 0 520 520" style="enable-background:new 0 0 520 520;" xml:space="preserve">
<style type="text/css">
	.st0{fill:#FFFFFF;}
	.st1{fill:#1C3359;}
	.st2{clip-path:url(#SVGID_2_);fill:#1C3359;}
	.st3{clip-path:url(#SVGID_2_);fill:#95C11F;}
	.st4{fill:#95C11F;}
</style>
<g>
	<rect class="st0" width="520" height="520"/>
</g>
<g>
	<path class="st1" d="M79.2,250.9h3.3c3.2,0,5.5-0.5,7-1.6c1.4-1,2.2-2.7,2.2-5c0-2.1-0.7-3.6-2-4.6c-1.4-1-3.5-1.5-6.3-1.5h-4
		V250.9L79.2,250.9z M95.3,244.2c0,3.2-1.1,5.6-3.2,7.3c-2.2,1.7-5.2,2.5-9.2,2.5h-3.7v12.3h-3.6v-31.2h8.1
		C91.4,235.2,95.3,238.2,95.3,244.2L95.3,244.2z"/>
	<path class="st1" d="M102.6,254.6c0,3,0.6,5.3,1.8,6.8c1.2,1.6,2.9,2.3,5.3,2.3c2.3,0,4.1-0.8,5.3-2.3c1.2-1.6,1.8-3.8,1.8-6.8
		c0-3-0.6-5.2-1.8-6.8c-1.2-1.5-3-2.3-5.3-2.3c-2.3,0-4.1,0.8-5.2,2.3C103.2,249.3,102.6,251.6,102.6,254.6L102.6,254.6z
		 M120.4,254.6c0,3.8-1,6.8-2.9,8.9c-1.9,2.1-4.6,3.2-7.9,3.2c-2.1,0-3.9-0.5-5.6-1.5c-1.6-1-2.9-2.4-3.8-4.2
		c-0.9-1.8-1.3-4-1.3-6.4c0-3.8,1-6.8,2.9-8.9c1.9-2.1,4.5-3.2,7.9-3.2c3.3,0,5.9,1.1,7.8,3.3C119.4,248,120.4,250.9,120.4,254.6
		L120.4,254.6z"/>
	<path class="st1" d="M136.1,242.5c1,0,2,0.1,2.8,0.3l-0.5,3.3c-1-0.2-1.8-0.3-2.6-0.3c-1.9,0-3.5,0.8-4.8,2.3c-1.3,1.5-2,3.4-2,5.7
		v12.5h-3.5V243h2.9l0.4,4.3h0.2c0.9-1.5,1.9-2.7,3.1-3.5C133.3,242.9,134.7,242.5,136.1,242.5L136.1,242.5z"/>
	<path class="st1" d="M149.8,263.8c0.6,0,1.2,0,1.8-0.1c0.6-0.1,1-0.2,1.4-0.3v2.7c-0.4,0.2-0.9,0.3-1.7,0.5c-0.7,0.1-1.4,0.2-2,0.2
		c-4.5,0-6.8-2.4-6.8-7.1v-13.9h-3.3V244l3.3-1.5l1.5-5h2v5.4h6.8v2.7H146v13.7c0,1.4,0.3,2.5,1,3.2
		C147.7,263.4,148.6,263.8,149.8,263.8L149.8,263.8z"/>
	<path class="st1" d="M165.4,245.5c-1.9,0-3.4,0.6-4.5,1.8c-1.1,1.2-1.8,2.9-2,5.1h12.2c0-2.2-0.5-3.9-1.5-5.1
		C168.7,246.1,167.3,245.5,165.4,245.5L165.4,245.5z M166.4,266.7c-3.5,0-6.2-1.1-8.2-3.2c-2-2.1-3-5-3-8.8c0-3.8,0.9-6.8,2.8-9
		c1.9-2.2,4.3-3.3,7.5-3.3c2.9,0,5.2,1,6.9,2.9c1.7,1.9,2.6,4.5,2.6,7.6v2.2h-16.1c0.1,2.7,0.8,4.8,2.1,6.2c1.3,1.4,3.2,2.1,5.6,2.1
		c2.5,0,5-0.5,7.5-1.6v3.2c-1.3,0.5-2.4,0.9-3.5,1.2C169.3,266.6,168,266.7,166.4,266.7L166.4,266.7z"/>
	<path class="st1" d="M190.5,245.7h-5.9v20.6H181v-20.6h-4.2v-1.6l4.2-1.3v-1.3c0-5.7,2.5-8.6,7.5-8.6c1.2,0,2.7,0.2,4.3,0.7
		l-0.9,2.8c-1.4-0.4-2.5-0.7-3.5-0.7c-1.3,0-2.3,0.4-3,1.3c-0.6,0.9-1,2.3-1,4.3v1.5h5.9V245.7L190.5,245.7z"/>
	<path class="st1" d="M202.5,245.5c-1.9,0-3.4,0.6-4.5,1.8c-1.1,1.2-1.8,2.9-2,5.1h12.2c0-2.2-0.5-3.9-1.5-5.1
		C205.8,246.1,204.4,245.5,202.5,245.5L202.5,245.5z M203.5,266.7c-3.5,0-6.2-1.1-8.2-3.2c-2-2.1-3-5-3-8.8c0-3.8,0.9-6.8,2.8-9
		c1.9-2.2,4.3-3.3,7.5-3.3c2.9,0,5.2,1,6.9,2.9c1.7,1.9,2.6,4.5,2.6,7.6v2.2H196c0.1,2.7,0.8,4.8,2.1,6.2c1.3,1.4,3.2,2.1,5.6,2.1
		c2.5,0,5-0.5,7.5-1.6v3.2c-1.3,0.5-2.4,0.9-3.5,1.2C206.4,266.6,205.1,266.7,203.5,266.7L203.5,266.7z"/>
	<path class="st1" d="M220.3,243v15.2c0,1.9,0.4,3.3,1.3,4.3c0.9,0.9,2.2,1.4,4.1,1.4c2.4,0,4.2-0.7,5.4-2c1.1-1.3,1.7-3.5,1.7-6.5
		V243h3.5v23.4h-2.9l-0.5-3.1h-0.2c-0.7,1.2-1.7,2-3,2.6c-1.3,0.6-2.8,0.9-4.4,0.9c-2.8,0-5-0.7-6.4-2c-1.4-1.3-2.1-3.5-2.1-6.5V243
		H220.3L220.3,243z"/>
	<path class="st1" d="M246.3,266.3h-3.5V243h3.5V266.3L246.3,266.3z M242.4,236.6c0-0.8,0.2-1.4,0.6-1.8c0.4-0.4,0.9-0.6,1.5-0.6
		c0.6,0,1.1,0.2,1.5,0.6c0.4,0.4,0.6,1,0.6,1.8c0,0.8-0.2,1.4-0.6,1.8c-0.4,0.4-0.9,0.6-1.5,0.6c-0.6,0-1.1-0.2-1.5-0.6
		C242.6,238,242.4,237.4,242.4,236.6L242.4,236.6z"/>
	<polygon class="st1" points="256.2,266.3 252.7,266.3 252.7,233.2 256.2,233.2 256.2,266.3 	"/>
	<polygon class="st1" points="266.1,266.3 262.6,266.3 262.6,233.2 266.1,233.2 266.1,266.3 	"/>
	<path class="st1" d="M281.5,245.5c-1.9,0-3.4,0.6-4.5,1.8c-1.1,1.2-1.8,2.9-2,5.1h12.2c0-2.2-0.5-3.9-1.5-5.1
		C284.7,246.1,283.3,245.5,281.5,245.5L281.5,245.5z M282.4,266.7c-3.5,0-6.2-1.1-8.2-3.2c-2-2.1-3-5-3-8.8c0-3.8,0.9-6.8,2.8-9
		c1.9-2.2,4.3-3.3,7.5-3.3c2.9,0,5.2,1,6.9,2.9c1.7,1.9,2.6,4.5,2.6,7.6v2.2h-16.1c0.1,2.7,0.8,4.8,2.1,6.2c1.3,1.4,3.2,2.1,5.6,2.1
		c2.5,0,5-0.5,7.5-1.6v3.2c-1.3,0.5-2.4,0.9-3.5,1.2C285.3,266.6,284,266.7,282.4,266.7L282.4,266.7z"/>
	<path class="st1" d="M316.1,258.9c0,2.8-1,5-3,6.6c-2,1.6-4.8,2.4-8.4,2.4c-3.3,0-6.3-0.6-8.8-1.9v-6.1c2.1,0.9,3.9,1.6,5.3,2
		c1.5,0.4,2.8,0.6,4,0.6c1.4,0,2.6-0.3,3.3-0.8c0.8-0.6,1.2-1.4,1.2-2.5c0-0.6-0.2-1.2-0.5-1.6c-0.3-0.5-0.8-0.9-1.5-1.4
		c-0.7-0.4-2-1.1-4-2.1c-1.9-0.9-3.3-1.8-4.3-2.6c-1-0.8-1.7-1.8-2.3-2.9c-0.6-1.1-0.9-2.4-0.9-3.8c0-2.8,0.9-4.9,2.8-6.5
		c1.9-1.6,4.4-2.4,7.7-2.4c1.6,0,3.2,0.2,4.6,0.6c1.5,0.4,3,0.9,4.6,1.6l-2.1,5.1c-1.7-0.7-3-1.2-4.1-1.4c-1.1-0.3-2.2-0.4-3.2-0.4
		c-1.3,0-2.2,0.3-2.9,0.9c-0.7,0.6-1,1.3-1,2.3c0,0.6,0.1,1.1,0.4,1.5c0.3,0.4,0.7,0.9,1.3,1.3c0.6,0.4,2,1.1,4.2,2.2
		c2.9,1.4,4.9,2.8,6,4.2C315.6,255.1,316.1,256.8,316.1,258.9L316.1,258.9z"/>
	<path class="st1" d="M326.7,267.5h-6.5v-23.8h6.5V267.5L326.7,267.5z M319.9,237.5c0-2.1,1.2-3.2,3.5-3.2c2.4,0,3.5,1.1,3.5,3.2
		c0,1-0.3,1.8-0.9,2.4c-0.6,0.6-1.5,0.8-2.7,0.8C321.1,240.7,319.9,239.7,319.9,237.5L319.9,237.5z"/>
	<path class="st1" d="M337.1,251.5c0,1.3,0.3,2.3,0.9,3.1c0.6,0.8,1.5,1.1,2.7,1.1c1.2,0,2.1-0.4,2.7-1.1c0.6-0.8,0.9-1.8,0.9-3.1
		c0-2.9-1.2-4.3-3.5-4.3C338.3,247.2,337.1,248.6,337.1,251.5L337.1,251.5z M334.8,270.9c0,0.9,0.4,1.6,1.3,2.1
		c0.9,0.5,2.1,0.8,3.6,0.8c2.3,0,4.2-0.3,5.5-1c1.3-0.6,2-1.5,2-2.6c0-0.9-0.4-1.5-1.2-1.9c-0.8-0.3-2-0.5-3.6-0.5H339
		c-1.2,0-2.2,0.3-3,0.8C335.2,269.2,334.8,270,334.8,270.9L334.8,270.9z M353.1,243.7v3.3l-3.7,1c0.7,1.1,1,2.3,1,3.6
		c0,2.6-0.9,4.5-2.7,6c-1.8,1.4-4.3,2.1-7.4,2.1l-1.2-0.1l-1-0.1c-0.7,0.5-1,1.1-1,1.7c0,0.9,1.2,1.4,3.6,1.4h4c2.6,0,4.6,0.6,6,1.7
		c1.4,1.1,2.1,2.8,2.1,4.9c0,2.8-1.2,4.9-3.5,6.5c-2.3,1.5-5.7,2.3-10,2.3c-3.3,0-5.9-0.6-7.6-1.7c-1.8-1.2-2.6-2.8-2.6-4.9
		c0-1.4,0.4-2.6,1.3-3.6c0.9-1,2.2-1.7,3.9-2.1c-0.7-0.3-1.3-0.7-1.7-1.4c-0.5-0.6-0.7-1.3-0.7-2.1c0-0.9,0.3-1.7,0.8-2.3
		c0.5-0.6,1.3-1.2,2.3-1.8c-1.3-0.5-2.2-1.4-3-2.6c-0.7-1.2-1.1-2.6-1.1-4.2c0-2.6,0.8-4.6,2.5-6c1.7-1.4,4.1-2.1,7.2-2.1
		c0.7,0,1.5,0.1,2.4,0.2c0.9,0.1,1.5,0.2,1.8,0.3H353.1L353.1,243.7z"/>
	<path class="st1" d="M378,267.5h-6.5v-13.9c0-1.7-0.3-3-0.9-3.9c-0.6-0.9-1.6-1.3-2.9-1.3c-1.8,0-3.1,0.6-3.9,1.8
		c-0.8,1.2-1.2,3.2-1.2,6v11.2H356v-23.8h5l0.9,3h0.4c0.7-1.2,1.7-2,3-2.6c1.3-0.6,2.7-0.9,4.3-0.9c2.8,0,4.9,0.7,6.3,2.2
		c1.4,1.5,2.2,3.7,2.2,6.5V267.5L378,267.5z"/>
	<path class="st1" d="M396.8,256.5l-2.5,0.1c-1.9,0.1-3.3,0.4-4.2,1c-0.9,0.6-1.4,1.6-1.4,2.9c0,1.8,1.1,2.7,3.2,2.7
		c1.5,0,2.7-0.4,3.6-1.3c0.9-0.9,1.4-2,1.4-3.5V256.5L396.8,256.5z M398.7,267.5l-1.3-3.2h-0.2c-1.1,1.4-2.2,2.3-3.4,2.9
		c-1.2,0.5-2.7,0.8-4.5,0.8c-2.3,0-4.1-0.7-5.4-2c-1.3-1.3-2-3.2-2-5.6c0-2.5,0.9-4.4,2.7-5.6c1.8-1.2,4.4-1.9,8-2l4.1-0.1v-1
		c0-2.4-1.2-3.6-3.7-3.6c-1.9,0-4.1,0.6-6.7,1.7l-2.2-4.4c2.7-1.4,5.8-2.2,9.1-2.2c3.2,0,5.6,0.7,7.4,2.1c1.7,1.4,2.6,3.5,2.6,6.4
		v15.9H398.7L398.7,267.5z"/>
	<polygon class="st1" points="415.3,267.5 408.8,267.5 408.8,234.4 415.3,234.4 415.3,267.5 	"/>
	<path class="st1" d="M430.9,247.9c-1.4,0-2.5,0.4-3.2,1.3c-0.8,0.9-1.2,2.1-1.3,3.7h9.1c0-1.6-0.4-2.8-1.3-3.7
		C433.4,248.3,432.3,247.9,430.9,247.9L430.9,247.9z M431.9,267.9c-3.8,0-6.8-1.1-9-3.2c-2.2-2.1-3.2-5.1-3.2-9c0-4,1-7.1,3-9.3
		c2-2.2,4.8-3.3,8.3-3.3c3.4,0,6,1,7.9,2.9c1.9,1.9,2.8,4.6,2.8,7.9v3.2h-15.4c0.1,1.8,0.6,3.3,1.6,4.3c1,1,2.5,1.6,4.3,1.6
		c1.4,0,2.8-0.1,4.1-0.4c1.3-0.3,2.6-0.8,4-1.4v5c-1.1,0.6-2.4,1-3.6,1.3C435.3,267.8,433.7,267.9,431.9,267.9L431.9,267.9z"/>
	<g>
		<defs>
			<rect id="SVGID_1_" x="47" y="206.6" width="420.8" height="71.4"/>
		</defs>
		<clipPath id="SVGID_2_">
			<use xlink:href="#SVGID_1_"  style="overflow:visible;"/>
		</clipPath>
		<path class="st2" d="M467.8,267.5h-6.5v-13.9c0-1.7-0.3-3-0.9-3.9c-0.6-0.9-1.6-1.3-2.9-1.3c-1.8,0-3.1,0.6-3.9,1.8
			c-0.8,1.2-1.2,3.2-1.2,6v11.2h-6.5v-23.8h5l0.9,3h0.4c0.7-1.2,1.7-2,3-2.6c1.3-0.6,2.7-0.9,4.3-0.9c2.8,0,4.9,0.7,6.3,2.2
			c1.4,1.5,2.2,3.7,2.2,6.5V267.5L467.8,267.5z"/>
		<path class="st3" d="M84.1,210.6l0.6,0v-4l-0.6,0c-19.9,0.9-36.1,17.1-37,37l0,0.6h4l0-0.6C51.9,226,66.4,211.5,84.1,210.6
			L84.1,210.6z"/>
	</g>
	<path class="st4" d="M84.2,219.3c-13.1,0.7-23.8,11-24.9,24.2l-0.1,0.6l4,0.1l0-0.5c1-10.9,10-19.7,20.9-20.3l0.5,0l0.1-4
		L84.2,219.3L84.2,219.3z"/>
</g>
</svg>
