<?xml version="1.0" encoding="utf-8"?>
<!-- Generator: Adobe Illustrator 22.0.1, SVG Export Plug-In . SVG Version: 6.00 Build 0)  -->
<svg version="1.1" id="Layer_1" xmlns="http://www.w3.org/2000/svg" xmlns:xlink="http://www.w3.org/1999/xlink" x="0px" y="0px"
	 viewBox="0 0 520 520" style="enable-background:new 0 0 520 520;" xml:space="preserve">
<style type="text/css">
	.st0{fill:#FFFFFF;}
	.st1{fill:#1B3359;}
	.st2{fill:#95C11F;}
</style>
<g>
	<rect class="st0" width="520" height="520"/>
</g>
<g>
	<path class="st1" d="M73.4,328.6H69v-11.9H56.8v11.9h-4.3v-26.4h4.3V313H69v-10.8h4.3V328.6z"/>
	<path class="st1" d="M75,308.6h4.6l4.1,11.3c0.6,1.6,1,3.1,1.2,4.6H85c0.1-0.7,0.3-1.5,0.6-2.4c0.3-0.9,1.8-5.4,4.6-13.5h4.6
		l-8.5,22.6c-1.6,4.2-4.1,6.2-7.8,6.2c-0.9,0-1.9-0.1-2.7-0.3v-3.4c0.6,0.1,1.4,0.2,2.2,0.2c2,0,3.5-1.2,4.3-3.6l0.7-1.9L75,308.6z"
		/>
	<path class="st1" d="M106.1,329c-2.5,0-4.5-0.9-5.9-2.7H100c0.2,1.7,0.3,2.7,0.3,3.1v8.2H96v-28.9h3.4c0.1,0.4,0.3,1.3,0.6,2.7h0.2
		c1.3-2,3.3-3,6-3c2.5,0,4.4,0.9,5.8,2.7c1.4,1.8,2.1,4.3,2.1,7.6c0,3.3-0.7,5.8-2.1,7.6C110.6,328,108.6,329,106.1,329z
		 M105.1,311.7c-1.7,0-2.9,0.5-3.7,1.5c-0.8,1-1.2,2.6-1.2,4.7v0.6c0,2.4,0.4,4.2,1.2,5.3c0.8,1.1,2,1.6,3.8,1.6
		c1.5,0,2.6-0.6,3.4-1.8c0.8-1.2,1.2-2.9,1.2-5.1c0-2.2-0.4-3.9-1.2-5.1C107.8,312.3,106.6,311.7,105.1,311.7z"/>
	<path class="st1" d="M134.9,318.6c0,3.3-0.8,5.8-2.5,7.6c-1.7,1.8-4,2.7-7,2.7c-1.9,0-3.5-0.4-5-1.3c-1.4-0.8-2.5-2.1-3.3-3.6
		c-0.8-1.6-1.2-3.4-1.2-5.5c0-3.2,0.8-5.8,2.5-7.6c1.7-1.8,4-2.7,7-2.7c2.9,0,5.2,0.9,6.9,2.8S134.9,315.4,134.9,318.6z
		 M120.4,318.6c0,4.6,1.7,6.9,5.1,6.9c3.4,0,5.1-2.3,5.1-6.9c0-4.6-1.7-6.8-5.1-6.8c-1.8,0-3.1,0.6-3.9,1.8
		C120.8,314.7,120.4,316.4,120.4,318.6z"/>
	<path class="st1" d="M145.4,325.5c1,0,2.1-0.2,3.1-0.5v3.2c-0.5,0.2-1.1,0.4-1.8,0.5c-0.7,0.1-1.5,0.2-2.3,0.2c-4,0-6-2.1-6-6.4
		v-10.8h-2.7v-1.9l2.9-1.6l1.4-4.2h2.6v4.4h5.7v3.2h-5.7v10.7c0,1,0.3,1.8,0.8,2.3C143.9,325.3,144.6,325.5,145.4,325.5z"/>
	<path class="st1" d="M168.2,328.6H164v-12.3c0-1.5-0.3-2.7-0.9-3.5c-0.6-0.8-1.6-1.1-3-1.1c-1.8,0-3.1,0.5-3.9,1.6
		s-1.3,2.9-1.3,5.4v9.9h-4.2v-28.1h4.2v7.1c0,1.1-0.1,2.4-0.2,3.7h0.3c0.6-1,1.4-1.7,2.4-2.2c1-0.5,2.2-0.8,3.6-0.8
		c4.8,0,7.3,2.4,7.3,7.3V328.6z"/>
	<path class="st1" d="M181,329c-3.1,0-5.5-0.9-7.3-2.7c-1.8-1.8-2.6-4.3-2.6-7.5c0-3.3,0.8-5.8,2.4-7.7c1.6-1.9,3.9-2.8,6.7-2.8
		c2.6,0,4.7,0.8,6.3,2.4c1.5,1.6,2.3,3.8,2.3,6.6v2.3h-13.3c0.1,1.9,0.6,3.4,1.6,4.5c1,1,2.4,1.6,4.2,1.6c1.2,0,2.3-0.1,3.3-0.3
		c1-0.2,2.1-0.6,3.3-1.1v3.5c-1,0.5-2.1,0.8-3.1,1C183.6,328.9,182.4,329,181,329z M180.2,311.5c-1.3,0-2.4,0.4-3.2,1.3
		c-0.8,0.9-1.3,2.1-1.5,3.7h9.1c0-1.6-0.4-2.9-1.2-3.7C182.7,311.9,181.6,311.5,180.2,311.5z"/>
	<path class="st1" d="M200.5,329c-3.1,0-5.5-0.9-7.3-2.7c-1.8-1.8-2.6-4.3-2.6-7.5c0-3.3,0.8-5.8,2.4-7.7c1.6-1.9,3.9-2.8,6.7-2.8
		c2.6,0,4.7,0.8,6.3,2.4c1.5,1.6,2.3,3.8,2.3,6.6v2.3H195c0.1,1.9,0.6,3.4,1.6,4.5c1,1,2.4,1.6,4.2,1.6c1.2,0,2.3-0.1,3.3-0.3
		c1-0.2,2.1-0.6,3.3-1.1v3.5c-1,0.5-2.1,0.8-3.1,1C203.1,328.9,201.9,329,200.5,329z M199.7,311.5c-1.3,0-2.4,0.4-3.2,1.3
		c-0.8,0.9-1.3,2.1-1.5,3.7h9.1c0-1.6-0.4-2.9-1.2-3.7C202.1,311.9,201.1,311.5,199.7,311.5z"/>
	<path class="st1" d="M215.3,318l2.4-3l6-6.4h4.9l-8,8.6l8.5,11.4h-5l-6.4-8.8l-2.3,1.9v6.8h-4.2v-28.1h4.2v13.7l-0.2,3.8H215.3z"/>
	<path class="st1" d="M243.1,328.6l-0.8-2.8h-0.1c-1,1.2-1.9,2-2.9,2.5c-1,0.4-2.2,0.7-3.8,0.7c-2,0-3.5-0.5-4.6-1.6
		c-1.1-1.1-1.7-2.6-1.7-4.5c0-2.1,0.8-3.6,2.3-4.7c1.5-1,3.9-1.6,7-1.7l3.5-0.1v-1.1c0-1.3-0.3-2.2-0.9-2.9
		c-0.6-0.6-1.5-0.9-2.8-0.9c-1,0-2,0.2-2.9,0.5c-0.9,0.3-1.8,0.7-2.7,1.1l-1.4-3c1.1-0.6,2.3-1,3.6-1.3c1.3-0.3,2.5-0.4,3.7-0.4
		c2.5,0,4.5,0.6,5.8,1.7s1.9,2.8,1.9,5.2v13.5H243.1z M236.7,325.7c1.5,0,2.8-0.4,3.7-1.3c0.9-0.9,1.4-2.1,1.4-3.6v-1.7l-2.6,0.1
		c-2,0.1-3.5,0.4-4.4,1c-0.9,0.6-1.4,1.5-1.4,2.7c0,0.9,0.3,1.6,0.8,2.1C234.9,325.5,235.7,325.7,236.7,325.7z"/>
	<path class="st1" d="M256.9,329c-2.5,0-4.4-0.9-5.8-2.7c-1.4-1.8-2.1-4.3-2.1-7.6c0-3.3,0.7-5.8,2.1-7.7c1.4-1.8,3.4-2.7,5.9-2.7
		c2.6,0,4.6,1,6,2.9h0.2c-0.2-1.4-0.3-2.6-0.3-3.4v-7.3h4.3v28.1h-3.3l-0.7-2.6h-0.2C261.5,328,259.5,329,256.9,329z M258,325.5
		c1.7,0,3-0.5,3.8-1.5c0.8-1,1.2-2.6,1.2-4.8v-0.6c0-2.5-0.4-4.3-1.2-5.4c-0.8-1.1-2.1-1.6-3.8-1.6c-1.5,0-2.6,0.6-3.5,1.8
		c-0.8,1.2-1.2,2.9-1.2,5.2c0,2.2,0.4,3.9,1.2,5.1C255.3,324.9,256.5,325.5,258,325.5z"/>
	<path class="st1" d="M275.9,328.6l-7.6-20h4.5l4.1,11.6c0.7,2,1.1,3.5,1.3,4.7h0.1c0.1-0.9,0.5-2.4,1.3-4.7l4.1-11.6h4.5l-7.6,20
		H275.9z"/>
	<path class="st1" d="M289.1,303.3c0-0.8,0.2-1.3,0.6-1.8c0.4-0.4,1-0.6,1.8-0.6c0.7,0,1.3,0.2,1.7,0.6c0.4,0.4,0.6,1,0.6,1.8
		c0,0.7-0.2,1.3-0.6,1.7c-0.4,0.4-1,0.6-1.7,0.6c-0.8,0-1.4-0.2-1.8-0.6C289.3,304.6,289.1,304,289.1,303.3z M293.6,328.6h-4.2v-20
		h4.2V328.6z"/>
	<path class="st1" d="M311.2,322.9c0,2-0.7,3.4-2.1,4.5c-1.4,1-3.5,1.6-6.1,1.6c-2.7,0-4.8-0.4-6.4-1.2v-3.7
		c2.3,1.1,4.5,1.6,6.6,1.6c2.6,0,3.9-0.8,3.9-2.4c0-0.5-0.1-0.9-0.4-1.3c-0.3-0.3-0.8-0.7-1.4-1c-0.7-0.4-1.6-0.8-2.8-1.2
		c-2.3-0.9-3.9-1.8-4.7-2.7c-0.8-0.9-1.2-2-1.2-3.5c0-1.7,0.7-3,2.1-4c1.4-0.9,3.3-1.4,5.6-1.4c2.3,0,4.6,0.5,6.7,1.4l-1.4,3.2
		c-2.2-0.9-4-1.3-5.4-1.3c-2.2,0-3.4,0.6-3.4,1.9c0,0.6,0.3,1.2,0.9,1.6c0.6,0.4,1.9,1,3.8,1.8c1.6,0.6,2.8,1.2,3.6,1.8
		c0.7,0.5,1.3,1.1,1.7,1.8C311,321.1,311.2,321.9,311.2,322.9z"/>
	<path class="st1" d="M322.7,329c-3.1,0-5.5-0.9-7.3-2.7c-1.8-1.8-2.6-4.3-2.6-7.5c0-3.3,0.8-5.8,2.4-7.7c1.6-1.9,3.9-2.8,6.7-2.8
		c2.6,0,4.7,0.8,6.3,2.4c1.5,1.6,2.3,3.8,2.3,6.6v2.3h-13.3c0.1,1.9,0.6,3.4,1.6,4.5c1,1,2.4,1.6,4.2,1.6c1.2,0,2.3-0.1,3.3-0.3
		c1-0.2,2.1-0.6,3.3-1.1v3.5c-1,0.5-2.1,0.8-3.1,1C325.3,328.9,324,329,322.7,329z M321.9,311.5c-1.3,0-2.4,0.4-3.2,1.3
		c-0.8,0.9-1.3,2.1-1.5,3.7h9.1c0-1.6-0.4-2.9-1.2-3.7C324.3,311.9,323.3,311.5,321.9,311.5z"/>
	<path class="st1" d="M347.5,328.6l-0.6-2.6h-0.2c-0.6,0.9-1.4,1.7-2.5,2.2c-1.1,0.5-2.3,0.8-3.7,0.8c-2.4,0-4.2-0.6-5.4-1.8
		c-1.2-1.2-1.8-3-1.8-5.5v-13.1h4.3v12.3c0,1.5,0.3,2.7,0.9,3.4c0.6,0.8,1.6,1.1,2.9,1.1c1.8,0,3.1-0.5,3.9-1.6s1.3-2.9,1.3-5.4v-10
		h4.3v20H347.5z"/>
	<path class="st1" d="M365.2,308.2c0.9,0,1.6,0.1,2.1,0.2l-0.4,4c-0.6-0.1-1.2-0.2-1.9-0.2c-1.7,0-3.1,0.6-4.1,1.7
		c-1.1,1.1-1.6,2.5-1.6,4.3v10.4h-4.2v-20h3.3l0.6,3.5h0.2c0.7-1.2,1.5-2.1,2.6-2.8C362.8,308.6,364,308.2,365.2,308.2z"/>
	<path class="st2" d="M382.5,328.6h-15.2V326l10.1-14.1H368v-3.3h14.3v3l-9.9,13.8h10.2V328.6z"/>
	<path class="st2" d="M402.7,318.6c0,3.3-0.8,5.8-2.5,7.6c-1.7,1.8-4,2.7-7,2.7c-1.9,0-3.5-0.4-5-1.3c-1.4-0.8-2.5-2.1-3.3-3.6
		s-1.2-3.4-1.2-5.5c0-3.2,0.8-5.8,2.5-7.6c1.7-1.8,4-2.7,7-2.7c2.9,0,5.2,0.9,6.9,2.8C401.9,312.9,402.7,315.4,402.7,318.6z
		 M388.2,318.6c0,4.6,1.7,6.9,5.1,6.9c3.4,0,5.1-2.3,5.1-6.9c0-4.6-1.7-6.8-5.1-6.8c-1.8,0-3.1,0.6-3.9,1.8
		C388.6,314.7,388.2,316.4,388.2,318.6z"/>
	<path class="st2" d="M414.5,329c-3.1,0-5.5-0.9-7.3-2.7c-1.8-1.8-2.6-4.3-2.6-7.5c0-3.3,0.8-5.8,2.4-7.7c1.6-1.9,3.9-2.8,6.7-2.8
		c2.6,0,4.7,0.8,6.3,2.4c1.5,1.6,2.3,3.8,2.3,6.6v2.3h-13.3c0.1,1.9,0.6,3.4,1.6,4.5c1,1,2.4,1.6,4.2,1.6c1.2,0,2.3-0.1,3.3-0.3
		c1-0.2,2.1-0.6,3.3-1.1v3.5c-1,0.5-2.1,0.8-3.1,1C417.1,328.9,415.9,329,414.5,329z M413.7,311.5c-1.3,0-2.4,0.4-3.2,1.3
		c-0.8,0.9-1.3,2.1-1.5,3.7h9.1c0-1.6-0.4-2.9-1.2-3.7C416.1,311.9,415.1,311.5,413.7,311.5z"/>
	<path class="st2" d="M429.3,318l2.4-3l6-6.4h4.9l-8,8.6l8.5,11.4h-5l-6.4-8.8l-2.3,1.9v6.8h-4.2v-28.1h4.2v13.7l-0.2,3.8H429.3z"/>
	<path class="st2" d="M453.3,329c-3.1,0-5.5-0.9-7.3-2.7c-1.8-1.8-2.6-4.3-2.6-7.5c0-3.3,0.8-5.8,2.4-7.7c1.6-1.9,3.9-2.8,6.7-2.8
		c2.6,0,4.7,0.8,6.3,2.4c1.5,1.6,2.3,3.8,2.3,6.6v2.3h-13.3c0.1,1.9,0.6,3.4,1.6,4.5c1,1,2.4,1.6,4.2,1.6c1.2,0,2.3-0.1,3.3-0.3
		c1-0.2,2.1-0.6,3.3-1.1v3.5c-1,0.5-2.1,0.8-3.1,1C455.8,328.9,454.6,329,453.3,329z M452.5,311.5c-1.3,0-2.4,0.4-3.2,1.3
		c-0.8,0.9-1.3,2.1-1.5,3.7h9.1c0-1.6-0.4-2.9-1.2-3.7C454.9,311.9,453.8,311.5,452.5,311.5z"/>
	<path class="st2" d="M474.1,308.2c0.9,0,1.6,0.1,2.1,0.2l-0.4,4c-0.6-0.1-1.2-0.2-1.9-0.2c-1.7,0-3.1,0.6-4.1,1.7s-1.6,2.5-1.6,4.3
		v10.4H464v-20h3.3l0.6,3.5h0.2c0.7-1.2,1.5-2.1,2.6-2.8C471.8,308.6,472.9,308.2,474.1,308.2z"/>
</g>
<path class="st2" d="M322.1,285.8l-13-13.6c3.9-4.5,6.1-10.2,6.1-16.1c0-13.5-11-24.5-24.5-24.5c-13.5,0-24.5,11-24.5,24.5
	c0,13.5,11,24.5,24.5,24.5c5.2,0,10.2-1.6,14.4-4.7l13.1,13.7c0.5,0.5,1.2,0.8,2,0.8c0.7,0,1.4-0.3,1.9-0.8
	C323.1,288.6,323.1,286.9,322.1,285.8z M309.8,256.1c0,10.5-8.6,19.1-19.1,19.1s-19.1-8.6-19.1-19.1c0-10.5,8.6-19.1,19.1-19.1
	S309.8,245.6,309.8,256.1z"/>
<path class="st1" d="M264,265.1l-8.7,10.9l-30.6-44.1c-11.5-15.4-9.9-40.6,3.5-54.1c7.2-7.2,16.7-11.1,26.9-11.1
	c10.2,0,19.7,4,26.9,11.1c11.6,11.6,14.5,33.1,6.8,48.7c-0.1,0.1-0.5,1.1-0.9,2.1c1.4-0.2,2.8-0.3,4.2-0.3c0.7,0,1.3,0,2,0.1
	c0.5-1,0.2-0.6,0.6-1.6c7.6-17.5,4-39.9-8.8-52.8c-8.2-8.2-19.2-12.7-30.8-12.7c-11.6,0-22.6,4.5-30.8,12.7
	c-15.2,15.2-17.1,43.8-4.1,61.1l34.8,50.2l11.1-14.6C265.2,269,264.5,267.1,264,265.1z"/>
<path class="st1" d="M255.6,180.6c-13.8,0-25,11.2-25,25s11.2,25,25,25s25-11.2,25-25S269.4,180.6,255.6,180.6z M255.6,225.8
	c-11.1,0-20.2-9-20.2-20.2s9-20.2,20.2-20.2c11.1,0,20.2,9,20.2,20.2S266.7,225.8,255.6,225.8z"/>
</svg>
