<?xml version="1.0" encoding="utf-8"?>
<!-- Generator: Adobe Illustrator 22.0.1, SVG Export Plug-In . SVG Version: 6.00 Build 0)  -->
<svg version="1.1" id="Layer_1" xmlns="http://www.w3.org/2000/svg" xmlns:xlink="http://www.w3.org/1999/xlink" x="0px" y="0px"
	 viewBox="0 0 520 520" style="enable-background:new 0 0 520 520;" xml:space="preserve">
<style type="text/css">
	.st0{fill:#FFFFFF;}
	.st1{fill:#2D6E8E;}
	.st2{fill:#5C96AD;}
</style>
<g>
	<rect class="st0" width="520" height="520"/>
</g>
<g>
	<path class="st1" d="M129.1,226.8l15.6,40.1l-6.6,1l-4-10.7h-15.9l-3.9,10.2h-6.6l15.5-40.5H129.1z M126,235.9l-5.9,15.8h12
		L126,235.9z"/>
	<path class="st1" d="M168.2,260.3l2,4.9c-1.2,0.9-2.8,1.6-4.8,2.1c-2,0.5-3.7,0.8-5.1,0.8c-3,0-5.6-0.6-7.9-1.9
		c-2.2-1.3-3.9-3-5.2-5.3c-1.2-2.3-1.8-5-1.8-8c0-3,0.6-5.7,1.8-8c1.2-2.3,2.9-4.1,5.2-5.3c2.3-1.3,4.9-1.9,7.9-1.9
		c1.3,0,3,0.3,5,0.8c2,0.5,3.6,1.2,4.8,2.1l-1.9,4.8c-1.5-0.7-2.9-1.2-4.1-1.5c-1.2-0.3-2.5-0.5-3.8-0.5c-2.4,0-4.3,0.9-5.8,2.7
		c-1.5,1.8-2.3,4-2.3,6.8c0,2.8,0.7,5.1,2.2,6.8c1.4,1.7,3.4,2.6,5.8,2.6c1.5,0,2.8-0.2,4-0.5C165.5,261.5,166.8,261,168.2,260.3z"
		/>
	<path class="st1" d="M186.9,238.6l2,5.1h-7.3v13.8c0,1.5,0.3,2.8,1,3.7c0.7,0.9,1.7,1.4,3.1,1.4c0.9,0,1.9-0.2,3-0.7l1.8,4.9
		c-0.6,0.4-1.4,0.7-2.5,1c-1.1,0.3-2,0.4-2.9,0.4c-3.2,0-5.7-0.8-7.6-2.5c-1.8-1.7-2.7-4.1-2.7-7.2v-14.9h-4v-5.1h4v-7.1l6.7-1.3
		v8.4H186.9z"/>
	<path class="st1" d="M196.9,233.7c-1.1,0-2-0.4-2.8-1.2c-0.7-0.8-1.1-1.7-1.1-2.8c0-1.1,0.4-2,1.1-2.8c0.8-0.8,1.7-1.2,2.7-1.2
		c1.1,0,2.1,0.4,2.8,1.2c0.8,0.8,1.2,1.7,1.2,2.8c0,1.1-0.4,2.1-1.2,2.8C198.9,233.3,198,233.7,196.9,233.7z M193.6,267.3v-28.9h6.7
		v28.9H193.6z"/>
	<path class="st1" d="M230.9,254.6h-20c0.6,5.2,3.7,7.7,9.2,7.7c1.5,0,2.9-0.2,4.1-0.6c1.2-0.4,2.7-1.1,4.4-1.9l2,4.9
		c-3.2,2.2-6.8,3.3-10.7,3.3c-5.2,0-9.2-1.4-12-4.1c-2.8-2.7-4.1-6.4-4.1-11.1c0-3,0.6-5.7,1.7-8c1.1-2.3,2.8-4.1,4.9-5.3
		c2.1-1.3,4.6-1.9,7.5-1.9c4.2,0,7.5,1.4,9.6,4.2c2.2,2.8,3.3,6.4,3.3,10.8V254.6z M211,250.1h13.5c-0.4-2.2-1.1-3.9-2.2-5.1
		c-1.1-1.2-2.6-1.7-4.5-1.7c-1.9,0-3.4,0.6-4.6,1.8C212,246.3,211.3,248,211,250.1z"/>
</g>
<g>
	<path class="st2" d="M275.5,267.3h-11.4v-40.5h9.8c4.6,0,8.2,0.8,10.8,2.4c2.6,1.6,3.8,4.3,3.8,8.1c0,1.9-0.6,3.6-1.7,5
		s-2.6,2.6-4.3,3.4c2.6,0.8,4.7,2,6.1,3.8c1.4,1.7,2.2,3.9,2.2,6.6c0,4-1.4,6.8-4.2,8.6S280.1,267.3,275.5,267.3z M274,229.9h-6.2
		v14.8h5.4c7.7-0.1,11.6-2.5,11.6-7.4c0-2.9-0.9-4.9-2.7-5.9C280.3,230.4,277.6,229.9,274,229.9z M276.3,247.8h-8.5v16.4h7.8
		c3.5,0,6.3-0.6,8.4-1.8s3.1-3.3,3.1-6.2s-0.9-5-2.8-6.4C282.3,248.5,279.7,247.8,276.3,247.8z"/>
	<path class="st2" d="M318.6,253h-21.4c0,3.7,0.9,6.6,2.6,8.8c1.7,2.2,4.4,3.2,8.1,3.2c1.6,0,3.1-0.2,4.5-0.6c1.4-0.4,2.9-1,4.5-1.9
		l1.2,2.7c-1.7,0.9-3.3,1.6-4.8,2.1c-1.5,0.5-3.3,0.7-5.3,0.7c-4.8,0-8.5-1.4-11-4.2c-2.5-2.8-3.7-6.5-3.7-11.2
		c0-4.5,1.2-8.1,3.5-10.9c2.3-2.8,5.5-4.2,9.6-4.2c4.1,0,7.1,1.4,9.1,4.2C317.6,244.6,318.6,248.3,318.6,253z M297.3,250.5h17.6
		c-0.6-6.5-3.5-9.8-8.5-9.8c-2.7,0-4.9,0.9-6.4,2.7C298.5,245.1,297.6,247.5,297.3,250.5z"/>
	<path class="st2" d="M344.7,240.2c1.5,1.7,2.2,4.1,2.2,7v20h-3.7v-19.3c0-4.8-1.9-7.1-5.6-7.1c-1.5,0-3.3,0.6-5.3,1.7
		c-2,1.1-3.7,2.5-5,4.2v20.6h-3.7v-41.5l3.7-0.6v17.5c1.2-1.4,2.9-2.6,4.9-3.6c2-1,4-1.5,5.7-1.5C341,237.6,343.2,238.5,344.7,240.2
		z"/>
	<path class="st2" d="M376.3,253h-21.4c0,3.7,0.9,6.6,2.6,8.8c1.7,2.2,4.4,3.2,8.1,3.2c1.6,0,3.1-0.2,4.5-0.6c1.4-0.4,2.9-1,4.5-1.9
		l1.2,2.7c-1.7,0.9-3.3,1.6-4.8,2.1c-1.5,0.5-3.3,0.7-5.3,0.7c-4.8,0-8.5-1.4-11-4.2c-2.5-2.8-3.7-6.5-3.7-11.2
		c0-4.5,1.2-8.1,3.5-10.9c2.3-2.8,5.5-4.2,9.6-4.2c4.1,0,7.1,1.4,9.1,4.2C375.3,244.6,376.3,248.3,376.3,253z M355,250.5h17.6
		c-0.6-6.5-3.5-9.8-8.5-9.8c-2.7,0-4.9,0.9-6.4,2.7C356.2,245.1,355.3,247.5,355,250.5z"/>
	<path class="st2" d="M404.2,253h-21.4c0,3.7,0.9,6.6,2.6,8.8c1.7,2.2,4.4,3.2,8.1,3.2c1.6,0,3.1-0.2,4.5-0.6c1.4-0.4,2.9-1,4.5-1.9
		l1.2,2.7c-1.7,0.9-3.3,1.6-4.8,2.1c-1.5,0.5-3.3,0.7-5.3,0.7c-4.8,0-8.5-1.4-11-4.2c-2.5-2.8-3.7-6.5-3.7-11.2
		c0-4.5,1.2-8.1,3.5-10.9c2.3-2.8,5.5-4.2,9.6-4.2c4.1,0,7.1,1.4,9.1,4.2C403.2,244.6,404.2,248.3,404.2,253z M382.9,250.5h17.6
		c-0.6-6.5-3.5-9.8-8.5-9.8c-2.7,0-4.9,0.9-6.4,2.7C384.1,245.1,383.2,247.5,382.9,250.5z"/>
	<path class="st2" d="M412.4,267.3h-3.7v-28.9h2.4l1.1,4.6c1.3-1.1,2.9-2.2,4.7-3.1c1.8-1,3.4-1.5,4.7-1.5l1,2.9
		c-1.7,0-3.5,0.6-5.5,1.7c-2,1.1-3.6,2.3-4.8,3.7V267.3z"/>
</g>
<g>
	<g>
		<path class="st1" d="M249.5,259.8l-15.2-21.9l-6.7,1.6l20.2,29.1l0,0l1.7,2.4l39-56.2l-9.8,2.3L249.5,259.8z"/>
	</g>
</g>
<rect x="264.2" y="231.6" class="st2" width="3.6" height="19.5"/>
<rect x="265" y="244.8" class="st2" width="5.6" height="2.4"/>
</svg>
