<?xml version="1.0" encoding="utf-8"?>
<!-- Generator: Adobe Illustrator 22.0.1, SVG Export Plug-In . SVG Version: 6.00 Build 0)  -->
<svg version="1.1" id="Layer_1" xmlns="http://www.w3.org/2000/svg" xmlns:xlink="http://www.w3.org/1999/xlink" x="0px" y="0px"
	 viewBox="0 0 520 520" style="enable-background:new 0 0 520 520;" xml:space="preserve">
<style type="text/css">
	.st0{fill:#FFFFFF;}
	.st1{fill:#93C01F;}
	.st2{fill:#1B3359;}
</style>
<g>
	<rect class="st0" width="520" height="520"/>
</g>
<polygon class="st1" points="95.5,236.9 68.6,263.7 57.6,252.7 54.5,255.7 68.6,269.8 98.5,239.9 "/>
<polygon class="st2" points="48,243.9 48,274.4 52.3,274.4 52.3,245.7 72.1,225.9 86.7,240.4 89.8,237.4 72.1,219.8 "/>
<polygon class="st2" points="109,258.1 96.3,258.1 96.3,246.7 92,251 92,274.4 96.3,274.4 96.3,262 109,262 109,274.4 113.6,274.4 
	113.6,246.8 109,246.8 "/>
<path class="st2" d="M126.4,267.6c-0.3,1-0.5,1.8-0.6,2.5h-0.2c-0.2-1.5-0.6-3.1-1.3-4.8l-4.2-11.8h-4.8l8.4,20.9l-0.8,2
	c-0.9,2.5-2.4,3.7-4.5,3.7c-0.9,0-1.6-0.1-2.3-0.2v3.5c0.9,0.2,1.9,0.3,2.9,0.3c3.8,0,6.5-2.2,8.1-6.5l8.9-23.7h-4.8
	C128.3,261.9,126.7,266.6,126.4,267.6z"/>
<path class="st2" d="M147.9,253.2c-2.8,0-4.8,1.1-6.2,3.2h-0.2c-0.3-1.5-0.5-2.4-0.6-2.8h-3.6v30.2h4.4v-8.6c0-0.4-0.1-1.4-0.3-3.2
	h0.3c1.5,1.9,3.5,2.9,6.2,2.9c2.6,0,4.6-1,6.1-2.9c1.5-1.9,2.2-4.6,2.2-8c0-3.4-0.7-6.1-2.2-8C152.5,254.1,150.5,253.2,147.9,253.2z
	 M150.4,269.3c-0.8,1.3-2,1.9-3.6,1.9c-1.8,0-3.1-0.6-3.9-1.7c-0.8-1.1-1.2-3-1.2-5.5v-0.7c0-2.3,0.4-3.9,1.2-4.9
	c0.8-1,2.1-1.5,3.9-1.5c1.6,0,2.8,0.6,3.6,1.8c0.8,1.2,1.2,3,1.2,5.3C151.6,266.2,151.2,268,150.4,269.3z"/>
<path class="st2" d="M168.1,253.2c-3.2,0-5.6,1-7.3,2.9c-1.7,1.9-2.6,4.5-2.6,7.9c0,2.2,0.4,4.1,1.2,5.7c0.8,1.6,2,2.9,3.5,3.8
	c1.5,0.9,3.2,1.3,5.2,1.3c3.1,0,5.6-1,7.3-2.9c1.8-1.9,2.6-4.6,2.6-8c0-3.3-0.9-5.9-2.6-7.9C173.5,254.1,171.1,253.2,168.1,253.2z
	 M168.1,271.2c-3.6,0-5.3-2.4-5.3-7.2c0-2.3,0.4-4.1,1.3-5.3c0.8-1.2,2.2-1.9,4.1-1.9c3.6,0,5.3,2.4,5.3,7.2
	C173.4,268.8,171.6,271.2,168.1,271.2z"/>
<path class="st2" d="M186.8,270.4c-0.5-0.5-0.8-1.3-0.8-2.4v-11.2h5.9v-3.4H186v-4.6h-2.7l-1.5,4.4l-3.1,1.6v2h2.9v11.3
	c0,4.4,2.1,6.6,6.3,6.6c0.8,0,1.6-0.1,2.4-0.2c0.8-0.1,1.4-0.3,1.9-0.5v-3.3c-1.1,0.3-2.2,0.5-3.2,0.5
	C188,271.2,187.3,271,186.8,270.4z"/>
<path class="st2" d="M205.2,253.2c-1.4,0-2.7,0.3-3.8,0.8c-1.1,0.6-1.9,1.3-2.5,2.3h-0.3c0.2-1.4,0.2-2.6,0.2-3.8V245h-4.4v29.4h4.4
	V264c0-2.6,0.4-4.5,1.3-5.6c0.9-1.1,2.2-1.7,4.1-1.7c1.4,0,2.4,0.4,3.1,1.2c0.6,0.8,1,2,1,3.6v12.8h4.5v-13.6
	C212.8,255.7,210.2,253.2,205.2,253.2z"/>
<path class="st2" d="M225.3,253.2c-3,0-5.3,1-7,2.9c-1.7,2-2.5,4.6-2.5,8c0,3.3,0.9,5.9,2.7,7.8c1.8,1.9,4.4,2.8,7.6,2.8
	c1.4,0,2.7-0.1,3.8-0.3c1.1-0.2,2.2-0.6,3.3-1.1v-3.6c-1.2,0.5-2.4,0.9-3.4,1.2c-1.1,0.2-2.2,0.3-3.4,0.3c-1.9,0-3.3-0.5-4.4-1.6
	c-1-1.1-1.6-2.6-1.6-4.7h13.9v-2.4c0-2.9-0.8-5.2-2.4-6.9C230.2,254,228.1,253.2,225.3,253.2z M220.4,261.8c0.2-1.7,0.7-3,1.5-3.9
	c0.9-0.9,2-1.3,3.4-1.3c1.4,0,2.5,0.4,3.3,1.3c0.8,0.9,1.2,2.2,1.2,3.9H220.4z"/>
<path class="st2" d="M245.7,253.2c-3,0-5.3,1-7,2.9c-1.7,2-2.5,4.6-2.5,8c0,3.3,0.9,5.9,2.7,7.8c1.8,1.9,4.4,2.8,7.6,2.8
	c1.4,0,2.7-0.1,3.8-0.3c1.1-0.2,2.2-0.6,3.3-1.1v-3.6c-1.2,0.5-2.4,0.9-3.4,1.2c-1.1,0.2-2.2,0.3-3.4,0.3c-1.9,0-3.3-0.5-4.4-1.6
	c-1-1.1-1.6-2.6-1.6-4.7h13.9v-2.4c0-2.9-0.8-5.2-2.4-6.9C250.6,254,248.4,253.2,245.7,253.2z M240.7,261.8c0.2-1.7,0.7-3,1.5-3.9
	c0.9-0.9,2-1.3,3.4-1.3c1.4,0,2.5,0.4,3.3,1.3c0.8,0.9,1.2,2.2,1.2,3.9H240.7z"/>
<polygon class="st2" points="275.9,253.5 270.8,253.5 264.5,260.3 262,263.4 261.9,263.4 262.1,259.4 262.1,245 257.7,245 
	257.7,274.4 262.1,274.4 262.1,267.3 264.5,265.3 271.2,274.4 276.5,274.4 267.5,262.5 "/>
<polygon class="st1" points="93.1,235.6 101,234.5 99.7,242.5 "/>
<g>
	<path class="st2" d="M297.1,274.4h-4.5v-12.9c0-1.6-0.3-2.8-1-3.6c-0.7-0.8-1.7-1.2-3.1-1.2c-1.9,0-3.3,0.6-4.1,1.7
		c-0.9,1.1-1.3,3-1.3,5.6v10.4h-4.5v-21h3.5l0.6,2.7h0.2c0.6-1,1.5-1.8,2.7-2.3c1.2-0.5,2.4-0.8,3.9-0.8c5,0,7.5,2.6,7.5,7.7V274.4z
		"/>
	<path class="st2" d="M301.3,247.9c0-0.8,0.2-1.4,0.7-1.8c0.4-0.4,1.1-0.6,1.9-0.6c0.8,0,1.4,0.2,1.8,0.6c0.4,0.4,0.7,1,0.7,1.8
		c0,0.8-0.2,1.4-0.7,1.8c-0.4,0.4-1,0.7-1.8,0.7c-0.8,0-1.4-0.2-1.9-0.7C301.5,249.3,301.3,248.7,301.3,247.9z M306,274.4h-4.5v-21
		h4.5V274.4z"/>
	<path class="st2" d="M319.8,274.8c-3.3,0-5.8-1-7.6-2.9c-1.8-1.9-2.8-4.5-2.8-7.9c0-3.4,0.9-6.1,2.6-8.1c1.7-2,4-2.9,7-2.9
		c2.8,0,5,0.8,6.6,2.5c1.6,1.7,2.4,4,2.4,6.9v2.4h-14c0.1,2,0.6,3.6,1.6,4.7c1,1.1,2.5,1.6,4.4,1.6c1.2,0,2.4-0.1,3.5-0.4
		c1.1-0.2,2.2-0.6,3.4-1.2v3.6c-1.1,0.5-2.2,0.9-3.3,1.1C322.5,274.7,321.2,274.8,319.8,274.8z M319,256.5c-1.4,0-2.5,0.4-3.4,1.3
		c-0.9,0.9-1.4,2.2-1.5,3.9h9.5c0-1.7-0.4-3-1.3-3.9C321.5,256.9,320.4,256.5,319,256.5z"/>
	<path class="st2" d="M346,274.4l-0.6-2.7h-0.2c-0.6,1-1.5,1.7-2.6,2.3c-1.1,0.6-2.4,0.8-3.9,0.8c-2.5,0-4.4-0.6-5.7-1.9
		c-1.2-1.3-1.9-3.2-1.9-5.7v-13.7h4.5v12.9c0,1.6,0.3,2.8,1,3.6c0.7,0.8,1.7,1.2,3.1,1.2c1.9,0,3.2-0.6,4.1-1.7
		c0.9-1.1,1.3-3,1.3-5.6v-10.4h4.5v21H346z"/>
	<path class="st2" d="M371.3,274.4l-2.7-9.8c-0.3-1-0.9-3.4-1.8-7.2h-0.2c-0.7,3.4-1.3,5.8-1.7,7.3l-2.8,9.7h-4.9l-5.9-21h4.5
		l2.7,10.3c0.6,2.6,1,4.7,1.3,6.6h0.1c0.1-0.9,0.3-2,0.6-3.2c0.3-1.2,0.5-2.1,0.7-2.7l3.2-11h4.9l3.1,11c0.2,0.6,0.4,1.6,0.7,2.8
		c0.3,1.3,0.5,2.3,0.5,3h0.2c0.2-1.6,0.6-3.7,1.3-6.5l2.7-10.3h4.5l-5.9,21H371.3z"/>
	<path class="st2" d="M398.1,268.5c0,2-0.7,3.6-2.2,4.7c-1.5,1.1-3.6,1.6-6.4,1.6c-2.8,0-5-0.4-6.7-1.3v-3.8
		c2.5,1.1,4.8,1.7,6.9,1.7c2.7,0,4.1-0.8,4.1-2.5c0-0.5-0.2-1-0.5-1.3c-0.3-0.4-0.8-0.7-1.5-1.1c-0.7-0.4-1.7-0.8-2.9-1.3
		c-2.4-0.9-4-1.9-4.9-2.8c-0.9-0.9-1.3-2.1-1.3-3.6c0-1.8,0.7-3.2,2.2-4.2c1.4-1,3.4-1.5,5.9-1.5c2.5,0,4.8,0.5,7,1.5l-1.4,3.4
		c-2.3-0.9-4.2-1.4-5.7-1.4c-2.3,0-3.5,0.7-3.5,2c0,0.7,0.3,1.2,0.9,1.7c0.6,0.5,1.9,1.1,4,1.9c1.7,0.7,3,1.3,3.8,1.8
		c0.8,0.6,1.4,1.2,1.7,1.9C398,266.6,398.1,267.5,398.1,268.5z"/>
</g>
<g>
	<path class="st1" d="M427.8,273.4l-2.8-7.7h-10.5l-2.7,7.7H407l10.3-27.7h4.9l10.3,27.7H427.8z M423.9,261.8l-2.6-7.5
		c-0.2-0.5-0.5-1.3-0.8-2.4c-0.3-1.1-0.6-1.9-0.7-2.4c-0.3,1.5-0.8,3.2-1.5,5.1l-2.5,7.2H423.9z"/>
	<path class="st1" d="M444.6,273.7c-2.6,0-4.7-0.9-6.2-2.8h-0.3c0.2,1.8,0.3,2.8,0.3,3.2v8.5H434v-30.2h3.6c0.1,0.4,0.3,1.3,0.6,2.8
		h0.2c1.4-2.1,3.5-3.2,6.2-3.2c2.6,0,4.6,0.9,6.1,2.8c1.5,1.9,2.2,4.5,2.2,7.9c0,3.4-0.7,6.1-2.2,8S447.2,273.7,444.6,273.7z
		 M443.5,255.7c-1.8,0-3,0.5-3.9,1.5c-0.8,1-1.2,2.7-1.2,4.9v0.7c0,2.5,0.4,4.4,1.2,5.5c0.8,1.1,2.1,1.7,3.9,1.7
		c1.5,0,2.7-0.6,3.5-1.9c0.8-1.3,1.2-3.1,1.2-5.4c0-2.3-0.4-4.1-1.2-5.3C446.4,256.3,445.1,255.7,443.5,255.7z"/>
	<path class="st1" d="M467,273.7c-2.6,0-4.7-0.9-6.2-2.8h-0.3c0.2,1.8,0.3,2.8,0.3,3.2v8.5h-4.4v-30.2h3.6c0.1,0.4,0.3,1.3,0.6,2.8
		h0.2c1.4-2.1,3.5-3.2,6.2-3.2c2.6,0,4.6,0.9,6.1,2.8c1.5,1.9,2.2,4.5,2.2,7.9c0,3.4-0.7,6.1-2.2,8S469.6,273.7,467,273.7z
		 M465.9,255.7c-1.8,0-3,0.5-3.9,1.5c-0.8,1-1.2,2.7-1.2,4.9v0.7c0,2.5,0.4,4.4,1.2,5.5c0.8,1.1,2.1,1.7,3.9,1.7
		c1.5,0,2.7-0.6,3.5-1.9c0.8-1.3,1.2-3.1,1.2-5.4c0-2.3-0.4-4.1-1.2-5.3C468.7,256.3,467.5,255.7,465.9,255.7z"/>
</g>
</svg>
