<?xml version="1.0" encoding="utf-8"?>
<!-- Generator: Adobe Illustrator 22.0.1, SVG Export Plug-In . SVG Version: 6.00 Build 0)  -->
<svg version="1.1" id="Layer_1" xmlns="http://www.w3.org/2000/svg" xmlns:xlink="http://www.w3.org/1999/xlink" x="0px" y="0px"
	 viewBox="0 0 520 520" style="enable-background:new 0 0 520 520;" xml:space="preserve">
<style type="text/css">
	.st0{fill:#FFFFFF;}
	.st1{fill:#AF9A7D;}
	.st2{fill:#776044;}
</style>
<g>
	<rect class="st0" width="520" height="520"/>
</g>
<g>
	<path class="st1" d="M116.4,239.4h10.3c1.1,0,2.3,0.1,3.3,0.4s2.1,0.9,3.1,1.8c0.9,0.6,1.6,1.6,2.1,2.9c0.6,1.1,0.9,2.6,0.9,4.3
		c0,2.1-0.8,4.1-2.3,6c-1.5,1.9-3.8,2.9-6.6,2.9h-6.6v11.3h-4.3v-29.4H116.4z M120.7,253.2h6.4c1.6,0,2.8-0.5,3.6-1.5
		c0.8-1,1.1-2,1.1-3.3c0-1-0.1-1.9-0.5-2.5c-0.4-0.6-0.8-1.1-1.4-1.4c-0.9-0.6-1.9-0.9-3.1-0.9h-6.3v9.5H120.7z"/>
	<path class="st1" d="M142,259.9c0,1.6,0.5,3,1.4,3.9s2,1.4,3.4,1.4c1.6,0,3.1-0.6,4.4-2l3,2.6c-2.1,2.3-4.5,3.4-7.3,3.4
		c-1.1,0-2.1-0.1-3.1-0.5c-0.5-0.1-1-0.4-1.5-0.8c-0.5-0.3-1-0.6-1.4-1c-0.9-0.8-1.5-1.9-2.1-3.3c-0.6-1.4-0.9-3.1-0.9-5.3
		c0-2.1,0.3-3.8,0.8-5.1c0.5-1.4,1.1-2.5,2-3.3c0.8-0.9,1.8-1.4,2.8-1.8c1-0.4,2-0.5,2.9-0.5c2.4,0,4.3,0.9,5.9,2.4
		c1.6,1.6,2.5,3.8,2.5,6.5v3.5H142V259.9z M150.6,256.4c0-1.6-0.5-2.9-1.3-3.8c-0.8-0.8-1.8-1.3-3-1.3c-1.3,0-2.3,0.4-3,1.3
		c-0.8,0.9-1.3,2.1-1.3,3.8H150.6z"/>
	<path class="st1" d="M158.8,247.9h4.1v2.1h0.1c1.4-1.6,3.1-2.5,5.3-2.5c1.6,0,3,0.5,4.3,1.6l-3,3.6c-0.9-0.8-1.8-1-2.6-1
		c-1,0-1.9,0.4-2.6,1c-0.9,0.6-1.3,1.8-1.3,3.4v12.6h-4.1v-20.9H158.8z"/>
	<path class="st1" d="M188.2,265.4c-0.9,1-1.9,1.9-3.1,2.5c-1.3,0.6-2.6,1-4.1,1c-2.4,0-4.5-0.9-6.3-2.5c-1.9-1.6-2.9-4.4-2.9-8.1
		c0-3.8,1-6.5,2.9-8.3c1.8-1.6,3.9-2.5,6.3-2.5c1.6,0,3,0.4,4.1,1c1.3,0.6,2.3,1.5,3.1,2.6l-3,2.8c-1-1.4-2.4-2.1-4.1-2.3
		c-3.5,0-5.3,2.1-5.3,6.5c0,4.4,1.8,6.5,5.3,6.5c1.8,0,3.1-0.8,4.1-2.1L188.2,265.4z"/>
	<path class="st1" d="M193.8,259.9c0,1.6,0.5,3,1.4,3.9c0.9,0.9,2,1.4,3.4,1.4c1.6,0,3.1-0.6,4.4-2l3,2.6c-2.1,2.3-4.5,3.4-7.3,3.4
		c-1.1,0-2.1-0.1-3.1-0.5c-0.5-0.1-1-0.4-1.5-0.8c-0.5-0.3-1-0.6-1.4-1c-0.9-0.8-1.5-1.9-2.1-3.3s-0.9-3.1-0.9-5.3
		c0-2.1,0.3-3.8,0.8-5.1s1.1-2.5,2-3.3c0.8-0.9,1.8-1.4,2.8-1.8c1-0.4,2-0.5,2.9-0.5c2.4,0,4.3,0.9,5.9,2.4c1.6,1.6,2.5,3.8,2.5,6.5
		v3.5h-12.6V259.9z M202.4,256.4c0-1.6-0.5-2.9-1.3-3.8c-0.8-0.8-1.8-1.3-3-1.3c-1.3,0-2.3,0.4-3,1.3c-0.8,0.9-1.3,2.1-1.3,3.8
		H202.4z"/>
	<path class="st1" d="M213.6,259.9c0,1.6,0.5,3,1.4,3.9c0.9,0.9,2,1.4,3.4,1.4c1.6,0,3.1-0.6,4.4-2l3,2.6c-2.1,2.3-4.5,3.4-7.3,3.4
		c-1.1,0-2.1-0.1-3.1-0.5c-0.5-0.1-1-0.4-1.5-0.8c-0.5-0.3-1-0.6-1.4-1c-0.9-0.8-1.5-1.9-2.1-3.3c-0.6-1.4-0.9-3.1-0.9-5.3
		c0-2.1,0.3-3.8,0.8-5.1c0.5-1.4,1.1-2.5,2-3.3c0.8-0.9,1.8-1.4,2.8-1.8c1-0.4,2-0.5,2.9-0.5c2.4,0,4.3,0.9,5.9,2.4
		c1.6,1.6,2.5,3.8,2.5,6.5v3.5h-12.6V259.9z M222.3,256.4c0-1.6-0.5-2.9-1.3-3.8c-0.8-0.8-1.8-1.3-3-1.3c-1.3,0-2.3,0.4-3,1.3
		s-1.3,2.1-1.3,3.8H222.3z"/>
	<path class="st1" d="M230.4,239.4h4.1v24c0,1,0.5,1.4,1.5,1.4h1.4v4h-1.9c-1.5,0-2.8-0.4-3.6-1.1c-1-0.8-1.5-2.1-1.5-3.9
		L230.4,239.4L230.4,239.4z"/>
	<path class="st2" d="M239.3,258.3c0-2.3,0.1-3.9,0.5-5.1c0.4-1.1,0.9-2.1,1.6-2.9c0.5-0.8,1.4-1.4,2.4-1.9c1-0.5,2.3-0.8,3.8-0.9
		c1.6,0,2.9,0.3,3.9,0.9c1,0.5,1.8,1.1,2.3,1.9c0.8,0.8,1.4,1.8,1.8,2.9c0.4,1.1,0.5,2.9,0.5,5.1c0,2.3-0.1,3.9-0.5,5
		c-0.4,1.1-0.9,2.1-1.8,3c-0.3,0.3-0.6,0.6-1,0.9c-0.4,0.4-0.8,0.6-1.3,0.9c-1,0.6-2.3,0.9-3.9,0.9c-1.5,0-2.9-0.4-3.8-0.9
		c-1-0.5-1.8-1.1-2.4-1.8c-0.8-0.9-1.4-1.9-1.6-3C239.4,262.2,239.3,260.5,239.3,258.3z M251.9,258.4c0-1.5-0.1-2.6-0.3-3.3
		c-0.1-0.6-0.4-1.3-0.8-1.8c-0.3-0.5-0.8-0.9-1.4-1.1c-0.5-0.3-1.3-0.4-2-0.4c-0.8,0-1.4,0.1-1.9,0.4c-0.5,0.3-1,0.6-1.4,1.1
		c-0.4,0.5-0.6,1.1-0.8,1.8c-0.1,0.8-0.3,1.8-0.3,3.3s0.1,2.5,0.3,3.3c0.1,0.8,0.4,1.3,0.8,1.9c0.4,0.4,0.8,0.8,1.4,1.1
		c0.6,0.3,1.3,0.5,1.9,0.5c0.8,0,1.4-0.1,2-0.5c0.6-0.3,1-0.6,1.4-1.1s0.6-1.1,0.8-1.9C251.8,260.8,251.9,259.8,251.9,258.4z"/>
	<path class="st2" d="M260,247.9h4.1v2.1c1.4-1.5,3.1-2.4,5.3-2.4c2.5,0.1,4.3,1,5.5,2.8c0.5,0.6,1,1.5,1.1,2.6
		c0.3,1,0.3,2.9,0.3,5.4c0,2.5-0.1,4.3-0.3,5.4c-0.3,1.1-0.6,2-1.1,2.6c-0.5,0.8-1.3,1.5-2.3,1.9c-0.9,0.5-2,0.8-3.3,0.8
		c-1,0-2-0.3-2.8-0.8c-0.9-0.4-1.8-1-2.4-1.8v10.6h-4.1v-29.3H260z M268.2,264.8c1,0,1.8-0.3,2.3-0.6c0.5-0.4,1-0.9,1.3-1.5
		c0.3-0.6,0.4-1.4,0.5-2.1c0-0.8,0-1.5,0-2.4c0-0.9,0-1.6,0-2.5c-0.1-0.8-0.3-1.5-0.5-2.1s-0.6-1.1-1.3-1.5
		c-0.5-0.4-1.4-0.5-2.3-0.5s-1.6,0.3-2.1,0.6c-0.5,0.4-1,0.9-1.3,1.5s-0.4,1.4-0.5,2c-0.1,0.8-0.1,1.6-0.1,2.4c0,0.8,0,1.5,0.1,2.3
		c0.1,0.8,0.3,1.5,0.5,2.1s0.6,1.1,1.3,1.5C266.4,264.7,267.2,264.8,268.2,264.8z"/>
	<path class="st2" d="M280.7,247.9h4.1v2.1c1.4-1.5,3.1-2.4,5.3-2.4c2.5,0.1,4.3,1,5.5,2.8c0.5,0.6,1,1.5,1.1,2.6
		c0.3,1,0.3,2.9,0.3,5.4c0,2.5-0.1,4.3-0.3,5.4c-0.3,1.1-0.6,2-1.1,2.6c-0.5,0.8-1.3,1.5-2.3,1.9c-0.9,0.5-2,0.8-3.3,0.8
		c-1,0-2-0.3-2.8-0.8c-0.9-0.4-1.8-1-2.4-1.8v10.6h-4.1v-29.3H280.7z M288.7,264.8c1,0,1.8-0.3,2.3-0.6c0.5-0.4,1-0.9,1.3-1.5
		c0.3-0.6,0.4-1.4,0.5-2.1c0-0.8,0-1.5,0-2.4c0-0.9,0-1.6,0-2.5c-0.1-0.8-0.3-1.5-0.5-2.1s-0.6-1.1-1.3-1.5
		c-0.5-0.4-1.4-0.5-2.3-0.5c-0.9,0-1.6,0.3-2.1,0.6c-0.5,0.4-1,0.9-1.3,1.5s-0.4,1.4-0.5,2c-0.1,0.8-0.1,1.6-0.1,2.4
		c0,0.8,0,1.5,0.1,2.3c0.1,0.8,0.3,1.5,0.5,2.1s0.6,1.1,1.3,1.5C287.1,264.7,287.8,264.8,288.7,264.8z"/>
	<path class="st2" d="M304.3,259.9c0,1.6,0.5,3,1.4,3.9c0.9,0.9,2,1.4,3.4,1.4c1.6,0,3.1-0.6,4.4-2l3,2.6c-2.1,2.3-4.5,3.4-7.3,3.4
		c-1.1,0-2.1-0.1-3.1-0.5c-0.5-0.1-1-0.4-1.5-0.8c-0.5-0.3-1-0.6-1.4-1c-0.9-0.8-1.5-1.9-2.1-3.3c-0.6-1.4-0.9-3.1-0.9-5.3
		c0-2.1,0.3-3.8,0.8-5.1c0.5-1.4,1.1-2.5,2-3.3c0.8-0.9,1.8-1.4,2.8-1.8c1-0.4,2-0.5,2.9-0.5c2.4,0,4.3,0.9,5.9,2.4
		c1.6,1.6,2.5,3.8,2.5,6.5v3.5h-12.6V259.9z M312.8,256.4c0-1.6-0.5-2.9-1.3-3.8c-0.8-0.8-1.8-1.3-3-1.3c-1.3,0-2.3,0.4-3,1.3
		c-0.8,0.9-1.3,2.1-1.3,3.8H312.8z"/>
	<path class="st2" d="M321.1,247.9h4.1v2.1h0.1c1.4-1.6,3.1-2.5,5.3-2.5c1.6,0,3,0.5,4.3,1.6l-3,3.6c-0.9-0.8-1.8-1-2.6-1
		c-1,0-1.9,0.4-2.6,1c-0.9,0.6-1.3,1.8-1.3,3.4v12.6h-4.1v-20.9H321.1z"/>
	<path class="st2" d="M333.5,247.9h4.3l4.8,14.6h0.1l4.8-14.6h4.4l-7.5,20.9h-3.4L333.5,247.9z"/>
	<path class="st2" d="M353.8,239.4h4.1v24c0,1,0.5,1.4,1.5,1.4h1.4v4h-1.9c-1.5,0-2.8-0.4-3.6-1.1c-1-0.8-1.5-2.1-1.5-3.9
		L353.8,239.4L353.8,239.4z"/>
	<path class="st2" d="M374.3,266.9L374.3,266.9c-0.5,0.8-1,1.3-1.9,1.6c-0.8,0.4-1.9,0.5-3.3,0.5c-2.3,0-4-0.6-5.3-1.9
		c-1.3-1.1-1.9-2.8-1.9-4.5s0.5-3.3,1.6-4.4c1.1-1.1,2.8-1.8,4.9-1.8h5.6v-2.3c0-1.9-1.4-2.8-4.1-2.8c-1,0-1.9,0.1-2.4,0.4
		c-0.6,0.3-1.1,0.8-1.5,1.3l-3.3-2.5c1.5-2.1,3.9-3.1,6.9-3c2.5,0,4.6,0.5,6.1,1.5c1.5,1,2.3,2.9,2.4,5.4v14.3h-4.1v-1.9H374.3z
		 M374.3,259.9h-4.9c-2.4,0-3.5,0.9-3.5,2.5c0,0.8,0.3,1.4,0.9,1.9c0.6,0.5,1.5,0.9,2.9,0.9c1.8,0,2.9-0.1,3.6-0.6
		c0.6-0.5,1-1.5,1-3V259.9z"/>
	<path class="st2" d="M383.4,239.4h4.1v18.3h0.1l7.8-9.8h4.9l-7,8.1l8,12.8h-5.1l-5.4-9.8l-3.3,3.8v6h-4.1V239.4z"/>
	<path class="st2" d="M404.3,241.5h4.1v6.4h3v3.3h-3v12.3c0,1,0.5,1.6,1.5,1.5h1.5v3.9h-2.1c-1.4,0-2.6-0.5-3.5-1.4
		c-0.9-0.9-1.4-2.1-1.4-3.8v-12.5h-2v-3.3h2v-6.4H404.3z"/>
	<path class="st2" d="M417.8,259.9c0,1.6,0.5,3,1.4,3.9s2,1.4,3.4,1.4c1.6,0,3.1-0.6,4.4-2l3,2.6c-2.1,2.3-4.5,3.4-7.3,3.4
		c-1.1,0-2.1-0.1-3.1-0.5c-0.5-0.1-1-0.4-1.5-0.8c-0.5-0.3-1-0.6-1.4-1c-0.9-0.8-1.5-1.9-2.1-3.3c-0.6-1.4-0.9-3.1-0.9-5.3
		c0-2.1,0.3-3.8,0.8-5.1c0.5-1.4,1.1-2.5,2-3.3c0.8-0.9,1.8-1.4,2.8-1.8c1-0.4,2-0.5,2.9-0.5c2.4,0,4.3,0.9,5.9,2.4
		c1.6,1.6,2.5,3.8,2.5,6.5v3.5h-12.6V259.9z M426.3,256.4c0-1.6-0.5-2.9-1.3-3.8c-0.8-0.8-1.8-1.3-3-1.3c-1.3,0-2.3,0.4-3,1.3
		s-1.3,2.1-1.3,3.8H426.3z"/>
	<path class="st1" d="M434.7,264.7h4.1v4.1h-4.1V264.7z"/>
	<path class="st1" d="M443.6,247.9h4.1v2.1h0.1c1.4-1.6,3.1-2.5,5.3-2.5c1.6,0,3.3,0.6,4.6,1.9s2.1,3,2.1,5.5v13.9h-4.1v-12.5
		c0-1.5-0.4-2.6-1.1-3.4s-1.8-1.1-2.9-1.1c-1.1,0-2.1,0.4-2.9,1.1c-0.8,0.8-1.1,1.9-1.1,3.4v12.5h-4.1L443.6,247.9L443.6,247.9z"/>
	<path class="st1" d="M465,239.4h4.1v24c0,1,0.5,1.4,1.5,1.4h1.4v4h-1.9c-1.5,0-2.8-0.4-3.6-1.1c-1-0.8-1.5-2.1-1.5-3.9V239.4z"/>
</g>
<g>
	<path class="st1" d="M53.7,287.9l-9-58.8l24.4-2.9l44.5,45.2l-9.3,11.9L53.7,287.9z M48.6,232.1l8,52.1l46-4.3l6.5-8.3l-41.3-41.8
		L48.6,232.1z"/>
</g>
<g>
	<g>
		<path class="st1" d="M58.2,268v-18.6h5.6l3.4,12.8l3.4-12.8h5.6V268h-3.5v-14.6L69,268h-3.6l-3.8-14.6V268H58.2z"/>
	</g>
</g>
<g>
	<g>
		<path class="st1" d="M84.7,258.7h-7.9c0.1-0.8,0.4-1.5,0.9-2.3c0.5-0.6,1.4-1.5,2.6-2.4c0.8-0.6,1.3-1,1.5-1.3
			c0.3-0.3,0.4-0.6,0.4-0.9s-0.1-0.5-0.4-0.8c-0.3-0.3-0.5-0.3-0.8-0.3c-0.4,0-0.6,0.1-0.9,0.4c-0.3,0.3-0.4,0.6-0.4,1.1l-2.6-0.3
			c0.1-0.8,0.3-1.4,0.6-1.8c0.3-0.4,0.6-0.8,1.1-1c0.5-0.3,1.3-0.4,2.1-0.4s1.6,0.1,2.1,0.4c0.5,0.3,0.9,0.5,1.3,1
			c0.3,0.4,0.5,0.9,0.5,1.5s-0.1,1.1-0.5,1.6s-1,1.1-1.9,1.8c-0.5,0.4-0.9,0.6-1,0.8s-0.4,0.4-0.6,0.6h3.8V258.7z"/>
	</g>
</g>
</svg>
