<?xml version="1.0" encoding="iso-8859-1"?>
<!-- Generator: Adobe Illustrator 21.0.2, SVG Export Plug-In . SVG Version: 6.00 Build 0)  -->
<svg version="1.1" id="Layer_1" xmlns="http://www.w3.org/2000/svg" xmlns:xlink="http://www.w3.org/1999/xlink" x="0px" y="0px"
	 viewBox="0 0 240.719 92.011" style="enable-background:new 0 0 240.719 92.011;" xml:space="preserve">
<path style="fill:none;" d="M154.615,49.337c0-3.028-0.913-5.228-2.736-6.606c-1.824-1.376-4.353-2.064-7.586-2.064h-18.371v13.271
	c1.505,0.319,3.009,0.654,4.517,0.933c4.823,0.849,9.662,1.574,14.514,2.001c1.882,0.206,3.765,0.347,5.648,0.463
	c0.431-0.298,0.855-0.606,1.228-0.979C153.686,54.496,154.615,52.158,154.615,49.337z"/>
<path style="fill:none;" d="M143.158,14.141h-17.237v14.862h18.062c5.781,0,8.67-2.477,8.67-7.431c0-2.614-0.74-4.506-2.22-5.677
	C148.954,14.725,146.529,14.141,143.158,14.141z"/>
<path style="fill:none;" d="M203.743,61.102c2.338,0,4.523-0.413,6.554-1.238c2.029-0.827,3.802-1.961,5.315-3.406
	c1.513-1.446,2.701-3.113,3.561-5.006c0.73-1.607,1.132-3.305,1.242-5.085c-1.368,0.939-2.758,1.853-4.187,2.712
	c-6.754,4.013-14.137,7.081-21.822,9.336c0.258,0.172,0.501,0.358,0.77,0.52C197.584,60.38,200.441,61.102,203.743,61.102z"/>
<path style="fill:#4DBBB6;" d="M41.493,2.27v8.698c2.963,2.833,6.059,5.554,9.277,8.149c1.701,1.337,3.425,2.653,5.173,3.942V2.27
	H41.493z"/>
<path style="fill:#0B4147;" d="M41.493,18.602v9.472H14.76V2.27H0.414v68.535H14.76V40.047h26.733v30.758h14.45V30.287
	c-3.01-2.153-5.966-4.372-8.798-6.73C45.221,21.946,43.334,20.295,41.493,18.602z"/>
<path style="fill:#0B4147;" d="M60.483,70.805h14.346V41.96c-4.923-2.618-9.721-5.451-14.346-8.522V70.805z"/>
<path style="fill:#4DBBB6;" d="M104.968,29.829H74.829V14.244h34.474V2.27h-48.82v24.002c0.686,0.466,1.37,0.935,2.067,1.387
	c4.035,2.728,8.252,5.209,12.533,7.588c4.32,2.307,8.691,4.554,13.207,6.501c0.121,0.056,0.244,0.103,0.365,0.158h16.314V29.829z"/>
<path style="fill:#4DBBB6;" d="M167.723,43.918c-0.551-1.822-1.291-3.407-2.22-4.749c-0.929-1.341-2.029-2.442-3.302-3.302
	c-1.274-0.86-2.632-1.565-4.077-2.116c2.407-0.964,4.403-2.597,5.986-4.904c1.582-2.303,2.374-4.936,2.374-7.895
	c0-5.779-1.754-10.337-5.263-13.676c-3.509-3.336-8.637-5.006-15.38-5.006h-33.75v48.173c4.565,1.339,9.184,2.509,13.831,3.494
	V40.666h18.371c3.234,0,5.762,0.688,7.586,2.064c1.822,1.378,2.736,3.578,2.736,6.606c0,2.821-0.929,5.16-2.788,7.019
	c-0.373,0.373-0.797,0.681-1.228,0.979c2.965,0.182,5.928,0.281,8.883,0.327c2.663,0.008,5.32-0.061,7.967-0.195
	c0.719-2.149,1.099-4.506,1.099-7.097C168.548,47.892,168.273,45.742,167.723,43.918z M143.983,29.003h-18.062V14.141h17.237
	c3.371,0,5.796,0.585,7.276,1.754c1.48,1.171,2.22,3.063,2.22,5.677C152.654,26.526,149.764,29.003,143.983,29.003z"/>
<path style="fill:#0B4147;" d="M112.09,56.879v13.926h30.861c8.67,0,15.103-1.841,19.302-5.522c0.736-0.645,1.383-1.345,1.99-2.07
	c-1.579,0.07-3.159,0.126-4.742,0.151C143.588,63.571,127.618,61.194,112.09,56.879z"/>
<path style="fill:#0B4147;" d="M227.802,40.623c-2.32,2.066-4.801,3.97-7.387,5.745c-0.11,1.78-0.512,3.479-1.242,5.085
	c-0.86,1.892-2.048,3.559-3.561,5.006c-1.513,1.445-3.285,2.579-5.315,3.406c-2.031,0.825-4.216,1.238-6.554,1.238
	c-3.302,0-6.158-0.722-8.567-2.166c-0.269-0.161-0.512-0.348-0.77-0.52c-1.752,0.514-3.514,1-5.294,1.429
	c-3.51,0.854-7.071,1.528-10.665,2.053c0.021,0.027,0.039,0.056,0.06,0.083c2.718,3.406,5.988,6.125,9.806,8.153
	c3.818,2.029,8.102,3.045,12.849,3.045c4.749,0,8.944-0.808,12.592-2.425c3.646-1.615,6.297-3.87,7.947-6.76l0.311,6.811h11.869
	V34.242C232.01,36.489,229.99,38.631,227.802,40.623z"/>
<path style="fill:#4DBBB6;" d="M185.836,45.569c-0.723-2.855-1.084-5.692-1.084-8.515c0-8.188,1.737-14.431,5.211-18.734
	c3.474-4.299,8.102-6.451,13.883-6.451c1.926,0,3.802,0.311,5.625,0.929c1.822,0.62,3.421,1.446,4.799,2.479
	c1.376,1.031,2.511,2.253,3.406,3.663c0.894,1.411,1.445,2.908,1.652,4.49h14.45c-0.276-3.439-1.223-6.588-2.838-9.444
	c-1.618-2.855-3.751-5.315-6.399-7.379c-2.651-2.064-5.747-3.681-9.29-4.852C211.707,0.585,207.905,0,203.846,0
	c-5.574,0-10.461,0.947-14.657,2.838c-4.197,1.894-7.707,4.49-10.528,7.793c-2.823,3.302-4.954,7.172-6.399,11.612
	c-1.445,4.438-2.168,9.17-2.168,14.191c0,4.749,0.723,9.342,2.168,13.78c0.77,2.366,1.734,4.573,2.866,6.646
	c4.335-0.465,8.625-1.131,12.838-2.041c0.689-0.145,1.372-0.31,2.058-0.468c-0.266-0.342-0.539-0.676-0.783-1.04
	C187.693,51.005,186.557,48.425,185.836,45.569z"/>
<path style="fill:#4DBBB6;" d="M205.291,45.415h8.61c0.053-0.029,0.108-0.056,0.162-0.085c3.975-2.236,7.724-4.785,11.148-7.659
	c1.373-1.18,2.671-2.428,3.922-3.713h-23.843V45.415z"/>
<polyline style="fill:#E85C1D;" points="229.134,26.092 240.719,26.092 240.719,37.677 "/>
<g>
	<path style="fill:#706F6F;" d="M0.913,79.886v4.158h5.686v-4.158h0.912v9.576H6.599v-4.641H0.913v4.641H0v-9.576H0.913z"/>
	<path style="fill:#706F6F;" d="M14.949,82.636c0.407,0.197,0.748,0.461,1.026,0.791c0.277,0.331,0.487,0.718,0.63,1.161
		c0.143,0.442,0.215,0.914,0.215,1.415s-0.072,0.973-0.215,1.415c-0.143,0.443-0.353,0.83-0.63,1.161
		c-0.277,0.33-0.619,0.592-1.026,0.784c-0.408,0.192-0.874,0.288-1.402,0.288s-0.994-0.095-1.401-0.288
		c-0.408-0.192-0.749-0.454-1.027-0.784c-0.277-0.331-0.487-0.718-0.63-1.161c-0.143-0.442-0.214-0.914-0.214-1.415
		s0.071-0.973,0.214-1.415c0.143-0.443,0.353-0.83,0.63-1.161c0.277-0.33,0.619-0.594,1.027-0.791
		c0.407-0.197,0.873-0.295,1.401-0.295S14.542,82.439,14.949,82.636z M12.487,83.306c-0.304,0.17-0.557,0.393-0.758,0.671
		c-0.201,0.277-0.353,0.592-0.456,0.946c-0.102,0.353-0.154,0.713-0.154,1.079s0.052,0.726,0.154,1.079
		c0.103,0.354,0.256,0.669,0.456,0.946c0.201,0.277,0.453,0.501,0.758,0.671s0.657,0.255,1.06,0.255s0.755-0.085,1.06-0.255
		s0.557-0.393,0.758-0.671c0.202-0.277,0.354-0.592,0.456-0.946c0.102-0.353,0.154-0.713,0.154-1.079s-0.052-0.726-0.154-1.079
		c-0.102-0.354-0.255-0.669-0.456-0.946c-0.201-0.277-0.453-0.501-0.758-0.671s-0.657-0.255-1.06-0.255S12.792,83.136,12.487,83.306
		z"/>
	<path style="fill:#706F6F;" d="M20.28,79.886v9.576h-0.844v-9.576H20.28z"/>
	<path style="fill:#706F6F;" d="M24.102,79.886v9.576h-0.844v-9.576H24.102z"/>
	<path style="fill:#706F6F;" d="M27.241,83.615c0.143-0.295,0.337-0.537,0.584-0.724c0.246-0.187,0.534-0.326,0.865-0.416
		c0.331-0.089,0.697-0.133,1.1-0.133c0.303,0,0.607,0.029,0.912,0.087s0.576,0.168,0.819,0.328c0.241,0.161,0.438,0.387,0.59,0.678
		c0.152,0.291,0.228,0.669,0.228,1.133v3.676c0,0.339,0.166,0.509,0.497,0.509c0.098,0,0.187-0.018,0.268-0.054v0.711
		c-0.098,0.019-0.185,0.032-0.262,0.04c-0.076,0.009-0.172,0.013-0.288,0.013c-0.215,0-0.387-0.029-0.516-0.087
		c-0.13-0.058-0.231-0.141-0.302-0.248c-0.071-0.108-0.118-0.235-0.141-0.382c-0.023-0.148-0.033-0.311-0.033-0.491h-0.027
		c-0.152,0.225-0.306,0.423-0.463,0.597c-0.157,0.175-0.331,0.32-0.524,0.437c-0.192,0.116-0.411,0.205-0.657,0.268
		c-0.246,0.062-0.539,0.093-0.879,0.093c-0.322,0-0.624-0.037-0.905-0.114c-0.281-0.076-0.528-0.197-0.738-0.362
		c-0.21-0.165-0.376-0.376-0.496-0.63c-0.121-0.255-0.181-0.557-0.181-0.905c0-0.482,0.107-0.86,0.322-1.133
		c0.214-0.272,0.498-0.48,0.852-0.624c0.353-0.143,0.751-0.243,1.193-0.301c0.443-0.058,0.892-0.114,1.348-0.168
		c0.179-0.018,0.335-0.04,0.47-0.067c0.133-0.027,0.245-0.073,0.335-0.141c0.089-0.067,0.158-0.158,0.208-0.275
		c0.049-0.116,0.073-0.268,0.073-0.456c0-0.286-0.048-0.521-0.141-0.704c-0.094-0.183-0.224-0.329-0.389-0.436
		c-0.166-0.108-0.358-0.181-0.576-0.221c-0.219-0.04-0.454-0.06-0.705-0.06c-0.536,0-0.975,0.127-1.314,0.382
		c-0.34,0.255-0.518,0.664-0.537,1.227h-0.844C27.013,84.258,27.098,83.91,27.241,83.615z M31.466,85.68
		c-0.054,0.098-0.156,0.17-0.308,0.214c-0.152,0.046-0.287,0.077-0.403,0.094c-0.358,0.063-0.726,0.119-1.106,0.168
		c-0.381,0.05-0.726,0.123-1.04,0.221c-0.313,0.098-0.57,0.239-0.771,0.422c-0.201,0.183-0.302,0.445-0.302,0.784
		c0,0.215,0.042,0.405,0.127,0.57c0.085,0.166,0.2,0.308,0.343,0.429c0.143,0.121,0.308,0.212,0.497,0.275
		c0.187,0.062,0.38,0.093,0.576,0.093c0.322,0,0.63-0.049,0.925-0.147c0.295-0.098,0.553-0.241,0.771-0.429
		c0.219-0.187,0.394-0.416,0.524-0.684c0.129-0.268,0.195-0.572,0.195-0.912v-1.1H31.466z"/>
	<path style="fill:#706F6F;" d="M36.201,82.541v1.194h0.027c0.161-0.42,0.447-0.759,0.859-1.013
		c0.411-0.255,0.862-0.382,1.355-0.382c0.482,0,0.887,0.062,1.214,0.187c0.326,0.125,0.588,0.302,0.784,0.53
		c0.197,0.228,0.335,0.508,0.416,0.838c0.081,0.331,0.12,0.703,0.12,1.113v4.453h-0.844v-4.318c0-0.296-0.027-0.57-0.081-0.826
		c-0.054-0.255-0.147-0.476-0.281-0.663c-0.135-0.188-0.316-0.335-0.543-0.443c-0.228-0.108-0.512-0.16-0.852-0.16
		c-0.34,0-0.642,0.06-0.905,0.181c-0.264,0.12-0.487,0.286-0.671,0.496c-0.183,0.21-0.326,0.461-0.429,0.751
		c-0.102,0.291-0.158,0.605-0.168,0.946v4.037h-0.844v-6.921H36.201z"/>
	<path style="fill:#706F6F;" d="M49.224,89.462v-1.314h-0.027c-0.089,0.224-0.22,0.429-0.395,0.617
		c-0.174,0.187-0.374,0.347-0.597,0.476c-0.224,0.129-0.463,0.231-0.717,0.302S46.98,89.65,46.73,89.65
		c-0.528,0-0.986-0.095-1.375-0.288c-0.389-0.192-0.713-0.456-0.973-0.792c-0.259-0.335-0.451-0.724-0.576-1.167
		c-0.125-0.442-0.187-0.91-0.187-1.401c0-0.492,0.062-0.959,0.187-1.401c0.125-0.443,0.318-0.832,0.576-1.167
		c0.26-0.335,0.584-0.601,0.973-0.798c0.389-0.197,0.848-0.295,1.375-0.295c0.259,0,0.511,0.031,0.758,0.093
		c0.245,0.063,0.476,0.159,0.69,0.289c0.215,0.129,0.405,0.289,0.57,0.476c0.166,0.188,0.293,0.407,0.383,0.657h0.026v-3.97h0.845
		v9.576H49.224z M44.59,87.068c0.085,0.354,0.219,0.669,0.403,0.946s0.418,0.503,0.705,0.678c0.286,0.174,0.63,0.261,1.033,0.261
		c0.446,0,0.825-0.087,1.133-0.261c0.308-0.175,0.559-0.4,0.751-0.678c0.191-0.277,0.33-0.592,0.415-0.946
		c0.085-0.353,0.127-0.708,0.127-1.066c0-0.357-0.042-0.713-0.127-1.066c-0.085-0.354-0.224-0.669-0.415-0.946
		c-0.192-0.277-0.443-0.503-0.751-0.678c-0.308-0.174-0.687-0.261-1.133-0.261c-0.403,0-0.747,0.087-1.033,0.261
		c-0.287,0.175-0.522,0.4-0.705,0.678s-0.318,0.592-0.403,0.946c-0.085,0.353-0.127,0.709-0.127,1.066
		C44.463,86.36,44.505,86.715,44.59,87.068z"/>
	<path style="fill:#706F6F;" d="M64.26,79.886v0.777h-5.164v3.461h4.586v0.778h-4.586v4.561h-0.913v-9.576H64.26z"/>
	<path style="fill:#706F6F;" d="M67.425,79.886v1.355h-0.844v-1.355H67.425z M67.425,82.541v6.921h-0.844v-6.921H67.425z"/>
	<path style="fill:#706F6F;" d="M71.221,82.541v1.194h0.027c0.161-0.42,0.447-0.759,0.859-1.013
		c0.411-0.255,0.862-0.382,1.355-0.382c0.482,0,0.887,0.062,1.214,0.187c0.326,0.125,0.588,0.302,0.784,0.53
		c0.197,0.228,0.335,0.508,0.416,0.838c0.081,0.331,0.12,0.703,0.12,1.113v4.453h-0.844v-4.318c0-0.296-0.027-0.57-0.081-0.826
		c-0.054-0.255-0.147-0.476-0.281-0.663c-0.135-0.188-0.316-0.335-0.543-0.443c-0.228-0.108-0.512-0.16-0.852-0.16
		c-0.34,0-0.642,0.06-0.905,0.181c-0.264,0.12-0.487,0.286-0.671,0.496c-0.183,0.21-0.326,0.461-0.429,0.751
		c-0.102,0.291-0.158,0.605-0.168,0.946v4.037h-0.844v-6.921H71.221z"/>
	<path style="fill:#706F6F;" d="M79.107,83.615c0.143-0.295,0.337-0.537,0.584-0.724c0.246-0.187,0.534-0.326,0.865-0.416
		c0.331-0.089,0.697-0.133,1.1-0.133c0.303,0,0.607,0.029,0.912,0.087c0.304,0.058,0.576,0.168,0.819,0.328
		c0.241,0.161,0.438,0.387,0.59,0.678c0.152,0.291,0.228,0.669,0.228,1.133v3.676c0,0.339,0.166,0.509,0.497,0.509
		c0.098,0,0.187-0.018,0.268-0.054v0.711c-0.098,0.019-0.185,0.032-0.262,0.04c-0.076,0.009-0.172,0.013-0.288,0.013
		c-0.215,0-0.387-0.029-0.516-0.087c-0.13-0.058-0.231-0.141-0.302-0.248c-0.071-0.108-0.118-0.235-0.141-0.382
		c-0.023-0.148-0.033-0.311-0.033-0.491H83.4c-0.152,0.225-0.306,0.423-0.463,0.597c-0.157,0.175-0.331,0.32-0.524,0.437
		c-0.192,0.116-0.411,0.205-0.657,0.268c-0.246,0.062-0.539,0.093-0.879,0.093c-0.322,0-0.624-0.037-0.905-0.114
		c-0.281-0.076-0.528-0.197-0.738-0.362c-0.21-0.165-0.376-0.376-0.496-0.63c-0.121-0.255-0.181-0.557-0.181-0.905
		c0-0.482,0.107-0.86,0.322-1.133c0.214-0.272,0.498-0.48,0.852-0.624c0.353-0.143,0.751-0.243,1.193-0.301
		c0.443-0.058,0.892-0.114,1.348-0.168c0.179-0.018,0.335-0.04,0.47-0.067c0.133-0.027,0.245-0.073,0.335-0.141
		c0.089-0.067,0.158-0.158,0.208-0.275c0.049-0.116,0.073-0.268,0.073-0.456c0-0.286-0.048-0.521-0.141-0.704
		c-0.094-0.183-0.224-0.329-0.389-0.436c-0.166-0.108-0.358-0.181-0.576-0.221c-0.219-0.04-0.454-0.06-0.705-0.06
		c-0.536,0-0.975,0.127-1.314,0.382c-0.34,0.255-0.518,0.664-0.537,1.227h-0.844C78.88,84.258,78.965,83.91,79.107,83.615z
		 M83.333,85.68c-0.054,0.098-0.156,0.17-0.308,0.214c-0.152,0.046-0.287,0.077-0.403,0.094c-0.358,0.063-0.726,0.119-1.106,0.168
		c-0.381,0.05-0.726,0.123-1.04,0.221c-0.313,0.098-0.57,0.239-0.771,0.422c-0.201,0.183-0.302,0.445-0.302,0.784
		c0,0.215,0.042,0.405,0.127,0.57c0.085,0.166,0.2,0.308,0.343,0.429s0.308,0.212,0.497,0.275c0.187,0.062,0.38,0.093,0.576,0.093
		c0.322,0,0.63-0.049,0.925-0.147c0.295-0.098,0.553-0.241,0.771-0.429c0.219-0.187,0.394-0.416,0.524-0.684
		c0.129-0.268,0.195-0.572,0.195-0.912v-1.1H83.333z"/>
	<path style="fill:#706F6F;" d="M88.067,82.541v1.194h0.027c0.161-0.42,0.447-0.759,0.859-1.013
		c0.411-0.255,0.862-0.382,1.355-0.382c0.482,0,0.887,0.062,1.214,0.187c0.326,0.125,0.588,0.302,0.784,0.53
		c0.197,0.228,0.335,0.508,0.416,0.838c0.081,0.331,0.12,0.703,0.12,1.113v4.453h-0.844v-4.318c0-0.296-0.027-0.57-0.081-0.826
		c-0.054-0.255-0.147-0.476-0.281-0.663c-0.135-0.188-0.316-0.335-0.543-0.443c-0.228-0.108-0.512-0.16-0.852-0.16
		c-0.34,0-0.642,0.06-0.905,0.181c-0.264,0.12-0.487,0.286-0.671,0.496c-0.183,0.21-0.326,0.461-0.429,0.751
		c-0.102,0.291-0.158,0.605-0.168,0.946v4.037h-0.844v-6.921H88.067z"/>
	<path style="fill:#706F6F;" d="M100.017,83.493c-0.313-0.295-0.75-0.442-1.314-0.442c-0.403,0-0.755,0.085-1.06,0.255
		s-0.557,0.393-0.757,0.671s-0.353,0.592-0.456,0.946c-0.102,0.353-0.154,0.713-0.154,1.079s0.052,0.726,0.154,1.079
		c0.103,0.354,0.256,0.669,0.456,0.946c0.201,0.277,0.453,0.501,0.757,0.671s0.657,0.255,1.06,0.255c0.26,0,0.505-0.049,0.738-0.147
		c0.233-0.098,0.438-0.235,0.617-0.409c0.179-0.175,0.327-0.383,0.443-0.624c0.116-0.241,0.187-0.505,0.214-0.792h0.845
		c-0.116,0.84-0.425,1.495-0.925,1.965c-0.501,0.47-1.146,0.704-1.932,0.704c-0.528,0-0.994-0.095-1.401-0.288
		c-0.408-0.192-0.749-0.454-1.027-0.784c-0.277-0.331-0.487-0.718-0.63-1.161c-0.143-0.442-0.214-0.914-0.214-1.415
		s0.071-0.973,0.214-1.415c0.143-0.443,0.353-0.83,0.63-1.161c0.277-0.33,0.619-0.594,1.027-0.791
		c0.407-0.197,0.873-0.295,1.401-0.295c0.742,0,1.37,0.197,1.884,0.59s0.821,0.988,0.919,1.784h-0.844
		C100.545,84.196,100.331,83.788,100.017,83.493z"/>
	<path style="fill:#706F6F;" d="M104.94,79.886v1.355h-0.844v-1.355H104.94z M104.94,82.541v6.921h-0.844v-6.921H104.94z"/>
	<path style="fill:#706F6F;" d="M108.079,83.615c0.143-0.295,0.337-0.537,0.584-0.724c0.246-0.187,0.534-0.326,0.865-0.416
		c0.331-0.089,0.697-0.133,1.1-0.133c0.303,0,0.607,0.029,0.912,0.087c0.304,0.058,0.576,0.168,0.819,0.328
		c0.241,0.161,0.438,0.387,0.59,0.678c0.152,0.291,0.228,0.669,0.228,1.133v3.676c0,0.339,0.166,0.509,0.497,0.509
		c0.098,0,0.187-0.018,0.268-0.054v0.711c-0.098,0.019-0.185,0.032-0.262,0.04c-0.076,0.009-0.172,0.013-0.288,0.013
		c-0.215,0-0.387-0.029-0.516-0.087c-0.13-0.058-0.231-0.141-0.302-0.248c-0.071-0.108-0.118-0.235-0.141-0.382
		c-0.023-0.148-0.033-0.311-0.033-0.491h-0.027c-0.152,0.225-0.306,0.423-0.463,0.597c-0.157,0.175-0.331,0.32-0.524,0.437
		c-0.192,0.116-0.411,0.205-0.657,0.268c-0.246,0.062-0.539,0.093-0.879,0.093c-0.322,0-0.624-0.037-0.905-0.114
		c-0.281-0.076-0.528-0.197-0.738-0.362c-0.21-0.165-0.376-0.376-0.496-0.63c-0.121-0.255-0.181-0.557-0.181-0.905
		c0-0.482,0.107-0.86,0.322-1.133c0.214-0.272,0.498-0.48,0.852-0.624c0.353-0.143,0.751-0.243,1.193-0.301
		c0.443-0.058,0.892-0.114,1.348-0.168c0.179-0.018,0.335-0.04,0.47-0.067c0.133-0.027,0.245-0.073,0.335-0.141
		c0.089-0.067,0.158-0.158,0.208-0.275c0.049-0.116,0.073-0.268,0.073-0.456c0-0.286-0.048-0.521-0.141-0.704
		c-0.094-0.183-0.224-0.329-0.389-0.436c-0.166-0.108-0.358-0.181-0.576-0.221c-0.219-0.04-0.454-0.06-0.705-0.06
		c-0.536,0-0.975,0.127-1.314,0.382c-0.34,0.255-0.518,0.664-0.537,1.227h-0.844C107.851,84.258,107.936,83.91,108.079,83.615z
		 M112.304,85.68c-0.054,0.098-0.156,0.17-0.308,0.214c-0.152,0.046-0.287,0.077-0.403,0.094c-0.358,0.063-0.726,0.119-1.106,0.168
		c-0.381,0.05-0.726,0.123-1.04,0.221c-0.313,0.098-0.57,0.239-0.771,0.422c-0.201,0.183-0.302,0.445-0.302,0.784
		c0,0.215,0.042,0.405,0.127,0.57c0.085,0.166,0.2,0.308,0.343,0.429s0.308,0.212,0.497,0.275c0.187,0.062,0.38,0.093,0.576,0.093
		c0.322,0,0.63-0.049,0.925-0.147c0.295-0.098,0.553-0.241,0.771-0.429c0.219-0.187,0.394-0.416,0.524-0.684
		c0.129-0.268,0.195-0.572,0.195-0.912v-1.1H112.304z"/>
	<path style="fill:#706F6F;" d="M117.065,79.886v9.576h-0.844v-9.576H117.065z"/>
	<path style="fill:#706F6F;" d="M129.311,79.886c0.403,0,0.79,0.038,1.161,0.114c0.37,0.076,0.697,0.206,0.979,0.389
		s0.507,0.424,0.677,0.724c0.17,0.299,0.256,0.673,0.256,1.12c0,0.25-0.04,0.494-0.121,0.731c-0.081,0.237-0.195,0.452-0.343,0.644
		c-0.147,0.192-0.322,0.356-0.523,0.491c-0.201,0.133-0.427,0.228-0.678,0.281v0.027c0.618,0.08,1.109,0.333,1.476,0.757
		s0.551,0.95,0.551,1.576c0,0.152-0.013,0.324-0.04,0.516c-0.027,0.192-0.081,0.389-0.161,0.59c-0.081,0.202-0.197,0.4-0.349,0.597
		c-0.152,0.197-0.355,0.368-0.611,0.516c-0.255,0.148-0.567,0.268-0.939,0.362s-0.815,0.141-1.335,0.141h-4.05v-9.576H129.311z
		 M129.311,84.084c0.367,0,0.684-0.042,0.953-0.128c0.268-0.085,0.492-0.201,0.671-0.349c0.179-0.147,0.313-0.319,0.403-0.516
		c0.089-0.197,0.133-0.407,0.133-0.63c0-1.198-0.719-1.798-2.16-1.798h-3.138v3.421H129.311z M129.311,88.684
		c0.34,0,0.662-0.029,0.967-0.087c0.303-0.058,0.572-0.164,0.804-0.316c0.233-0.151,0.416-0.355,0.551-0.61
		c0.133-0.256,0.201-0.574,0.201-0.959c0-0.617-0.216-1.079-0.65-1.389c-0.435-0.308-1.058-0.463-1.872-0.463h-3.138v3.823H129.311z
		"/>
	<path style="fill:#706F6F;" d="M140.216,89.462v-1.247h-0.027c-0.224,0.465-0.548,0.82-0.973,1.066s-0.896,0.368-1.415,0.368
		c-0.439,0-0.811-0.06-1.121-0.181c-0.308-0.12-0.559-0.292-0.75-0.516c-0.192-0.222-0.333-0.496-0.423-0.818
		c-0.089-0.322-0.133-0.688-0.133-1.1v-4.493h0.844v4.507c0.018,0.626,0.163,1.1,0.437,1.422c0.272,0.322,0.744,0.482,1.415,0.482
		c0.366,0,0.679-0.078,0.939-0.234c0.26-0.156,0.474-0.364,0.644-0.624c0.17-0.26,0.295-0.557,0.376-0.892s0.121-0.677,0.121-1.026
		v-3.635h0.844v6.921H140.216z"/>
	<path style="fill:#706F6F;" d="M147.914,83.89c-0.098-0.192-0.23-0.351-0.395-0.476c-0.166-0.125-0.356-0.217-0.57-0.275
		c-0.214-0.058-0.443-0.087-0.684-0.087c-0.188,0-0.378,0.02-0.57,0.06c-0.192,0.04-0.368,0.108-0.53,0.201
		c-0.16,0.094-0.291,0.217-0.389,0.369s-0.147,0.339-0.147,0.563c0,0.188,0.047,0.347,0.141,0.476
		c0.093,0.13,0.212,0.24,0.355,0.329s0.3,0.164,0.47,0.221c0.17,0.058,0.326,0.105,0.469,0.141l1.127,0.255
		c0.242,0.036,0.481,0.1,0.718,0.195c0.237,0.094,0.447,0.217,0.63,0.368c0.183,0.152,0.333,0.34,0.449,0.564
		c0.116,0.224,0.175,0.487,0.175,0.791c0,0.376-0.086,0.695-0.256,0.959c-0.17,0.264-0.387,0.479-0.65,0.644
		c-0.264,0.166-0.562,0.285-0.892,0.356c-0.331,0.071-0.657,0.107-0.979,0.107c-0.814,0-1.474-0.191-1.979-0.576
		c-0.505-0.384-0.794-1.002-0.865-1.851h0.844c0.036,0.573,0.244,1.005,0.624,1.295c0.38,0.291,0.852,0.436,1.415,0.436
		c0.206,0,0.418-0.022,0.637-0.066c0.219-0.044,0.422-0.121,0.611-0.229c0.187-0.107,0.341-0.243,0.463-0.409
		s0.181-0.368,0.181-0.611c0-0.205-0.042-0.378-0.127-0.516c-0.085-0.139-0.2-0.255-0.343-0.349
		c-0.143-0.093-0.306-0.172-0.489-0.235c-0.183-0.062-0.368-0.116-0.557-0.16l-1.086-0.241c-0.277-0.071-0.533-0.154-0.765-0.248
		c-0.233-0.094-0.437-0.21-0.611-0.349c-0.175-0.139-0.31-0.308-0.409-0.51c-0.099-0.201-0.148-0.449-0.148-0.744
		c0-0.349,0.079-0.648,0.235-0.898c0.156-0.25,0.36-0.452,0.611-0.604c0.249-0.151,0.53-0.263,0.838-0.335
		c0.308-0.071,0.615-0.107,0.919-0.107c0.349,0,0.673,0.045,0.972,0.133c0.3,0.09,0.564,0.229,0.792,0.416
		c0.228,0.187,0.409,0.42,0.543,0.697c0.133,0.277,0.21,0.603,0.228,0.979h-0.844C148.066,84.308,148.012,84.082,147.914,83.89z"/>
	<path style="fill:#706F6F;" d="M152.581,79.886v1.355h-0.844v-1.355H152.581z M152.581,82.541v6.921h-0.844v-6.921H152.581z"/>
	<path style="fill:#706F6F;" d="M156.377,82.541v1.194h0.027c0.161-0.42,0.447-0.759,0.859-1.013
		c0.411-0.255,0.862-0.382,1.355-0.382c0.482,0,0.887,0.062,1.214,0.187c0.326,0.125,0.588,0.302,0.784,0.53
		c0.197,0.228,0.335,0.508,0.416,0.838c0.081,0.331,0.12,0.703,0.12,1.113v4.453h-0.844v-4.318c0-0.296-0.027-0.57-0.081-0.826
		c-0.054-0.255-0.147-0.476-0.281-0.663c-0.135-0.188-0.316-0.335-0.543-0.443c-0.228-0.108-0.512-0.16-0.852-0.16
		c-0.34,0-0.642,0.06-0.905,0.181c-0.264,0.12-0.487,0.286-0.671,0.496c-0.183,0.21-0.326,0.461-0.429,0.751
		c-0.102,0.291-0.158,0.605-0.168,0.946v4.037h-0.844v-6.921H156.377z"/>
	<path style="fill:#706F6F;" d="M164.712,87.175c0.085,0.327,0.221,0.62,0.41,0.879c0.187,0.26,0.424,0.474,0.711,0.644
		c0.286,0.17,0.63,0.255,1.033,0.255c0.617,0,1.099-0.16,1.448-0.482c0.349-0.322,0.591-0.751,0.724-1.287h0.845
		c-0.179,0.786-0.508,1.395-0.986,1.823c-0.478,0.429-1.156,0.644-2.031,0.644c-0.546,0-1.017-0.095-1.416-0.288
		c-0.397-0.192-0.722-0.456-0.972-0.792c-0.25-0.335-0.437-0.724-0.557-1.167c-0.121-0.442-0.181-0.91-0.181-1.401
		c0-0.456,0.06-0.903,0.181-1.341c0.12-0.438,0.306-0.829,0.557-1.174c0.249-0.345,0.574-0.622,0.972-0.832
		c0.398-0.21,0.869-0.315,1.416-0.315c0.554,0,1.028,0.112,1.422,0.335c0.393,0.224,0.712,0.516,0.958,0.879
		c0.246,0.362,0.423,0.777,0.53,1.247c0.108,0.47,0.152,0.946,0.135,1.428h-5.325C164.585,86.534,164.628,86.849,164.712,87.175z
		 M168.897,84.594c-0.102-0.295-0.248-0.557-0.436-0.784c-0.187-0.228-0.416-0.411-0.684-0.551
		c-0.268-0.138-0.572-0.207-0.912-0.207c-0.349,0-0.657,0.069-0.926,0.207c-0.268,0.14-0.496,0.323-0.684,0.551
		c-0.187,0.228-0.337,0.492-0.449,0.792c-0.112,0.299-0.185,0.605-0.221,0.918h4.48C169.057,85.197,169,84.888,168.897,84.594z"/>
	<path style="fill:#706F6F;" d="M176.375,83.89c-0.098-0.192-0.23-0.351-0.395-0.476c-0.166-0.125-0.356-0.217-0.57-0.275
		c-0.214-0.058-0.443-0.087-0.684-0.087c-0.188,0-0.378,0.02-0.57,0.06c-0.192,0.04-0.368,0.108-0.53,0.201
		c-0.16,0.094-0.291,0.217-0.389,0.369s-0.147,0.339-0.147,0.563c0,0.188,0.047,0.347,0.141,0.476
		c0.093,0.13,0.212,0.24,0.355,0.329s0.3,0.164,0.47,0.221c0.17,0.058,0.326,0.105,0.469,0.141l1.127,0.255
		c0.242,0.036,0.481,0.1,0.718,0.195c0.237,0.094,0.447,0.217,0.63,0.368c0.183,0.152,0.333,0.34,0.449,0.564
		s0.175,0.487,0.175,0.791c0,0.376-0.086,0.695-0.256,0.959s-0.387,0.479-0.65,0.644c-0.264,0.166-0.562,0.285-0.892,0.356
		c-0.331,0.071-0.657,0.107-0.979,0.107c-0.814,0-1.474-0.191-1.979-0.576c-0.505-0.384-0.794-1.002-0.865-1.851h0.844
		c0.036,0.573,0.244,1.005,0.624,1.295c0.38,0.291,0.852,0.436,1.415,0.436c0.206,0,0.418-0.022,0.637-0.066
		c0.219-0.044,0.422-0.121,0.611-0.229c0.187-0.107,0.342-0.243,0.463-0.409c0.121-0.166,0.181-0.368,0.181-0.611
		c0-0.205-0.042-0.378-0.127-0.516c-0.085-0.139-0.2-0.255-0.343-0.349c-0.143-0.093-0.306-0.172-0.489-0.235
		c-0.183-0.062-0.368-0.116-0.557-0.16l-1.086-0.241c-0.277-0.071-0.533-0.154-0.765-0.248c-0.233-0.094-0.437-0.21-0.611-0.349
		c-0.175-0.139-0.31-0.308-0.409-0.51c-0.099-0.201-0.148-0.449-0.148-0.744c0-0.349,0.079-0.648,0.235-0.898
		c0.156-0.25,0.36-0.452,0.611-0.604c0.249-0.151,0.53-0.263,0.838-0.335c0.308-0.071,0.615-0.107,0.919-0.107
		c0.349,0,0.673,0.045,0.972,0.133c0.3,0.09,0.564,0.229,0.792,0.416c0.228,0.187,0.409,0.42,0.543,0.697
		c0.133,0.277,0.21,0.603,0.228,0.979h-0.844C176.527,84.308,176.473,84.082,176.375,83.89z"/>
	<path style="fill:#706F6F;" d="M184.167,83.89c-0.098-0.192-0.23-0.351-0.395-0.476c-0.166-0.125-0.356-0.217-0.57-0.275
		c-0.214-0.058-0.443-0.087-0.684-0.087c-0.188,0-0.378,0.02-0.57,0.06c-0.192,0.04-0.368,0.108-0.53,0.201
		c-0.16,0.094-0.291,0.217-0.389,0.369c-0.098,0.152-0.147,0.339-0.147,0.563c0,0.188,0.047,0.347,0.141,0.476
		c0.093,0.13,0.212,0.24,0.355,0.329s0.3,0.164,0.47,0.221c0.17,0.058,0.326,0.105,0.469,0.141l1.127,0.255
		c0.242,0.036,0.481,0.1,0.718,0.195c0.237,0.094,0.447,0.217,0.63,0.368c0.183,0.152,0.333,0.34,0.449,0.564
		s0.175,0.487,0.175,0.791c0,0.376-0.086,0.695-0.256,0.959c-0.17,0.264-0.387,0.479-0.65,0.644
		c-0.264,0.166-0.562,0.285-0.892,0.356c-0.331,0.071-0.657,0.107-0.979,0.107c-0.814,0-1.474-0.191-1.979-0.576
		c-0.505-0.384-0.794-1.002-0.865-1.851h0.844c0.036,0.573,0.244,1.005,0.624,1.295c0.38,0.291,0.852,0.436,1.415,0.436
		c0.206,0,0.418-0.022,0.637-0.066c0.219-0.044,0.422-0.121,0.611-0.229c0.187-0.107,0.341-0.243,0.463-0.409
		s0.181-0.368,0.181-0.611c0-0.205-0.042-0.378-0.127-0.516c-0.085-0.139-0.2-0.255-0.343-0.349
		c-0.143-0.093-0.306-0.172-0.489-0.235c-0.183-0.062-0.368-0.116-0.557-0.16l-1.086-0.241c-0.277-0.071-0.533-0.154-0.765-0.248
		c-0.233-0.094-0.437-0.21-0.611-0.349c-0.175-0.139-0.31-0.308-0.409-0.51c-0.099-0.201-0.148-0.449-0.148-0.744
		c0-0.349,0.079-0.648,0.235-0.898c0.156-0.25,0.36-0.452,0.611-0.604c0.249-0.151,0.53-0.263,0.838-0.335
		c0.308-0.071,0.615-0.107,0.919-0.107c0.349,0,0.673,0.045,0.972,0.133c0.3,0.09,0.564,0.229,0.792,0.416
		c0.228,0.187,0.409,0.42,0.543,0.697c0.133,0.277,0.21,0.603,0.228,0.979h-0.844C184.32,84.308,184.266,84.082,184.167,83.89z"/>
	<path style="fill:#706F6F;" d="M200.732,89.462l-0.12-1.744h-0.027c-0.161,0.34-0.36,0.632-0.597,0.879
		c-0.237,0.246-0.499,0.447-0.784,0.603c-0.287,0.157-0.593,0.271-0.919,0.343c-0.327,0.071-0.664,0.107-1.013,0.107
		c-0.75,0-1.41-0.136-1.978-0.409c-0.568-0.272-1.04-0.637-1.416-1.093c-0.376-0.456-0.657-0.984-0.844-1.583
		c-0.188-0.598-0.281-1.229-0.281-1.891s0.093-1.293,0.281-1.892c0.187-0.598,0.469-1.128,0.844-1.59
		c0.376-0.459,0.848-0.827,1.416-1.099c0.567-0.273,1.227-0.41,1.978-0.41c0.501,0,0.975,0.067,1.422,0.202
		c0.447,0.133,0.845,0.335,1.194,0.603c0.349,0.268,0.644,0.599,0.885,0.992c0.242,0.393,0.407,0.854,0.497,1.382h-0.912
		c-0.027-0.277-0.119-0.557-0.275-0.838c-0.156-0.281-0.367-0.538-0.63-0.771c-0.264-0.233-0.58-0.423-0.946-0.57
		c-0.367-0.148-0.778-0.221-1.235-0.221c-0.634,0-1.18,0.121-1.636,0.362c-0.456,0.241-0.829,0.561-1.12,0.959
		c-0.291,0.397-0.505,0.848-0.644,1.347c-0.139,0.501-0.208,1.015-0.208,1.543c0,0.518,0.069,1.031,0.208,1.536
		s0.353,0.957,0.644,1.355c0.291,0.398,0.663,0.717,1.12,0.959c0.456,0.241,1.002,0.362,1.636,0.362c0.528,0,1-0.088,1.416-0.262
		c0.416-0.175,0.767-0.418,1.052-0.731c0.287-0.314,0.501-0.684,0.644-1.113c0.144-0.429,0.21-0.899,0.202-1.408h-3.26v-0.778h4.065
		v4.869H200.732z"/>
	<path style="fill:#706F6F;" d="M205.104,82.541v1.623h0.027c0.215-0.563,0.548-0.997,1-1.301c0.451-0.304,0.99-0.443,1.616-0.416
		v0.845c-0.385-0.018-0.734,0.033-1.046,0.154c-0.314,0.121-0.584,0.293-0.811,0.516c-0.229,0.224-0.405,0.489-0.53,0.798
		s-0.188,0.646-0.188,1.013v3.688h-0.844v-6.921H205.104z"/>
	<path style="fill:#706F6F;" d="M213.978,82.636c0.407,0.197,0.748,0.461,1.026,0.791c0.277,0.331,0.487,0.718,0.63,1.161
		c0.143,0.442,0.215,0.914,0.215,1.415s-0.072,0.973-0.215,1.415c-0.143,0.443-0.353,0.83-0.63,1.161
		c-0.277,0.33-0.619,0.592-1.026,0.784c-0.408,0.192-0.874,0.288-1.402,0.288c-0.528,0-0.994-0.095-1.401-0.288
		c-0.408-0.192-0.749-0.454-1.027-0.784c-0.277-0.331-0.487-0.718-0.63-1.161c-0.143-0.442-0.214-0.914-0.214-1.415
		s0.071-0.973,0.214-1.415c0.143-0.443,0.353-0.83,0.63-1.161c0.277-0.33,0.619-0.594,1.027-0.791
		c0.407-0.197,0.873-0.295,1.401-0.295C213.104,82.341,213.57,82.439,213.978,82.636z M211.516,83.306
		c-0.304,0.17-0.557,0.393-0.757,0.671s-0.353,0.592-0.456,0.946c-0.102,0.353-0.154,0.713-0.154,1.079s0.052,0.726,0.154,1.079
		c0.103,0.354,0.256,0.669,0.456,0.946c0.201,0.277,0.453,0.501,0.757,0.671c0.304,0.17,0.657,0.255,1.06,0.255
		c0.403,0,0.755-0.085,1.06-0.255s0.557-0.393,0.758-0.671c0.202-0.277,0.354-0.592,0.456-0.946
		c0.102-0.353,0.154-0.713,0.154-1.079s-0.052-0.726-0.154-1.079c-0.102-0.354-0.255-0.669-0.456-0.946
		c-0.201-0.277-0.453-0.501-0.758-0.671s-0.657-0.255-1.06-0.255C212.173,83.052,211.82,83.136,211.516,83.306z"/>
	<path style="fill:#706F6F;" d="M223.279,89.462v-1.247h-0.027c-0.224,0.465-0.548,0.82-0.973,1.066s-0.896,0.368-1.415,0.368
		c-0.439,0-0.811-0.06-1.121-0.181c-0.308-0.12-0.559-0.292-0.75-0.516c-0.192-0.222-0.333-0.496-0.423-0.818
		c-0.089-0.322-0.133-0.688-0.133-1.1v-4.493h0.844v4.507c0.018,0.626,0.163,1.1,0.437,1.422c0.272,0.322,0.744,0.482,1.415,0.482
		c0.366,0,0.679-0.078,0.939-0.234c0.26-0.156,0.474-0.364,0.644-0.624s0.295-0.557,0.376-0.892
		c0.081-0.335,0.121-0.677,0.121-1.026v-3.635h0.844v6.921H223.279z"/>
	<path style="fill:#706F6F;" d="M227.772,82.541v1.314h0.027c0.197-0.482,0.516-0.856,0.959-1.12s0.946-0.395,1.509-0.395
		c0.528,0,0.986,0.098,1.375,0.295s0.713,0.463,0.972,0.798c0.26,0.335,0.452,0.724,0.577,1.167c0.125,0.442,0.187,0.91,0.187,1.401
		c0,0.492-0.062,0.959-0.187,1.401c-0.125,0.443-0.318,0.832-0.577,1.167c-0.259,0.335-0.583,0.599-0.972,0.792
		s-0.848,0.288-1.375,0.288c-0.25,0-0.501-0.031-0.751-0.093c-0.25-0.063-0.482-0.156-0.697-0.281
		c-0.214-0.125-0.405-0.283-0.569-0.47c-0.166-0.188-0.294-0.407-0.383-0.657h-0.027v3.863h-0.844v-9.47H227.772z M232.407,84.936
		c-0.086-0.354-0.219-0.669-0.403-0.946c-0.184-0.277-0.418-0.503-0.705-0.678c-0.286-0.174-0.63-0.261-1.033-0.261
		c-0.465,0-0.854,0.08-1.166,0.241c-0.314,0.16-0.564,0.376-0.751,0.644c-0.188,0.268-0.32,0.582-0.396,0.939
		c-0.076,0.358-0.114,0.734-0.114,1.127c0,0.358,0.042,0.713,0.127,1.066c0.085,0.354,0.224,0.669,0.416,0.946
		c0.192,0.277,0.443,0.503,0.751,0.678c0.308,0.174,0.686,0.261,1.133,0.261c0.403,0,0.747-0.087,1.033-0.261
		c0.287-0.175,0.521-0.4,0.705-0.678c0.183-0.277,0.317-0.592,0.403-0.946c0.085-0.353,0.127-0.708,0.127-1.066
		C232.534,85.645,232.491,85.289,232.407,84.936z"/>
</g>
<g>
</g>
<g>
</g>
<g>
</g>
<g>
</g>
<g>
</g>
<g>
</g>
</svg>
