<?xml version="1.0" encoding="utf-8"?>
<!-- Generator: Adobe Illustrator 22.0.0, SVG Export Plug-In . SVG Version: 6.00 Build 0)  -->
<svg version="1.1" id="Layer_1" xmlns="http://www.w3.org/2000/svg" xmlns:xlink="http://www.w3.org/1999/xlink" x="0px" y="0px"
	 viewBox="0 0 520 520" style="enable-background:new 0 0 520 520;" xml:space="preserve">
<style type="text/css">
	.st0{fill:#FFFFFF;}
	.st1{clip-path:url(#SVGID_2_);fill:#E5435A;}
	.st2{clip-path:url(#SVGID_2_);fill:#A5AAAC;}
</style>
<g>
	<rect class="st0" width="520" height="520"/>
</g>
<g>
	<g>
		<defs>
			<rect id="SVGID_1_" x="88" y="221.6" width="350" height="51.1"/>
		</defs>
		<clipPath id="SVGID_2_">
			<use xlink:href="#SVGID_1_"  style="overflow:visible;"/>
		</clipPath>
		<path class="st1" d="M224.3,263.5v-32.7c0-2,1-3,3-3h3.2c2,0,3.1,1,3.1,3v32.7c0,2-0.9,3-2.7,3h-3.5
			C225.3,266.5,224.3,265.5,224.3,263.5L224.3,263.5L224.3,263.5L224.3,263.5z M232.1,272.7c5.5,0,8.3-2.9,8.3-8.7v-33.6
			c0-5.8-2.7-8.7-8.2-8.7h-6.5c-5.5,0-8.2,2.9-8.2,8.7V264c0,5.8,2.7,8.7,8.3,8.7H232.1L232.1,272.7L232.1,272.7z M208.8,272.7
			v-51.1H202v51.1H208.8L208.8,272.7L208.8,272.7z M178.8,227.8h4.8c2,0,3.1,1.2,3.1,3.7v32.7c0,1.5-0.9,2.3-2.7,2.3h-5.1V227.8
			L178.8,227.8L178.8,227.8z M185.2,272.7c5.5,0,8.2-2.5,8.2-7.4v-33.9c0-6.5-3.2-9.8-9.6-9.8h-11.9v51.1H185.2L185.2,272.7
			L185.2,272.7z M156.1,221.6v41.5c0,2.2-0.9,3.3-2.8,3.3h-2.8c-2,0-3-1.1-3-3.3v-41.5h-6.8v41.3c0,6.5,2.7,9.7,8.2,9.7h5.8
			c5.5,0,8.3-3.2,8.3-9.7v-41.4H156.1L156.1,221.6L156.1,221.6z M134.3,227.8v-6.2h-19.9v6.2h6.5v44.9h6.8v-44.9H134.3L134.3,227.8
			L134.3,227.8z M108.6,235.3v-5c0-5.8-2.7-8.7-8.2-8.7h-4.3c-5.5,0-8.2,2.9-8.2,8.7v10.5c0,1.3,0.1,2.4,0.4,3.2
			c0.3,0.8,0.7,1.5,1.4,2c0.6,0.5,1.7,1.2,3.1,1.9l6.5,3.6c0.9,0.5,1.5,0.9,1.8,1.3c0.4,0.3,0.6,1,0.6,1.9v8.7c0,2-0.9,3-2.7,3h-1.2
			c-2,0-3.1-1-3.1-3v-2.8H88v2.6c0,6.3,2.7,9.4,8.2,9.4h4.2c5.5,0,8.3-2.9,8.3-8.6v-10.9c0-1.8-0.2-3-0.5-3.7
			c-0.3-0.6-0.8-1.2-1.4-1.6c-0.6-0.4-1.6-1.1-3-1.9l-6.5-3.5c-0.9-0.5-1.5-0.9-1.8-1.3c-0.4-0.3-0.6-1-0.6-1.9v-8.5
			c0-2,1-3.1,2.9-3.1h1.1c2,0,3,1,3,3.1v4.5H108.6L108.6,235.3L108.6,235.3z"/>
		<polygon class="st2" points="317.1,246.3 309.8,221.6 303,221.6 303,272.7 309.8,272.7 309.8,239.2 317.1,262.5 317.1,272.7 
			324,272.7 324,221.6 317.1,221.6 317.1,246.3 		"/>
		<polygon class="st2" points="287.2,272.7 294,272.7 294,221.6 287.2,221.6 287.2,272.7 		"/>
		<polygon class="st2" points="263.1,272.7 269.9,272.7 269.9,249.5 278.9,249.5 278.9,243.3 269.9,243.3 269.9,227.8 280,227.8 
			280,221.6 263.1,221.6 263.1,272.7 		"/>
		<path class="st2" d="M404.8,221.6h-4.4c-5.5,0-8.2,2.9-8.2,8.7V264c0,5.8,2.7,8.7,8.2,8.7h4.4c5.5,0,8.2-2.9,8.2-8.7v-3.3h-6.8
			v2.8c0,2-0.9,3-2.7,3h-1.7c-1.8,0-2.7-1-2.7-3v-32.7c0-2,0.9-3,2.7-3h1.3c2,0,3.1,1,3.1,3v5.3h6.8v-5.8
			C413,224.5,410.3,221.6,404.8,221.6L404.8,221.6z"/>
		<path class="st2" d="M347.2,247.8h-7.8v-17c0-2,1-3,3-3h1.8c2,0,3,1,3,3V247.8L347.2,247.8z M345.9,221.6h-5.1
			c-5.5,0-8.2,2.9-8.2,8.7v42.3h6.8v-18.7h7.8v18.7h6.8v-42.3C354.1,224.5,351.3,221.6,345.9,221.6L345.9,221.6z"/>
		<polygon class="st2" points="376.8,246.3 369.5,221.6 362.7,221.6 362.7,272.7 369.5,272.7 369.5,239.2 376.8,262.5 376.8,272.7 
			383.6,272.7 383.6,221.6 376.8,221.6 376.8,246.3 		"/>
		<polygon class="st2" points="438,227.8 438,221.6 421.1,221.6 421.1,272.7 438,272.7 438,266.5 427.9,266.5 427.9,249.5 
			436.9,249.5 436.9,243.3 427.9,243.3 427.9,227.8 438,227.8 		"/>
	</g>
</g>
</svg>
