<?xml version="1.0" encoding="utf-8"?>
<!-- Generator: Adobe Illustrator 22.0.0, SVG Export Plug-In . SVG Version: 6.00 Build 0)  -->
<svg version="1.1" id="Layer_1" xmlns="http://www.w3.org/2000/svg" xmlns:xlink="http://www.w3.org/1999/xlink" x="0px" y="0px"
	 viewBox="0 0 520 520" style="enable-background:new 0 0 520 520;" xml:space="preserve">
<style type="text/css">
	.st0{fill:#FFFFFF;}
	.st1{fill:#474747;}
	.st2{fill:#EA5B0C;}
</style>
<g>
	<rect class="st0" width="520" height="520"/>
</g>
<g>
	<path class="st1" d="M228,251.9v-21.4c0-2.6-0.5-4.4-1.4-5.4c-0.9-1-2.4-1.4-4.5-1.4c-1.1,0-2.1,0.2-3,0.7
		c-0.9,0.4-1.6,1.1-2.2,1.8c-0.6,0.8-1.1,1.7-1.4,2.7c-0.3,1-0.5,2.1-0.5,3.3v19.8h-9.1v-47.1h9.1v17.1c0.3-0.7,0.8-1.5,1.5-2.1
		c0.7-0.7,1.5-1.3,2.3-1.7c0.9-0.5,1.9-0.8,2.9-1.1c1.1-0.3,2.2-0.4,3.4-0.4c3.6,0,6.4,1,8.7,2.9c2.2,1.9,3.3,4.6,3.3,8.1v24.4H228
		L228,251.9z"/>
	<path class="st1" d="M258.2,245.2c5.6,0,8.3-3.5,8.3-10.5c0-7-2.8-10.5-8.3-10.5c-5.6,0-8.3,3.5-8.3,10.5
		C249.8,241.7,252.6,245.2,258.2,245.2L258.2,245.2z M258.2,252.8c-2.8,0-5.3-0.4-7.5-1.3c-2.2-0.9-4.1-2.1-5.6-3.7
		c-1.5-1.6-2.7-3.5-3.5-5.8c-0.8-2.2-1.2-4.7-1.2-7.4c0-2.7,0.4-5.2,1.2-7.4c0.8-2.2,2-4.2,3.5-5.8c1.5-1.6,3.4-2.8,5.6-3.7
		c2.2-0.9,4.6-1.3,7.4-1.3c2.7,0,5.1,0.4,7.3,1.3c2.1,0.9,4,2.1,5.5,3.6c1.5,1.6,2.7,3.5,3.5,5.7c0.8,2.2,1.2,4.7,1.2,7.5
		c0,2.8-0.4,5.2-1.2,7.5c-0.8,2.2-2,4.1-3.5,5.7c-1.5,1.6-3.4,2.8-5.5,3.7C263.3,252.4,260.8,252.8,258.2,252.8L258.2,252.8z"/>
	<polygon class="st1" points="279,251.9 279,204.8 288.1,204.8 288.1,251.9 279,251.9 	"/>
	<polygon class="st1" points="292,251.9 292,204.8 301.2,204.8 301.2,251.9 292,251.9 	"/>
	<path class="st1" d="M326.1,235c-0.5,0.5-1.1,0.8-2,1.1c-0.9,0.3-2.2,0.6-3.9,0.9c-2.6,0.5-4.4,1.2-5.4,2c-1,0.8-1.5,1.9-1.5,3.4
		c0,2.6,1.5,3.9,4.4,3.9c1.2,0,2.3-0.2,3.3-0.6c1-0.4,1.9-0.9,2.6-1.6c0.7-0.7,1.3-1.5,1.8-2.4c0.4-0.9,0.7-1.9,0.7-2.9L326.1,235
		L326.1,235z M326.7,251.9c-0.3-0.9-0.5-1.9-0.6-3.1c-1.1,1.2-2.5,2.2-4.3,2.9c-1.8,0.7-3.8,1.1-6.2,1.1c-4,0-6.9-0.9-8.7-2.6
		c-1.8-1.8-2.8-4-2.8-6.8c0-2.5,0.4-4.5,1.2-5.9c0.8-1.5,1.9-2.6,3.3-3.5c1.4-0.8,3.1-1.5,5-1.9c1.9-0.4,4.1-0.8,6.3-1.1
		c2.3-0.3,3.8-0.8,4.6-1.3c0.8-0.5,1.2-1.4,1.2-2.6c0-1.1-0.5-2-1.6-2.6c-1.1-0.6-2.5-0.9-4.2-0.9c-2.1,0-3.6,0.5-4.5,1.4
		c-0.9,0.9-1.5,2.2-1.7,3.7h-8.5c0-1.8,0.3-3.4,0.9-4.9c0.5-1.5,1.4-2.8,2.6-3.9c1.2-1.1,2.7-1.9,4.7-2.5c1.9-0.6,4.3-0.9,7-0.9
		c2.7,0,5,0.3,6.9,0.9c1.9,0.6,3.4,1.5,4.6,2.6c1.1,1.1,2,2.6,2.5,4.3c0.5,1.7,0.8,3.6,0.8,5.8v21.8H326.7L326.7,251.9z"/>
	<path class="st1" d="M361.3,251.9V231c0-2.7-0.4-4.5-1.3-5.4c-0.9-0.9-2.4-1.4-4.6-1.4c-4.7,0-7.1,2.6-7.1,7.9v19.8h-9.1v-34.5h8.7
		v5c1.1-2,2.5-3.4,4.3-4.5c1.8-1,4.1-1.5,6.9-1.5c1.6,0,3.2,0.2,4.6,0.7c1.4,0.5,2.6,1.2,3.6,2.2c1,1,1.8,2.2,2.4,3.6
		c0.6,1.4,0.9,3.1,0.9,4.9v23.9H361.3L361.3,251.9z"/>
	<path class="st1" d="M390.8,245.4c2.2,0,4-0.9,5.5-2.7c1.5-1.8,2.2-4.2,2.2-7.2c0-7.5-2.5-11.2-7.6-11.2c-5.2,0-7.9,3.6-7.9,10.7
		c0,3.1,0.7,5.6,2.2,7.5C386.6,244.4,388.5,245.4,390.8,245.4L390.8,245.4z M398.4,251.9l-0.1-4.2c-2.1,3.4-5.3,5.1-9.6,5.1
		c-2.2,0-4.2-0.4-6-1.3c-1.8-0.8-3.4-2.1-4.7-3.6c-1.3-1.6-2.3-3.5-3.1-5.8c-0.7-2.3-1.1-4.9-1.1-7.8c0-2.6,0.3-5,0.9-7.2
		c0.6-2.2,1.6-4.1,2.8-5.6c1.2-1.6,2.7-2.8,4.5-3.7c1.8-0.9,3.8-1.3,6-1.3c4.3,0,7.7,1.8,10.2,5.4v-17.1h9v47.1H398.4L398.4,251.9z"
		/>
	<polygon class="st1" points="208.9,265 213.8,281.6 213.9,281.6 218.6,265 221.3,265 226,281.6 226.1,281.6 231,265 233.5,265 
		227.3,284.4 224.7,284.4 220,268.1 219.9,268.1 215.2,284.4 212.6,284.4 206.3,265 208.9,265 	"/>
	<path class="st1" d="M249.9,270.7c-0.3-0.8-0.7-1.6-1.2-2.2c-0.5-0.6-1.2-1.1-1.9-1.5c-0.8-0.4-1.6-0.6-2.6-0.6
		c-1,0-1.8,0.2-2.6,0.6c-0.8,0.4-1.4,0.9-1.9,1.5c-0.5,0.6-0.9,1.4-1.3,2.2c-0.3,0.8-0.5,1.7-0.6,2.6h12.5
		C250.3,272.4,250.2,271.6,249.9,270.7L249.9,270.7z M238.2,278c0.2,0.9,0.6,1.7,1.1,2.5c0.5,0.7,1.2,1.3,2,1.8
		c0.8,0.5,1.8,0.7,2.9,0.7c1.7,0,3.1-0.4,4.1-1.3c1-0.9,1.6-2.1,2-3.6h2.4c-0.5,2.2-1.4,3.9-2.8,5.1c-1.3,1.2-3.2,1.8-5.7,1.8
		c-1.5,0-2.8-0.3-4-0.8c-1.1-0.5-2-1.3-2.7-2.2c-0.7-0.9-1.2-2-1.6-3.3c-0.3-1.2-0.5-2.5-0.5-3.9c0-1.3,0.2-2.5,0.5-3.8
		c0.3-1.2,0.9-2.3,1.6-3.3c0.7-1,1.6-1.7,2.7-2.3c1.1-0.6,2.4-0.9,4-0.9c1.5,0,2.9,0.3,4,0.9c1.1,0.6,2,1.4,2.7,2.5
		c0.7,1,1.2,2.2,1.5,3.5c0.3,1.3,0.4,2.6,0.4,4h-14.9C237.8,276.2,238,277,238.2,278L238.2,278z"/>
	<path class="st1" d="M271.4,271.7c-0.2-1-0.6-1.9-1.1-2.6c-0.5-0.8-1.2-1.4-2-1.9c-0.8-0.5-1.8-0.7-2.9-0.7c-1.3,0-2.3,0.2-3.2,0.7
		c-0.9,0.5-1.6,1.1-2.1,1.9c-0.5,0.8-0.9,1.7-1.2,2.6c-0.2,1-0.4,2-0.4,3c0,1,0.1,2,0.4,3c0.2,1,0.6,1.9,1.2,2.6
		c0.5,0.8,1.2,1.4,2.1,1.9c0.9,0.5,1.9,0.7,3.2,0.7c1.1,0,2.1-0.2,2.9-0.7c0.8-0.5,1.5-1.1,2-1.9c0.5-0.8,0.9-1.7,1.1-2.6
		c0.2-1,0.4-2,0.4-3C271.8,273.7,271.7,272.7,271.4,271.7L271.4,271.7z M258.7,257.6v11.1h0.1c0.2-0.7,0.6-1.3,1.1-1.8
		c0.5-0.5,1-1,1.6-1.3c0.6-0.4,1.2-0.6,1.9-0.8c0.7-0.2,1.4-0.3,2.1-0.3c1.5,0,2.8,0.3,3.8,0.8c1.1,0.5,2,1.3,2.7,2.2
		c0.7,0.9,1.3,2,1.6,3.3c0.3,1.2,0.5,2.5,0.5,3.9c0,1.4-0.2,2.7-0.5,3.9c-0.4,1.2-0.9,2.3-1.6,3.3c-0.7,0.9-1.6,1.7-2.7,2.2
		c-1.1,0.5-2.4,0.8-3.8,0.8c-1.6,0-3-0.4-4.2-1.1c-1.2-0.7-2.1-1.8-2.7-3.1h-0.1v3.7h-2.2v-26.8H258.7L258.7,257.6z"/>
	<path class="st1" d="M289.3,268.8c-0.3-0.5-0.6-1-1.1-1.3c-0.5-0.3-1-0.6-1.6-0.8c-0.6-0.2-1.2-0.2-1.9-0.2c-0.5,0-1.1,0.1-1.6,0.2
		c-0.5,0.1-1,0.3-1.5,0.6c-0.4,0.3-0.8,0.6-1.1,1c-0.3,0.4-0.4,1-0.4,1.6c0,0.5,0.1,1,0.4,1.3c0.3,0.4,0.6,0.7,1,0.9
		c0.4,0.3,0.8,0.5,1.3,0.6c0.5,0.2,0.9,0.3,1.3,0.4l3.1,0.7c0.7,0.1,1.3,0.3,2,0.5c0.7,0.3,1.3,0.6,1.8,1c0.5,0.4,0.9,1,1.3,1.6
		c0.3,0.6,0.5,1.4,0.5,2.2c0,1.1-0.2,1.9-0.7,2.7c-0.5,0.7-1.1,1.3-1.8,1.8c-0.7,0.5-1.6,0.8-2.5,1c-0.9,0.2-1.8,0.3-2.7,0.3
		c-2.3,0-4.1-0.5-5.5-1.6c-1.4-1.1-2.2-2.8-2.4-5.2h2.4c0.1,1.6,0.7,2.8,1.7,3.6c1.1,0.8,2.4,1.2,4,1.2c0.6,0,1.2-0.1,1.8-0.2
		c0.6-0.1,1.2-0.3,1.7-0.6c0.5-0.3,1-0.7,1.3-1.1c0.3-0.5,0.5-1,0.5-1.7c0-0.6-0.1-1.1-0.4-1.4c-0.2-0.4-0.6-0.7-1-1
		c-0.4-0.3-0.9-0.5-1.4-0.7c-0.5-0.2-1-0.3-1.6-0.4l-3-0.7c-0.8-0.2-1.5-0.4-2.1-0.7c-0.7-0.3-1.2-0.6-1.7-1
		c-0.5-0.4-0.9-0.9-1.1-1.4c-0.3-0.6-0.4-1.3-0.4-2.1c0-1,0.2-1.8,0.7-2.5c0.4-0.7,1-1.3,1.7-1.7c0.7-0.4,1.5-0.7,2.3-0.9
		c0.9-0.2,1.7-0.3,2.6-0.3c1,0,1.9,0.1,2.7,0.4c0.8,0.3,1.6,0.6,2.2,1.2c0.6,0.5,1.1,1.2,1.5,2c0.4,0.8,0.6,1.7,0.6,2.7h-2.4
		C289.8,269.9,289.6,269.3,289.3,268.8L289.3,268.8z"/>
	<path class="st1" d="M310.1,270.7c-0.3-0.8-0.7-1.6-1.2-2.2c-0.5-0.6-1.2-1.1-1.9-1.5c-0.8-0.4-1.6-0.6-2.6-0.6
		c-1,0-1.8,0.2-2.6,0.6c-0.8,0.4-1.4,0.9-1.9,1.5c-0.5,0.6-0.9,1.4-1.3,2.2c-0.3,0.8-0.5,1.7-0.6,2.6h12.5
		C310.5,272.4,310.3,271.6,310.1,270.7L310.1,270.7z M298.4,278c0.2,0.9,0.6,1.7,1.1,2.5c0.5,0.7,1.2,1.3,2,1.8
		c0.8,0.5,1.8,0.7,2.9,0.7c1.7,0,3.1-0.4,4.1-1.3c1-0.9,1.6-2.1,2-3.6h2.4c-0.5,2.2-1.4,3.9-2.8,5.1c-1.3,1.2-3.2,1.8-5.7,1.8
		c-1.5,0-2.8-0.3-4-0.8c-1.1-0.5-2-1.3-2.7-2.2c-0.7-0.9-1.2-2-1.6-3.3c-0.3-1.2-0.5-2.5-0.5-3.9c0-1.3,0.2-2.5,0.5-3.8
		c0.3-1.2,0.9-2.3,1.6-3.3c0.7-1,1.6-1.7,2.7-2.3c1.1-0.6,2.4-0.9,4-0.9c1.5,0,2.9,0.3,4,0.9c1.1,0.6,2,1.4,2.7,2.5
		c0.7,1,1.2,2.2,1.5,3.5c0.3,1.3,0.4,2.6,0.4,4H298C298,276.2,298.1,277,298.4,278L298.4,278z"/>
	<path class="st1" d="M318.6,265v4.5h0.1c0.6-1.6,1.5-2.8,2.8-3.6c1.3-0.8,2.8-1.2,4.5-1.2v2.4c-1.1,0-2.1,0.1-2.9,0.4
		c-0.9,0.3-1.6,0.8-2.3,1.4c-0.6,0.6-1.1,1.4-1.5,2.2c-0.3,0.9-0.5,1.8-0.5,2.8v10.3h-2.4V265H318.6L318.6,265z"/>
	<polygon class="st1" points="329.1,265 335.2,282 335.2,282 341.2,265 343.7,265 336.4,284.4 333.9,284.4 326.5,265 329.1,265 	"/>
	<path class="st1" d="M348.8,265v19.4h-2.4V265H348.8L348.8,265z M348.8,257.6v3.8h-2.4v-3.8H348.8L348.8,257.6z"/>
	<path class="st1" d="M365.5,267.7c-0.9-0.8-2.1-1.2-3.7-1.2c-1.1,0-2.1,0.2-3,0.7c-0.9,0.5-1.6,1.1-2.1,1.9c-0.6,0.8-1,1.7-1.3,2.6
		c-0.3,1-0.4,2-0.4,3c0,1,0.1,2,0.4,3c0.3,1,0.7,1.9,1.3,2.6c0.6,0.8,1.3,1.4,2.1,1.9c0.8,0.5,1.8,0.7,3,0.7c0.7,0,1.4-0.1,2.1-0.4
		c0.6-0.3,1.2-0.7,1.7-1.1c0.5-0.5,0.9-1.1,1.2-1.7c0.3-0.7,0.5-1.4,0.6-2.2h2.4c-0.3,2.3-1.2,4.2-2.6,5.5c-1.4,1.3-3.2,2-5.4,2
		c-1.5,0-2.8-0.3-3.9-0.8c-1.1-0.5-2.1-1.3-2.9-2.2c-0.8-0.9-1.4-2-1.8-3.2c-0.4-1.2-0.6-2.6-0.6-4s0.2-2.7,0.6-4
		c0.4-1.2,1-2.3,1.8-3.2c0.8-0.9,1.7-1.7,2.9-2.2c1.1-0.6,2.4-0.8,3.9-0.8c2.1,0,3.8,0.6,5.3,1.7c1.4,1.1,2.3,2.8,2.6,5h-2.4
		C367,269.6,366.4,268.5,365.5,267.7L365.5,267.7z"/>
	<path class="st1" d="M387,270.7c-0.3-0.8-0.7-1.6-1.2-2.2c-0.5-0.6-1.2-1.1-1.9-1.5c-0.8-0.4-1.6-0.6-2.6-0.6c-1,0-1.8,0.2-2.6,0.6
		c-0.8,0.4-1.4,0.9-1.9,1.5c-0.5,0.6-0.9,1.4-1.3,2.2c-0.3,0.8-0.5,1.7-0.6,2.6h12.5C387.4,272.4,387.3,271.6,387,270.7L387,270.7z
		 M375.3,278c0.2,0.9,0.6,1.7,1.1,2.5c0.5,0.7,1.2,1.3,2,1.8c0.8,0.5,1.8,0.7,2.9,0.7c1.7,0,3.1-0.4,4.1-1.3c1-0.9,1.6-2.1,2-3.6
		h2.4c-0.5,2.2-1.4,3.9-2.8,5.1s-3.2,1.8-5.7,1.8c-1.5,0-2.8-0.3-4-0.8c-1.1-0.5-2-1.3-2.7-2.2c-0.7-0.9-1.2-2-1.6-3.3
		c-0.3-1.2-0.5-2.5-0.5-3.9c0-1.3,0.2-2.5,0.5-3.8c0.3-1.2,0.9-2.3,1.6-3.3c0.7-1,1.6-1.7,2.7-2.3c1.1-0.6,2.4-0.9,4-0.9
		c1.5,0,2.9,0.3,4,0.9c1.1,0.6,2,1.4,2.7,2.5c0.7,1,1.2,2.2,1.5,3.5c0.3,1.3,0.4,2.6,0.4,4h-14.9C374.9,276.2,375,277,375.3,278
		L375.3,278z"/>
	<path class="st1" d="M404.5,268.8c-0.3-0.5-0.6-1-1.1-1.3c-0.5-0.3-1-0.6-1.6-0.8c-0.6-0.2-1.2-0.2-1.9-0.2c-0.5,0-1.1,0.1-1.6,0.2
		c-0.5,0.1-1,0.3-1.5,0.6c-0.5,0.3-0.8,0.6-1.1,1c-0.3,0.4-0.4,1-0.4,1.6c0,0.5,0.1,1,0.4,1.3c0.3,0.4,0.6,0.7,1,0.9
		c0.4,0.3,0.8,0.5,1.3,0.6c0.5,0.2,0.9,0.3,1.3,0.4l3.1,0.7c0.7,0.1,1.3,0.3,2,0.5c0.7,0.3,1.3,0.6,1.8,1c0.5,0.4,0.9,1,1.3,1.6
		c0.3,0.6,0.5,1.4,0.5,2.2c0,1.1-0.2,1.9-0.7,2.7c-0.5,0.7-1.1,1.3-1.8,1.8c-0.7,0.5-1.6,0.8-2.5,1c-0.9,0.2-1.8,0.3-2.7,0.3
		c-2.3,0-4.1-0.5-5.5-1.6c-1.4-1.1-2.2-2.8-2.4-5.2h2.4c0.1,1.6,0.7,2.8,1.7,3.6c1.1,0.8,2.4,1.2,4,1.2c0.6,0,1.2-0.1,1.8-0.2
		c0.6-0.1,1.2-0.3,1.7-0.6c0.5-0.3,1-0.7,1.3-1.1c0.3-0.5,0.5-1,0.5-1.7c0-0.6-0.1-1.1-0.4-1.4c-0.2-0.4-0.6-0.7-1-1
		c-0.4-0.3-0.9-0.5-1.4-0.7c-0.5-0.2-1-0.3-1.6-0.4l-3-0.7c-0.8-0.2-1.5-0.4-2.1-0.7c-0.7-0.3-1.2-0.6-1.7-1
		c-0.5-0.4-0.9-0.9-1.1-1.4c-0.3-0.6-0.4-1.3-0.4-2.1c0-1,0.2-1.8,0.7-2.5c0.4-0.7,1-1.3,1.7-1.7c0.7-0.4,1.5-0.7,2.3-0.9
		c0.9-0.2,1.7-0.3,2.6-0.3c1,0,1.9,0.1,2.7,0.4c0.8,0.3,1.6,0.6,2.2,1.2c0.6,0.5,1.1,1.2,1.5,2c0.4,0.8,0.6,1.7,0.6,2.7H405
		C404.9,269.9,404.8,269.3,404.5,268.8L404.5,268.8z"/>
	<path class="st2" d="M185.3,246.3c-3,0-5.5-2.4-5.5-5.5c0-3,2.4-5.5,5.5-5.5c3,0,5.5,2.4,5.5,5.5
		C190.7,243.8,188.3,246.3,185.3,246.3L185.3,246.3z M174.1,262.5c1.4,0,2.8,0.5,3.9,1.6c2.1,2.1,2.1,5.6,0,7.7
		c-2.1,2.1-5.6,2.1-7.7,0c-2.1-2.1-2.1-5.6,0-7.7C171.3,263.1,172.7,262.5,174.1,262.5L174.1,262.5z M152.3,279.3
		c0,3-2.4,5.5-5.5,5.5c-3,0-5.5-2.4-5.5-5.5c0-3,2.4-5.5,5.5-5.5C149.8,273.8,152.3,276.2,152.3,279.3L152.3,279.3z M123.6,271.9
		c-2.1,2.1-5.6,2.1-7.7,0c-2.1-2.1-2.1-5.6,0-7.7c1.1-1.1,2.5-1.6,3.9-1.6c1.4,0,2.8,0.5,3.9,1.6
		C125.7,266.3,125.7,269.7,123.6,271.9L123.6,271.9z M115.9,217.5c-2.1-2.1-2.1-5.6,0-7.7c1.1-1.1,2.5-1.6,3.9-1.6
		c1.4,0,2.8,0.5,3.9,1.6c2.1,2.1,2.1,5.6,0,7.7C121.5,219.6,118,219.6,115.9,217.5L115.9,217.5z M141.4,202.4c0-3,2.4-5.5,5.5-5.5
		c3,0,5.5,2.4,5.5,5.5c0,3-2.4,5.5-5.5,5.5C143.8,207.8,141.4,205.4,141.4,202.4L141.4,202.4z M170.2,209.8c1.1-1.1,2.5-1.6,3.9-1.6
		c1.4,0,2.8,0.5,3.9,1.6c2.1,2.1,2.1,5.6,0,7.7c-2.1,2.1-5.6,2.1-7.7,0C168.1,215.4,168.1,211.9,170.2,209.8L170.2,209.8z
		 M152.3,240.8c0,3-2.4,5.5-5.5,5.5c-3,0-5.5-2.4-5.5-5.5c0-3,2.4-5.5,5.5-5.5C149.8,235.4,152.3,237.8,152.3,240.8L152.3,240.8z
		 M108.4,246.3c-3,0-5.5-2.4-5.5-5.5c0-3,2.4-5.5,5.5-5.5c3,0,5.5,2.4,5.5,5.5C113.8,243.8,111.4,246.3,108.4,246.3L108.4,246.3z
		 M185.3,232.4c-4.2,0-7.7,3.1-8.3,7.1h-21.9c-0.2-1.3-0.7-2.6-1.5-3.7l15.5-15.5c1.5,1.1,3.2,1.6,5,1.6c2.1,0,4.3-0.8,5.9-2.5
		c3.3-3.3,3.3-8.6,0-11.9c-3.3-3.3-8.6-3.3-11.9,0c-3,3-3.2,7.6-0.8,10.9l-15.5,15.5c-1.1-0.8-2.4-1.4-3.8-1.6v-21.9
		c4-0.6,7.1-4.1,7.1-8.3c0-4.6-3.8-8.4-8.4-8.4s-8.4,3.8-8.4,8.4c0,4.2,3.1,7.7,7.1,8.3v21.9c-1.3,0.2-2.6,0.7-3.7,1.5l-15.4-15.4
		c2.4-3.3,2.2-7.9-0.8-10.9c-3.3-3.3-8.6-3.3-11.9,0c-3.3,3.3-3.3,8.6,0,11.9c1.6,1.6,3.8,2.5,5.9,2.5c1.7,0,3.5-0.6,5-1.6
		l15.4,15.4c-0.8,1.1-1.4,2.4-1.6,3.8h-21.9c-0.6-4-4.1-7.1-8.3-7.1c-4.6,0-8.4,3.8-8.4,8.4c0,4.6,3.8,8.4,8.4,8.4
		c4.2,0,7.7-3.1,8.3-7.1h21.9c0.2,1.4,0.8,2.7,1.6,3.8l-15.4,15.4c-3.3-2.4-7.9-2.2-10.9,0.8c-3.3,3.3-3.3,8.6,0,11.9
		c1.6,1.6,3.8,2.5,5.9,2.5c2.1,0,4.3-0.8,5.9-2.5c3-3,3.2-7.6,0.8-10.9l15.4-15.4c1.1,0.8,2.3,1.3,3.7,1.5V271
		c-4,0.6-7.1,4.1-7.1,8.3c0,4.6,3.8,8.4,8.4,8.4s8.4-3.8,8.4-8.4c0-4.2-3.1-7.7-7.1-8.3v-21.9c1.4-0.2,2.7-0.8,3.8-1.6l15.5,15.5
		c-2.4,3.3-2.1,7.9,0.8,10.9c1.6,1.6,3.8,2.5,5.9,2.5c2.1,0,4.3-0.8,5.9-2.5c3.3-3.3,3.3-8.6,0-11.9c-3-3-7.6-3.2-10.9-0.8
		l-15.5-15.5c0.8-1.1,1.3-2.3,1.5-3.7H177c0.6,4,4.1,7.1,8.3,7.1c4.6,0,8.4-3.8,8.4-8.4C193.6,236.2,189.9,232.4,185.3,232.4
		L185.3,232.4z"/>
</g>
</svg>
