<?xml version="1.0" encoding="utf-8"?>
<!-- Generator: Adobe Illustrator 22.0.0, SVG Export Plug-In . SVG Version: 6.00 Build 0)  -->
<svg version="1.1" id="Layer_1" xmlns="http://www.w3.org/2000/svg" xmlns:xlink="http://www.w3.org/1999/xlink" x="0px" y="0px"
	 viewBox="0 0 520 520" style="enable-background:new 0 0 520 520;" xml:space="preserve">
<style type="text/css">
	.st0{fill:#FFFFFF;}
	.st1{fill:#005584;}
	.st2{fill:#4C4C4C;}
</style>
<g>
	<rect class="st0" width="520" height="520"/>
</g>
<g>
	<g>
		<polygon class="st1" points="90.7,234.2 90.7,234.2 73,216.6 73,216.6 73,216.6 55.4,234.2 55.4,234.2 48.9,240.7 48.9,278.4 
			53.2,278.4 53.2,242.6 73,222.8 92.9,242.6 92.9,274.4 64.5,274.4 83.9,245.6 79.4,245.6 60.1,274.4 60.1,274.4 60.1,278.4 
			92.9,278.4 96.5,278.4 97.2,278.4 97.2,240.7 		"/>
		<path class="st1" d="M69.7,257.5c1.4-1.4,2.1-3,2.1-5s-0.6-3.6-2.1-5c-1.4-1.4-3-2.1-4.9-2.1c-1.8,0-3.6,0.6-4.9,2.1
			c-1.4,1.4-2.1,3-2.1,5s0.6,3.6,2.1,5c1.4,1.4,3,2.1,4.9,2.1C66.7,259.6,68.3,258.9,69.7,257.5z M61.6,252.5c0-0.9,0.3-1.6,1-2.3
			c0.6-0.6,1.4-1,2.2-1c0.9,0,1.5,0.3,2.2,1c0.6,0.6,1,1.4,1,2.3s-0.3,1.6-1,2.3c-0.6,0.6-1.4,1-2.2,1c-0.9,0-1.6-0.3-2.2-1
			C61.9,254.2,61.6,253.4,61.6,252.5z"/>
		<path class="st1" d="M74.9,264.8c0,1.9,0.6,3.6,2.1,5c1.4,1.4,3,2.1,4.9,2.1c1.8,0,3.5-0.6,4.9-2.1c1.4-1.4,2.1-3,2.1-5
			s-0.6-3.6-2.1-5c-1.4-1.4-3-2.1-4.9-2.1c-1.8,0-3.5,0.6-4.9,2.1S74.9,262.8,74.9,264.8z M79.5,262.5c0.6-0.6,1.4-1,2.2-1
			c0.9,0,1.6,0.3,2.2,1c0.6,0.6,1,1.4,1,2.3s-0.3,1.6-1,2.3c-0.6,0.6-1.4,1-2.2,1c-0.9,0-1.5-0.3-2.2-1c-0.6-0.6-1-1.4-1-2.3
			C78.7,263.9,79,263.2,79.5,262.5z"/>
	</g>
</g>
<g>
	<path class="st2" d="M130.1,265.9h-4.7v-12.8h-13.1v12.8h-4.7v-28.5h4.7v11.6h13.1v-11.6h4.7V265.9z"/>
	<path class="st2" d="M132.2,244.4h5l4.4,12.2c0.7,1.7,1.1,3.4,1.3,4.9h0.2c0.1-0.7,0.3-1.6,0.6-2.6s2-5.9,4.9-14.5h4.9l-9.2,24.4
		c-1.7,4.5-4.5,6.7-8.4,6.7c-1,0-2-0.1-3-0.3v-3.6c0.7,0.2,1.5,0.2,2.4,0.2c2.2,0,3.8-1.3,4.7-3.8l0.8-2L132.2,244.4z"/>
	<path class="st2" d="M166.2,266.3c-2.7,0-4.8-1-6.3-2.9h-0.3c0.2,1.8,0.3,2.9,0.3,3.3v8.8h-4.6v-31.1h3.7c0.1,0.4,0.3,1.4,0.6,2.9
		h0.2c1.4-2.2,3.6-3.3,6.4-3.3c2.7,0,4.8,1,6.3,2.9c1.5,1.9,2.2,4.7,2.2,8.2s-0.8,6.3-2.3,8.2S168.9,266.3,166.2,266.3z
		 M165.1,247.7c-1.8,0-3.1,0.5-4,1.6c-0.8,1.1-1.3,2.8-1.3,5.1v0.7c0,2.6,0.4,4.5,1.2,5.7c0.8,1.2,2.2,1.8,4.1,1.8
		c1.6,0,2.8-0.6,3.7-1.9c0.9-1.3,1.3-3.1,1.3-5.5c0-2.4-0.4-4.2-1.3-5.5S166.7,247.7,165.1,247.7z"/>
	<path class="st2" d="M197.6,255.1c0,3.5-0.9,6.3-2.7,8.2c-1.8,2-4.3,3-7.5,3c-2,0-3.8-0.5-5.3-1.4c-1.5-0.9-2.7-2.2-3.6-3.9
		c-0.8-1.7-1.2-3.7-1.2-5.9c0-3.5,0.9-6.2,2.7-8.2c1.8-2,4.3-2.9,7.6-2.9c3.1,0,5.6,1,7.4,3S197.6,251.7,197.6,255.1z M182,255.1
		c0,5,1.8,7.5,5.5,7.5c3.6,0,5.5-2.5,5.5-7.5c0-4.9-1.8-7.4-5.5-7.4c-1.9,0-3.3,0.6-4.2,1.9C182.4,250.9,182,252.7,182,255.1z"/>
	<path class="st2" d="M209.3,262.6c1.1,0,2.2-0.2,3.3-0.5v3.4c-0.5,0.2-1.2,0.4-2,0.6c-0.8,0.1-1.6,0.2-2.5,0.2
		c-4.3,0-6.5-2.3-6.5-6.9v-11.6h-2.9v-2l3.2-1.7l1.6-4.6h2.8v4.8h6.1v3.5h-6.1v11.5c0,1.1,0.3,1.9,0.8,2.4S208.4,262.6,209.3,262.6z
		"/>
	<path class="st2" d="M234.3,265.9h-4.6v-13.2c0-1.7-0.3-2.9-1-3.7c-0.7-0.8-1.7-1.2-3.2-1.2c-1.9,0-3.3,0.6-4.2,1.7
		c-0.9,1.1-1.4,3.1-1.4,5.8v10.7h-4.6v-30.3h4.6v7.7c0,1.2-0.1,2.5-0.2,4h0.3c0.6-1,1.5-1.8,2.6-2.4c1.1-0.6,2.4-0.9,3.9-0.9
		c5.2,0,7.8,2.6,7.8,7.9V265.9z"/>
	<path class="st2" d="M248.5,266.3c-3.3,0-6-1-7.9-2.9s-2.8-4.6-2.8-8.1c0-3.5,0.9-6.3,2.6-8.3s4.2-3,7.2-3c2.8,0,5.1,0.9,6.7,2.6
		c1.6,1.7,2.5,4.1,2.5,7.1v2.5h-14.3c0.1,2.1,0.6,3.7,1.7,4.8s2.6,1.7,4.5,1.7c1.3,0,2.5-0.1,3.6-0.4c1.1-0.2,2.3-0.6,3.5-1.2v3.7
		c-1.1,0.5-2.2,0.9-3.4,1.1C251.3,266.2,249.9,266.3,248.5,266.3z M247.6,247.4c-1.5,0-2.6,0.5-3.5,1.4c-0.9,0.9-1.4,2.3-1.6,4h9.8
		c0-1.8-0.5-3.1-1.3-4S249.1,247.4,247.6,247.4z"/>
	<path class="st2" d="M269.9,266.3c-3.3,0-6-1-7.9-2.9c-1.9-2-2.8-4.6-2.8-8.1c0-3.5,0.9-6.3,2.6-8.3c1.8-2,4.2-3,7.2-3
		c2.8,0,5.1,0.9,6.7,2.6c1.6,1.7,2.5,4.1,2.5,7.1v2.5h-14.3c0.1,2.1,0.6,3.7,1.7,4.8s2.6,1.7,4.5,1.7c1.3,0,2.5-0.1,3.6-0.4
		c1.1-0.2,2.3-0.6,3.5-1.2v3.7c-1.1,0.5-2.2,0.9-3.4,1.1C272.6,266.2,271.3,266.3,269.9,266.3z M269,247.4c-1.5,0-2.6,0.5-3.5,1.4
		c-0.9,0.9-1.4,2.3-1.6,4h9.8c0-1.8-0.5-3.1-1.3-4C271.6,247.9,270.5,247.4,269,247.4z"/>
	<path class="st2" d="M286.2,254.5l2.6-3.2l6.5-6.9h5.3l-8.7,9.2l9.2,12.3h-5.4l-6.9-9.4l-2.5,2.1v7.4h-4.5v-30.3h4.5v14.8l-0.2,4.1
		H286.2z"/>
	<path class="st2" d="M313.9,244c0.9,0,1.7,0.1,2.3,0.2l-0.4,4.3c-0.6-0.2-1.3-0.2-2-0.2c-1.8,0-3.3,0.6-4.4,1.8
		c-1.1,1.2-1.7,2.7-1.7,4.7v11.3H303v-21.5h3.6l0.6,3.8h0.2c0.7-1.3,1.6-2.3,2.8-3.1C311.4,244.3,312.6,244,313.9,244z"/>
	<path class="st2" d="M328,266.3c-3.3,0-6-1-7.9-2.9c-1.9-2-2.8-4.6-2.8-8.1c0-3.5,0.9-6.3,2.6-8.3s4.2-3,7.2-3
		c2.8,0,5.1,0.9,6.7,2.6c1.6,1.7,2.5,4.1,2.5,7.1v2.5H322c0.1,2.1,0.6,3.7,1.7,4.8s2.6,1.7,4.5,1.7c1.3,0,2.5-0.1,3.6-0.4
		c1.1-0.2,2.3-0.6,3.5-1.2v3.7c-1.1,0.5-2.2,0.9-3.4,1.1S329.5,266.3,328,266.3z M327.2,247.4c-1.5,0-2.6,0.5-3.5,1.4
		c-0.9,0.9-1.4,2.3-1.6,4h9.8c0-1.8-0.5-3.1-1.3-4C329.8,247.9,328.6,247.4,327.2,247.4z"/>
	<path class="st2" d="M358.9,265.9h-4.6v-13.2c0-1.7-0.3-2.9-1-3.7c-0.7-0.8-1.7-1.2-3.2-1.2c-1.9,0-3.3,0.6-4.2,1.7
		c-0.9,1.1-1.3,3.1-1.3,5.7v10.7H340v-21.5h3.6l0.6,2.8h0.2c0.6-1,1.6-1.8,2.8-2.4c1.2-0.6,2.5-0.8,4-0.8c5.2,0,7.7,2.6,7.7,7.9
		V265.9z"/>
	<path class="st2" d="M371.7,262.6c1.1,0,2.2-0.2,3.3-0.5v3.4c-0.5,0.2-1.2,0.4-2,0.6c-0.8,0.1-1.6,0.2-2.5,0.2
		c-4.3,0-6.5-2.3-6.5-6.9v-11.6h-2.9v-2l3.2-1.7l1.6-4.6h2.8v4.8h6.1v3.5h-6.1v11.5c0,1.1,0.3,1.9,0.8,2.4
		C370.1,262.3,370.8,262.6,371.7,262.6z"/>
	<path class="st2" d="M387.2,266.3c-3.3,0-6-1-7.9-2.9c-1.9-2-2.8-4.6-2.8-8.1c0-3.5,0.9-6.3,2.6-8.3s4.2-3,7.2-3
		c2.8,0,5.1,0.9,6.7,2.6c1.6,1.7,2.5,4.1,2.5,7.1v2.5h-14.3c0.1,2.1,0.6,3.7,1.7,4.8s2.6,1.7,4.5,1.7c1.3,0,2.5-0.1,3.6-0.4
		c1.1-0.2,2.3-0.6,3.5-1.2v3.7c-1.1,0.5-2.2,0.9-3.4,1.1S388.7,266.3,387.2,266.3z M386.3,247.4c-1.5,0-2.6,0.5-3.5,1.4
		c-0.9,0.9-1.4,2.3-1.6,4h9.8c0-1.8-0.5-3.1-1.3-4C388.9,247.9,387.8,247.4,386.3,247.4z"/>
	<path class="st1" d="M426.1,265.9l-2.8-7.9h-10.9l-2.8,7.9h-4.9l10.6-28.6h5.1l10.6,28.6H426.1z M422,254l-2.7-7.7
		c-0.2-0.5-0.5-1.3-0.8-2.5s-0.6-1.9-0.7-2.5c-0.4,1.6-0.9,3.3-1.5,5.2l-2.6,7.4H422z"/>
	<path class="st1" d="M443.6,266.3c-2.7,0-4.8-1-6.3-2.9H437c0.2,1.8,0.3,2.9,0.3,3.3v8.8h-4.6v-31.1h3.7c0.1,0.4,0.3,1.4,0.6,2.9
		h0.2c1.4-2.2,3.6-3.3,6.4-3.3c2.7,0,4.8,1,6.3,2.9c1.5,1.9,2.2,4.7,2.2,8.2s-0.8,6.3-2.3,8.2C448.4,265.3,446.3,266.3,443.6,266.3z
		 M442.5,247.7c-1.8,0-3.1,0.5-4,1.6c-0.8,1.1-1.3,2.8-1.3,5.1v0.7c0,2.6,0.4,4.5,1.2,5.7c0.8,1.2,2.2,1.8,4.1,1.8
		c1.6,0,2.8-0.6,3.7-1.9c0.9-1.3,1.3-3.1,1.3-5.5c0-2.4-0.4-4.2-1.3-5.5S444.1,247.7,442.5,247.7z"/>
	<path class="st1" d="M466.8,266.3c-2.7,0-4.8-1-6.3-2.9h-0.3c0.2,1.8,0.3,2.9,0.3,3.3v8.8h-4.6v-31.1h3.7c0.1,0.4,0.3,1.4,0.6,2.9
		h0.2c1.4-2.2,3.6-3.3,6.4-3.3c2.7,0,4.8,1,6.3,2.9c1.5,1.9,2.2,4.7,2.2,8.2s-0.8,6.3-2.3,8.2C471.6,265.3,469.5,266.3,466.8,266.3z
		 M465.7,247.7c-1.8,0-3.1,0.5-4,1.6c-0.8,1.1-1.3,2.8-1.3,5.1v0.7c0,2.6,0.4,4.5,1.2,5.7c0.8,1.2,2.2,1.8,4.1,1.8
		c1.6,0,2.8-0.6,3.7-1.9c0.9-1.3,1.3-3.1,1.3-5.5c0-2.4-0.4-4.2-1.3-5.5S467.4,247.7,465.7,247.7z"/>
</g>
</svg>
