<?xml version="1.0" encoding="utf-8"?>
<!-- Generator: Adobe Illustrator 22.0.1, SVG Export Plug-In . SVG Version: 6.00 Build 0)  -->
<svg version="1.1" id="Layer_1" xmlns="http://www.w3.org/2000/svg" xmlns:xlink="http://www.w3.org/1999/xlink" x="0px" y="0px"
	 viewBox="0 0 520 520" style="enable-background:new 0 0 520 520;" xml:space="preserve">
<style type="text/css">
	.st0{fill:#FFFFFF;}
	.st1{fill:#1B7F89;}
	.st2{fill:#A3C9C8;}
	.st3{fill:#707070;}
</style>
<g>
	<rect class="st0" width="520" height="520"/>
</g>
<path class="st1" d="M99.5,271l-9.6-7.4c-0.3-0.2-0.6-0.2-0.9,0l-9.6,7.4c-0.2,0.1-0.3,0.3-0.3,0.5v11c0,0.4,0.3,0.6,0.7,0.6h19.1
	c0.4,0,0.7-0.3,0.7-0.6v-11C99.8,271.3,99.7,271.2,99.5,271z"/>
<g>
	<g>
		<path class="st2" d="M103.4,226.2v14l-13.9,11.2l-13.9-11.2v-14H71v15.1c0,0.7,0.3,1.4,0.9,1.8l16.2,13.1c0.4,0.3,0.9,0.5,1.4,0.5
			s1-0.2,1.4-0.5l16.2-13.1c0.6-0.4,0.9-1.1,0.9-1.8v-15.1H103.4z"/>
	</g>
</g>
<g>
	<g>
		<path class="st2" d="M107.1,266.9l-16.2-13.1c-0.8-0.7-2-0.7-2.9,0l-16.2,13.1c-0.6,0.4-0.9,1.1-0.9,1.8v15.9h4.6v-14.8l13.9-11.2
			l13.9,11.2v14.8h4.6h0v-15.9C108,268,107.7,267.4,107.1,266.9z"/>
	</g>
</g>
<g>
	<path class="st3" d="M140.1,272.8h-19.4v-34.4h19.4v4.7h-13.8v9.4h13v4.7h-13v10.8h13.8V272.8z"/>
	<path class="st3" d="M144.2,239.9c0-1,0.3-1.7,0.8-2.3c0.5-0.5,1.3-0.8,2.3-0.8c1,0,1.7,0.3,2.3,0.8c0.5,0.5,0.8,1.3,0.8,2.3
		c0,0.9-0.3,1.7-0.8,2.2c-0.5,0.5-1.3,0.8-2.3,0.8c-1,0-1.8-0.3-2.3-0.8C144.5,241.6,144.2,240.9,144.2,239.9z M150.1,272.8h-5.5
		v-26h5.5V272.8z"/>
	<path class="st3" d="M178.4,272.8h-5.5v-16c0-2-0.4-3.5-1.2-4.5s-2.1-1.5-3.8-1.5c-2.3,0-4,0.7-5.1,2.1c-1.1,1.4-1.6,3.7-1.6,6.9
		v13h-5.5v-26h4.3l0.8,3.4h0.3c0.8-1.2,1.9-2.2,3.3-2.9c1.4-0.7,3-1,4.8-1c6.2,0,9.4,3.2,9.4,9.5V272.8z"/>
	<path class="st3" d="M192.5,273.3c-3.2,0-5.8-1.2-7.6-3.5c-1.8-2.4-2.7-5.6-2.7-9.9c0-4.3,0.9-7.6,2.8-10c1.8-2.4,4.4-3.6,7.7-3.6
		c3.4,0,6,1.3,7.8,3.8h0.3c-0.3-1.9-0.4-3.3-0.4-4.4v-9.5h5.5v36.6h-4.3l-1-3.4h-0.3C198.5,272,195.9,273.3,192.5,273.3z M194,268.8
		c2.3,0,3.9-0.6,5-1.9c1-1.3,1.6-3.4,1.6-6.2v-0.8c0-3.3-0.5-5.6-1.6-7c-1.1-1.4-2.7-2.1-5-2.1c-1.9,0-3.4,0.8-4.5,2.4
		c-1,1.6-1.6,3.8-1.6,6.7c0,2.9,0.5,5.1,1.5,6.6C190.4,268.1,191.9,268.8,194,268.8z"/>
	<path class="st3" d="M222.7,273.3c-4,0-7.2-1.2-9.5-3.5c-2.3-2.4-3.4-5.6-3.4-9.7c0-4.2,1.1-7.6,3.2-10s5-3.6,8.7-3.6
		c3.4,0,6.1,1,8.1,3.1c2,2.1,3,5,3,8.6v3h-17.3c0.1,2.5,0.8,4.5,2,5.8c1.3,1.4,3.1,2,5.4,2c1.5,0,3-0.1,4.3-0.4
		c1.3-0.3,2.7-0.8,4.3-1.4v4.5c-1.3,0.6-2.7,1.1-4.1,1.4C226,273.2,224.4,273.3,222.7,273.3z M221.6,250.5c-1.8,0-3.2,0.6-4.2,1.7
		c-1.1,1.1-1.7,2.7-1.9,4.9h11.8c0-2.1-0.5-3.8-1.6-4.9C224.8,251.1,223.4,250.5,221.6,250.5z"/>
	<path class="st3" d="M237.2,272.8v-34.4h5.6V268h14.6v4.8H237.2z"/>
	<path class="st3" d="M283.4,259.8c0,4.2-1.1,7.6-3.3,9.9c-2.2,2.4-5.2,3.6-9.1,3.6c-2.4,0-4.6-0.5-6.4-1.6
		c-1.9-1.1-3.3-2.7-4.3-4.7c-1-2.1-1.5-4.4-1.5-7.1c0-4.2,1.1-7.5,3.2-9.9c2.2-2.4,5.2-3.6,9.1-3.6c3.8,0,6.7,1.2,8.9,3.6
		C282.3,252.4,283.4,255.7,283.4,259.8z M264.5,259.8c0,6,2.2,9,6.7,9c4.4,0,6.6-3,6.6-9c0-5.9-2.2-8.9-6.6-8.9c-2.3,0-4,0.8-5,2.3
		C265,254.7,264.5,256.9,264.5,259.8z"/>
	<path class="st3" d="M310.4,259.8c0,4.2-1.1,7.6-3.3,9.9c-2.2,2.4-5.2,3.6-9.1,3.6c-2.4,0-4.6-0.5-6.4-1.6
		c-1.9-1.1-3.3-2.7-4.3-4.7s-1.5-4.4-1.5-7.1c0-4.2,1.1-7.5,3.2-9.9c2.2-2.4,5.2-3.6,9.1-3.6c3.8,0,6.7,1.2,8.9,3.6
		C309.3,252.4,310.4,255.7,310.4,259.8z M291.5,259.8c0,6,2.2,9,6.7,9c4.4,0,6.6-3,6.6-9c0-5.9-2.2-8.9-6.6-8.9c-2.3,0-4,0.8-5,2.3
		C292,254.7,291.5,256.9,291.5,259.8z"/>
	<path class="st3" d="M327.5,273.3c-3.3,0-5.8-1.2-7.7-3.5h-0.3c0.2,2.2,0.3,3.5,0.3,4v10.6h-5.5v-37.6h4.5c0.1,0.5,0.4,1.6,0.8,3.5
		h0.3c1.7-2.6,4.3-3.9,7.8-3.9c3.2,0,5.8,1.2,7.6,3.5c1.8,2.4,2.7,5.6,2.7,9.9c0,4.2-0.9,7.6-2.8,9.9
		C333.3,272.1,330.7,273.3,327.5,273.3z M326.2,250.9c-2.2,0-3.8,0.6-4.8,1.9c-1,1.3-1.5,3.3-1.5,6.2v0.8c0,3.2,0.5,5.5,1.5,6.9
		c1,1.4,2.6,2.1,4.9,2.1c1.9,0,3.4-0.8,4.4-2.4c1-1.6,1.6-3.8,1.6-6.7c0-2.9-0.5-5.1-1.5-6.6C329.7,251.6,328.2,250.9,326.2,250.9z"
		/>
	<path class="st3" d="M351.6,268.8c1.3,0,2.7-0.2,4-0.6v4.2c-0.6,0.3-1.4,0.5-2.4,0.7c-1,0.2-2,0.3-3,0.3c-5.2,0-7.9-2.8-7.9-8.3
		v-14h-3.5v-2.4l3.8-2l1.9-5.5h3.4v5.8h7.4v4.2H348v13.9c0,1.3,0.3,2.3,1,3C349.6,268.5,350.5,268.8,351.6,268.8z"/>
	<path class="st3" d="M358.1,239.9c0-1,0.3-1.7,0.8-2.3c0.5-0.5,1.3-0.8,2.3-0.8c1,0,1.7,0.3,2.3,0.8c0.5,0.5,0.8,1.3,0.8,2.3
		c0,0.9-0.3,1.7-0.8,2.2c-0.5,0.5-1.3,0.8-2.3,0.8c-1,0-1.8-0.3-2.3-0.8C358.4,241.6,358.1,240.9,358.1,239.9z M363.9,272.8h-5.5
		v-26h5.5V272.8z"/>
	<path class="st3" d="M366.8,284.4c-1.7,0-3-0.2-4.1-0.6v-4.4c1.1,0.3,2.2,0.4,3.3,0.4c2.4,0,3.5-1.3,3.5-4v-29h5.5v29.4
		c0,2.7-0.7,4.7-2.1,6.1C371.5,283.7,369.4,284.4,366.8,284.4z M369.1,239.9c0-1,0.3-1.7,0.8-2.3c0.5-0.5,1.3-0.8,2.3-0.8
		c1,0,1.7,0.3,2.3,0.8c0.5,0.5,0.8,1.3,0.8,2.3c0,0.9-0.3,1.7-0.8,2.2c-0.5,0.5-1.3,0.8-2.3,0.8c-1,0-1.8-0.3-2.3-0.8
		C369.4,241.6,369.1,240.9,369.1,239.9z"/>
	<path class="st3" d="M389.2,273.3c-3.2,0-5.8-1.2-7.6-3.5s-2.7-5.6-2.7-9.9c0-4.3,0.9-7.6,2.8-10c1.8-2.4,4.4-3.6,7.7-3.6
		c3.4,0,6,1.3,7.8,3.8h0.3c-0.3-1.9-0.4-3.3-0.4-4.4v-9.5h5.5v36.6h-4.3l-1-3.4H397C395.2,272,392.6,273.3,389.2,273.3z
		 M390.7,268.8c2.3,0,3.9-0.6,5-1.9c1-1.3,1.6-3.4,1.6-6.2v-0.8c0-3.3-0.5-5.6-1.6-7c-1.1-1.4-2.7-2.1-5-2.1c-1.9,0-3.4,0.8-4.5,2.4
		c-1,1.6-1.6,3.8-1.6,6.7c0,2.9,0.5,5.1,1.5,6.6C387.1,268.1,388.7,268.8,390.7,268.8z"/>
	<path class="st3" d="M407.2,269.9c0-1.1,0.3-2,0.9-2.6c0.6-0.6,1.5-0.9,2.6-0.9c1.1,0,2,0.3,2.6,1c0.6,0.6,0.9,1.5,0.9,2.6
		c0,1.1-0.3,2-0.9,2.6c-0.6,0.7-1.5,1-2.6,1c-1.1,0-2-0.3-2.6-1C407.5,271.9,407.2,271,407.2,269.9z"/>
	<path class="st3" d="M441.7,272.8h-5.5v-16c0-2-0.4-3.5-1.2-4.5s-2.1-1.5-3.8-1.5c-2.3,0-4,0.7-5.1,2.1s-1.6,3.7-1.6,6.9v13h-5.5
		v-26h4.3l0.8,3.4h0.3c0.8-1.2,1.9-2.2,3.3-2.9c1.4-0.7,3-1,4.8-1c6.2,0,9.4,3.2,9.4,9.5V272.8z"/>
	<path class="st3" d="M452.5,272.8H447v-36.6h5.5V272.8z"/>
</g>
<rect x="65.8" y="223.3" class="st2" width="47.3" height="4.3"/>
<rect x="65.8" y="283.2" class="st2" width="47.3" height="4.3"/>
<rect x="87.2" y="276.8" class="st0" width="4.5" height="6.4"/>
</svg>
