<?xml version="1.0" encoding="utf-8"?>
<!-- Generator: Adobe Illustrator 22.0.1, SVG Export Plug-In . SVG Version: 6.00 Build 0)  -->
<svg version="1.1" id="Layer_1" xmlns="http://www.w3.org/2000/svg" xmlns:xlink="http://www.w3.org/1999/xlink" x="0px" y="0px"
	 viewBox="0 0 520 520" style="enable-background:new 0 0 520 520;" xml:space="preserve">
<style type="text/css">
	.st0{fill:#FFFFFF;}
	.st1{fill:#6C6C6C;}
	.st2{fill:#75BD84;}
</style>
<g>
	<rect class="st0" width="520" height="520"/>
</g>
<path class="st1" d="M176.9,236.7h-11.1V267H160v-30.3h-11v-4.3h27.9V236.7z"/>
<path class="st1" d="M182.1,265.8c-2-1.3-3.6-3-4.6-5.2c-1-2.2-1.5-4.7-1.5-7.4c0-2.8,0.5-5.3,1.5-7.5c1-2.2,2.5-3.9,4.6-5.2
	c2-1.3,4.5-1.9,7.5-1.9c2.9,0,5.4,0.7,7.5,2c2,1.3,3.6,3.1,4.6,5.3c1,2.2,1.5,4.6,1.5,7.3c0,2.6-0.5,5.1-1.5,7.3
	c-1,2.2-2.5,4-4.6,5.3c-2,1.3-4.5,2-7.5,2C186.7,267.8,184.2,267.1,182.1,265.8z M195.5,260.8c1.3-1.8,2-4.4,2-7.6
	c0-3.2-0.7-5.8-2-7.6c-1.3-1.9-3.3-2.8-5.9-2.8c-2.6,0-4.6,0.9-5.9,2.8c-1.3,1.9-2,4.4-2,7.6c0,3.3,0.7,5.8,2,7.6
	c1.3,1.8,3.3,2.8,5.9,2.8C192.2,263.6,194.2,262.7,195.5,260.8z"/>
<path class="st1" d="M226.8,240.2c1.8,1.1,3.2,2.8,4.2,4.9c1,2.2,1.5,4.7,1.5,7.7c0,5-1.3,8.7-4,11.2c-2.7,2.5-6.2,3.7-10.5,3.7
	c-1.7,0-3.3-0.2-4.8-0.7v11.8h-5.6v-39.6h4.3l0.6,2.2c2.4-2,5.1-3,8.1-3C222.9,238.6,225,239.1,226.8,240.2z M224.5,260.7
	c1.5-1.9,2.3-4.6,2.3-8c0-3.5-0.6-6.1-1.9-7.6c-1.3-1.5-2.9-2.3-4.8-2.3c-1.4,0-2.6,0.2-3.6,0.6c-1.1,0.4-2.2,1-3.3,1.8v17.6
	c1.4,0.5,2.8,0.8,4.5,0.8C220.7,263.6,223,262.6,224.5,260.7z"/>
<path class="st1" d="M240.6,265.8c-2-1.3-3.6-3-4.6-5.2c-1-2.2-1.5-4.7-1.5-7.4c0-2.8,0.5-5.3,1.5-7.5c1-2.2,2.5-3.9,4.6-5.2
	c2-1.3,4.5-1.9,7.5-1.9c2.9,0,5.4,0.7,7.5,2c2,1.3,3.6,3.1,4.6,5.3c1,2.2,1.5,4.6,1.5,7.3c0,2.6-0.5,5.1-1.5,7.3
	c-1,2.2-2.5,4-4.6,5.3c-2,1.3-4.5,2-7.5,2C245.1,267.8,242.7,267.1,240.6,265.8z M254,260.8c1.3-1.8,2-4.4,2-7.6
	c0-3.2-0.7-5.8-2-7.6c-1.3-1.9-3.3-2.8-5.9-2.8c-2.6,0-4.6,0.9-5.9,2.8c-1.3,1.9-2,4.4-2,7.6c0,3.3,0.7,5.8,2,7.6
	c1.3,1.8,3.3,2.8,5.9,2.8C250.7,263.6,252.7,262.7,254,260.8z"/>
<path class="st1" d="M285.3,240.2c1.8,1.1,3.2,2.8,4.2,4.9c1,2.2,1.5,4.7,1.5,7.7c0,5-1.3,8.7-4,11.2c-2.7,2.5-6.2,3.7-10.5,3.7
	c-1.7,0-3.3-0.2-4.8-0.7v11.8h-5.6v-39.6h4.3l0.6,2.2c2.4-2,5.1-3,8.1-3C281.4,238.6,283.5,239.1,285.3,240.2z M283,260.7
	c1.5-1.9,2.3-4.6,2.3-8c0-3.5-0.6-6.1-1.9-7.6c-1.3-1.5-2.9-2.3-4.8-2.3c-1.4,0-2.6,0.2-3.6,0.6c-1.1,0.4-2.2,1-3.3,1.8v17.6
	c1.4,0.5,2.8,0.8,4.5,0.8C279.2,263.6,281.5,262.6,283,260.7z"/>
<path class="st1" d="M293,265.4l1.4-4c2.5,1.5,5.3,2.2,8.3,2.2c1.7,0,3-0.4,4.1-1.1c1.1-0.7,1.6-1.7,1.6-3c0-1.1-0.5-2-1.4-2.6
	c-1-0.6-2.5-1.3-4.6-2.1c-1.8-0.6-3.3-1.3-4.4-1.8c-1.2-0.6-2.1-1.4-2.9-2.4c-0.8-1-1.2-2.3-1.2-3.8c0-2.7,0.9-4.7,2.8-6.1
	c1.9-1.4,4.4-2.1,7.6-2.1c3.3,0,6.2,0.8,8.7,2.3l-1.4,4c-2.3-1.4-4.7-2.1-7.2-2.1c-1.5,0-2.7,0.3-3.6,0.9c-0.9,0.6-1.4,1.4-1.4,2.6
	c0,1.1,0.5,1.9,1.4,2.5c0.9,0.6,2.4,1.3,4.5,2c1.9,0.6,3.4,1.3,4.5,1.9c1.1,0.6,2.1,1.4,2.9,2.5c0.8,1.1,1.2,2.4,1.2,4.1
	c0,2.7-1,4.8-3,6.3c-2,1.5-4.7,2.3-8.2,2.3C298.9,267.8,295.7,267,293,265.4z"/>
<path class="st1" d="M318.4,226.3h5.6V267h-5.6V226.3z"/>
<path class="st1" d="M354.3,266.9c-0.9,0.2-1.7,0.4-2.3,0.5c-0.6,0.1-1.3,0.2-2.1,0.2c-1.4,0-2.5-0.3-3.4-0.8
	c-0.9-0.5-1.5-1.4-1.8-2.7c-1.5,1.2-3,2-4.5,2.6c-1.5,0.6-2.9,0.9-4.5,0.9c-2.2,0-3.9-0.6-5.3-1.9c-1.4-1.3-2.1-2.9-2.1-4.8
	c0-1.8,0.5-3.3,1.5-4.5c1-1.2,2.3-2.1,4.1-2.9c1.7-0.7,4.2-1.6,7.3-2.5l3.3-0.9v-1.5c0-1.8-0.4-3.2-1.1-4.2c-0.7-1-1.9-1.5-3.5-1.5
	c-1.6,0-3.1,0.3-4.6,1c-1.5,0.7-3.1,1.9-5,3.7l-1.8-3.7c4-3.6,8.3-5.3,12.9-5.3c3,0,5.2,0.8,6.6,2.4c1.4,1.6,2.1,4.3,2.1,8v12.3
	c0,0.7,0.1,1.3,0.4,1.6c0.3,0.3,0.7,0.5,1.3,0.5c0.6,0,1.3-0.2,2.1-0.5L354.3,266.9z M334.8,262.7c0.6,0.5,1.4,0.7,2.5,0.7
	c1.1,0,2.2-0.3,3.4-0.8c1.2-0.5,2.4-1.3,3.9-2.4v-6.6l-2.4,0.7c-3,0.9-5.2,1.9-6.4,2.7c-1.2,0.9-1.8,2-1.8,3.3
	C334,261.4,334.2,262.2,334.8,262.7z"/>
<path class="st1" d="M381.4,243.5l-5.7-0.6c0.8,1.4,1.3,3,1.3,4.7c0,1.7-0.4,3.2-1.2,4.6c-0.8,1.4-2,2.5-3.5,3.4
	c-1.6,0.8-3.5,1.3-5.8,1.3c-1.2,0-2.2-0.1-3.1-0.3c-0.8,0.7-1.4,1.3-1.8,1.8c-0.4,0.5-0.6,1.1-0.6,1.6c0,0.7,0.2,1.2,0.7,1.5
	s1.3,0.5,2.5,0.5h8.4c2.6,0,4.7,0.6,6.1,1.8c1.5,1.2,2.2,2.8,2.2,4.9c0,2-0.7,3.8-2.1,5.5c-1.4,1.7-3.2,3-5.6,3.9
	c-2.4,0.9-5,1.4-8,1.4c-3.9,0-6.8-0.7-8.5-2.1c-1.7-1.4-2.6-3.1-2.6-5.1c0-1.4,0.4-2.6,1.1-3.6c0.7-1.1,1.8-2.1,3.3-3.2
	c-2-0.9-2.9-2.3-2.9-4.3c0-1,0.3-2,1-2.9c0.7-0.9,1.8-2,3.3-3.1c-1.3-0.8-2.2-1.9-2.9-3.2c-0.7-1.3-1-2.7-1-4.2
	c0-1.7,0.4-3.2,1.2-4.6c0.8-1.4,2-2.5,3.6-3.4c1.6-0.8,3.5-1.3,5.8-1.3c1.8,0,3.4,0.3,4.8,0.8h10.2V243.5z M371.5,266.2h-8h-0.7
	c-2.2,1.9-3.4,3.7-3.4,5.6c0,1.2,0.5,2.1,1.5,2.6c1,0.5,2.4,0.8,4.3,0.8c1.9,0,3.7-0.3,5.3-0.9c1.6-0.6,2.8-1.3,3.7-2.2
	c0.9-0.9,1.3-1.8,1.3-2.7C375.6,267.3,374.2,266.2,371.5,266.2z M370.1,251.5c0.9-0.9,1.4-2.2,1.4-3.8c0-1.6-0.4-2.8-1.3-3.8
	c-0.9-0.9-2.1-1.4-3.7-1.4c-1.5,0-2.7,0.5-3.7,1.4c-0.9,0.9-1.4,2.2-1.4,3.8c0,1.6,0.5,2.8,1.4,3.8c0.9,0.9,2.1,1.4,3.7,1.4
	C368,252.9,369.2,252.4,370.1,251.5z"/>
<path class="st1" d="M384.2,266.3c-0.7-0.7-1.1-1.6-1.1-2.6c0-1,0.4-1.8,1.1-2.6c0.7-0.7,1.6-1.1,2.6-1.1c1,0,1.9,0.4,2.6,1.1
	c0.7,0.7,1.1,1.6,1.1,2.6c0,1-0.4,1.9-1.1,2.6c-0.7,0.7-1.6,1.1-2.6,1.1C385.8,267.4,384.9,267,384.2,266.3z"/>
<path class="st1" d="M417.6,241.1c1.2,1.7,1.8,4.1,1.8,7.2V267h-5.6v-18c0-2.2-0.3-3.8-0.9-4.7c-0.6-0.9-1.8-1.4-3.4-1.4
	c-2.2,0-4.7,1-7.3,3V267h-5.6v-27.6h4.3l0.7,2.7c3.3-2.3,6.5-3.5,9.5-3.5C414.1,238.6,416.4,239.4,417.6,241.1z"/>
<path class="st1" d="M425.8,226.3h5.6V267h-5.6V226.3z"/>
<polygon class="st1" points="91.7,228.1 91.7,228.1 112.2,207.5 112.2,207.5 112.3,207.5 132.8,228.1 132.8,228.1 140.4,235.7 
	140.4,279.7 135.4,279.7 135.4,237.8 112.2,214.7 89.1,237.8 89.1,279.7 84.1,279.7 84.1,235.7 "/>
<g>
	<g>
		<path class="st2" d="M115.7,246.8c0-4.3,3.5-7.7,7.7-7.7s7.7,3.5,7.7,7.7c0,4.3-3.5,7.7-7.7,7.7S115.7,251,115.7,246.8z
			 M119.9,246.8c0,1.9,1.6,3.5,3.5,3.5c1.9,0,3.5-1.6,3.5-3.5c0-1.9-1.6-3.5-3.5-3.5C121.5,243.3,119.9,244.8,119.9,246.8z"/>
	</g>
</g>
<g>
	<g>
		<path class="st2" d="M95.9,265.6c0-4.3,3.5-7.7,7.7-7.7c4.3,0,7.7,3.5,7.7,7.7s-3.5,7.7-7.7,7.7C99.3,273.3,95.9,269.8,95.9,265.6
			z M100.1,265.6c0,1.9,1.6,3.5,3.5,3.5c1.9,0,3.5-1.6,3.5-3.5c0-1.9-1.6-3.5-3.5-3.5C101.7,262.1,100.1,263.7,100.1,265.6z"/>
	</g>
</g>
<polygon class="st2" points="147.1,289.9 145.6,280.4 143.4,282.7 99.3,238.5 92.1,238.5 139.9,286.3 137.7,288.6 "/>
<line class="st2" x1="137.7" y1="288.6" x2="147.1" y2="289.9"/>
</svg>
