<?xml version="1.0" encoding="utf-8"?>
<!-- Generator: Adobe Illustrator 22.1.0, SVG Export Plug-In . SVG Version: 6.00 Build 0)  -->
<svg version="1.1" id="Layer_1" xmlns="http://www.w3.org/2000/svg" xmlns:xlink="http://www.w3.org/1999/xlink" x="0px" y="0px"
	 viewBox="0 0 520 520" style="enable-background:new 0 0 520 520;" xml:space="preserve">
<style type="text/css">
	.st0{fill:#FFFFFF;}
	.st1{fill:#9DA248;}
	.st2{fill:#717070;}
	.st3{fill:#BCBC66;}
</style>
<g>
	<rect class="st0" width="520" height="520"/>
</g>
<path class="st1" d="M140.4,184.2h30.3c8.7,0,16.8,1.2,24.1,3.7s13.5,5.9,18.7,10.3c5.2,4.4,9.2,9.6,12.1,15.8
	c2.9,6.1,4.3,12.7,4.3,19.9s-1.5,13.8-4.3,19.9c-2.9,6.1-6.9,11.4-12.1,15.8c-5.2,4.4-11.4,7.8-18.7,10.3
	c-7.3,2.5-15.3,3.7-24.1,3.7h-30.3V184.2z M172.2,264.2c5,0,9.5-0.7,13.6-2.1c4.1-1.4,7.6-3.4,10.5-6c2.9-2.6,5.2-5.7,6.8-9.5
	s2.4-8,2.4-12.7s-0.8-9-2.4-12.7c-1.6-3.7-3.9-6.9-6.8-9.5c-2.9-2.6-6.4-4.6-10.5-6c-4.1-1.4-8.6-2.1-13.6-2.1h-7.3v60.5H172.2z"/>
<path class="st1" d="M298,216.6c0,5.3-1.1,10-3.4,14.2c-2.3,4.2-5.5,7.7-9.5,10.5c-4,2.8-8.8,5-14.3,6.5s-11.4,2.3-17.7,2.3h-2.5
	v33.6h-24.5v-99.4h28.6c6.3,0,12,0.7,17.4,1.9c5.3,1.3,9.9,3.2,13.7,5.9c3.8,2.6,6.8,6,8.9,10.1C297,206.2,298,211,298,216.6z
	 M274.4,216.7c0-9.2-6.5-13.7-19.6-13.7h-4.3v28.2h4c6.4,0,11.4-1.3,14.8-3.9C272.7,224.7,274.4,221.2,274.4,216.7z"/>
<g>
	<path class="st2" d="M156.2,326l-11.1-15.5V326h-4.8v-23.7h4.8l11.1,15.5v-15.5h4.8V326H156.2z"/>
	<path class="st2" d="M180.1,302.4h14.2v4h-9.2v5.7h8.8v4h-8.8v6.1h9.3v4h-14.3V302.4z"/>
	<path class="st2" d="M229.2,302.4v4h-6.5V326h-5v-19.7h-6.5v-4H229.2L229.2,302.4z"/>
	<path class="st2" d="M269.6,319.7l4.2-17.4h5l-6.6,23.7h-5l-5.1-18.5l-5.1,18.5h-5l-6.6-23.7h5l4.2,17.4l4.8-17.4h5.6L269.6,319.7z
		"/>
	<path class="st2" d="M318.5,314.2c0,1.7-0.3,3.2-0.8,4.8c-0.5,1.5-1.3,2.8-2.3,3.9c-1,1.1-2.3,2-3.7,2.6c-1.5,0.7-3.2,1-5.1,1
		c-1.9,0-3.6-0.3-5.1-1c-1.5-0.7-2.7-1.6-3.8-2.6c-1-1.1-1.8-2.4-2.3-3.9c-0.5-1.5-0.8-3.1-0.8-4.8c0-1.6,0.3-3.2,0.8-4.7
		c0.5-1.5,1.3-2.8,2.3-3.9c1-1.1,2.3-2,3.8-2.6c1.5-0.7,3.2-1,5.1-1c1.9,0,3.6,0.3,5.1,1c1.5,0.7,2.7,1.6,3.7,2.6
		c1,1.1,1.8,2.4,2.3,3.9S318.5,312.5,318.5,314.2z M306.6,322.6c1.2,0,2.2-0.2,3.1-0.7c0.8-0.4,1.6-1,2.2-1.7c0.6-0.8,1-1.6,1.3-2.6
		c0.3-1,0.4-2.1,0.4-3.3c0-1.2-0.1-2.3-0.4-3.3c-0.3-1-0.7-1.9-1.3-2.6c-0.6-0.8-1.3-1.3-2.2-1.7c-0.8-0.4-1.9-0.7-3.1-0.7
		c-1.2,0-2.2,0.2-3.1,0.7c-0.8,0.4-1.6,1-2.2,1.7c-0.6,0.8-1,1.6-1.3,2.6c-0.3,1-0.4,2.1-0.4,3.3c0,1.2,0.1,2.3,0.4,3.3
		c0.3,1,0.7,1.9,1.3,2.6c0.6,0.8,1.3,1.3,2.2,1.7C304.5,322.3,305.4,322.6,306.6,322.6z"/>
	<path class="st2" d="M353.7,309.6c0,1.7-0.5,3.1-1.4,4.2s-2.3,2-4.1,2.6l8,9.5H350l-6.9-8.6h-1.6v8.6h-5v-23.7h7.1
		c1.5,0,2.8,0.1,4,0.4c1.2,0.3,2.3,0.8,3.2,1.4c0.9,0.6,1.6,1.4,2.1,2.3C353.4,307.4,353.7,308.4,353.7,309.6z M348.7,309.7
		c0-1.2-0.5-2.1-1.4-2.6c-0.9-0.6-2.2-0.8-3.7-0.8h-2.1v7.4h1.5c1.7,0,3.1-0.3,4.1-1C348.1,312,348.7,311,348.7,309.7z"/>
	<path class="st2" d="M372.8,326v-23.7h5v11.4l8.2-11.4h5.7L383,314l9.3,11.9h-6.2l-8.4-11.6V326L372.8,326L372.8,326z"/>
</g>
<path class="st1" d="M330.5,233.6l-4.8,4.1l11.3,12.7h0l0,0l20.4-20.7l-3.6-4.8l-16.6,13.6L330.5,233.6z"/>
<path class="st1" d="M340.3,183.7c-28.7,0-52,23.3-52,52s23.3,52,52,52c28.7,0,52-23.3,52-52C392.3,207,369,183.7,340.3,183.7
	L340.3,183.7z M340.3,264.5c-26.8,0-28.6-45.2-28.6-45.2l28.6-12.2l28.6,12.2C369,219.2,367.1,264.5,340.3,264.5L340.3,264.5z"/>
<path class="st3" d="M340.3,183.7V207l28.6,12.2c0,0-1.9,45.2-28.6,45.2v23.3c28.7,0,52-23.3,52-52C392.3,207,369,183.7,340.3,183.7
	z"/>
</svg>
