<?xml version="1.0" encoding="utf-8"?>
<!-- Generator: Adobe Illustrator 22.0.1, SVG Export Plug-In . SVG Version: 6.00 Build 0)  -->
<svg version="1.1" id="Layer_1" xmlns="http://www.w3.org/2000/svg" xmlns:xlink="http://www.w3.org/1999/xlink" x="0px" y="0px"
	 viewBox="0 0 520 520" style="enable-background:new 0 0 520 520;" xml:space="preserve">
<style type="text/css">
	.st0{fill:#FFFFFF;}
	.st1{fill:#223256;}
	.st2{fill:#FBBB38;}
</style>
<g>
	<rect class="st0" width="520" height="520"/>
</g>
<g>
	<path class="st1" d="M108.3,268.7h-4.4v-12H91.5v12h-4.4v-26.7h4.4v11h12.3v-11h4.4C108.3,241.9,108.3,268.7,108.3,268.7z"/>
	<path class="st1" d="M109.9,248.4h4.7l4.1,11.5c0.6,1.7,1.1,3.2,1.3,4.6h0.2c0.1-0.7,0.3-1.5,0.6-2.4c0.3-1,1.9-5.5,4.7-13.6h4.7
		l-8.7,23c-1.6,4.2-4.2,6.3-7.9,6.3c-1,0-1.9-0.1-2.8-0.3v-3.4c0.7,0.2,1.4,0.2,2.2,0.2c2.1,0,3.5-1.2,4.4-3.6l0.8-1.9L109.9,248.4z
		"/>
	<path class="st1" d="M141.5,269c-2.6,0-4.6-0.9-5.9-2.8h-0.2c0.2,1.7,0.2,2.8,0.2,3.1v8.3h-4.3v-29.2h3.5c0.1,0.4,0.3,1.3,0.6,2.7
		h0.2c1.4-2,3.4-3.1,6-3.1c2.6,0,4.5,0.9,5.9,2.8c1.4,1.8,2.1,4.4,2.1,7.7c0,3.3-0.8,5.9-2.2,7.8S144,269,141.5,269z M140.5,251.6
		c-1.7,0-2.9,0.5-3.8,1.5c-0.8,1-1.2,2.6-1.2,4.8v0.7c0,2.5,0.4,4.3,1.2,5.3c0.8,1.1,2,1.7,3.8,1.7c1.5,0,2.6-0.6,3.5-1.8
		s1.2-2.9,1.2-5.2s-0.4-4-1.2-5.2S142,251.6,140.5,251.6z"/>
	<path class="st1" d="M170.7,258.5c0,3.3-0.8,5.9-2.6,7.8S164,269,161,269c-1.9,0-3.5-0.5-5-1.3c-1.5-0.8-2.6-2.1-3.4-3.7
		c-0.8-1.6-1.2-3.5-1.2-5.6c0-3.3,0.8-5.9,2.6-7.7c1.7-1.8,4.1-2.8,7.2-2.8c2.9,0,5.3,1,6.9,2.9
		C169.8,252.8,170.7,255.3,170.7,258.5z M156,258.5c0,4.7,1.7,7,5.2,7c3.4,0,5.1-2.3,5.1-7c0-4.6-1.7-6.9-5.2-6.9
		c-1.8,0-3.1,0.6-3.9,1.8S156,256.3,156,258.5z"/>
	<path class="st1" d="M181.4,265.6c1.1,0,2.1-0.2,3.2-0.5v3.2c-0.5,0.2-1.1,0.4-1.8,0.5c-0.8,0.2-1.5,0.2-2.3,0.2
		c-4.1,0-6.1-2.2-6.1-6.5v-10.8h-2.8v-1.9l2.9-1.6l1.4-4.3h2.6v4.5h5.8v3.2h-5.8v10.8c0,1.1,0.2,1.8,0.8,2.3
		C179.8,265.4,180.5,265.6,181.4,265.6z"/>
	<path class="st1" d="M204.5,268.7h-4.3v-12.4c0-1.6-0.3-2.7-1-3.5c-0.6-0.8-1.7-1.1-3-1.1c-1.8,0-3.2,0.5-4,1.7
		c-0.8,1.1-1.3,2.9-1.3,5.4v10.1h-4.3v-28.6h4.3v7.2c0,1.1-0.1,2.4-0.2,3.7h0.3c0.6-1,1.4-1.7,2.4-2.3c1.1-0.5,2.3-0.8,3.7-0.8
		c4.9,0,7.4,2.5,7.4,7.5L204.5,268.7L204.5,268.7z"/>
	<path class="st1" d="M217.4,269c-3.2,0-5.6-0.9-7.4-2.8c-1.8-1.8-2.6-4.4-2.6-7.6c0-3.3,0.8-5.9,2.5-7.8c1.7-1.9,3.9-2.9,6.8-2.9
		c2.7,0,4.8,0.8,6.3,2.4c1.6,1.7,2.3,3.8,2.3,6.7v2.3h-13.5c0.1,2,0.6,3.5,1.6,4.5c1,1.1,2.4,1.6,4.2,1.6c1.2,0,2.3-0.2,3.3-0.4
		c1.1-0.2,2.1-0.6,3.3-1.1v3.5c-1.1,0.5-2.1,0.8-3.2,1.1C220.1,269,218.9,269,217.4,269z M216.7,251.3c-1.4,0-2.5,0.5-3.3,1.3
		c-0.8,0.9-1.3,2.1-1.5,3.8h9.2c0-1.7-0.5-2.9-1.2-3.8C219.1,251.7,218,251.3,216.7,251.3z"/>
	<path class="st1" d="M237.2,269c-3.2,0-5.6-0.9-7.4-2.8c-1.8-1.8-2.6-4.4-2.6-7.6c0-3.3,0.8-5.9,2.5-7.8c1.7-1.9,3.9-2.9,6.8-2.9
		c2.7,0,4.8,0.8,6.3,2.4c1.6,1.7,2.3,3.8,2.3,6.7v2.3h-13.6c0.1,2,0.6,3.5,1.6,4.5c1,1.1,2.4,1.6,4.2,1.6c1.2,0,2.3-0.2,3.3-0.4
		c1.1-0.2,2.1-0.6,3.3-1.1v3.5c-1.1,0.5-2.1,0.8-3.2,1.1C239.8,269,238.6,269,237.2,269z M236.4,251.3c-1.4,0-2.5,0.5-3.3,1.3
		c-0.8,0.9-1.3,2.1-1.5,3.8h9.2c0-1.7-0.5-2.9-1.2-3.8C238.9,251.7,237.8,251.3,236.4,251.3z"/>
	<path class="st1" d="M252.3,258l2.4-3l6.1-6.6h5l-8.1,8.7l8.7,11.6h-5l-6.5-8.9l-2.3,2v6.9h-4.3v-28.5h4.3v13.9L252.3,258
		L252.3,258L252.3,258z"/>
	<path class="st2" d="M285.6,258.5c0,3.3-0.8,5.9-2.6,7.8c-1.7,1.9-4.1,2.8-7.1,2.8c-1.9,0-3.5-0.5-5-1.3c-1.5-0.8-2.6-2.1-3.4-3.7
		c-0.8-1.6-1.2-3.5-1.2-5.6c0-3.3,0.8-5.9,2.6-7.7s4.1-2.8,7.2-2.8c2.9,0,5.3,1,6.9,2.9C284.8,252.8,285.6,255.3,285.6,258.5z
		 M270.9,258.5c0,4.7,1.7,7,5.2,7c3.4,0,5.1-2.3,5.1-7c0-4.6-1.7-6.9-5.2-6.9c-1.8,0-3.1,0.6-3.9,1.8
		C271.3,254.6,270.9,256.3,270.9,258.5z"/>
	<path class="st2" d="M306.6,268.7h-4.3v-12.4c0-1.6-0.3-2.7-1-3.5c-0.6-0.8-1.7-1.1-3-1.1c-1.8,0-3.2,0.5-4,1.6
		c-0.8,1.1-1.3,2.9-1.3,5.4v10.1h-4.3v-20.3h3.4l0.6,2.6h0.2c0.6-1,1.5-1.7,2.6-2.3s2.3-0.8,3.8-0.8c4.9,0,7.3,2.5,7.3,7.5
		L306.6,268.7L306.6,268.7z"/>
	<path class="st2" d="M317.5,269c-2.6,0-4.5-0.9-5.9-2.8c-1.4-1.8-2.1-4.4-2.1-7.7c0-3.3,0.8-5.9,2.2-7.8c1.4-1.9,3.4-2.8,5.9-2.8
		c2.6,0,4.7,1,6.1,2.9h0.2c-0.2-1.4-0.3-2.6-0.3-3.5v-7.3h4.3v28.5h-3.4l-0.8-2.6h-0.2C322.2,268.1,320.2,269,317.5,269z
		 M318.7,265.6c1.8,0,3.1-0.5,3.8-1.5c0.8-1,1.2-2.6,1.3-4.8v-0.6c0-2.6-0.5-4.4-1.3-5.4c-0.8-1.1-2.1-1.7-3.9-1.7
		c-1.5,0-2.7,0.6-3.5,1.8c-0.8,1.2-1.2,3-1.2,5.3c0,2.3,0.4,4,1.2,5.1C315.9,265,317.1,265.6,318.7,265.6z"/>
	<path class="st2" d="M341.1,269c-3.2,0-5.6-0.9-7.4-2.8c-1.8-1.8-2.6-4.4-2.6-7.6c0-3.3,0.8-5.9,2.5-7.8c1.7-1.9,3.9-2.9,6.8-2.9
		c2.7,0,4.8,0.8,6.3,2.4c1.6,1.7,2.3,3.8,2.3,6.7v2.3h-13.5c0.1,2,0.6,3.5,1.6,4.5c1,1.1,2.4,1.6,4.2,1.6c1.2,0,2.3-0.2,3.3-0.4
		c1.1-0.2,2.1-0.6,3.3-1.1v3.5c-1.1,0.5-2.1,0.8-3.2,1.1C343.6,269,342.4,269,341.1,269z M340.2,251.3c-1.4,0-2.5,0.5-3.3,1.3
		c-0.8,0.9-1.3,2.1-1.5,3.8h9.2c0-1.7-0.5-2.9-1.2-3.8C342.7,251.7,341.6,251.3,340.2,251.3z"/>
	<path class="st2" d="M362.2,248c0.9,0,1.6,0.1,2.1,0.2l-0.5,4c-0.6-0.2-1.3-0.2-1.9-0.2c-1.7,0-3.1,0.5-4.2,1.7
		c-1.1,1.1-1.6,2.6-1.6,4.4v10.6h-4.3v-20.2h3.4l0.6,3.5h0.2c0.7-1.2,1.6-2.2,2.6-2.9C359.8,248.4,361,248,362.2,248z"/>
	<path class="st2" d="M379.7,268.7h-15.4V266l10.2-14.3H365v-3.3h14.5v3l-10,13.9h10.3L379.7,268.7L379.7,268.7z"/>
	<path class="st2" d="M400.3,258.5c0,3.3-0.8,5.9-2.6,7.8s-4.1,2.8-7.1,2.8c-1.9,0-3.5-0.5-5-1.3c-1.4-0.8-2.6-2.1-3.4-3.7
		c-0.8-1.6-1.2-3.5-1.2-5.6c0-3.3,0.8-5.9,2.6-7.7c1.7-1.8,4.1-2.8,7.2-2.8c2.9,0,5.3,1,6.9,2.9
		C399.4,252.8,400.3,255.3,400.3,258.5z M385.5,258.5c0,4.7,1.7,7,5.2,7c3.4,0,5.1-2.3,5.1-7c0-4.6-1.7-6.9-5.2-6.9
		c-1.8,0-3.1,0.6-3.9,1.8S385.5,256.3,385.5,258.5z"/>
	<path class="st2" d="M412.2,269c-3.2,0-5.6-0.9-7.4-2.8c-1.8-1.8-2.6-4.4-2.6-7.6c0-3.3,0.8-5.9,2.5-7.8c1.7-1.9,3.9-2.9,6.8-2.9
		c2.7,0,4.8,0.8,6.3,2.4c1.5,1.6,2.3,3.8,2.3,6.7v2.3h-13.5c0.1,2,0.6,3.5,1.6,4.5c1,1.1,2.4,1.6,4.2,1.6c1.2,0,2.3-0.2,3.3-0.4
		c1.1-0.2,2.1-0.6,3.3-1.1v3.5c-1.1,0.5-2.1,0.8-3.2,1.1C414.8,269,413.6,269,412.2,269z M411.4,251.3c-1.4,0-2.5,0.5-3.3,1.3
		c-0.8,0.9-1.3,2.1-1.5,3.8h9.2c0-1.7-0.5-2.9-1.2-3.8C413.9,251.7,412.8,251.3,411.4,251.3z"/>
	<path class="st2" d="M427.3,258l2.4-3l6.1-6.6h5l-8.1,8.7l8.7,11.6h-5l-6.5-8.9l-2.3,2v6.9h-4.3v-28.5h4.3v13.9L427.3,258
		L427.3,258L427.3,258z"/>
	<path class="st1" d="M442,266.4c0-0.9,0.2-1.6,0.7-2c0.5-0.5,1.1-0.7,2-0.7s1.6,0.2,2,0.8c0.5,0.5,0.7,1.2,0.7,2
		c0,0.9-0.2,1.6-0.7,2c-0.5,0.5-1.1,0.8-2,0.8s-1.6-0.2-2-0.8C442.2,268,442,267.3,442,266.4z"/>
	<path class="st1" d="M469,268.7h-4.3v-12.4c0-1.6-0.3-2.7-1-3.5c-0.7-0.8-1.7-1.1-3-1.1c-1.8,0-3.2,0.5-4,1.6
		c-0.8,1.1-1.3,2.9-1.3,5.4v10.1h-4.3v-20.3h3.4l0.6,2.6h0.2c0.6-1,1.5-1.7,2.6-2.3c1.1-0.5,2.3-0.8,3.8-0.8c4.9,0,7.3,2.5,7.3,7.5
		L469,268.7L469,268.7z"/>
	<path class="st1" d="M477.4,268.7h-4.3v-28.5h4.3V268.7z"/>
</g>
<g>
	<g>
		<g>
			<path class="st1" d="M88.1,277.9L76.8,266c2.9-3.5,4.5-7.9,4.5-12.4c0-10.7-8.7-19.3-19.3-19.3s-19.3,8.7-19.3,19.3
				c0,10.7,8.7,19.3,19.3,19.3c4,0,7.8-1.2,11.1-3.5l11.5,12c0.5,0.5,1.1,0.8,1.8,0.8s1.3-0.2,1.7-0.7
				C89.1,280.5,89.1,278.9,88.1,277.9L88.1,277.9z M61.9,239.3c7.9,0,14.3,6.4,14.3,14.3c0,7.9-6.4,14.3-14.3,14.3
				s-14.3-6.4-14.3-14.3C47.6,245.7,54,239.3,61.9,239.3L61.9,239.3z"/>
		</g>
	</g>
</g>
<g>
	<g>
		<path class="st2" d="M54.9,260.9h5.9v-4.7h2.3v4.7h5.9v-7.1h2.3l-9.5-9.5l-9.5,9.5h2.3L54.9,260.9L54.9,260.9z"/>
	</g>
</g>
</svg>
