<?xml version="1.0" encoding="utf-8"?>
<!-- Generator: Adobe Illustrator 21.1.0, SVG Export Plug-In . SVG Version: 6.00 Build 0)  -->
<svg version="1.1" id="Layer_1" xmlns="http://www.w3.org/2000/svg" xmlns:xlink="http://www.w3.org/1999/xlink" x="0px" y="0px"
	 viewBox="0 0 240.7 92" style="enable-background:new 0 0 240.7 92;" xml:space="preserve">
<style type="text/css">
	.st0{fill:#FFFFFF;}
	.st1{fill:#E85C1D;}
</style>
<path class="st0" d="M41.5,2.3V11c3,2.8,6.1,5.6,9.3,8.1c1.7,1.3,3.4,2.7,5.2,3.9V2.3H41.5z"/>
<path class="st0" d="M41.5,18.6v9.5H14.8V2.3H0.4v68.5h14.3V40h26.7v30.8h14.5V30.3c-3-2.2-6-4.4-8.8-6.7
	C45.2,21.9,43.3,20.3,41.5,18.6z"/>
<path class="st0" d="M60.5,70.8h14.3V42c-4.9-2.6-9.7-5.5-14.3-8.5V70.8z"/>
<path class="st0" d="M105,29.8H74.8V14.2h34.5v-12H60.5v24c0.7,0.5,1.4,0.9,2.1,1.4c4,2.7,8.3,5.2,12.5,7.6
	c4.3,2.3,8.7,4.6,13.2,6.5c0.1,0.1,0.2,0.1,0.4,0.2H105L105,29.8L105,29.8z"/>
<path class="st0" d="M167.7,43.9c-0.6-1.8-1.3-3.4-2.2-4.7c-0.9-1.3-2-2.4-3.3-3.3c-1.3-0.9-2.6-1.6-4.1-2.1c2.4-1,4.4-2.6,6-4.9
	c1.6-2.3,2.4-4.9,2.4-7.9c0-5.8-1.8-10.3-5.3-13.7c-3.5-3.3-8.6-5-15.4-5h-33.8v48.2c4.6,1.3,9.2,2.5,13.8,3.5V40.7h18.4
	c3.2,0,5.8,0.7,7.6,2.1c1.8,1.4,2.7,3.6,2.7,6.6c0,2.8-0.9,5.2-2.8,7c-0.4,0.4-0.8,0.7-1.2,1c3,0.2,5.9,0.3,8.9,0.3
	c2.7,0,5.3-0.1,8-0.2c0.7-2.1,1.1-4.5,1.1-7.1C168.5,47.9,168.3,45.7,167.7,43.9z M144,29h-18.1V14.1h17.2c3.4,0,5.8,0.6,7.3,1.8
	c1.5,1.2,2.2,3.1,2.2,5.7C152.7,26.5,149.8,29,144,29z"/>
<path class="st0" d="M112.1,56.9v13.9H143c8.7,0,15.1-1.8,19.3-5.5c0.7-0.6,1.4-1.3,2-2.1c-1.6,0.1-3.2,0.1-4.7,0.2
	C143.6,63.6,127.6,61.2,112.1,56.9z"/>
<path class="st0" d="M227.8,40.6c-2.3,2.1-4.8,4-7.4,5.7c-0.1,1.8-0.5,3.5-1.2,5.1c-0.9,1.9-2,3.6-3.6,5c-1.5,1.4-3.3,2.6-5.3,3.4
	c-2,0.8-4.2,1.2-6.6,1.2c-3.3,0-6.2-0.7-8.6-2.2c-0.3-0.2-0.5-0.3-0.8-0.5c-1.8,0.5-3.5,1-5.3,1.4c-3.5,0.9-7.1,1.5-10.7,2.1
	c0,0,0,0.1,0.1,0.1c2.7,3.4,6,6.1,9.8,8.2c3.8,2,8.1,3,12.8,3c4.7,0,8.9-0.8,12.6-2.4c3.6-1.6,6.3-3.9,7.9-6.8l0.3,6.8h11.9V34.2
	C232,36.5,230,38.6,227.8,40.6z"/>
<path class="st0" d="M185.8,45.6c-0.7-2.9-1.1-5.7-1.1-8.5c0-8.2,1.7-14.4,5.2-18.7c3.5-4.3,8.1-6.5,13.9-6.5c1.9,0,3.8,0.3,5.6,0.9
	c1.8,0.6,3.4,1.4,4.8,2.5c1.4,1,2.5,2.3,3.4,3.7c0.9,1.4,1.4,2.9,1.7,4.5h14.4c-0.3-3.4-1.2-6.6-2.8-9.4c-1.6-2.9-3.8-5.3-6.4-7.4
	c-2.7-2.1-5.7-3.7-9.3-4.9c-3.5-1.2-7.3-1.8-11.4-1.8c-5.6,0-10.5,0.9-14.7,2.8c-4.2,1.9-7.7,4.5-10.5,7.8c-2.8,3.3-5,7.2-6.4,11.6
	c-1.4,4.4-2.2,9.2-2.2,14.2c0,4.7,0.7,9.3,2.2,13.8c0.8,2.4,1.7,4.6,2.9,6.6c4.3-0.5,8.6-1.1,12.8-2c0.7-0.1,1.4-0.3,2.1-0.5
	c-0.3-0.3-0.5-0.7-0.8-1C187.7,51,186.6,48.4,185.8,45.6z"/>
<path class="st0" d="M205.3,45.4h8.6c0.1,0,0.1-0.1,0.2-0.1c4-2.2,7.7-4.8,11.1-7.7c1.4-1.2,2.7-2.4,3.9-3.7h-23.8L205.3,45.4
	L205.3,45.4z"/>
<polyline class="st1" points="229.1,26.1 240.7,26.1 240.7,37.7 "/>
<g>
	<path class="st0" d="M0.9,79.9V84h5.7v-4.2h0.9v9.6H6.6v-4.6H0.9v4.6H0v-9.6H0.9z"/>
	<path class="st0" d="M14.9,82.6c0.4,0.2,0.7,0.5,1,0.8c0.3,0.3,0.5,0.7,0.6,1.2c0.1,0.4,0.2,0.9,0.2,1.4s-0.1,1-0.2,1.4
		c-0.1,0.4-0.4,0.8-0.6,1.2c-0.3,0.3-0.6,0.6-1,0.8c-0.4,0.2-0.9,0.3-1.4,0.3s-1-0.1-1.4-0.3c-0.4-0.2-0.7-0.5-1-0.8
		c-0.3-0.3-0.5-0.7-0.6-1.2c-0.1-0.4-0.2-0.9-0.2-1.4s0.1-1,0.2-1.4c0.1-0.4,0.4-0.8,0.6-1.2c0.3-0.3,0.6-0.6,1-0.8
		c0.4-0.2,0.9-0.3,1.4-0.3S14.5,82.4,14.9,82.6z M12.5,83.3c-0.3,0.2-0.6,0.4-0.8,0.7c-0.2,0.3-0.4,0.6-0.5,0.9
		c-0.1,0.4-0.2,0.7-0.2,1.1s0.1,0.7,0.2,1.1c0.1,0.4,0.3,0.7,0.5,0.9c0.2,0.3,0.5,0.5,0.8,0.7s0.7,0.3,1.1,0.3s0.8-0.1,1.1-0.3
		s0.6-0.4,0.8-0.7c0.2-0.3,0.4-0.6,0.5-0.9c0.1-0.4,0.2-0.7,0.2-1.1s-0.1-0.7-0.2-1.1c-0.1-0.4-0.3-0.7-0.5-0.9s-0.5-0.5-0.8-0.7
		s-0.7-0.3-1.1-0.3S12.8,83.1,12.5,83.3z"/>
	<path class="st0" d="M20.3,79.9v9.6h-0.8v-9.6H20.3z"/>
	<path class="st0" d="M24.1,79.9v9.6h-0.8v-9.6H24.1z"/>
	<path class="st0" d="M27.2,83.6c0.1-0.3,0.3-0.5,0.6-0.7c0.2-0.2,0.5-0.3,0.9-0.4c0.3-0.1,0.7-0.1,1.1-0.1c0.3,0,0.6,0,0.9,0.1
		s0.6,0.2,0.8,0.3c0.2,0.2,0.4,0.4,0.6,0.7s0.2,0.7,0.2,1.1v3.7c0,0.3,0.2,0.5,0.5,0.5c0.1,0,0.2,0,0.3-0.1v0.7c-0.1,0-0.2,0-0.3,0
		c-0.1,0-0.2,0-0.3,0c-0.2,0-0.4,0-0.5-0.1c-0.1-0.1-0.2-0.1-0.3-0.2c-0.1-0.1-0.1-0.2-0.1-0.4c0-0.1,0-0.3,0-0.5h0
		c-0.2,0.2-0.3,0.4-0.5,0.6c-0.2,0.2-0.3,0.3-0.5,0.4c-0.2,0.1-0.4,0.2-0.7,0.3c-0.2,0.1-0.5,0.1-0.9,0.1c-0.3,0-0.6,0-0.9-0.1
		c-0.3-0.1-0.5-0.2-0.7-0.4c-0.2-0.2-0.4-0.4-0.5-0.6c-0.1-0.3-0.2-0.6-0.2-0.9c0-0.5,0.1-0.9,0.3-1.1c0.2-0.3,0.5-0.5,0.9-0.6
		c0.4-0.1,0.8-0.2,1.2-0.3c0.4-0.1,0.9-0.1,1.3-0.2c0.2,0,0.3,0,0.5-0.1c0.1,0,0.2-0.1,0.3-0.1c0.1-0.1,0.2-0.2,0.2-0.3
		c0-0.1,0.1-0.3,0.1-0.5c0-0.3,0-0.5-0.1-0.7c-0.1-0.2-0.2-0.3-0.4-0.4c-0.2-0.1-0.4-0.2-0.6-0.2c-0.2,0-0.5-0.1-0.7-0.1
		c-0.5,0-1,0.1-1.3,0.4c-0.3,0.3-0.5,0.7-0.5,1.2H27C27,84.3,27.1,83.9,27.2,83.6z M31.5,85.7c-0.1,0.1-0.2,0.2-0.3,0.2
		c-0.2,0-0.3,0.1-0.4,0.1c-0.4,0.1-0.7,0.1-1.1,0.2c-0.4,0.1-0.7,0.1-1,0.2c-0.3,0.1-0.6,0.2-0.8,0.4s-0.3,0.4-0.3,0.8
		c0,0.2,0,0.4,0.1,0.6c0.1,0.2,0.2,0.3,0.3,0.4s0.3,0.2,0.5,0.3c0.2,0.1,0.4,0.1,0.6,0.1c0.3,0,0.6,0,0.9-0.1s0.6-0.2,0.8-0.4
		c0.2-0.2,0.4-0.4,0.5-0.7c0.1-0.3,0.2-0.6,0.2-0.9L31.5,85.7L31.5,85.7L31.5,85.7z"/>
	<path class="st0" d="M36.2,82.5v1.2h0c0.2-0.4,0.4-0.8,0.9-1c0.4-0.3,0.9-0.4,1.4-0.4c0.5,0,0.9,0.1,1.2,0.2
		c0.3,0.1,0.6,0.3,0.8,0.5c0.2,0.2,0.3,0.5,0.4,0.8c0.1,0.3,0.1,0.7,0.1,1.1v4.5h-0.8v-4.3c0-0.3,0-0.6-0.1-0.8
		c-0.1-0.3-0.1-0.5-0.3-0.7c-0.1-0.2-0.3-0.3-0.5-0.4c-0.2-0.1-0.5-0.2-0.9-0.2s-0.6,0.1-0.9,0.2c-0.3,0.1-0.5,0.3-0.7,0.5
		c-0.2,0.2-0.3,0.5-0.4,0.8c-0.1,0.3-0.2,0.6-0.2,0.9v4h-0.8v-6.9C35.4,82.5,36.2,82.5,36.2,82.5z"/>
	<path class="st0" d="M49.2,89.5v-1.3h0c-0.1,0.2-0.2,0.4-0.4,0.6c-0.2,0.2-0.4,0.3-0.6,0.5c-0.2,0.1-0.5,0.2-0.7,0.3
		s-0.5,0.1-0.8,0.1c-0.5,0-1-0.1-1.4-0.3c-0.4-0.2-0.7-0.5-1-0.8c-0.3-0.3-0.5-0.7-0.6-1.2c-0.1-0.4-0.2-0.9-0.2-1.4
		c0-0.5,0.1-1,0.2-1.4c0.1-0.4,0.3-0.8,0.6-1.2c0.3-0.3,0.6-0.6,1-0.8s0.8-0.3,1.4-0.3c0.3,0,0.5,0,0.8,0.1c0.2,0.1,0.5,0.2,0.7,0.3
		c0.2,0.1,0.4,0.3,0.6,0.5c0.2,0.2,0.3,0.4,0.4,0.7h0v-4H50v9.6C50,89.5,49.2,89.5,49.2,89.5z M44.6,87.1c0.1,0.4,0.2,0.7,0.4,0.9
		s0.4,0.5,0.7,0.7c0.3,0.2,0.6,0.3,1,0.3c0.4,0,0.8-0.1,1.1-0.3c0.3-0.2,0.6-0.4,0.8-0.7c0.2-0.3,0.3-0.6,0.4-0.9
		c0.1-0.4,0.1-0.7,0.1-1.1c0-0.4,0-0.7-0.1-1.1c-0.1-0.4-0.2-0.7-0.4-0.9c-0.2-0.3-0.4-0.5-0.8-0.7c-0.3-0.2-0.7-0.3-1.1-0.3
		c-0.4,0-0.7,0.1-1,0.3c-0.3,0.2-0.5,0.4-0.7,0.7s-0.3,0.6-0.4,0.9c-0.1,0.4-0.1,0.7-0.1,1.1C44.5,86.4,44.5,86.7,44.6,87.1z"/>
	<path class="st0" d="M64.3,79.9v0.8h-5.2v3.5h4.6v0.8h-4.6v4.6h-0.9v-9.6L64.3,79.9L64.3,79.9z"/>
	<path class="st0" d="M67.4,79.9v1.4h-0.8v-1.4H67.4z M67.4,82.5v6.9h-0.8v-6.9H67.4z"/>
	<path class="st0" d="M71.2,82.5v1.2h0c0.2-0.4,0.4-0.8,0.9-1c0.4-0.3,0.9-0.4,1.4-0.4c0.5,0,0.9,0.1,1.2,0.2
		c0.3,0.1,0.6,0.3,0.8,0.5c0.2,0.2,0.3,0.5,0.4,0.8C76,84.2,76,84.6,76,85v4.5h-0.8v-4.3c0-0.3,0-0.6-0.1-0.8
		c-0.1-0.3-0.1-0.5-0.3-0.7c-0.1-0.2-0.3-0.3-0.5-0.4c-0.2-0.1-0.5-0.2-0.9-0.2s-0.6,0.1-0.9,0.2c-0.3,0.1-0.5,0.3-0.7,0.5
		c-0.2,0.2-0.3,0.5-0.4,0.8c-0.1,0.3-0.2,0.6-0.2,0.9v4h-0.8v-6.9C70.4,82.5,71.2,82.5,71.2,82.5z"/>
	<path class="st0" d="M79.1,83.6c0.1-0.3,0.3-0.5,0.6-0.7c0.2-0.2,0.5-0.3,0.9-0.4c0.3-0.1,0.7-0.1,1.1-0.1c0.3,0,0.6,0,0.9,0.1
		c0.3,0.1,0.6,0.2,0.8,0.3c0.2,0.2,0.4,0.4,0.6,0.7c0.2,0.3,0.2,0.7,0.2,1.1v3.7c0,0.3,0.2,0.5,0.5,0.5c0.1,0,0.2,0,0.3-0.1v0.7
		c-0.1,0-0.2,0-0.3,0c-0.1,0-0.2,0-0.3,0c-0.2,0-0.4,0-0.5-0.1c-0.1-0.1-0.2-0.1-0.3-0.2c-0.1-0.1-0.1-0.2-0.1-0.4
		c0-0.1,0-0.3,0-0.5h0c-0.2,0.2-0.3,0.4-0.5,0.6c-0.2,0.2-0.3,0.3-0.5,0.4c-0.2,0.1-0.4,0.2-0.7,0.3c-0.2,0.1-0.5,0.1-0.9,0.1
		c-0.3,0-0.6,0-0.9-0.1c-0.3-0.1-0.5-0.2-0.7-0.4s-0.4-0.4-0.5-0.6c-0.1-0.3-0.2-0.6-0.2-0.9c0-0.5,0.1-0.9,0.3-1.1
		c0.2-0.3,0.5-0.5,0.9-0.6c0.4-0.1,0.8-0.2,1.2-0.3c0.4-0.1,0.9-0.1,1.3-0.2c0.2,0,0.3,0,0.5-0.1c0.1,0,0.2-0.1,0.3-0.1
		c0.1-0.1,0.2-0.2,0.2-0.3c0-0.1,0.1-0.3,0.1-0.5c0-0.3,0-0.5-0.1-0.7c-0.1-0.2-0.2-0.3-0.4-0.4c-0.2-0.1-0.4-0.2-0.6-0.2
		c-0.2,0-0.5-0.1-0.7-0.1c-0.5,0-1,0.1-1.3,0.4c-0.3,0.3-0.5,0.7-0.5,1.2h-0.8C78.9,84.3,79,83.9,79.1,83.6z M83.3,85.7
		c-0.1,0.1-0.2,0.2-0.3,0.2c-0.2,0-0.3,0.1-0.4,0.1c-0.4,0.1-0.7,0.1-1.1,0.2c-0.4,0.1-0.7,0.1-1,0.2c-0.3,0.1-0.6,0.2-0.8,0.4
		c-0.2,0.2-0.3,0.4-0.3,0.8c0,0.2,0,0.4,0.1,0.6c0.1,0.2,0.2,0.3,0.3,0.4s0.3,0.2,0.5,0.3c0.2,0.1,0.4,0.1,0.6,0.1
		c0.3,0,0.6,0,0.9-0.1c0.3-0.1,0.6-0.2,0.8-0.4c0.2-0.2,0.4-0.4,0.5-0.7c0.1-0.3,0.2-0.6,0.2-0.9L83.3,85.7L83.3,85.7L83.3,85.7z"/>
	<path class="st0" d="M88.1,82.5v1.2h0c0.2-0.4,0.4-0.8,0.9-1c0.4-0.3,0.9-0.4,1.4-0.4c0.5,0,0.9,0.1,1.2,0.2
		c0.3,0.1,0.6,0.3,0.8,0.5c0.2,0.2,0.3,0.5,0.4,0.8c0.1,0.3,0.1,0.7,0.1,1.1v4.5H92v-4.3c0-0.3,0-0.6-0.1-0.8
		c-0.1-0.3-0.1-0.5-0.3-0.7c-0.1-0.2-0.3-0.3-0.5-0.4c-0.2-0.1-0.5-0.2-0.9-0.2s-0.6,0.1-0.9,0.2c-0.3,0.1-0.5,0.3-0.7,0.5
		c-0.2,0.2-0.3,0.5-0.4,0.8c-0.1,0.3-0.2,0.6-0.2,0.9v4h-0.8v-6.9C87.2,82.5,88.1,82.5,88.1,82.5z"/>
	<path class="st0" d="M100,83.5c-0.3-0.3-0.8-0.4-1.3-0.4c-0.4,0-0.8,0.1-1.1,0.3s-0.6,0.4-0.8,0.7s-0.4,0.6-0.5,0.9
		c-0.1,0.4-0.2,0.7-0.2,1.1s0.1,0.7,0.2,1.1c0.1,0.4,0.3,0.7,0.5,0.9c0.2,0.3,0.5,0.5,0.8,0.7s0.7,0.3,1.1,0.3c0.3,0,0.5,0,0.7-0.1
		s0.4-0.2,0.6-0.4c0.2-0.2,0.3-0.4,0.4-0.6s0.2-0.5,0.2-0.8h0.8c-0.1,0.8-0.4,1.5-0.9,2c-0.5,0.5-1.1,0.7-1.9,0.7
		c-0.5,0-1-0.1-1.4-0.3c-0.4-0.2-0.7-0.5-1-0.8c-0.3-0.3-0.5-0.7-0.6-1.2c-0.1-0.4-0.2-0.9-0.2-1.4s0.1-1,0.2-1.4
		c0.1-0.4,0.4-0.8,0.6-1.2c0.3-0.3,0.6-0.6,1-0.8c0.4-0.2,0.9-0.3,1.4-0.3c0.7,0,1.4,0.2,1.9,0.6s0.8,1,0.9,1.8h-0.8
		C100.5,84.2,100.3,83.8,100,83.5z"/>
	<path class="st0" d="M104.9,79.9v1.4h-0.8v-1.4H104.9z M104.9,82.5v6.9h-0.8v-6.9H104.9z"/>
	<path class="st0" d="M108.1,83.6c0.1-0.3,0.3-0.5,0.6-0.7c0.2-0.2,0.5-0.3,0.9-0.4c0.3-0.1,0.7-0.1,1.1-0.1c0.3,0,0.6,0,0.9,0.1
		c0.3,0.1,0.6,0.2,0.8,0.3c0.2,0.2,0.4,0.4,0.6,0.7c0.2,0.3,0.2,0.7,0.2,1.1v3.7c0,0.3,0.2,0.5,0.5,0.5c0.1,0,0.2,0,0.3-0.1v0.7
		c-0.1,0-0.2,0-0.3,0c-0.1,0-0.2,0-0.3,0c-0.2,0-0.4,0-0.5-0.1c-0.1-0.1-0.2-0.1-0.3-0.2c-0.1-0.1-0.1-0.2-0.1-0.4
		c0-0.1,0-0.3,0-0.5h0c-0.2,0.2-0.3,0.4-0.5,0.6c-0.2,0.2-0.3,0.3-0.5,0.4c-0.2,0.1-0.4,0.2-0.7,0.3c-0.2,0.1-0.5,0.1-0.9,0.1
		c-0.3,0-0.6,0-0.9-0.1c-0.3-0.1-0.5-0.2-0.7-0.4s-0.4-0.4-0.5-0.6c-0.1-0.3-0.2-0.6-0.2-0.9c0-0.5,0.1-0.9,0.3-1.1
		c0.2-0.3,0.5-0.5,0.9-0.6c0.4-0.1,0.8-0.2,1.2-0.3c0.4-0.1,0.9-0.1,1.3-0.2c0.2,0,0.3,0,0.5-0.1c0.1,0,0.2-0.1,0.3-0.1
		c0.1-0.1,0.2-0.2,0.2-0.3c0-0.1,0.1-0.3,0.1-0.5c0-0.3,0-0.5-0.1-0.7c-0.1-0.2-0.2-0.3-0.4-0.4c-0.2-0.1-0.4-0.2-0.6-0.2
		c-0.2,0-0.5-0.1-0.7-0.1c-0.5,0-1,0.1-1.3,0.4c-0.3,0.3-0.5,0.7-0.5,1.2h-0.8C107.9,84.3,107.9,83.9,108.1,83.6z M112.3,85.7
		c-0.1,0.1-0.2,0.2-0.3,0.2c-0.2,0-0.3,0.1-0.4,0.1c-0.4,0.1-0.7,0.1-1.1,0.2c-0.4,0.1-0.7,0.1-1,0.2c-0.3,0.1-0.6,0.2-0.8,0.4
		c-0.2,0.2-0.3,0.4-0.3,0.8c0,0.2,0,0.4,0.1,0.6c0.1,0.2,0.2,0.3,0.3,0.4s0.3,0.2,0.5,0.3c0.2,0.1,0.4,0.1,0.6,0.1
		c0.3,0,0.6,0,0.9-0.1c0.3-0.1,0.6-0.2,0.8-0.4c0.2-0.2,0.4-0.4,0.5-0.7c0.1-0.3,0.2-0.6,0.2-0.9L112.3,85.7L112.3,85.7L112.3,85.7z
		"/>
	<path class="st0" d="M117.1,79.9v9.6h-0.8v-9.6H117.1z"/>
	<path class="st0" d="M129.3,79.9c0.4,0,0.8,0,1.2,0.1c0.4,0.1,0.7,0.2,1,0.4s0.5,0.4,0.7,0.7c0.2,0.3,0.3,0.7,0.3,1.1
		c0,0.2,0,0.5-0.1,0.7c-0.1,0.2-0.2,0.5-0.3,0.6c-0.1,0.2-0.3,0.4-0.5,0.5c-0.2,0.1-0.4,0.2-0.7,0.3v0c0.6,0.1,1.1,0.3,1.5,0.8
		s0.6,0.9,0.6,1.6c0,0.2,0,0.3,0,0.5s-0.1,0.4-0.2,0.6c-0.1,0.2-0.2,0.4-0.3,0.6s-0.4,0.4-0.6,0.5c-0.3,0.1-0.6,0.3-0.9,0.4
		s-0.8,0.1-1.3,0.1h-4.1v-9.6L129.3,79.9L129.3,79.9z M129.3,84.1c0.4,0,0.7,0,1-0.1c0.3-0.1,0.5-0.2,0.7-0.3
		c0.2-0.1,0.3-0.3,0.4-0.5c0.1-0.2,0.1-0.4,0.1-0.6c0-1.2-0.7-1.8-2.2-1.8h-3.1v3.4C126.2,84.1,129.3,84.1,129.3,84.1z M129.3,88.7
		c0.3,0,0.7,0,1-0.1c0.3-0.1,0.6-0.2,0.8-0.3c0.2-0.2,0.4-0.4,0.6-0.6c0.1-0.3,0.2-0.6,0.2-1c0-0.6-0.2-1.1-0.6-1.4
		c-0.4-0.3-1.1-0.5-1.9-0.5h-3.1v3.8L129.3,88.7L129.3,88.7z"/>
	<path class="st0" d="M140.2,89.5v-1.2h0c-0.2,0.5-0.5,0.8-1,1.1s-0.9,0.4-1.4,0.4c-0.4,0-0.8-0.1-1.1-0.2c-0.3-0.1-0.6-0.3-0.8-0.5
		c-0.2-0.2-0.3-0.5-0.4-0.8c-0.1-0.3-0.1-0.7-0.1-1.1v-4.5h0.8V87c0,0.6,0.2,1.1,0.4,1.4c0.3,0.3,0.7,0.5,1.4,0.5
		c0.4,0,0.7-0.1,0.9-0.2s0.5-0.4,0.6-0.6s0.3-0.6,0.4-0.9s0.1-0.7,0.1-1v-3.6h0.8v6.9H140.2z"/>
	<path class="st0" d="M147.9,83.9c-0.1-0.2-0.2-0.4-0.4-0.5c-0.2-0.1-0.4-0.2-0.6-0.3s-0.4-0.1-0.7-0.1c-0.2,0-0.4,0-0.6,0.1
		s-0.4,0.1-0.5,0.2c-0.2,0.1-0.3,0.2-0.4,0.4s-0.1,0.3-0.1,0.6c0,0.2,0,0.3,0.1,0.5c0.1,0.1,0.2,0.2,0.4,0.3s0.3,0.2,0.5,0.2
		c0.2,0.1,0.3,0.1,0.5,0.1l1.1,0.3c0.2,0,0.5,0.1,0.7,0.2c0.2,0.1,0.4,0.2,0.6,0.4c0.2,0.2,0.3,0.3,0.4,0.6c0.1,0.2,0.2,0.5,0.2,0.8
		c0,0.4-0.1,0.7-0.3,1s-0.4,0.5-0.6,0.6c-0.3,0.2-0.6,0.3-0.9,0.4c-0.3,0.1-0.7,0.1-1,0.1c-0.8,0-1.5-0.2-2-0.6
		c-0.5-0.4-0.8-1-0.9-1.9h0.8c0,0.6,0.2,1,0.6,1.3c0.4,0.3,0.9,0.4,1.4,0.4c0.2,0,0.4,0,0.6-0.1s0.4-0.1,0.6-0.2
		c0.2-0.1,0.3-0.2,0.5-0.4s0.2-0.4,0.2-0.6c0-0.2,0-0.4-0.1-0.5c-0.1-0.1-0.2-0.3-0.3-0.3c-0.1-0.1-0.3-0.2-0.5-0.2
		c-0.2-0.1-0.4-0.1-0.6-0.2l-1.1-0.2c-0.3-0.1-0.5-0.2-0.8-0.2c-0.2-0.1-0.4-0.2-0.6-0.3c-0.2-0.1-0.3-0.3-0.4-0.5
		c-0.1-0.2-0.1-0.4-0.1-0.7c0-0.3,0.1-0.6,0.2-0.9s0.4-0.5,0.6-0.6c0.2-0.2,0.5-0.3,0.8-0.3c0.3-0.1,0.6-0.1,0.9-0.1
		c0.3,0,0.7,0,1,0.1c0.3,0.1,0.6,0.2,0.8,0.4c0.2,0.2,0.4,0.4,0.5,0.7c0.1,0.3,0.2,0.6,0.2,1h-0.8C148.1,84.3,148,84.1,147.9,83.9z"
		/>
	<path class="st0" d="M152.6,79.9v1.4h-0.8v-1.4H152.6z M152.6,82.5v6.9h-0.8v-6.9H152.6z"/>
	<path class="st0" d="M156.4,82.5v1.2h0c0.2-0.4,0.4-0.8,0.9-1c0.4-0.3,0.9-0.4,1.4-0.4c0.5,0,0.9,0.1,1.2,0.2
		c0.3,0.1,0.6,0.3,0.8,0.5c0.2,0.2,0.3,0.5,0.4,0.8c0.1,0.3,0.1,0.7,0.1,1.1v4.5h-0.8v-4.3c0-0.3,0-0.6-0.1-0.8
		c-0.1-0.3-0.1-0.5-0.3-0.7c-0.1-0.2-0.3-0.3-0.5-0.4c-0.2-0.1-0.5-0.2-0.9-0.2c-0.3,0-0.6,0.1-0.9,0.2c-0.3,0.1-0.5,0.3-0.7,0.5
		c-0.2,0.2-0.3,0.5-0.4,0.8c-0.1,0.3-0.2,0.6-0.2,0.9v4h-0.8v-6.9C155.5,82.5,156.4,82.5,156.4,82.5z"/>
	<path class="st0" d="M164.7,87.2c0.1,0.3,0.2,0.6,0.4,0.9c0.2,0.3,0.4,0.5,0.7,0.6c0.3,0.2,0.6,0.3,1,0.3c0.6,0,1.1-0.2,1.4-0.5
		s0.6-0.8,0.7-1.3h0.8c-0.2,0.8-0.5,1.4-1,1.8c-0.5,0.4-1.2,0.6-2,0.6c-0.5,0-1-0.1-1.4-0.3c-0.4-0.2-0.7-0.5-1-0.8
		c-0.2-0.3-0.4-0.7-0.6-1.2c-0.1-0.4-0.2-0.9-0.2-1.4c0-0.5,0.1-0.9,0.2-1.3c0.1-0.4,0.3-0.8,0.6-1.2c0.2-0.3,0.6-0.6,1-0.8
		s0.9-0.3,1.4-0.3c0.6,0,1,0.1,1.4,0.3c0.4,0.2,0.7,0.5,1,0.9c0.2,0.4,0.4,0.8,0.5,1.2c0.1,0.5,0.2,0.9,0.1,1.4h-5.3
		C164.6,86.5,164.6,86.8,164.7,87.2z M168.9,84.6c-0.1-0.3-0.2-0.6-0.4-0.8c-0.2-0.2-0.4-0.4-0.7-0.6c-0.3-0.1-0.6-0.2-0.9-0.2
		c-0.3,0-0.7,0.1-0.9,0.2c-0.3,0.1-0.5,0.3-0.7,0.6c-0.2,0.2-0.3,0.5-0.4,0.8c-0.1,0.3-0.2,0.6-0.2,0.9h4.5
		C169.1,85.2,169,84.9,168.9,84.6z"/>
	<path class="st0" d="M176.4,83.9c-0.1-0.2-0.2-0.4-0.4-0.5c-0.2-0.1-0.4-0.2-0.6-0.3s-0.4-0.1-0.7-0.1c-0.2,0-0.4,0-0.6,0.1
		s-0.4,0.1-0.5,0.2c-0.2,0.1-0.3,0.2-0.4,0.4s-0.1,0.3-0.1,0.6c0,0.2,0,0.3,0.1,0.5c0.1,0.1,0.2,0.2,0.4,0.3s0.3,0.2,0.5,0.2
		c0.2,0.1,0.3,0.1,0.5,0.1l1.1,0.3c0.2,0,0.5,0.1,0.7,0.2c0.2,0.1,0.4,0.2,0.6,0.4c0.2,0.2,0.3,0.3,0.4,0.6s0.2,0.5,0.2,0.8
		c0,0.4-0.1,0.7-0.3,1s-0.4,0.5-0.6,0.6c-0.3,0.2-0.6,0.3-0.9,0.4c-0.3,0.1-0.7,0.1-1,0.1c-0.8,0-1.5-0.2-2-0.6
		c-0.5-0.4-0.8-1-0.9-1.9h0.8c0,0.6,0.2,1,0.6,1.3c0.4,0.3,0.9,0.4,1.4,0.4c0.2,0,0.4,0,0.6-0.1s0.4-0.1,0.6-0.2
		c0.2-0.1,0.3-0.2,0.5-0.4s0.2-0.4,0.2-0.6c0-0.2,0-0.4-0.1-0.5c-0.1-0.1-0.2-0.3-0.3-0.3c-0.1-0.1-0.3-0.2-0.5-0.2
		c-0.2-0.1-0.4-0.1-0.6-0.2l-1.1-0.2c-0.3-0.1-0.5-0.2-0.8-0.2c-0.2-0.1-0.4-0.2-0.6-0.3c-0.2-0.1-0.3-0.3-0.4-0.5
		c-0.1-0.2-0.1-0.4-0.1-0.7c0-0.3,0.1-0.6,0.2-0.9s0.4-0.5,0.6-0.6c0.2-0.2,0.5-0.3,0.8-0.3c0.3-0.1,0.6-0.1,0.9-0.1
		c0.3,0,0.7,0,1,0.1c0.3,0.1,0.6,0.2,0.8,0.4c0.2,0.2,0.4,0.4,0.5,0.7c0.1,0.3,0.2,0.6,0.2,1h-0.8C176.5,84.3,176.5,84.1,176.4,83.9
		z"/>
	<path class="st0" d="M184.2,83.9c-0.1-0.2-0.2-0.4-0.4-0.5c-0.2-0.1-0.4-0.2-0.6-0.3s-0.4-0.1-0.7-0.1c-0.2,0-0.4,0-0.6,0.1
		s-0.4,0.1-0.5,0.2c-0.2,0.1-0.3,0.2-0.4,0.4s-0.1,0.3-0.1,0.6c0,0.2,0,0.3,0.1,0.5c0.1,0.1,0.2,0.2,0.4,0.3s0.3,0.2,0.5,0.2
		c0.2,0.1,0.3,0.1,0.5,0.1l1.1,0.3c0.2,0,0.5,0.1,0.7,0.2c0.2,0.1,0.4,0.2,0.6,0.4c0.2,0.2,0.3,0.3,0.4,0.6s0.2,0.5,0.2,0.8
		c0,0.4-0.1,0.7-0.3,1s-0.4,0.5-0.6,0.6c-0.3,0.2-0.6,0.3-0.9,0.4c-0.3,0.1-0.7,0.1-1,0.1c-0.8,0-1.5-0.2-2-0.6
		c-0.5-0.4-0.8-1-0.9-1.9h0.8c0,0.6,0.2,1,0.6,1.3c0.4,0.3,0.9,0.4,1.4,0.4c0.2,0,0.4,0,0.6-0.1s0.4-0.1,0.6-0.2
		c0.2-0.1,0.3-0.2,0.5-0.4s0.2-0.4,0.2-0.6c0-0.2,0-0.4-0.1-0.5c-0.1-0.1-0.2-0.3-0.3-0.3c-0.1-0.1-0.3-0.2-0.5-0.2
		c-0.2-0.1-0.4-0.1-0.6-0.2l-1.1-0.2c-0.3-0.1-0.5-0.2-0.8-0.2c-0.2-0.1-0.4-0.2-0.6-0.3c-0.2-0.1-0.3-0.3-0.4-0.5
		c-0.1-0.2-0.1-0.4-0.1-0.7c0-0.3,0.1-0.6,0.2-0.9s0.4-0.5,0.6-0.6c0.2-0.2,0.5-0.3,0.8-0.3c0.3-0.1,0.6-0.1,0.9-0.1
		c0.3,0,0.7,0,1,0.1c0.3,0.1,0.6,0.2,0.8,0.4c0.2,0.2,0.4,0.4,0.5,0.7c0.1,0.3,0.2,0.6,0.2,1h-0.8C184.3,84.3,184.3,84.1,184.2,83.9
		z"/>
	<path class="st0" d="M200.7,89.5l-0.1-1.7h0c-0.2,0.3-0.4,0.6-0.6,0.9c-0.2,0.2-0.5,0.4-0.8,0.6c-0.3,0.2-0.6,0.3-0.9,0.3
		c-0.3,0.1-0.7,0.1-1,0.1c-0.8,0-1.4-0.1-2-0.4c-0.6-0.3-1-0.6-1.4-1.1s-0.7-1-0.8-1.6c-0.2-0.6-0.3-1.2-0.3-1.9s0.1-1.3,0.3-1.9
		c0.2-0.6,0.5-1.1,0.8-1.6c0.4-0.5,0.8-0.8,1.4-1.1c0.6-0.3,1.2-0.4,2-0.4c0.5,0,1,0.1,1.4,0.2c0.4,0.1,0.8,0.3,1.2,0.6
		s0.6,0.6,0.9,1c0.2,0.4,0.4,0.9,0.5,1.4h-0.9c0-0.3-0.1-0.6-0.3-0.8c-0.2-0.3-0.4-0.5-0.6-0.8c-0.3-0.2-0.6-0.4-0.9-0.6
		c-0.4-0.1-0.8-0.2-1.2-0.2c-0.6,0-1.2,0.1-1.6,0.4c-0.5,0.2-0.8,0.6-1.1,1c-0.3,0.4-0.5,0.8-0.6,1.3c-0.1,0.5-0.2,1-0.2,1.5
		c0,0.5,0.1,1,0.2,1.5s0.4,1,0.6,1.4s0.7,0.7,1.1,1c0.5,0.2,1,0.4,1.6,0.4c0.5,0,1-0.1,1.4-0.3c0.4-0.2,0.8-0.4,1.1-0.7
		c0.3-0.3,0.5-0.7,0.6-1.1c0.1-0.4,0.2-0.9,0.2-1.4h-3.3v-0.8h4.1v4.9C201.4,89.5,200.7,89.5,200.7,89.5z"/>
	<path class="st0" d="M205.1,82.5v1.6h0c0.2-0.6,0.5-1,1-1.3c0.5-0.3,1-0.4,1.6-0.4v0.8c-0.4,0-0.7,0-1,0.2
		c-0.3,0.1-0.6,0.3-0.8,0.5c-0.2,0.2-0.4,0.5-0.5,0.8s-0.2,0.6-0.2,1v3.7h-0.8v-6.9L205.1,82.5L205.1,82.5z"/>
	<path class="st0" d="M214,82.6c0.4,0.2,0.7,0.5,1,0.8c0.3,0.3,0.5,0.7,0.6,1.2c0.1,0.4,0.2,0.9,0.2,1.4s-0.1,1-0.2,1.4
		c-0.1,0.4-0.4,0.8-0.6,1.2c-0.3,0.3-0.6,0.6-1,0.8c-0.4,0.2-0.9,0.3-1.4,0.3s-1-0.1-1.4-0.3c-0.4-0.2-0.7-0.5-1-0.8
		c-0.3-0.3-0.5-0.7-0.6-1.2c-0.1-0.4-0.2-0.9-0.2-1.4s0.1-1,0.2-1.4c0.1-0.4,0.4-0.8,0.6-1.2c0.3-0.3,0.6-0.6,1-0.8
		c0.4-0.2,0.9-0.3,1.4-0.3S213.6,82.4,214,82.6z M211.5,83.3c-0.3,0.2-0.6,0.4-0.8,0.7s-0.4,0.6-0.5,0.9c-0.1,0.4-0.2,0.7-0.2,1.1
		s0.1,0.7,0.2,1.1c0.1,0.4,0.3,0.7,0.5,0.9c0.2,0.3,0.5,0.5,0.8,0.7s0.7,0.3,1.1,0.3s0.8-0.1,1.1-0.3s0.6-0.4,0.8-0.7
		c0.2-0.3,0.4-0.6,0.5-0.9c0.1-0.4,0.2-0.7,0.2-1.1s-0.1-0.7-0.2-1.1c-0.1-0.4-0.3-0.7-0.5-0.9c-0.2-0.3-0.5-0.5-0.8-0.7
		s-0.7-0.3-1.1-0.3C212.2,83.1,211.8,83.1,211.5,83.3z"/>
	<path class="st0" d="M223.3,89.5v-1.2h0c-0.2,0.5-0.5,0.8-1,1.1s-0.9,0.4-1.4,0.4c-0.4,0-0.8-0.1-1.1-0.2c-0.3-0.1-0.6-0.3-0.8-0.5
		c-0.2-0.2-0.3-0.5-0.4-0.8c-0.1-0.3-0.1-0.7-0.1-1.1v-4.5h0.8V87c0,0.6,0.2,1.1,0.4,1.4c0.3,0.3,0.7,0.5,1.4,0.5
		c0.4,0,0.7-0.1,0.9-0.2s0.5-0.4,0.6-0.6s0.3-0.6,0.4-0.9c0.1-0.3,0.1-0.7,0.1-1v-3.6h0.8v6.9H223.3z"/>
	<path class="st0" d="M227.8,82.5v1.3h0c0.2-0.5,0.5-0.9,1-1.1s0.9-0.4,1.5-0.4c0.5,0,1,0.1,1.4,0.3s0.7,0.5,1,0.8
		c0.3,0.3,0.5,0.7,0.6,1.2c0.1,0.4,0.2,0.9,0.2,1.4c0,0.5-0.1,1-0.2,1.4c-0.1,0.4-0.3,0.8-0.6,1.2s-0.6,0.6-1,0.8s-0.8,0.3-1.4,0.3
		c-0.2,0-0.5,0-0.8-0.1c-0.2-0.1-0.5-0.2-0.7-0.3c-0.2-0.1-0.4-0.3-0.6-0.5c-0.2-0.2-0.3-0.4-0.4-0.7h0V92H227v-9.5H227.8z
		 M232.4,84.9c-0.1-0.4-0.2-0.7-0.4-0.9s-0.4-0.5-0.7-0.7c-0.3-0.2-0.6-0.3-1-0.3c-0.5,0-0.9,0.1-1.2,0.2c-0.3,0.2-0.6,0.4-0.8,0.6
		c-0.2,0.3-0.3,0.6-0.4,0.9c-0.1,0.4-0.1,0.7-0.1,1.1c0,0.4,0,0.7,0.1,1.1c0.1,0.4,0.2,0.7,0.4,0.9s0.4,0.5,0.8,0.7
		c0.3,0.2,0.7,0.3,1.1,0.3c0.4,0,0.7-0.1,1-0.3c0.3-0.2,0.5-0.4,0.7-0.7c0.2-0.3,0.3-0.6,0.4-0.9c0.1-0.4,0.1-0.7,0.1-1.1
		C232.5,85.6,232.5,85.3,232.4,84.9z"/>
</g>
</svg>
